<?xml version="1.0" standalone="no"?>
<!DOCTYPE svg PUBLIC "-//W3C//DTD SVG 1.1//EN" "http://www.w3.org/Graphics/SVG/1.1/DTD/svg11.dtd" >
<svg xmlns="http://www.w3.org/2000/svg">
<metadata>
Created by FontPrep 20130207 at Wed Jan  4 11:59:09 2017
 By Rasmus Elken
Copyright \(c\) 2016 by Kontrapunkt A/S. Designed for DONG Energy. All rights reserved.
</metadata>
<defs>
<font id="abf87d246f48f82aae6bc9c3fe884df1" horiz-adv-x='1024' >
  <font-face 
    font-family="MaineSans-Regular"
    font-weight="400"
    font-stretch="normal"
    units-per-em="2048"
    panose-1="0 0 5 0 0 0 0 0 0 0"
    ascent="1638"
    descent="-410"
    x-height="1059"
    cap-height="1526"
    bbox="-1047 -584 2595.01 2116"
    underline-thickness="102"
    underline-position="-102"
    unicode-range="U+000D-25CA"
  />
<missing-glyph 
 />
    <glyph glyph-name=".notdef" 
 />
    <glyph glyph-name=".null" 
 />
    <glyph glyph-name="nonmarkingreturn" horiz-adv-x="681" 
 />
    <glyph glyph-name="CR" unicode="&#xd;" 
 />
    <glyph glyph-name="space" unicode=" " horiz-adv-x="561" 
 />
    <glyph glyph-name="exclam" unicode="!" horiz-adv-x="501" 
d="M252 -12q-53 0 -89 37t-36 91t36 90t89 36t89 -36t36 -90t-36 -91t-89 -37zM162 1526h180v-389l-33 -672h-114l-33 672v389z" />
    <glyph glyph-name="quotedbl" unicode="&#x22;" horiz-adv-x="831" 
d="M516 1597h164v-536h-164v536zM152 1597h163v-536h-163v536z" />
    <glyph glyph-name="numbersign" unicode="#" horiz-adv-x="1421" 
d="M838 584l84 366h-379l-86 -366h381zM20 442v142h285l84 366h-264v142h297l100 428h152l-99 -428h379l99 428h153l-98 -428h264l-35 -142h-262l-86 -366h275l-35 -142h-273l-100 -442h-154l103 442h-381l-100 -442h-152l100 442h-252z" />
    <glyph glyph-name="dollar" unicode="$" horiz-adv-x="1159" 
d="M676 203q111 10 172 73q61 62 57 156t-63 148t-166 94v-471zM297 1130q0 -86 60 -137t173 -92v430q-104 -10 -169 -62q-64 -53 -64 -139zM676 -164h-146v215q-272 35 -442 238l123 119q133 -162 319 -197v512q-161 57 -229 96q-67 39 -95 75q-58 77 -71 128
q-12 51 -12 96q0 156 116 256t291 113v166h146v-170q186 -25 344 -154l-98 -129q-113 94 -246 123v-471q151 -52 217 -94q67 -41 102 -82q84 -98 84 -253q1 -155 -109 -260t-294 -118v-209z" />
    <glyph glyph-name="percent" unicode="%" horiz-adv-x="1800" 
d="M1371 584q-97 0 -163 -66t-66 -147t30 -132q65 -112 215 -112q81 0 147 66q66 67 66 163t-66 162t-163 66zM1372 725q160 0 268 -105q108 -106 107 -264q1 -158 -107 -264t-269 -106t-269 106t-107 264q0 102 49 188q50 86 136 133q86 48 192 48zM225 1174
q-1 -136 113 -200q54 -30 134 -30t144 66t65 162t-64 163q-65 66 -163 66t-163 -66q-66 -66 -66 -161zM1280 1526h170l-922 -1526h-170zM454 803q-161 0 -269 105q-107 105 -107 266t108 264q108 104 269 104q159 0 267 -105t108 -265t-108 -264q-107 -105 -268 -105z" />
    <glyph glyph-name="ampersand" unicode="&#x26;" horiz-adv-x="1411" 
d="M532 150q74 0 147 38t165 123l-350 420q-119 -98 -169 -170q-49 -73 -55 -165t70 -169t192 -77zM524 -16q-184 0 -306 116t-123 281q-1 166 117 302q65 75 179 169q-43 47 -89 118q-46 70 -60 122t-15 108q-1 154 105 250t268 96q199 0 346 -153l-108 -117
q-111 113 -236 113q-86 1 -143 -53t-58 -134q-1 -22 5 -44t12 -45t35 -67q30 -45 43 -58q12 -13 32 -38t25 -28l416 -490l280 266l109 -114l-285 -275l262 -309h-229l-158 188q-115 -108 -214 -156t-210 -48z" />
    <glyph glyph-name="quotesingle" unicode="'" horiz-adv-x="466" 
d="M152 1597h163v-528h-163v528z" />
    <glyph glyph-name="parenleft" unicode="(" horiz-adv-x="573" 
d="M74 646q0 421 248 880h167q-249 -459 -249 -885t249 -887h-167q-248 471 -248 892z" />
    <glyph glyph-name="parenright" unicode=")" horiz-adv-x="573" 
d="M334 641q0 426 -252 885h168q248 -459 248 -880t-248 -892h-168q252 461 252 887z" />
    <glyph glyph-name="asterisk" unicode="*" horiz-adv-x="962" 
d="M414 1579h135v-299l291 94l43 -127l-291 -94l188 -260l-108 -80l-191 262l-190 -262l-111 80l191 260l-291 94l41 127l293 -94v299z" />
    <glyph glyph-name="plus" unicode="+" horiz-adv-x="1263" 
d="M1130 866v-153h-421v-441h-156v441h-422v153h422v426h156v-426h421z" />
    <glyph glyph-name="comma" unicode="," horiz-adv-x="391" 
d="M70 -276l-80 110q92 82 127 165t39 226h163q4 -179 -55 -297t-194 -204z" />
    <glyph glyph-name="hyphen" unicode="-" horiz-adv-x="817" 
d="M680 700v-172h-543v172h543z" />
    <glyph glyph-name="period" unicode="." horiz-adv-x="436" 
d="M227 -12q-45 0 -73 16q-59 33 -61 110q-1 77 63 112t125 1q61 -35 61 -100t-35 -102t-80 -37z" />
    <glyph glyph-name="slash" unicode="/" horiz-adv-x="1067" 
d="M913 1563l134 -80l-875 -1516l-133 80z" />
    <glyph glyph-name="zero" unicode="0" horiz-adv-x="1353" 
d="M676 162q178 0 298 172t120 429t-120 429t-298 172t-297 -172t-119 -429t119 -429t297 -172zM677 -14q-169 0 -307 101t-216 279t-78 397q0 218 78 396q78 177 216 279t286 102q277 0 450 -223q172 -219 172 -581q0 -190 -79 -369q-79 -177 -216 -279t-306 -102z" />
    <glyph glyph-name="one" unicode="1" horiz-adv-x="749" 
d="M578 1526v-1526h-179v1360h-315l53 166h441z" />
    <glyph glyph-name="two" unicode="2" horiz-adv-x="1177" 
d="M889 1037q0 238 -191 311q-59 23 -129 22q-111 0 -212 -61t-179 -172l-129 127q126 172 326 245q96 35 196 35q219 0 361 -135t141 -346q0 -143 -79 -283t-263 -331l-276 -285h669l-53 -164h-991l518 551q162 174 226 285q65 111 65 201z" />
    <glyph glyph-name="three" unicode="3" horiz-adv-x="1230" 
d="M201 395q165 -239 443 -239q142 0 238 95q97 95 97 257t-120 252t-343 90q-43 0 -61 -2l336 512h-652v166h940l-354 -537q135 -25 234 -95q202 -144 202 -398q0 -224 -148 -368t-380 -144q-164 0 -320 80t-247 200z" />
    <glyph glyph-name="four" unicode="4" horiz-adv-x="1316" 
d="M831 436v660l-491 -660h491zM1290 436v-155h-291v-281h-168v281h-804l972 1269v-1114h291z" />
    <glyph glyph-name="five" unicode="5" horiz-adv-x="1263" 
d="M604 1012q252 0 411 -135t159 -367t-158 -378q-158 -148 -400 -148q-162 0 -314 74t-253 202l131 131q78 -111 193 -173t243 -62q168 0 272 97q103 97 103 257t-120 250q-121 90 -287 90t-342 -49l137 725h795l-52 -166h-606l-72 -361q84 13 160 13z" />
    <glyph glyph-name="six" unicode="6" horiz-adv-x="1292" 
d="M266 563q0 -175 114 -293t279 -118t273 108t108 270t-108 270q-109 108 -273 107q-209 0 -366 -153q-27 -96 -27 -191zM668 1071q238 0 396 -155t157 -387q0 -232 -160 -389q-161 -156 -403 -156t-406 166t-164 413q0 164 72 339q144 351 477 624h229q-94 -86 -160 -150
t-153 -166q-88 -104 -147 -200q121 61 262 61z" />
    <glyph glyph-name="seven" unicode="7" horiz-adv-x="1185" 
d="M51 1526h1135l-838 -1526h-203l758 1358h-852v168z" />
    <glyph glyph-name="eight" unicode="8" horiz-adv-x="1300" 
d="M649 150q164 0 272 98q107 98 107 246t-108 246t-270 100q-164 0 -272 -100t-108 -248q0 -96 49 -176t137 -122q88 -44 193 -44zM633 1391q-81 -1 -147 -57t-66 -140t66 -141t163 -57q98 0 164 56q66 58 66 144q0 53 -30 98t-82 71t-134 26zM649 -18q-158 0 -287 66
q-130 66 -202 182t-72 260t77 262t210 182q-131 102 -131 257t116 254q117 99 290 99t290 -99t117 -254t-131 -257q131 -63 209 -181t77 -264q0 -217 -160 -362t-403 -145z" />
    <glyph glyph-name="nine" unicode="9" horiz-adv-x="1234" 
d="M610 621q215 0 359 174q20 84 20 166q-1 181 -109 297t-274 116t-270 -110t-104 -274q0 -165 106 -267t272 -102zM602 1542q162 0 292 -76t203 -209t72 -296q0 -231 -147 -487t-397 -474h-232q309 281 453 514q-113 -63 -244 -63q-233 -1 -393 153t-160 386
q1 232 159 392t394 160z" />
    <glyph glyph-name="colon" unicode=":" horiz-adv-x="440" 
d="M227 -12q-45 0 -73 16q-59 33 -61 110q-1 77 63 112t125 1q61 -35 61 -100t-35 -102t-80 -37zM342 833q0 -54 -35 -91t-80 -37t-73 16q-59 33 -61 99q-1 66 35 102t90 36t89 -36t35 -89z" />
    <glyph glyph-name="semicolon" unicode=";" horiz-adv-x="442" 
d="M72 -276l-82 110q92 82 127 165t39 226h166q2 -179 -56 -297t-194 -204zM220 705q-54 1 -90 37t-36 90t36 91q36 35 90 35t90 -36t36 -89q0 -54 -36 -91t-90 -37z" />
    <glyph glyph-name="less" unicode="&#x3c;" horiz-adv-x="1323" 
d="M1171 1204v-149l-839 -324l839 -323v-154l-1009 405v140z" />
    <glyph glyph-name="equal" unicode="=" horiz-adv-x="1374" 
d="M1178 635v-150h-983v150h983zM1178 1049v-150h-983v150h983z" />
    <glyph glyph-name="greater" unicode="&#x3e;" horiz-adv-x="1302" 
d="M160 1204l1007 -405v-140l-1007 -405v154l837 323l-837 324v149z" />
    <glyph glyph-name="question" unicode="?" horiz-adv-x="1015" 
d="M340 116q0 54 36 90t76 36q97 0 129 -77q9 -25 9 -55t-17 -60q-33 -62 -117 -62q-44 0 -80 37t-36 91zM358 664h48q172 0 292 110t121 264q0 152 -93 242t-243 90q-190 0 -358 -194l-121 122q123 149 302 212q85 30 169 30q233 0 377 -134t143 -353q1 -154 -73 -279
q-74 -126 -204 -196t-292 -74l-68 -2v162z" />
    <glyph glyph-name="at" unicode="@" horiz-adv-x="2156" 
d="M1094 940q-134 0 -224 -91t-90 -228t90 -229t224 -93q166 0 258 117v409q-90 115 -258 115zM1655 162q-199 0 -266 114q-123 -118 -317 -118t-322 131t-127 332q0 201 128 331t308 129q180 0 293 -88v70h151v-614q0 -84 44 -124t112 -40q94 0 159 102t64 254
q0 217 -102 395t-286 280t-406 103q-224 0 -406 -104q-182 -103 -286 -289t-105 -412q0 -348 229 -572t588 -224q281 0 506 121l53 -125q-270 -129 -558 -129q-288 -1 -507 117t-341 330t-122 478t124 480t341 336t479 122q199 0 373 -70t297 -189q123 -120 194 -287
q71 -168 71 -362t-104 -336q-103 -142 -259 -142z" />
    <glyph glyph-name="A" unicode="A" horiz-adv-x="1599" 
d="M512 586h569l-284 598zM1362 0l-203 424h-723l-203 -424h-192l758 1550l760 -1550h-197z" />
    <glyph glyph-name="B" unicode="B" horiz-adv-x="1419" 
d="M809 172q156 0 242 70.5t86 202.5t-85 203t-243 71h-459v-547h459zM711 1354h-361v-467h463q45 0 86 -4q109 94 109 217t-82 188.5t-215 65.5zM1325 442q0 -201 -135 -321.5t-363 -120.5h-659v1526h561q137 0 243.5 -53.5t164 -146.5t57.5 -210q0 -165 -121 -278
q159 -70 221 -224q30 -76 31 -172z" />
    <glyph glyph-name="C" unicode="C" horiz-adv-x="1531" 
d="M887 -18q-336 0 -556 222t-220 560q0 219 100 398t278.5 280.5t397.5 101.5q279 0 493 -172l-106 -145q-166 137 -402.5 137t-402.5 -171t-166 -431t165 -430t419 -170q168 0 311 88q70 43 123 102l133 -123q-106 -117 -256.5 -182t-310.5 -65z" />
    <glyph glyph-name="D" unicode="D" horiz-adv-x="1597" 
d="M719 176q246 0 411.5 167t165.5 420t-165.5 420t-411.5 167h-367v-1174h367zM719 1526q162 0 304 -58.5t244.5 -159t162 -241.5t59.5 -330.5t-100.5 -364.5t-277.5 -273.5t-392 -98.5h-551v1526h551z" />
    <glyph glyph-name="E" unicode="E" horiz-adv-x="1222" 
d="M350 172h774l-53 -172h-901v1526h946l-51 -172h-715v-463h576v-172h-576v-547z" />
    <glyph glyph-name="F" unicode="F" horiz-adv-x="1241" 
d="M348 1354v-467h565v-174h-565v-713h-180v1526h965l-54 -172h-731z" />
    <glyph glyph-name="G" unicode="G" horiz-adv-x="1613" 
d="M1274 723h182v-565q-104 -84 -248.5 -130t-306.5 -46t-308.5 57t-253 158.5t-167.5 248t-61 344.5t103 377t284.5 278t404.5 99q293 0 518 -172l-106 -145q-176 141 -425 141t-418 -170t-169 -436t173 -436t429 -170q213 0 369 94v473z" />
    <glyph glyph-name="H" unicode="H" horiz-adv-x="1624" 
d="M1274 1526h180v-1526h-180v713h-924v-713h-182v1526h182v-641h924v641z" />
    <glyph glyph-name="I" unicode="I" horiz-adv-x="612" 
d="M213 1526h186v-1526h-186v1526z" />
    <glyph glyph-name="J" unicode="J" horiz-adv-x="786" 
d="M629 1526v-971q0 -260 -141.5 -410.5t-383.5 -150.5q-37 0 -63 4v174q20 -2 39 -2q172 0 268 96t96 277v983h185z" />
    <glyph glyph-name="K" unicode="K" horiz-adv-x="1511" 
d="M350 0h-182v1526h182v-781q522 227 744 781h192q-150 -397 -424 -656l565 -870h-225l-485 752q-166 -121 -367 -197v-555z" />
    <glyph glyph-name="L" unicode="L" horiz-adv-x="1198" 
d="M352 172h783l-54 -172h-913v1526h184v-1354z" />
    <glyph glyph-name="M" unicode="M" horiz-adv-x="1798" 
d="M1628 0h-178v1128l-557 -573l-547 573v-1128h-178v1550l725 -751l735 751v-1550z" />
    <glyph glyph-name="N" unicode="N" horiz-adv-x="1710" 
d="M1540 1526v-1549l-1194 1156v-1133h-176v1548l1194 -1151v1129h176z" />
    <glyph glyph-name="O" unicode="O" horiz-adv-x="1769" 
d="M885 162q250 0 416.5 172t166.5 429t-166.5 430t-416.5 173t-417 -173t-167 -430t167 -429t417 -172zM911.5 -18q-190.5 0 -334 59t-246 162.5t-161.5 249t-59 310.5t59 310.5t161.5 248.5t246 162.5t334 59.5t368.5 -101.5t279.5 -280.5t101.5 -399t-101.5 -399.5
t-279.5 -280.5t-368.5 -101z" />
    <glyph glyph-name="P" unicode="P" horiz-adv-x="1376" 
d="M688 709q193 0 298.5 81.5t105.5 239.5q0 106 -50 179q-98 145 -354 145h-336v-645h336zM719 1526q254 0 408.5 -134.5t154.5 -360.5t-154.5 -360t-408.5 -134h-367v-537h-182v1526h549z" />
    <glyph glyph-name="Q" unicode="Q" horiz-adv-x="1783" 
d="M885 162q205 0 358 119l-239 231l126 133l238 -229q100 154 100 335t-75.5 319t-209.5 217t-298 79q-250 0 -417 -173t-167 -430t167 -429t417 -172zM885 -18q-164 0 -307.5 59t-246 162.5t-161.5 249t-59 310.5t59 310.5t161.5 248.5t246 162.5t334 59.5t368.5 -101.5
t279.5 -280.5t101.5 -400q0 -272 -156 -479l168 -162l-125 -133l-170 164q-209 -170 -493 -170z" />
    <glyph glyph-name="R" unicode="R" horiz-adv-x="1460" 
d="M680 719q193 0 294 81t101 236.5t-101.5 236.5t-293.5 81h-334l2 -635h332zM711 547h-361l2 -547h-182v1526h541q252 0 404.5 -134.5t152.5 -355.5q0 -156 -77 -270.5t-216 -169.5q55 -178 165.5 -296t270.5 -146l-18 -166q-167 0 -316 118q-188 149 -282 445
q-41 -4 -84 -4z" />
    <glyph glyph-name="S" unicode="S" horiz-adv-x="1196" 
d="M637 -18q-160 0 -304.5 64.5t-248.5 191.5l133 129q172 -217 424 -217q127 0 200.5 69.5t67.5 192.5q-3 147 -161 224q-70 34 -153 62q-203 70 -315 144q-152 100 -152.5 291.5t130.5 302t326 110.5q256 0 454 -172l-106 -139q-156 143 -332 143t-249 -98
q-38 -51 -38 -120t34 -119t89.5 -79.5t125.5 -58.5q72 -29 144 -53q159 -52 275.5 -150t116.5 -292.5t-127 -310t-334 -115.5z" />
    <glyph glyph-name="T" unicode="T" horiz-adv-x="1392" 
d="M778 1356v-1356h-180v1356h-532v170h1286l-54 -170h-520z" />
    <glyph glyph-name="U" unicode="U" horiz-adv-x="1601" 
d="M1444 649q0 -301 -177 -485t-467 -184t-466 181t-176 478v887h186v-899q0 -211 126 -341t331 -130t330.5 130t125.5 341v899h187v-877z" />
    <glyph glyph-name="V" unicode="V" horiz-adv-x="1497" 
d="M1272 1526h186q-231 -807 -753 -1546l-674 1546h202l506 -1176q355 578 533 1176z" />
    <glyph glyph-name="W" unicode="W" horiz-adv-x="2293" 
d="M2253 1526q-229 -807 -750 -1546l-342 784q-193 -406 -459 -784l-671 1546h202l508 -1184q188 307 330 629l-240 555h203l504 -1176q352 578 528 1176h187z" />
    <glyph glyph-name="X" unicode="X" horiz-adv-x="1542" 
d="M1479 0h-222l-487 657l-489 -657h-218l599 801l-537 725h221l436 -588l424 588h205l-528 -723z" />
    <glyph glyph-name="Y" unicode="Y" horiz-adv-x="1409" 
d="M797 0h-183v664l-561 862h215l443 -684l440 684h205l-559 -860v-666z" />
    <glyph glyph-name="Z" unicode="Z" horiz-adv-x="1310" 
d="M109 1356v170h1140l-864 -1356h832l-52 -170h-1099l872 1356h-829z" />
    <glyph glyph-name="bracketleft" unicode="[" horiz-adv-x="491" 
d="M242 1393v-1504h194v-135h-344v1772h344v-133h-194z" />
    <glyph glyph-name="backslash" unicode="\" horiz-adv-x="1077" 
d="M1053 0h-172l-856 1526h170z" />
    <glyph glyph-name="bracketright" unicode="]" horiz-adv-x="491" 
d="M250 1393h-195v133h344v-1772h-344v135h195v1504z" />
    <glyph glyph-name="asciicircum" unicode="^" horiz-adv-x="1097" 
d="M967 827h-152l-266 537l-270 -537h-148l358 699h121z" />
    <glyph glyph-name="underscore" unicode="_" horiz-adv-x="1040" 
d="M989 -104v-127h-938v127h938z" />
    <glyph glyph-name="grave" unicode="`" 
d="M68 1489h200l181 -301h-166z" />
    <glyph glyph-name="a" unicode="a" horiz-adv-x="1290" 
d="M653 143q98 0 183.5 40t136.5 108v477q-51 68 -136 107.5t-182 39.5q-160 0 -265 -110.5t-105 -275.5t105 -275.5t263 -110.5zM973 1059h172v-1059h-172v88q-137 -108 -353 -108t-368 156t-152 394t152 394t368 155.5t353 -106.5v86z" />
    <glyph glyph-name="b" unicode="b" horiz-adv-x="1286" 
d="M633 143q159 0 265 111q106 112 106 276t-106.5 274.5t-264.5 110.5q-94 0 -179 -37.5t-135 -105.5v-485q49 -66 134.5 -105t179.5 -39zM651 1079q233 0 385 -155.5t152 -394.5t-151.5 -394t-385.5 -155q-197 0 -332 106v-86h-174v1526h174v-551q135 104 332 104z" />
    <glyph glyph-name="c" unicode="c" horiz-adv-x="1128" 
d="M634.5 -18q-141.5 0 -268 70.5t-196.5 196.5t-70 281q0 236 156 392.5t384 156.5t384 -141l-98 -133q-115 111 -273 110q-106 0 -190 -51t-130 -138t-46 -196q0 -166 102.5 -276.5t263.5 -110.5q92 0 173 42t132 114l123 -113q-76 -94 -190.5 -149t-256 -55z" />
    <glyph glyph-name="d" unicode="d" horiz-adv-x="1282" 
d="M655 915q-160 0 -265 -110.5t-105 -275.5t105 -275.5t249 -110.5q218 0 324 138v499q-49 61 -132 98t-176 37zM963 1526h174v-1526h-174v82q-133 -102 -328 -102q-231 0 -383 155.5t-152 394t151.5 394t383.5 155.5q195 0 328 -100v547z" />
    <glyph glyph-name="e" unicode="e" horiz-adv-x="1232" 
d="M629 922q-127 0 -219.5 -83t-118.5 -216h657q-30 180 -168 260q-68 39 -151 39zM649 143q201 0 320 154l121 -113q-78 -96 -192 -150t-249 -54q-236 0 -392.5 158.5t-156.5 392.5t151.5 391t373 157t365 -151.5t143.5 -376.5q0 -45 -3 -76h-843q16 -145 117.5 -238.5
t244.5 -93.5z" />
    <glyph glyph-name="f" unicode="f" horiz-adv-x="796" 
d="M605 1386q-56 0 -97 -26q-86 -53 -86 -201v-100h270l-51 -156h-219v-903h-172v903h-195v156h195v106q0 176 94 274.5t246 98.5q92 0 182 -39l-45 -137q-66 24 -122 24z" />
    <glyph glyph-name="g" unicode="g" horiz-adv-x="1290" 
d="M653 143q98 0 183.5 40t134.5 108v477q-49 68 -134 107.5t-182 39.5q-160 0 -265 -110.5t-105 -275.5t105 -275.5t263 -110.5zM971 1059h174v-801q0 -423 -294 -591q-166 -95 -405 -103l-4 168q277 4 418 153q74 78 98 193q-133 -98 -323 -98q-231 0 -383 155.5t-152 394
t151.5 394t368 155.5t351.5 -106v86z" />
    <glyph glyph-name="h" unicode="h" horiz-adv-x="1212" 
d="M648.5 1081q189.5 0 309 -129t119.5 -340v-612h-174v594q0 150 -74.5 237t-203.5 87q-178 0 -306 -140v-778h-174v1526h174v-555q140 110 329.5 110z" />
    <glyph glyph-name="i" unicode="i" horiz-adv-x="530" 
d="M178 0v1059h174v-1059h-174zM256 1264q-43 0 -79 33.5t-36 84t36 84t79 33.5t71.5 -15.5t44 -43t15.5 -60t-15.5 -59.5t-44 -42t-71.5 -15z" />
    <glyph glyph-name="j" unicode="j" horiz-adv-x="569" 
d="M-47 -422v150h14q127 0 186 61q58 61 58 221v1049h174v-1030q0 -233 -98 -342t-314 -109h-20zM304 1266q-52 0 -87 34t-35 82q0 49 35 83t87 34t87 -34t35 -83q0 -48 -35 -82t-87 -34z" />
    <glyph glyph-name="k" unicode="k" horiz-adv-x="1187" 
d="M319 0h-174v1534h174v-977q375 147 543 502h189q-123 -272 -322 -445l412 -614h-213l-338 510q-121 -78 -271 -131v-379z" />
    <glyph glyph-name="l" unicode="l" horiz-adv-x="675" 
d="M473 -8q-150 0 -239 94t-89 272v1168h177v-1159q0 -104 45 -163t131 -59q41 0 92 15l28 -144q-69 -24 -145 -24z" />
    <glyph glyph-name="m" unicode="m" horiz-adv-x="1943" 
d="M1358 1081q209 0 329.5 -129t120.5 -340v-612h-174v594q0 150 -74.5 237t-203.5 87q-176 0 -301 -138q23 -78 22 -168v-612h-174v594q0 150 -74.5 237t-203.5 87q-178 0 -306 -140v-778h-174v1059h174v-88q139 111 322 110q217 0 340 -157q168 157 377 157z" />
    <glyph glyph-name="n" unicode="n" horiz-adv-x="1212" 
d="M647.5 1081q188.5 0 309 -129t120.5 -340v-612h-174v594q0 150 -74.5 237t-203.5 87q-178 0 -306 -140v-778h-174v1059h174v-88q140 110 328.5 110z" />
    <glyph glyph-name="o" unicode="o" horiz-adv-x="1306" 
d="M653.5 143q159.5 0 266 111t106.5 275.5t-106.5 275t-266 110.5t-266 -110.5t-106.5 -275t106.5 -275.5t266 -111zM654.5 -20q-236.5 0 -395.5 157.5t-159 392t159 392t395.5 157.5t395 -157.5t158.5 -392t-158.5 -392t-395 -157.5z" />
    <glyph glyph-name="p" unicode="p" horiz-adv-x="1286" 
d="M633 143q158 0 264.5 111t106.5 275.5t-106.5 275t-264.5 110.5q-96 0 -180 -37.5t-134 -105.5v-485q49 -66 133.5 -105t180.5 -39zM668 1079q214 0 367 -155.5t153 -394.5t-152.5 -394t-367 -155t-349.5 106v-506h-174v1479h174v-84q135 104 349 104z" />
    <glyph glyph-name="q" unicode="q" horiz-adv-x="1284" 
d="M653 143q94 0 178 37t134 103v493q-49 66 -133 102.5t-177 36.5q-160 0 -265 -110.5t-105 -275.5t105 -275.5t263 -110.5zM965 1059h174v-1415l-174 -82v520q-135 -102 -330 -102q-231 0 -383 156t-152 394t152 394t366 155.5t347 -102.5v82z" />
    <glyph glyph-name="r" unicode="r" horiz-adv-x="804" 
d="M319 0h-174v1059h174v-137q105 105 272 141q75 16 146 10v-162q-113 -2 -230.5 -50t-187.5 -144v-717z" />
    <glyph glyph-name="s" unicode="s" horiz-adv-x="907" 
d="M492.5 -16q-138.5 0 -252 51t-187.5 139l125 121q111 -156 297 -156q74 0 127 42t53 116t-58 115t-171.5 64t-181.5 60q-140 76 -140 242q0 127 102.5 213t256.5 86q205 0 334 -137l-101 -121q-98 104 -221 104.5t-171 -64.5q-24 -32 -23 -71q0 -78 53 -108.5t190 -61.5
q307 -66 307 -325q0 -135 -100 -222t-238.5 -87z" />
    <glyph glyph-name="t" unicode="t" horiz-adv-x="892" 
d="M600 -10q-156 0 -253 103.5t-97 275.5v534h-184v156h184v342h174v-342h281l-52 -156h-229v-526q0 -147 96 -205q45 -27 111.5 -27t146.5 39l49 -141q-115 -53 -227 -53z" />
    <glyph glyph-name="u" unicode="u" horiz-adv-x="1210" 
d="M891 1059h174v-1059h-174v90q-135 -113 -326 -113t-310.5 129.5t-119.5 337.5v615h174v-592q1 -200 135 -285q64 -41 150 -41q182 0 297 140v778z" />
    <glyph glyph-name="v" unicode="v" horiz-adv-x="1196" 
d="M950 1059h187q-92 -360 -251 -638t-358 -439l-485 1077h197l346 -780q239 319 364 780z" />
    <glyph glyph-name="w" unicode="w" horiz-adv-x="1800" 
d="M1554 1059h187q-92 -360 -251 -638t-357 -439l-226 522q-168 -313 -397 -522l-467 1077h197l325 -772q152 201 254 415l-153 357h196l328 -780q239 321 364 780z" />
    <glyph glyph-name="x" unicode="x" horiz-adv-x="1089" 
d="M668 551q260 -227 346 -551h-187q-76 254 -282 451q-209 -197 -285 -451h-184q88 322 346 549q-248 209 -336 510h180q76 -227 281 -410q201 180 276 410h178q-87 -301 -333 -508z" />
    <glyph glyph-name="y" unicode="y" horiz-adv-x="1224" 
d="M975 1059h182q-247 -1019 -854 -1355q-168 -93 -346 -120l-6 166q95 16 203 66q185 84 325 231l-446 1012h205l368 -858q226 311 369 858z" />
    <glyph glyph-name="z" unicode="z" horiz-adv-x="1009" 
d="M74 911v148h870l-592 -912h584l-51 -147h-828l605 911h-588z" />
    <glyph glyph-name="braceleft" unicode="{" horiz-adv-x="630" 
d="M582 -244q-145 0 -227 73q-81 73 -81 210v289q0 129 -44 184t-150 55h-27v148h27q106 0 150 55t44 184v289q0 137 81 210t227 73h22v-125q-102 -4 -140 -49t-38 -154v-254q0 -225 -156 -303q156 -78 156 -303v-254q0 -162 91 -189q34 -11 87 -14v-125h-22z" />
    <glyph glyph-name="bar" unicode="|" horiz-adv-x="532" 
d="M328 1597v-1982h-123v1982h123z" />
    <glyph glyph-name="braceright" unicode="}" horiz-adv-x="630" 
d="M49 -244h-22v125q102 4 140 49t38 154v254q0 225 155 303q-156 78 -155 303v254q0 109 -38 154t-140 49v125h22q198 0 269 -127q36 -63 36 -156v-289q0 -129 45 -184t152 -55h27v-148h-27q-105 0 -151 -55t-46 -184v-289q0 -185 -140 -251q-69 -32 -165 -32z" />
    <glyph glyph-name="asciitilde" unicode="~" 
 />
    <glyph glyph-name="uni00A0" unicode="&#xa0;" horiz-adv-x="530" 
 />
    <glyph glyph-name="exclamdown" unicode="&#xa1;" horiz-adv-x="499" 
d="M342 -371h-180v389l33 672h114l33 -672v-389zM252 1167q53 1 89 -35t36 -82q-1 -46 -17 -74q-34 -60 -97 -62q-64 -1 -100 36t-36 91t36 90t89 36z" />
    <glyph glyph-name="cent" unicode="&#xa2;" horiz-adv-x="1204" 
d="M328 733q0 -137 72 -238t194 -135v746q-164 -47 -234 -206q-32 -77 -32 -167zM741 0h-147v193q-203 31 -328 181t-125 358q0 210 125 360t328 182v205h147v-199q186 -14 326 -139l-100 -133q-94 92 -226 108v-766q164 20 258 152l123 -111q-68 -86 -168 -140t-213 -65
v-186z" />
    <glyph glyph-name="sterling" unicode="&#xa3;" horiz-adv-x="1193" 
d="M438 164h705l-51 -164h-1002v164h168v495h-174v166h174v265q0 200 128 326t331 126q246 0 413 -213l-131 -121q-123 168 -286 168q-125 0 -200 -81t-75 -214v-256h500v-166h-500v-495z" />
    <glyph glyph-name="currency" unicode="&#xa4;" horiz-adv-x="1185" 
d="M588 469q112 0 188 76q76 77 76 189t-76 188t-188 75q-155 0 -230 -129q-35 -61 -34 -135q0 -113 76 -189t188 -75zM1008 734q0 -126 -62 -226l125 -125l-125 -125l-125 125q-104 -66 -231 -66t-230 62l-120 -121l-125 125l118 119q-65 102 -65 232t68 233l-121 123
l125 124l122 -124q100 61 226 61t229 -66l129 129l125 -124l-127 -127q64 -103 64 -229z" />
    <glyph glyph-name="yen" unicode="&#xa5;" horiz-adv-x="1386" 
d="M1171 797v-152h-393v-158h393v-149h-393v-338h-170v338h-393v149h393v158h-393v152h309l-475 729h203l446 -692l447 692h192l-475 -729h309z" />
    <glyph glyph-name="brokenbar" unicode="&#xa6;" horiz-adv-x="532" 
d="M328 430v-815h-123v815h123zM328 1597v-753h-123v753h123z" />
    <glyph glyph-name="section" unicode="&#xa7;" 
 />
    <glyph glyph-name="dieresis" unicode="&#xa8;" 
d="M591 1229q-50 0 -83 32.5t-33 76.5q-1 44 15 70q33 56 92 56t93 -33.5t33 -85t-34 -84t-83 -32.5zM176 1229q-49 0 -83 32.5t-34 84t34 85t75 33.5q42 0 68 -15q58 -33 57.5 -93.5t-34.5 -93.5t-83 -33z" />
    <glyph glyph-name="copyright" unicode="&#xa9;" horiz-adv-x="1728" 
d="M882 229q-225 0 -377 150q-153 150 -153 383q0 152 69 274t190 192q122 69 272 68q193 0 342 -120l-80 -111q-111 96 -271 96q-160 -1 -269 -113t-109 -285t110 -286t282 -113q173 0 288 134l98 -95q-72 -82 -176 -128t-216 -46zM864 59q293 0 490 202t196 502
q0 300 -196 502q-197 201 -490 201q-294 0 -490 -202t-196 -500q0 -199 89 -360t247 -253t350 -92zM864 -47q-168 0 -316 62q-300 126 -423 426q-61 151 -61 351t104 384q104 186 288 291t407 105q225 0 409 -104q184 -106 288 -291t103 -415q0 -170 -61 -321
q-121 -299 -421 -426q-149 -62 -317 -62z" />
    <glyph glyph-name="ordfeminine" unicode="&#xaa;" horiz-adv-x="1290" 
d="M653 143q98 0 183.5 40t136.5 108v477q-51 68 -136 107.5t-182 39.5q-160 0 -265 -110.5t-105 -275.5t105 -275.5t263 -110.5zM973 1059h172v-1059h-172v88q-137 -108 -353 -108t-368 156t-152 394t152 394t368 155.5t353 -106.5v86z" />
    <glyph glyph-name="guillemotleft" unicode="&#xab;" horiz-adv-x="1196" 
d="M1036 1059l-309 -449l309 -452h-190l-316 452l316 449h190zM588 1059l-309 -449l309 -452h-191l-315 452l315 449h191z" />
    <glyph glyph-name="logicalnot" unicode="&#xac;" 
 />
    <glyph glyph-name="uni00AD" unicode="&#xad;" 
d="M680 700v-172h-543v172h543z" />
    <glyph glyph-name="registered" unicode="&#xae;" horiz-adv-x="1220" 
d="M616 1108q125 0 125 94t-125 94h-96v-188h96zM520 1022v-182h-90v542h195q92 0 150 -49t59 -131q-1 -113 -103 -160q23 -59 55 -87t82 -37l-16 -84q-14 2 -55 10t-87 55t-71 123h-119zM997 1096q-1 170 -111 284t-276 113q-166 0 -276 -114q-110 -115 -111 -283t111 -281
t276 -113q109 -2 198 50t139 143q50 90 50 201zM1090 1096q0 -207 -138 -345q-138 -139 -342 -139q-205 0 -342 138t-137 346q0 207 137 346t342 139q204 0 342 -139t138 -346z" />
    <glyph glyph-name="macron" unicode="&#xaf;" 
d="M70 1417h749v-139h-749v139z" />
    <glyph glyph-name="degree" unicode="&#xb0;" horiz-adv-x="864" 
d="M433 999q93 1 155 63t61 154q0 92 -61 155q-60 63 -154 63t-156 -62t-62 -155q0 -92 62 -155t155 -63zM432 887q-141 0 -236 94t-96 236q0 91 44 167t120 119t170 43q138 0 234 -94t96 -235t-95 -236q-96 -94 -237 -94z" />
    <glyph glyph-name="plusminus" unicode="&#xb1;" horiz-adv-x="1294" 
 />
    <glyph glyph-name="uni00B2" unicode="&#xb2;" 
d="M889 1037q0 238 -191 311q-59 23 -129 22q-111 0 -212 -61t-179 -172l-129 127q126 172 326 245q96 35 196 35q219 0 361 -135t141 -346q0 -143 -79 -283t-263 -331l-276 -285h669l-53 -164h-991l518 551q162 174 226 285q65 111 65 201z" />
    <glyph glyph-name="uni00B3" unicode="&#xb3;" 
d="M201 395q165 -239 443 -239q142 0 238 95q97 95 97 257t-120 252t-343 90q-43 0 -61 -2l336 512h-652v166h940l-354 -537q135 -25 234 -95q202 -144 202 -398q0 -224 -148 -368t-380 -144q-164 0 -320 80t-247 200z" />
    <glyph glyph-name="acute" unicode="&#xb4;" 
d="M463 1489l-213 -301h-166l178 301h201z" />
    <glyph glyph-name="uni00B5" unicode="&#xb5;" horiz-adv-x="1220" 
d="M901 1059h174v-1059h-174v90q-135 -113 -309 -113t-289 93v-414h-158v1403h174v-592q0 -200 135 -285q65 -41 150 -41q182 0 297 140v778z" />
    <glyph glyph-name="paragraph" unicode="&#xb6;" 
 />
    <glyph glyph-name="periodcentered" unicode="&#xb7;" horiz-adv-x="434" 
d="M218 633q-54 0 -90 37t-36 91t36 90t90 36t89 -36t35 -90t-35 -91t-89 -37z" />
    <glyph glyph-name="cedilla" unicode="&#xb8;" horiz-adv-x="561" 
d="M263 -449q-93 0 -185 25l16 115q82 -27 148 -27q117 0 116 82q0 53 -54 73.5t-167 18.5l49 176l117 2l-22 -92q100 -2 155.5 -52t55.5 -137t-68 -135.5t-161 -48.5z" />
    <glyph glyph-name="uni00B9" unicode="&#xb9;" 
d="M578 1526v-1526h-179v1360h-315l53 166h441z" />
    <glyph glyph-name="ordmasculine" unicode="&#xba;" horiz-adv-x="1306" 
d="M653.5 143q159.5 0 266 111t106.5 275.5t-106.5 275t-266 110.5t-266 -110.5t-106.5 -275t106.5 -275.5t266 -111zM654.5 -20q-236.5 0 -395.5 157.5t-159 392t159 392t395.5 157.5t395 -157.5t158.5 -392t-158.5 -392t-395 -157.5z" />
    <glyph glyph-name="guillemotright" unicode="&#xbb;" horiz-adv-x="1212" 
d="M815 1059l318 -449l-318 -452h-190l311 452l-311 449h190zM367 1059l315 -449l-315 -452h-191l309 452l-309 449h191z" />
    <glyph glyph-name="onequarter" unicode="&#xbc;" 
 />
    <glyph glyph-name="onehalf" unicode="&#xbd;" 
 />
    <glyph glyph-name="threequarters" unicode="&#xbe;" 
 />
    <glyph glyph-name="questiondown" unicode="&#xbf;" horiz-adv-x="1005" 
d="M606 508h-47q-174 0 -294 -111t-120 -263q1 -152 93 -242t243 -91q190 0 359 195l121 -123q-123 -150 -303 -211q-85 -29 -169 -29q-155 1 -273 61t-184 171t-65 254q0 233 163 388t409 161l67 4v-164zM499 1184q54 0 90 -36t36 -90t-36 -91t-90 -37t-90 37t-36 91t36 90
t90 36z" />
    <glyph glyph-name="Agrave" unicode="&#xc0;" horiz-adv-x="1599" 
d="M512 586h569l-284 598zM1362 0l-203 424h-723l-203 -424h-192l758 1550l760 -1550h-197zM987 1655h-166l-213 301h201z" />
    <glyph glyph-name="Aacute" unicode="&#xc1;" horiz-adv-x="1599" 
d="M512 586h569l-284 598zM1362 0l-203 424h-723l-203 -424h-192l758 1550l760 -1550h-197zM1040 1956l-213 -301h-165l178 301h200z" />
    <glyph glyph-name="Acircumflex" unicode="&#xc2;" horiz-adv-x="1599" 
d="M512 586h569l-284 598zM1362 0l-203 424h-723l-203 -424h-192l758 1550l760 -1550h-197zM799 1845l-170 -188h-174l254 291h188l254 -291h-176z" />
    <glyph glyph-name="Atilde" unicode="&#xc3;" horiz-adv-x="1599" 
d="M512 586h569l-284 598zM1362 0l-203 424h-723l-203 -424h-192l758 1550l760 -1550h-197zM664 1782q-78 0 -123 -84l-111 76q74 156 225 155q83 0 185 -45t153 -45q72 0 115 84l106 -74q-39 -85 -88 -121q-48 -36 -120 -36t-182 45t-160 45z" />
    <glyph glyph-name="Adieresis" unicode="&#xc4;" horiz-adv-x="1599" 
d="M512 586h569l-284 598zM1362 0l-203 424h-723l-203 -424h-192l758 1550l760 -1550h-197zM1146 1323q-50 0 -85 34t-35 84t34 84t86 34t86 -34t34 -84t-35 -84t-85 -34zM436.5 1323q-22.5 0 -40.5 5q-32 9 -57.5 41t-25.5 77t35 79t86 34t86 -34t35 -72t-9 -59.5
t-25.5 -38t-39 -24.5t-45 -8z" />
    <glyph glyph-name="Aring" unicode="&#xc5;" horiz-adv-x="1615" 
d="M512 588h586l-293 620zM804 1661q-75 0 -111 -65q-17 -30 -17 -66t17 -64q37 -63 101 -63t102 37t38 82q0 83 -65 122q-29 17 -65 17zM557 1547q0 85 72 156t176 71t175 -71t71 -155q0 -159 -121 -227l641 -1321h-197l-203 430h-733l-202 -430h-191l639 1319
q-127 69 -127 228z" />
    <glyph glyph-name="AE" unicode="&#xc6;" horiz-adv-x="2183" 
d="M1106 616v744h-35l-459 -744h494zM1294 172h774l-51 -172h-911v453h-594l-279 -453h-204l948 1526h1083l-51 -172h-715v-463h576v-172h-576v-547z" />
    <glyph glyph-name="Ccedilla" unicode="&#xc7;" horiz-adv-x="1531" 
d="M1126 -265q0 -87 -66.5 -135.5t-160.5 -48.5t-186 25l16 115q84 -27 148 -27q117 0 116 82q0 53 -53 73.5t-168 18.5l41 146q-307 27 -504.5 244.5t-197.5 533.5q0 221 100 400t278.5 280.5t397.5 101.5q279 0 493 -172l-106 -145q-166 137 -402.5 137t-402.5 -171
t-166 -431t165 -430t419 -170q168 0 311 88q70 43 123 102l133 -123q-134 -145 -330 -209q-96 -32 -194 -38l-15 -58q100 -2 155.5 -52t55.5 -137z" />
    <glyph glyph-name="Egrave" unicode="&#xc8;" horiz-adv-x="1222" 
d="M350 172h774l-53 -172h-901v1526h946l-51 -172h-715v-463h576v-172h-576v-547zM807 1655h-166l-215 301h201z" />
    <glyph glyph-name="Eacute" unicode="&#xc9;" horiz-adv-x="1222" 
d="M350 172h774l-53 -172h-901v1526h946l-51 -172h-715v-463h576v-172h-576v-547zM858 1956l-213 -301h-166l178 301h201z" />
    <glyph glyph-name="Ecircumflex" unicode="&#xca;" horiz-adv-x="1222" 
d="M350 172h774l-53 -172h-901v1526h946l-51 -172h-715v-463h576v-172h-576v-547zM618 1845l-172 -188h-174l254 291h189l256 -291h-178z" />
    <glyph glyph-name="Edieresis" unicode="&#xcb;" horiz-adv-x="1222" 
d="M350 172h774l-53 -172h-901v1526h946l-51 -172h-715v-463h576v-172h-576v-547zM825 1696q-49 0 -81.5 32.5t-33.5 84t32.5 85t82.5 33.5t83 -33.5t34 -85t-34 -84t-83 -32.5zM411.5 1696q-49.5 0 -83 32.5t-33.5 84t32.5 85t83 33.5t84 -33.5t33.5 -85t-33.5 -84
t-83 -32.5z" />
    <glyph glyph-name="Igrave" unicode="&#xcc;" horiz-adv-x="612" 
d="M213 1526h186v-1526h-186v1526zM115 1956h200l181 -301h-166z" />
    <glyph glyph-name="Iacute" unicode="&#xcd;" horiz-adv-x="612" 
d="M213 1526h186v-1526h-186v1526zM547 1956l-213 -301h-166l178 301h201z" />
    <glyph glyph-name="Icircumflex" unicode="&#xce;" horiz-adv-x="612" 
d="M213 1526h186v-1526h-186v1526zM659 1657h-178l-176 188l-170 -188h-174l254 291h188z" />
    <glyph glyph-name="Idieresis" unicode="&#xcf;" horiz-adv-x="612" 
d="M213 1526h186v-1526h-186v1526zM506 1696q-41 0 -74 32.5t-34 84t33 85t83 33.5t83 -33.5t34 -76t-15.5 -70t-42 -41.5t-67.5 -14zM99.5 1696q-50.5 0 -83 32.5t-32.5 84t32.5 85t83 33.5t84 -33.5t33.5 -85t-33.5 -84t-84 -32.5z" />
    <glyph glyph-name="Eth" unicode="&#xd0;" horiz-adv-x="1619" 
d="M768 176q248 0 413 167t165 420t-165 420t-413 167h-367v-498h340v-127h-340v-549h367zM768 1526q217 0 393 -98.5t277.5 -273.5t101.5 -391t-101.5 -391t-277.5 -273.5t-393 -98.5h-549v725h-162v129h162v672h549z" />
    <glyph glyph-name="Ntilde" unicode="&#xd1;" horiz-adv-x="1710" 
d="M1540 1526v-1549l-1194 1156v-1133h-176v1548l1194 -1151v1129h176zM717 1782q-78 0 -123 -84l-111 76q76 156 226 155q82 0 184 -45t154 -45q72 0 114 84l107 -74q-39 -84 -88.5 -120.5t-121.5 -36.5t-180 45q-110 45 -161 45z" />
    <glyph glyph-name="Ograve" unicode="&#xd2;" horiz-adv-x="1769" 
d="M885 162q250 0 416.5 172t166.5 429t-166.5 430t-416.5 173t-417 -173t-167 -430t167 -429t417 -172zM911.5 -18q-190.5 0 -334 59t-246 162.5t-161.5 249t-59 310.5t59 310.5t161.5 248.5t246 162.5t334 59.5t368.5 -101.5t279.5 -280.5t101.5 -399t-101.5 -399.5
t-279.5 -280.5t-368.5 -101zM692 1956h201l178 -301h-166z" />
    <glyph glyph-name="Oacute" unicode="&#xd3;" horiz-adv-x="1769" 
d="M885 162q250 0 416.5 172t166.5 429t-166.5 430t-416.5 173t-417 -173t-167 -430t167 -429t417 -172zM911.5 -18q-190.5 0 -334 59t-246 162.5t-161.5 249t-59 310.5t59 310.5t161.5 248.5t246 162.5t334 59.5t368.5 -101.5t279.5 -280.5t101.5 -399t-101.5 -399.5
t-279.5 -280.5t-368.5 -101zM1122 1956l-213 -301h-166l181 301h198z" />
    <glyph glyph-name="Ocircumflex" unicode="&#xd4;" horiz-adv-x="1769" 
d="M885 162q250 0 416.5 172t166.5 428q0 170 -75.5 308t-209.5 217t-298 79q-250 0 -417 -173t-167 -430t167 -429t417 -172zM911.5 -18q-190.5 0 -334 59t-246 162.5t-161.5 249t-59 310.5t59 310.5t161.5 248.5t246 162.5t334 59.5t368.5 -101.5t279.5 -280.5t101.5 -399
t-101.5 -399.5t-279.5 -280.5t-368.5 -101zM1235 1657h-178l-174 188l-170 -188h-176l254 291h190z" />
    <glyph glyph-name="Otilde" unicode="&#xd5;" horiz-adv-x="1769" 
d="M885 162q250 0 416.5 172t166.5 430q0 168 -75.5 306t-209.5 217t-298 79q-250 0 -417 -173t-167 -430t167 -429t417 -172zM885 -18q-217 0 -395.5 101t-278.5 280.5t-100 400.5q0 164 59 309.5t161.5 248.5t246 162.5t334 59.5t368.5 -101.5t279.5 -280.5t101.5 -399
t-101.5 -399.5t-279.5 -280.5t-395 -101zM1077 1839q70 0 113 84l106 -74q-37 -84 -86 -120.5t-121.5 -36.5t-181 45t-159.5 45q-80 0 -123 -84l-113 76q76 156 227 155q82 0 184.5 -45t153.5 -45z" />
    <glyph glyph-name="Odieresis" unicode="&#xd6;" horiz-adv-x="1769" 
d="M885 162q250 0 416.5 172t166.5 428q0 170 -75.5 308t-209.5 217t-298 79q-250 0 -417 -173t-167 -430t167 -429t417 -172zM911.5 -18q-190.5 0 -334 59t-246 162.5t-161.5 249t-59 310.5t59 310.5t161.5 248.5t246 162.5t334 59.5t368.5 -101.5t279.5 -280.5t101.5 -399
t-101.5 -399.5t-279.5 -280.5t-368.5 -101zM1091.5 1696q-49.5 0 -83 32.5t-33.5 84t32.5 85t74.5 33.5q44 0 70 -15q56 -32 55 -93.5t-33.5 -94t-82 -32.5zM685 1696q-41 0 -67 14q-56 31 -56.5 92t32.5 95t83 34t83 -33.5t33 -85t-33 -84t-75 -32.5z" />
    <glyph glyph-name="multiply" unicode="&#xd7;" horiz-adv-x="1198" 
d="M1047 1135l-342 -342l342 -340l-105 -105l-342 342l-342 -342l-104 105l342 340l-342 342l104 104l342 -342l340 342z" />
    <glyph glyph-name="Oslash" unicode="&#xd8;" horiz-adv-x="1769" 
d="M885 162q250 0 416.5 172t166.5 428q0 203 -106 356l-836 -835q154 -121 359 -121zM301 762q0 -205 113 -363l837 840q-158 127 -366 127q-250 0 -417 -173t-167 -431zM1661 762q0 -219 -101.5 -398.5t-279.5 -280.5t-395 -101q-283 0 -492 168l-166 -166l-112 116
l164 164q-168 211 -168 498q0 166 59 311.5t161.5 248.5t246 162.5t307.5 59.5q287 0 497 -172l152 152l115 -117l-152 -152q164 -211 164 -493z" />
    <glyph glyph-name="Ugrave" unicode="&#xd9;" horiz-adv-x="1601" 
d="M1444 649q0 -301 -177 -485t-467 -184t-466 181t-176 478v887h186v-899q0 -211 126 -341t331 -130t330.5 130t125.5 341v899h187v-877zM608 1956h201l178 -301h-166z" />
    <glyph glyph-name="Uacute" unicode="&#xda;" horiz-adv-x="1601" 
d="M1444 649q0 -301 -177 -485t-467 -184t-466 181t-176 478v887h186v-899q0 -211 126 -341t331 -130t330.5 130t125.5 341v899h187v-877zM1038 1956l-213 -301h-166l179 301h200z" />
    <glyph glyph-name="Ucircumflex" unicode="&#xdb;" horiz-adv-x="1601" 
d="M1444 649q0 -301 -177 -485t-467 -184t-466 181t-176 478v887h186v-899q0 -211 126 -341t331 -130t330.5 130t125.5 341v899h187v-877zM1151 1657h-178l-174 188l-170 -188h-176l254 291h188z" />
    <glyph glyph-name="Udieresis" unicode="&#xdc;" horiz-adv-x="1601" 
d="M1444 649q0 -301 -177 -485t-467 -184t-466 181t-176 478v887h186v-899q0 -211 126 -341t331 -130t330.5 130t125.5 341v899h187v-877zM1006.5 1696q-50.5 0 -83 32.5t-32.5 84t32.5 85t83 33.5t84 -33.5t32.5 -85t-33.5 -84t-83 -32.5zM600 1696q-42 0 -68 14
q-58 30 -57.5 91.5t34.5 95.5t83 34t83 -33.5t34 -85t-34 -84t-75 -32.5z" />
    <glyph glyph-name="Yacute" unicode="&#xdd;" horiz-adv-x="1409" 
d="M797 0h-183v664l-561 862h215l443 -684l440 684h205l-559 -860v-666zM944 1956l-213 -301h-166l178 301h201z" />
    <glyph glyph-name="Thorn" unicode="&#xde;" horiz-adv-x="1292" 
d="M623 543q190 0 296 82q105 81 105 239t-105 241t-296 83h-287v-645h287zM651 1360q254 0 409 -135t154 -361q0 -150 -70 -262t-197 -173q-128 -60 -296 -60h-315v-369h-182v1679h182v-319h315z" />
    <glyph glyph-name="germandbls" unicode="&#xdf;" horiz-adv-x="1271" 
d="M842 1145q0 102 -62.5 165.5t-163.5 63.5h-6q-127 0 -201.5 -90t-74.5 -242v-1042h-180v1063q0 217 123.5 347t328.5 130h12q182 0 293 -108.5t111 -280.5t-141 -299q145 -47 228 -157.5t83 -262.5q0 -203 -126 -324.5t-337 -121.5q-80 0 -151 14v170q74 -14 133 -14
q139 0 218 75.5t79 200.5q0 84 -42 150q-88 137 -286 141l-2 162q164 100 164 260z" />
    <glyph glyph-name="agrave" unicode="&#xe0;" horiz-adv-x="1290" 
d="M653 143q205 0 320 148v477q-51 68 -136 107.5t-182 39.5q-160 0 -265 -110.5t-105 -275.5t105 -275.5t263 -110.5zM973 1059h172v-1059h-172v88q-137 -109 -353 -108.5t-368 156t-152 394t151.5 394t368 155.5t353.5 -106v86zM838 1188h-166l-213 301h198z" />
    <glyph glyph-name="aacute" unicode="&#xe1;" horiz-adv-x="1290" 
d="M653 143q205 0 320 148v477q-51 68 -136 107.5t-182 39.5q-160 0 -265 -110.5t-105 -275.5t105 -275.5t263 -110.5zM973 1059h172v-1059h-172v88q-137 -109 -353 -108.5t-368 156t-152 394t151.5 394t368 155.5t353.5 -106v86zM889 1489l-213 -301h-166l178 301h201z" />
    <glyph glyph-name="acircumflex" unicode="&#xe2;" horiz-adv-x="1290" 
d="M653 143q205 0 320 148v477q-51 68 -136 107.5t-182 39.5q-160 0 -265 -110.5t-105 -275.5t105 -275.5t263 -110.5zM973 1059h172v-1059h-172v88q-137 -109 -353 -108.5t-368 156t-152 394t151.5 394t368 155.5t353.5 -106v86zM649 1378l-172 -188h-174l254 291h188
l256 -291h-178z" />
    <glyph glyph-name="atilde" unicode="&#xe3;" horiz-adv-x="1290" 
d="M653 143q98 0 183.5 40t136.5 108v477q-51 68 -136 107.5t-182 39.5q-160 0 -265 -110.5t-105 -275.5t105 -275.5t263 -110.5zM973 1059h172v-1059h-172v88q-137 -108 -353 -108t-368 156t-152 394t152 394t368 155.5t353 -106.5v86zM512 1315q-78 0 -123 -84l-110 76
q76 156 227 155q80 0 183 -45t153 -45q72 0 114 84l107 -74q-39 -84 -88 -120.5t-121 -36.5t-182 45t-160 45z" />
    <glyph glyph-name="adieresis" unicode="&#xe4;" horiz-adv-x="1290" 
d="M653 143q205 0 320 148v477q-51 68 -136 107.5t-182 39.5q-160 0 -265 -110.5t-105 -275.5t105 -275.5t263 -110.5zM973 1059h172v-1059h-172v88q-137 -109 -353 -108.5t-368 156t-152 394t151.5 394t368 155.5t353.5 -106v86zM856 1229q-49 0 -82 32.5t-33 76.5
q1 44 15 70q31 56 91 56t93 -33.5t33 -85t-34 -84t-83 -32.5zM442.5 1229q-49.5 0 -83 32.5t-33.5 84t33.5 85t83 33.5t83 -33.5t33.5 -85t-33.5 -84t-83 -32.5z" />
    <glyph glyph-name="aring" unicode="&#xe5;" horiz-adv-x="1288" 
d="M653 143q205 0 320 148v477q-51 68 -136 107.5t-182 39.5q-160 0 -265 -110.5t-105 -275.5t105 -275.5t263 -110.5zM973 1059h172v-1059h-172v88q-137 -109 -353 -108.5t-368 156t-152 394t151.5 394t368 155.5t353.5 -106v86zM671 1597q-50 0 -82 -16q-69 -34 -69 -103
t40 -106t86 -37q72 0 112.5 36.5t40.5 95t-39 94.5t-89 36zM662 1221q-113 0 -187 69.5t-74 176.5t74.5 176t186 69t185 -69.5t73.5 -176.5q0 -70 -34 -126t-93 -87.5t-131 -31.5z" />
    <glyph glyph-name="ae" unicode="&#xe6;" horiz-adv-x="2158" 
d="M652 915q-159 0 -265 -110.5t-106 -275t106 -275.5t265 -111t265.5 109.5t108.5 271.5v13q-2 162 -108.5 270t-265.5 108zM1554 922q-127 0 -219 -83t-116 -216h655q-20 133 -106.5 216t-213.5 83zM1575 143q201 0 319 154l123 -113q-78 -96 -192.5 -150t-254.5 -54
t-260 64.5t-194 174.5q-74 -111 -194.5 -175t-268.5 -64q-236 0 -394.5 157.5t-158.5 392t159 392t394 157.5q195 1 343 -111q70 -52 118 -126q72 111 187.5 174t254.5 63q215 0 359.5 -151.5t144.5 -376.5q0 -45 -4 -76h-844q12 -96 61.5 -171t128.5 -118t173 -43z" />
    <glyph glyph-name="ccedilla" unicode="&#xe7;" horiz-adv-x="1128" 
d="M887 -265q0 -87 -66.5 -135.5t-160 -48.5t-185.5 25l17 115q82 -27 147 -27q115 0 115 82q0 53 -53.5 73.5t-165.5 18.5l40 148q-141 16 -248.5 91t-167 192.5t-59.5 260.5q0 236 156 392.5t384 156.5t384 -141l-98 -133q-115 111 -273 110q-106 0 -190 -51t-130 -138
t-46 -196q0 -166 102.5 -276.5t263.5 -110.5q92 0 173 42t132 114l123 -113q-70 -88 -173 -142t-218 -62l-14 -58q100 -2 155.5 -52t55.5 -137z" />
    <glyph glyph-name="egrave" unicode="&#xe8;" horiz-adv-x="1232" 
d="M629 922q-127 0 -219.5 -83t-118.5 -216h657q-30 180 -168 260q-68 39 -151 39zM649 143q201 0 320 154l121 -113q-78 -96 -192 -150t-249 -54q-236 0 -392.5 158.5t-156.5 392.5t151.5 391t373 157t365 -151.5t143.5 -376.5q0 -45 -3 -76h-843q16 -145 117.5 -238.5
t244.5 -93.5zM817 1188h-166l-213 301h201z" />
    <glyph glyph-name="eacute" unicode="&#xe9;" horiz-adv-x="1232" 
d="M628 922q-126 0 -218.5 -83t-118.5 -216h657q-20 133 -107 216t-213 83zM649 143q201 0 320 154l121 -113q-78 -96 -192 -150t-249 -54q-236 0 -392.5 158.5t-156.5 392.5t151.5 391t373 157t365 -151.5t143.5 -376.5q0 -45 -3 -76h-843q16 -145 117.5 -238.5
t244.5 -93.5zM868 1489l-213 -301h-166l181 301h198z" />
    <glyph glyph-name="ecircumflex" unicode="&#xea;" horiz-adv-x="1232" 
d="M628 922q-126 0 -218.5 -83t-118.5 -216h657q-20 133 -107 216t-213 83zM649 143q201 0 320 154l121 -113q-78 -96 -192 -150t-249 -54q-236 0 -392.5 158.5t-156.5 392.5t151.5 391t373 157t365 -151.5t143.5 -376.5q0 -45 -3 -76h-843q10 -96 60 -171t129 -118t173 -43
zM629 1378l-170 -188h-176l254 291h188l256 -291h-178z" />
    <glyph glyph-name="edieresis" unicode="&#xeb;" horiz-adv-x="1232" 
d="M628 922q-126 0 -218.5 -83t-118.5 -216h657q-20 133 -107 216t-213 83zM649 143q201 0 320 154l121 -113q-78 -96 -192 -150t-249 -54q-236 0 -392.5 158.5t-156.5 392.5t151.5 391t373 157t365 -151.5t143.5 -376.5q0 -45 -3 -76h-843q16 -145 117.5 -238.5
t244.5 -93.5zM837.5 1229q-49.5 0 -83 32.5t-33.5 76.5q-1 44 15 70q33 57 92 56.5t92.5 -34t32.5 -85t-33.5 -84t-82 -32.5zM430 1229q-42 0 -68 14q-58 30 -57.5 92t34.5 95.5t83 33.5t83 -33.5t34 -85t-34 -84t-75 -32.5z" />
    <glyph glyph-name="igrave" unicode="&#xec;" horiz-adv-x="430" 
d="M127 0v1059h174v-1059h-174zM25 1489h200l178 -301h-165z" />
    <glyph glyph-name="iacute" unicode="&#xed;" horiz-adv-x="430" 
d="M127 0v1059h174v-1059h-174zM455 1489l-213 -301h-166l178 301h201z" />
    <glyph glyph-name="icircumflex" unicode="&#xee;" horiz-adv-x="430" 
d="M127 0v1059h174v-1059h-174zM567 1190h-178l-174 188l-170 -188h-176l254 291h188z" />
    <glyph glyph-name="idieresis" unicode="&#xef;" horiz-adv-x="430" 
d="M127 0v1059h174v-1059h-174zM432 1229q-42 0 -68 14q-58 30 -57.5 92t33.5 95.5t83 33.5t84 -33.5t33 -85t-34 -84t-74 -32.5zM-76 1262q-33 33 -33 84t34 84.5t91.5 33.5t93.5 -57q16 -25 15.5 -68.5t-34.5 -76.5t-84 -33t-83 33z" />
    <glyph glyph-name="eth" unicode="&#xf0;" horiz-adv-x="1275" 
d="M638 152q163 0 266 116t104 293q0 84 -23 170q-141 166 -346 166q-158 0 -264 -105q-107 -104 -107 -264t104 -268t266 -108zM1184 594q0 -268 -151 -439t-395 -171t-400 156t-156 388q0 231 156 384t387 153q111 0 206 -39q-76 102 -184 205l-272 -133l-62 133l215 104
q-86 70 -184 138l115 118q127 -84 235 -174l254 123l62 -131l-199 -98q373 -362 373 -717z" />
    <glyph glyph-name="ntilde" unicode="&#xf1;" horiz-adv-x="1212" 
d="M647.5 1081q188.5 0 309 -129t120.5 -340v-612h-174v594q0 150 -74.5 237t-203.5 87q-178 0 -306 -140v-778h-174v1059h174v-88q140 110 328.5 110zM479 1315q-80 0 -123 -84l-112 76q76 156 227 155q82 0 184.5 -45t153.5 -45q70 0 113 84l106 -74q-37 -84 -86 -120.5
t-122 -36.5t-181.5 45t-159.5 45z" />
    <glyph glyph-name="ograve" unicode="&#xf2;" horiz-adv-x="1306" 
d="M653.5 143q159.5 0 266 111t106.5 275.5t-106.5 275t-266 110.5t-266 -110.5t-106.5 -275t106.5 -275.5t266 -111zM654.5 -20q-236.5 0 -395.5 157.5t-159 392t159 392t395.5 157.5t395 -157.5t158.5 -392t-158.5 -392t-395 -157.5zM461 1489h201l180 -301h-166z" />
    <glyph glyph-name="oacute" unicode="&#xf3;" horiz-adv-x="1306" 
d="M653.5 143q159.5 0 266 111t106.5 275.5t-106.5 275t-266 110.5t-266 -110.5t-106.5 -275t106.5 -275.5t266 -111zM654.5 -20q-236.5 0 -395.5 157.5t-159 392t159 392t395.5 157.5t395 -157.5t158.5 -392t-158.5 -392t-395 -157.5zM893 1489l-213 -301h-166l178 301h201
z" />
    <glyph glyph-name="ocircumflex" unicode="&#xf4;" horiz-adv-x="1306" 
d="M653.5 143q159.5 0 266 111t106.5 275.5t-106.5 275t-266 110.5t-266 -110.5t-106.5 -275t106.5 -275.5t266 -111zM654.5 -20q-236.5 0 -395.5 157.5t-159 392t159 392t395.5 157.5t395 -157.5t158.5 -392t-158.5 -392t-395 -157.5zM1006 1190h-179l-174 188l-172 -188
h-174l254 291h189z" />
    <glyph glyph-name="otilde" unicode="&#xf5;" horiz-adv-x="1306" 
d="M653.5 143q159.5 0 266 111t106.5 275.5t-106.5 275t-266 110.5t-266 -110.5t-106.5 -275t106.5 -275.5t266 -111zM654.5 -20q-236.5 0 -395.5 157.5t-159 392t159 392t395.5 157.5t395 -157.5t158.5 -392t-158.5 -392t-395 -157.5zM846 1372q72 0 115 84l106 -74
q-43 -88 -79 -113q-61 -44 -131.5 -44t-180 45t-160.5 45q-78 0 -123 -84l-110 76q76 156 227 155q80 0 183 -45t153 -45z" />
    <glyph glyph-name="odieresis" unicode="&#xf6;" horiz-adv-x="1306" 
d="M653.5 143q159.5 0 266 111t106.5 275.5t-106.5 275t-266 110.5t-266 -110.5t-106.5 -275t106.5 -275.5t266 -111zM654.5 -20q-236.5 0 -395.5 157.5t-159 392t159 392t395.5 157.5t395 -157.5t158.5 -392t-158.5 -392t-395 -157.5zM860 1229q-49 0 -82 32.5t-33 84
t33 85t74 33.5q42 0 68 -15q58 -33 57.5 -93.5t-34.5 -93.5t-83 -33zM454 1229q-42 0 -68 14q-56 30 -56 92t33.5 95.5t83 33.5t83 -33.5t33.5 -85t-34 -84t-75 -32.5z" />
    <glyph glyph-name="divide" unicode="&#xf7;" horiz-adv-x="1290" 
d="M646 254q-56 0 -93 37t-37 84q0 90 63 123q31 16 63 16q88 0 122 -78q10 -24 10 -66t-36 -79t-92 -37zM158 688v164h975v-164h-975zM646 1026q-56 0 -93 37t-37 80q0 101 78 132q24 9 52 9q84 0 118 -76q10 -24 10 -66t-36 -79t-92 -37z" />
    <glyph glyph-name="oslash" unicode="&#xf8;" horiz-adv-x="1308" 
d="M655 143q160 0 266.5 111t106.5 276q0 127 -67 226l-525 -541q96 -72 219 -72zM283 530q0 -117 57 -211l518 537q-90 59 -203 59q-160 0 -266 -110.5t-106 -274.5zM1208 513.5q0 -219.5 -157.5 -376.5t-395.5 -157q-193 0 -340 110l-112 -117l-103 101l113 116
q-113 145 -113 340q0 233 159 391t396 158q182 0 324 -98l94 98l105 -100l-93 -94q123 -152 123 -371.5z" />
    <glyph glyph-name="ugrave" unicode="&#xf9;" horiz-adv-x="1210" 
d="M891 1059h174v-1059h-174v90q-135 -113 -326 -113t-310.5 129.5t-119.5 337.5v615h174v-592q1 -200 135 -285q64 -41 150 -41q182 0 297 140v778zM803 1188h-166l-213 301h201z" />
    <glyph glyph-name="uacute" unicode="&#xfa;" horiz-adv-x="1210" 
d="M891 1059h174v-1059h-174v90q-135 -113 -326 -113t-310.5 129.5t-119.5 337.5v615h174v-592q1 -200 135 -285q64 -41 150 -41q182 0 297 140v778zM856 1489l-215 -301h-166l180 301h201z" />
    <glyph glyph-name="ucircumflex" unicode="&#xfb;" horiz-adv-x="1210" 
d="M891 1059h174v-1059h-174v90q-135 -113 -326 -113t-310.5 129.5t-119.5 337.5v615h174v-592q1 -200 135 -285q64 -41 150 -41q182 0 297 140v778zM614 1378l-170 -188h-174l254 291h189l254 -291h-179z" />
    <glyph glyph-name="udieresis" unicode="&#xfc;" horiz-adv-x="1210" 
d="M891 1059h174v-1059h-174v90q-135 -113 -326 -113t-310.5 129.5t-119.5 337.5v615h174v-592q1 -200 135 -285q64 -41 150 -41q182 0 297 140v778zM815 1229q-41 0 -73.5 32.5t-33.5 76.5t14 70q32 56 91 56t93 -33.5t34 -75.5t-15.5 -70t-42 -42t-67.5 -14zM408.5 1229
q-50.5 0 -83 32.5t-32.5 84t32.5 85t83 33.5t83 -33.5t32.5 -85t-32.5 -84t-83 -32.5z" />
    <glyph glyph-name="yacute" unicode="&#xfd;" horiz-adv-x="1224" 
d="M975 1059h182q-247 -1019 -854 -1355q-168 -93 -346 -120l-6 166q95 16 203 66q185 84 325 231l-446 1012h205l368 -858q226 311 369 858zM848 1489l-213 -301h-166l178 301h201z" />
    <glyph glyph-name="thorn" unicode="&#xfe;" horiz-adv-x="1239" 
d="M602 143q160 0 265.5 111t105.5 275.5t-105.5 275t-265.5 110.5q-90 0 -171 -34.5t-132 -96.5v-510q51 -61 132 -96t171 -35zM604 1079q171 0 293.5 -70.5t191 -196.5t68.5 -282q0 -240 -151.5 -395t-382.5 -155q-190 0 -324 98v-498h-174v1946h174v-543q134 96 305 96z
" />
    <glyph glyph-name="ydieresis" unicode="&#xff;" horiz-adv-x="1224" 
d="M975 1059h182q-247 -1019 -854 -1355q-168 -93 -346 -120l-6 166q95 16 203 66q185 84 325 231l-446 1012h205l368 -858q226 311 369 858zM815 1229q-49 0 -82 32.5t-33 84t33 85t74 33.5t67 -15q58 -33 58 -93.5t-34 -93.5t-83 -33zM409 1229q-41 0 -67 14
q-56 30 -56.5 92t33 95.5t89.5 33.5t94 -57q16 -24 16 -68t-34 -77t-75 -33z" />
    <glyph glyph-name="Amacron" unicode="&#x100;" horiz-adv-x="1599" 
d="M512 586h569l-284 598zM1362 0l-203 424h-723l-203 -424h-192l758 1550l760 -1550h-197zM1176 1884v-139h-750v139h750z" />
    <glyph glyph-name="amacron" unicode="&#x101;" horiz-adv-x="1290" 
d="M653 143q205 0 320 148v477q-51 68 -136 107.5t-182 39.5q-160 0 -265 -110.5t-105 -275.5t105 -275.5t263 -110.5zM973 1059h172v-1059h-172v88q-137 -109 -353 -108.5t-368 156t-152 394t151.5 394t368 155.5t353.5 -106v86zM1024 1417v-139h-750v139h750z" />
    <glyph glyph-name="Abreve" unicode="&#x102;" horiz-adv-x="1599" 
d="M512 586h569l-284 598zM1362 0l-203 424h-723l-203 -424h-192l758 1550l760 -1550h-197zM802 1663q-136 0 -227.5 84t-91.5 211h138q0 -76 52 -125t115.5 -49t103.5 22q87 47 87 152h139q0 -127 -90 -211t-226 -84z" />
    <glyph glyph-name="abreve" unicode="&#x103;" horiz-adv-x="1290" 
d="M653 143q205 0 320 148v477q-51 68 -136 107.5t-182 39.5q-160 0 -265 -110.5t-105 -275.5t105 -275.5t263 -110.5zM973 1059h172v-1059h-172v88q-137 -109 -353 -108.5t-368 156t-152 394t151.5 394t368 155.5t353.5 -106v86zM650 1196q-136 0 -226 84t-90 211h135
q0 -76 52 -125q51 -49 115 -49q64 -1 104 21q89 48 89 153h138q0 -127 -90.5 -211t-226.5 -84z" />
    <glyph glyph-name="Aogonek" unicode="&#x104;" horiz-adv-x="1599" 
d="M512 586h569l-284 598zM1358 -215q0 -49 32.5 -79t76 -30t69.5 5l-2 -117q-49 -8 -90 -8q-111 0 -170.5 55t-59.5 129q0 152 148 260l-203 424h-723l-203 -424h-192l758 1550l760 -1550h-74q-127 -111 -127 -215z" />
    <glyph glyph-name="aogonek" unicode="&#x105;" horiz-adv-x="1290" 
d="M653 143q205 0 320 148v477q-51 68 -136 107.5t-182 39.5q-160 0 -265 -110.5t-105 -275.5t105 -275.5t263 -110.5zM1127 -324q43 0 69 5l-2 -117q-49 -8 -90 -8q-111 0 -170.5 55t-59.5 129q0 152 148 260h-49v88q-137 -109 -353 -108.5t-368 156t-152 394t151.5 394
t368 155.5t353.5 -106v86h172v-1059q-127 -111 -127 -215q0 -49 33 -79t76 -30z" />
    <glyph glyph-name="Cacute" unicode="&#x106;" horiz-adv-x="1531" 
d="M887 -18q-336 0 -556 222t-220 560q0 219 100 398t278.5 280.5t397.5 101.5q279 0 493 -172l-106 -145q-166 137 -402.5 137t-402.5 -171t-166 -431t165 -430t419 -170q168 0 311 88q70 43 123 102l133 -123q-106 -117 -256.5 -182t-310.5 -65zM1124 1956l-215 -301h-166
l181 301h200z" />
    <glyph glyph-name="cacute" unicode="&#x107;" horiz-adv-x="1128" 
d="M634.5 -18q-141.5 0 -268 70.5t-196.5 196.5t-70 281q0 236 156 392.5t384 156.5t384 -141l-98 -133q-115 111 -275 110.5t-262 -110t-102 -275t102.5 -276.5t263.5 -111q92 0 173 42t132 114l123 -113q-76 -94 -190.5 -149t-256 -55zM842 1489l-213 -301h-166l178 301
h201z" />
    <glyph glyph-name="Cdotaccent" unicode="&#x10a;" horiz-adv-x="1531" 
d="M887 -18q-336 0 -556 222t-220 560q0 219 100 398t278.5 280.5t397.5 101.5q279 0 493 -172l-106 -145q-166 137 -402.5 137t-402.5 -171t-166 -431t165 -430t419 -170q168 0 311 88q70 43 123 102l133 -123q-106 -117 -256.5 -182t-310.5 -65zM893 1694q-41 0 -67 15
q-58 33 -58 93.5t34 93.5t83 33t82.5 -32.5t33.5 -84t-33.5 -85t-74.5 -33.5z" />
    <glyph glyph-name="cdotaccent" unicode="&#x10b;" horiz-adv-x="1128" 
d="M634.5 -18q-141.5 0 -268 70.5t-196.5 196.5t-70 281q0 236 156 392.5t384 156.5t384 -141l-98 -133q-115 111 -275 110.5t-262 -110t-102 -275t102.5 -276.5t263.5 -111q92 0 173 42t132 114l123 -113q-76 -94 -190.5 -149t-256 -55zM609.5 1227q-25.5 0 -43.5 6
q-80 27 -79 117q0 48 33 80t83 32t83 -32.5t33 -75.5t-15.5 -70t-42 -42t-52 -15z" />
    <glyph glyph-name="Ccaron" unicode="&#x10c;" horiz-adv-x="1531" 
d="M887 -18q-336 0 -556 222t-220 558q0 221 100 400t278.5 280.5t397.5 101.5q279 0 493 -172l-106 -145q-166 137 -402.5 137t-402.5 -171t-166 -431t165 -430t419 -170q168 0 311 88q70 43 123 102l133 -123q-144 -157 -356 -217q-104 -30 -211 -30zM547 1954h178
l174 -187l170 187h174l-254 -289h-188z" />
    <glyph glyph-name="ccaron" unicode="&#x10d;" horiz-adv-x="1128" 
d="M634.5 -18q-141.5 0 -268 70.5t-196.5 196.5t-70 281q0 236 156 392.5t384 156.5t384 -141l-98 -133q-115 111 -275 110.5t-262 -110t-102 -275t102.5 -276.5t263.5 -111q92 0 173 42t132 114l123 -113q-76 -94 -190.5 -149t-256 -55zM264 1487h178l174 -187l170 187h177
l-254 -289h-189z" />
    <glyph glyph-name="Dcaron" unicode="&#x10e;" horiz-adv-x="1597" 
d="M719 176q246 0 411.5 167t165.5 420t-165.5 420t-411.5 167h-367v-1174h367zM719 1526q162 0 304 -58.5t244.5 -159t162 -241.5t59.5 -330.5t-100.5 -364.5t-277.5 -273.5t-392 -98.5h-551v1526h551zM866 1665h-188l-256 289h178l174 -187l170 187h176z" />
    <glyph glyph-name="dcaron" unicode="&#x10f;" horiz-adv-x="1445" 
d="M655 143q94 0 176 37t134 101v499q-51 61 -133 98t-177 37q-158 0 -263 -110.5t-105 -275.5t105 -275.5t263 -110.5zM1307 1526h186l-102 -492h-129zM965 1526h174v-1526h-174v82q-135 -102 -328 -102q-231 0 -384 155.5t-153 394t153 394t384 155.5q195 0 328 -100v547z
" />
    <glyph glyph-name="Dcroat" unicode="&#x110;" horiz-adv-x="1619" 
d="M768 176q248 0 413 167t165 420t-165 420t-413 167h-367v-498h340v-127h-340v-549h367zM768 1526q217 0 393 -98.5t277.5 -273.5t101.5 -391t-101.5 -391t-277.5 -273.5t-393 -98.5h-549v725h-162v129h162v672h549z" />
    <glyph glyph-name="dcroat" unicode="&#x111;" horiz-adv-x="1259" 
d="M655 915q-160 0 -265 -110.5t-105 -275.5t105 -275.5t249 -110.5q218 0 324 138v499q-49 61 -132 98t-176 37zM1315 1362v-154h-178v-1208h-174v82q-133 -102 -328 -102q-231 0 -383 155.5t-152 394t151.5 394t383.5 155.5q195 0 328 -100v229h-400v154h400v164h174v-164
h178z" />
    <glyph glyph-name="Emacron" unicode="&#x112;" horiz-adv-x="1222" 
d="M350 172h774l-53 -172h-901v1526h946l-51 -172h-715v-463h576v-172h-576v-547zM993 1884v-139h-749v139h749z" />
    <glyph glyph-name="emacron" unicode="&#x113;" horiz-adv-x="1232" 
d="M628 922q-126 0 -218.5 -83t-118.5 -216h657q-20 133 -107 216t-213 83zM649 143q201 0 320 154l121 -113q-78 -96 -192 -150t-249 -54q-236 0 -392.5 158.5t-156.5 392.5t151.5 391t373 157t365 -151.5t143.5 -376.5q0 -45 -3 -76h-843q10 -96 60 -171t129 -118t173 -43
zM1006 1417v-139h-750v139h750z" />
    <glyph glyph-name="Edotaccent" unicode="&#x116;" horiz-adv-x="1222" 
d="M350 172h774l-53 -172h-901v1526h946l-51 -172h-715v-463h576v-172h-576v-547zM626 1694q-42 0 -68 15q-54 31 -55 92.5t32.5 94.5t83 33t83 -32.5t33.5 -84t-34 -85t-75 -33.5z" />
    <glyph glyph-name="edotaccent" unicode="&#x117;" horiz-adv-x="1232" 
d="M629 922q-127 0 -219.5 -83t-118.5 -216h657q-30 180 -168 260q-68 39 -151 39zM649 143q201 0 320 154l121 -113q-78 -96 -192 -150t-249 -54q-236 0 -392.5 158.5t-156.5 392.5t151.5 391t373 157t365 -151.5t143.5 -376.5q0 -45 -3 -76h-843q16 -145 117.5 -238.5
t244.5 -93.5zM630 1227q-50 0 -83 33.5t-33 85t33 84t83 32.5t84 -32.5t32.5 -84t-34 -85t-82.5 -33.5z" />
    <glyph glyph-name="Eogonek" unicode="&#x118;" horiz-adv-x="1222" 
d="M944 -215q0 -49 33 -79t76 -30t69 5l-2 -117q-49 -8 -90 -8q-111 0 -170 55t-59 129q0 151 147 260h-778v1526h946l-51 -172h-715v-463h576v-172h-576v-547h774l-53 -172q-127 -111 -127 -215z" />
    <glyph glyph-name="eogonek" unicode="&#x119;" horiz-adv-x="1232" 
d="M629 922q-127 0 -219.5 -83t-118.5 -216h657q-30 180 -168 260q-68 39 -151 39zM649 143q201 0 320 154l121 -113q-131 -164 -345 -196q-115 -104 -114 -203q0 -49 32.5 -79t76 -30t69.5 5v-117q-51 -8 -92 -8q-111 0 -170.5 55t-59.5 139q0 127 125 232
q-223 14 -367.5 168.5t-144.5 384.5t151.5 387t373 157t365 -151.5t143.5 -376.5q0 -45 -3 -76h-843q16 -145 117.5 -238.5t244.5 -93.5z" />
    <glyph glyph-name="Ecaron" unicode="&#x11a;" horiz-adv-x="1222" 
d="M350 172h774l-53 -172h-901v1526h946l-51 -172h-715v-463h576v-172h-576v-547zM723 1665h-188l-254 289h178l174 -187l170 187h176z" />
    <glyph glyph-name="ecaron" unicode="&#x11b;" horiz-adv-x="1232" 
d="M628 922q-126 0 -218.5 -83t-118.5 -216h657q-20 133 -107 216t-213 83zM649 143q201 0 320 154l121 -113q-78 -96 -192 -150t-249 -54q-236 0 -392.5 158.5t-156.5 392.5t151.5 391t373 157t365 -151.5t143.5 -376.5q0 -45 -3 -76h-843q16 -145 117.5 -238.5
t244.5 -93.5zM735 1198h-188l-256 289h178l174 -187l172 187h174z" />
    <glyph glyph-name="Gbreve" unicode="&#x11e;" horiz-adv-x="1613" 
d="M1274 723h182v-565q-104 -84 -248.5 -130t-302.5 -46q-223 0 -404.5 97t-285.5 276.5t-104 405.5t103 405.5t284.5 278.5t404.5 99q293 0 518 -172l-106 -145q-176 139 -425 139t-418 -169t-169 -435t173 -436t429 -170q215 0 369 94v473zM851 1663q-136 0 -227.5 84
t-91.5 211h138q0 -76 52 -125t115.5 -49t103.5 22q87 47 87 152h139q0 -127 -90 -211t-226 -84z" />
    <glyph glyph-name="gbreve" unicode="&#x11f;" horiz-adv-x="1290" 
d="M653 143q98 0 183.5 40t134.5 108v477q-49 68 -134 107.5t-182 39.5q-160 0 -265 -110.5t-105 -275.5t105 -275.5t263 -110.5zM971 1059h174v-801q0 -423 -294 -591q-166 -95 -405 -103l-4 168q277 4 418 153q74 78 98 193q-133 -98 -323 -98q-231 0 -383 155.5t-152 394
t151.5 394t368 155.5t351.5 -106v86zM642 1196q-136 0 -226 84t-90 211h137q0 -76 51 -125q50 -49 114 -49q64 -1 104 21q89 48 89 153h137q0 -127 -90 -211t-226 -84z" />
    <glyph glyph-name="Gdotaccent" unicode="&#x120;" horiz-adv-x="1613" 
d="M1274 723h182v-565q-104 -84 -248.5 -130t-306.5 -46t-308.5 57t-253 158.5t-167.5 248t-61 344.5t103 377t284.5 278t404.5 99q293 0 518 -172l-106 -145q-176 141 -425 141t-418 -170t-169 -436t173 -436t429 -170q213 0 369 94v473zM850 1694q-49 0 -82 33.5t-34 85
t33 84t83 32.5t83 -32.5t34 -84t-34 -85t-83 -33.5z" />
    <glyph glyph-name="gdotaccent" unicode="&#x121;" horiz-adv-x="1290" 
d="M653 143q98 0 183.5 40t134.5 108v477q-49 68 -134 107.5t-182 39.5q-160 0 -265 -110.5t-105 -275.5t105 -275.5t263 -110.5zM971 1059h174v-801q0 -423 -294 -591q-166 -95 -405 -103l-4 168q205 4 342.5 90t173.5 256q-133 -98 -323 -98q-231 0 -383 155.5t-152 394
t151.5 394t368 155.5t351.5 -106v86zM642 1227q-50 0 -83 33.5t-33 85t33 84t83 32.5t83 -32.5t33 -84t-33 -85t-83 -33.5z" />
    <glyph glyph-name="Gcommaaccent" unicode="&#x122;" horiz-adv-x="1613" 
d="M840 -129h155q2 -158 -45 -266.5t-153 -188.5l-92 103q74 70 102.5 147.5t32.5 204.5zM1274 723h182v-565q-104 -84 -248.5 -130t-306.5 -46t-308.5 57t-253 158.5t-167.5 248t-61 344.5t103 377t284.5 278t404.5 99q293 0 518 -172l-106 -145q-176 141 -425 141
t-418 -170t-169 -436t173 -436t429 -170q213 0 369 94v473z" />
    <glyph glyph-name="gcommaaccent" unicode="&#x123;" horiz-adv-x="1290" 
d="M653 143q98 0 183.5 40t134.5 108v477q-49 68 -134 107.5t-182 39.5q-160 0 -265 -110.5t-105 -275.5t105 -275.5t263 -110.5zM971 1059h174v-801q0 -423 -294 -591q-166 -95 -405 -103l-4 168q277 4 418 153q74 78 98 193q-133 -98 -323 -98q-231 0 -383 155.5t-152 394
t151.5 394t368 155.5t351.5 -106v86zM646.5 1210q-63.5 0 -106 46.5t-42.5 112.5q0 65 22 121q48 118 158 196l61 -72q-76 -61 -106 -135q70 2 111.5 -37t41.5 -97.5t-38 -96.5t-101.5 -38z" />
    <glyph glyph-name="Hbar" unicode="&#x126;" horiz-adv-x="1593" 
d="M1274 885v303h-924v-303h924zM1612 1348v-160h-158v-1188h-180v713h-924v-713h-182v1188h-186v160h186v178h182v-178h924v178h180v-178h158z" />
    <glyph glyph-name="hbar" unicode="&#x127;" horiz-adv-x="1169" 
d="M648.5 1081q189.5 0 309 -129t119.5 -340v-612h-174v594q0 150 -74.5 237t-203.5 87q-178 0 -306 -140v-778h-174v1200h-182v154h182v172h174v-172h396v-154h-396v-229q140 110 329.5 110z" />
    <glyph glyph-name="Imacron" unicode="&#x12a;" horiz-adv-x="612" 
d="M213 1526h186v-1526h-186v1526zM-68 1884h750v-139h-750v139z" />
    <glyph glyph-name="imacron" unicode="&#x12b;" horiz-adv-x="430" 
d="M127 0v1059h174v-1059h-174zM-158 1417h748v-139h-748v139z" />
    <glyph glyph-name="Iogonek" unicode="&#x12e;" horiz-adv-x="612" 
d="M379 -324q43 0 70 5v-117q-51 -8 -93 -8q-111 0 -170 55t-59 129q0 151 147 260h-61v1526h186v-1526q-129 -111 -129 -215q0 -49 33 -79t76 -30z" />
    <glyph glyph-name="iogonek" unicode="&#x12f;" horiz-adv-x="430" 
d="M283 -324q43 0 69 5l-2 -117q-49 -8 -90 -8q-111 0 -170 54t-59 128q0 153 147 262h-51v1059h174v-1059q-129 -111 -129 -215q0 -49 34 -79t77 -30zM216 1227q-50 0 -83 33.5t-33 85t33 84t83 32.5t83 -32.5t33 -84t-33 -85t-83 -33.5z" />
    <glyph glyph-name="Idotaccent" unicode="&#x130;" horiz-adv-x="612" 
d="M213 1526h186v-1526h-186v1526zM303 1694q-29 0 -55.5 15t-40.5 42q-33 64 -1.5 121t91 57t93.5 -32.5t34 -72t-9 -60.5t-24.5 -36.5t-37 -24.5t-50.5 -9z" />
    <glyph glyph-name="dotlessi" unicode="&#x131;" horiz-adv-x="430" 
d="M127 0v1059h174v-1059h-174z" />
    <glyph glyph-name="Kcommaaccent" unicode="&#x136;" horiz-adv-x="1511" 
d="M725 -129h156q4 -207 -82 -335q-45 -66 -117 -120l-90 103q74 70 102.5 147.5t30.5 204.5zM350 0h-182v1526h182v-781q522 227 744 781h192q-150 -398 -424 -656l565 -870h-225l-485 752q-166 -121 -367 -197v-555z" />
    <glyph glyph-name="kcommaaccent" unicode="&#x137;" horiz-adv-x="1187" 
d="M588 -129h155q2 -158 -45 -266.5t-153 -188.5l-92 103q91 85 119 207q14 60 16 145zM319 0h-174v1534h174v-977q375 147 543 502h189q-123 -273 -322 -445l412 -614h-213l-338 510q-121 -78 -271 -131v-379z" />
    <glyph glyph-name="Lacute" unicode="&#x139;" horiz-adv-x="1198" 
d="M352 172h783l-54 -172h-913v1526h184v-1354zM831 1956l-213 -301h-165l178 301h200z" />
    <glyph glyph-name="lacute" unicode="&#x13a;" horiz-adv-x="675" 
d="M473 -8q-150 0 -239 94t-89 272v1168h177v-1159q0 -104 45 -163t131 -59q41 0 92 15l28 -144q-69 -24 -145 -24zM549 1956l-213 -301h-166l178 301h201z" />
    <glyph glyph-name="Lcommaaccent" unicode="&#x13b;" horiz-adv-x="1198" 
d="M739 -129q0 -238 -107 -368q-38 -46 -91 -87l-92 103q74 70 102.5 147.5t32.5 204.5h155zM352 172h783l-54 -172h-913v1526h184v-1354z" />
    <glyph glyph-name="lcommaaccent" unicode="&#x13c;" horiz-adv-x="675" 
d="M215 -481q96 93 119 207q12 60 14 145h156q2 -158 -45 -266.5t-154 -188.5zM473 -8q-150 0 -239 94t-89 272v1168h177v-1159q0 -104 45 -163t131 -59q41 0 92 15l28 -144q-69 -24 -145 -24z" />
    <glyph glyph-name="Lcaron" unicode="&#x13d;" horiz-adv-x="1167" 
d="M823 1526l-104 -504h-133l47 504h190zM352 172h783l-54 -172h-913v1526h184v-1354z" />
    <glyph glyph-name="lcaron" unicode="&#x13e;" horiz-adv-x="712" 
d="M504 1526h184l-102 -492h-129zM473 -8q-150 0 -239 94t-89 272v1168h177v-1159q0 -104 45 -163t131 -59q41 0 92 15l28 -144q-69 -24 -145 -24z" />
    <glyph glyph-name="Lslash" unicode="&#x141;" horiz-adv-x="1208" 
d="M393 172h781l-52 -172h-913v682l-199 -98v178l199 100v664h184v-570l256 131v-180l-256 -131v-604z" />
    <glyph glyph-name="lslash" unicode="&#x142;" horiz-adv-x="667" 
d="M174 358v338l-174 -90v164l174 88v668h176v-578l185 94v-163l-185 -95v-417q0 -104 45 -163t131 -59q41 1 92 15l29 -144q-70 -25 -145 -24q-150 0 -239 94t-89 272z" />
    <glyph glyph-name="Nacute" unicode="&#x143;" horiz-adv-x="1710" 
d="M1540 1526v-1549l-1194 1156v-1133h-176v1548l1194 -1151v1129h176zM1094 1956l-213 -301h-166l178 301h201z" />
    <glyph glyph-name="nacute" unicode="&#x144;" horiz-adv-x="1212" 
d="M647.5 1081q188.5 0 309 -129t120.5 -340v-612h-174v594q0 150 -74.5 237t-203.5 87q-178 0 -306 -140v-778h-174v1059h174v-88q140 110 328.5 110zM854 1489l-213 -301h-166l180 301h199z" />
    <glyph glyph-name="Ncommaaccent" unicode="&#x145;" horiz-adv-x="1710" 
d="M842 -129h155q2 -158 -45 -266.5t-153 -188.5l-90 103q72 70 101.5 147.5t31.5 204.5zM1364 1526h176v-1549l-1194 1156v-1133h-176v1548l1194 -1151v1129z" />
    <glyph glyph-name="ncommaaccent" unicode="&#x146;" horiz-adv-x="1212" 
d="M584 -129h155q2 -158 -45 -266.5t-153 -188.5l-90 103q74 70 102.5 147.5t30.5 204.5zM647.5 1081q188.5 0 309 -129t120.5 -340v-612h-174v594q0 150 -74.5 237t-203.5 87q-178 0 -306 -140v-778h-174v1059h174v-88q140 110 328.5 110z" />
    <glyph glyph-name="Ncaron" unicode="&#x147;" horiz-adv-x="1710" 
d="M1540 1526v-1549l-1194 1156v-1133h-176v1548l1194 -1151v1129h176zM958 1665h-188l-254 289h178l174 -187l170 187h176z" />
    <glyph glyph-name="ncaron" unicode="&#x148;" horiz-adv-x="1212" 
d="M647.5 1081q188.5 0 309 -129t120.5 -340v-612h-174v594q0 150 -74.5 237t-203.5 87q-178 0 -306 -140v-778h-174v1059h174v-88q140 110 328.5 110zM721 1198h-189l-256 289h179l174 -187l172 187h174z" />
    <glyph glyph-name="Eng" unicode="&#x14a;" horiz-adv-x="1681" 
d="M1540 1526v-1549l-14 15q-8 -213 -106.5 -313.5t-305.5 -100.5h-20v156h14q125 0 182.5 59.5t57.5 216.5v154l-1002 969v-1133h-176v1548l1178 -1136v647h16v467h176z" />
    <glyph glyph-name="eng" unicode="&#x14b;" horiz-adv-x="1165" 
d="M1077 612v-612h-22q-6 -217 -105.5 -319.5t-308.5 -102.5h-18v150h14q125 0 184.5 61t59.5 221v428h22v156q0 150 -74.5 237t-203.5 87q-178 0 -306 -140v-778h-174v1059h174v-88q139 111 328 111t309.5 -129.5t120.5 -340.5z" />
    <glyph glyph-name="Omacron" unicode="&#x14c;" horiz-adv-x="1769" 
d="M885 162q250 0 416.5 172t166.5 429t-166.5 430t-416.5 173t-417 -173t-167 -430t167 -429t417 -172zM911.5 -18q-190.5 0 -334 59t-246 162.5t-161.5 249t-59 310.5t59 310.5t161.5 248.5t246 162.5t334 59.5t368.5 -101.5t279.5 -280.5t101.5 -399t-101.5 -399.5
t-279.5 -280.5t-368.5 -101zM510 1884h750v-139h-750v139z" />
    <glyph glyph-name="omacron" unicode="&#x14d;" horiz-adv-x="1306" 
d="M653.5 143q159.5 0 266 111t106.5 275.5t-106.5 275t-266 110.5t-266 -110.5t-106.5 -275t106.5 -275.5t266 -111zM654.5 -20q-236.5 0 -395.5 157.5t-159 392t159 392t395.5 157.5t395 -157.5t158.5 -392t-158.5 -392t-395 -157.5zM279 1417h749v-139h-749v139z" />
    <glyph glyph-name="Ohungarumlaut" unicode="&#x150;" horiz-adv-x="1769" 
d="M885 162q250 0 416.5 172t166.5 428q0 170 -75.5 308t-209.5 217t-298 79q-250 0 -417 -173t-167 -430t167 -429t417 -172zM911.5 -18q-190.5 0 -334 59t-246 162.5t-161.5 249t-59 310.5t59 310.5t161.5 248.5t246 162.5t334 59.5t368.5 -101.5t279.5 -280.5t101.5 -399
t-101.5 -399.5t-279.5 -280.5t-368.5 -101zM1333 1956l-229 -301h-166l205 301h190zM973 1956l-228 -301h-165l202 301h191z" />
    <glyph glyph-name="ohungarumlaut" unicode="&#x151;" horiz-adv-x="1306" 
d="M653.5 143q159.5 0 266 111t106.5 275.5t-106.5 275t-266 110.5t-266 -110.5t-106.5 -275t106.5 -275.5t266 -111zM654.5 -20q-236.5 0 -395.5 157.5t-159 392t159 392t395.5 157.5t395 -157.5t158.5 -392t-158.5 -392t-395 -157.5zM1102 1489l-230 -301h-165l204 301
h191zM743 1489l-229 -301h-166l203 301h192z" />
    <glyph glyph-name="OE" unicode="&#x152;" horiz-adv-x="2512" 
d="M885 162q250 0 416.5 172t166.5 430q0 168 -75.5 306t-209.5 217t-298 79q-250 0 -417 -173t-167 -430t167 -429t417 -172zM1659 172h774l-51 -172h-903v250q-106 -127 -260 -197.5t-326 -70.5t-315.5 59t-246 162.5t-161.5 249t-59 310.5t59 310.5t161.5 248.5
t246 162.5t315.5 59.5t325.5 -70.5t260.5 -197.5v250h948l-53 -172h-715v-463h577v-172h-577v-547z" />
    <glyph glyph-name="Racute" unicode="&#x154;" horiz-adv-x="1460" 
d="M680 719q193 0 294 81t101 236.5t-101.5 236.5t-293.5 81h-334l2 -635h332zM711 547h-361l2 -547h-182v1526h541q252 0 404.5 -134.5t152.5 -355.5q0 -156 -77 -270.5t-216 -169.5q55 -178 165.5 -296t270.5 -146l-18 -166q-167 0 -316 118q-188 149 -282 445
q-41 -4 -84 -4zM967 1956l-213 -301h-166l178 301h201z" />
    <glyph glyph-name="racute" unicode="&#x155;" horiz-adv-x="804" 
d="M319 0h-174v1059h174v-137q80 78 195 118.5t223 32.5v-162q-113 -2 -230.5 -50t-187.5 -144v-717zM664 1489l-215 -301h-166l180 301h201z" />
    <glyph glyph-name="Rcommaaccent" unicode="&#x156;" horiz-adv-x="1460" 
d="M713 -129h155q2 -158 -45 -266.5t-153 -188.5l-92 103q96 89 120 207q12 60 15 145zM680 719q193 0 294 81t101 236.5t-101.5 236.5t-293.5 81h-334l2 -635h332zM711 547h-361l2 -547h-182v1526h541q252 0 404.5 -134.5t152.5 -355.5q0 -156 -77 -270.5t-216 -169.5
q55 -178 165.5 -296t270.5 -146l-18 -166q-167 0 -316 118q-188 149 -282 445q-41 -4 -84 -4z" />
    <glyph glyph-name="rcommaaccent" unicode="&#x157;" horiz-adv-x="804" 
d="M565 -129q0 -158 -46 -266.5t-152 -188.5l-93 103q94 91 120 207q14 60 16 145h155zM319 0h-174v1059h174v-137q105 105 272 141q75 16 146 10v-162q-113 -2 -230.5 -50t-187.5 -144v-717z" />
    <glyph glyph-name="Rcaron" unicode="&#x158;" horiz-adv-x="1460" 
d="M680 719q193 0 294 81t101 236.5t-101.5 236.5t-293.5 81h-334l2 -635h332zM711 547h-361l2 -547h-182v1526h541q252 0 404.5 -134.5t152.5 -355.5q0 -156 -77 -270.5t-216 -169.5q77 -242 241 -360q88 -64 195 -82l-18 -166q-167 0 -316 118q-188 149 -282 445
q-41 -4 -84 -4zM834 1665h-189l-256 289h178l174 -187l170 187h176z" />
    <glyph glyph-name="rcaron" unicode="&#x159;" horiz-adv-x="804" 
d="M319 0h-174v1059h174v-137q80 78 195 118.5t223 32.5v-162q-113 -2 -230.5 -50t-187.5 -144v-717zM528 1198h-188l-256 289h178l176 -187l170 187h174z" />
    <glyph glyph-name="Sacute" unicode="&#x15a;" horiz-adv-x="1196" 
d="M637 -18q-160 0 -304.5 64.5t-248.5 191.5l133 129q172 -217 424 -217q127 0 200.5 69.5t67.5 192.5q-3 147 -161 224q-70 34 -153 62q-203 70 -315 144q-152 100 -152.5 291.5t130.5 302t326 110.5q256 0 454 -172l-106 -139q-156 143 -332 143t-249 -98
q-38 -51 -38 -120t34 -119t89.5 -79.5t125.5 -58.5q72 -29 144 -53q159 -52 275.5 -150t116.5 -292.5t-127 -310t-334 -115.5zM838 1956l-213 -301h-166l178 301h201z" />
    <glyph glyph-name="sacute" unicode="&#x15b;" horiz-adv-x="907" 
d="M492.5 -16q-138.5 0 -252 51t-187.5 139l125 121q111 -156 297 -156q74 0 127 42t53 116t-58 115t-171.5 64t-181.5 60q-140 76 -140 242q0 127 102.5 213t256.5 86q205 0 334 -137l-101 -121q-98 104 -221 104.5t-171 -64.5q-24 -32 -23 -71q0 -78 53 -108.5t190 -61.5
q307 -66 307 -325q0 -135 -100 -222t-238.5 -87zM678 1489l-213 -301h-166l178 301h201z" />
    <glyph glyph-name="Scedilla" unicode="&#x15e;" horiz-adv-x="1196" 
d="M889 -265q0 -87 -66.5 -135.5t-160 -48.5t-187.5 25l19 115q82 -27 147 -27q115 0 115 82q0 53 -53.5 73.5t-165.5 18.5l38 146q-141 10 -269 74.5t-222 179.5l133 129q172 -217 424 -217q127 0 200.5 69.5t67.5 192.5q-3 147 -161 224q-70 34 -153 62q-203 70 -315 144
q-152 100 -152.5 291.5t130.5 302t326 110.5q256 0 454 -172l-106 -139q-156 143 -332 143t-249 -98q-38 -51 -38 -120t34 -119t89.5 -79.5t125.5 -58.5q72 -29 144 -53q159 -52 275.5 -150t116.5 -285t-110.5 -301t-295.5 -130l-14 -60q100 -2 155.5 -52t55.5 -137z" />
    <glyph glyph-name="scedilla" unicode="&#x15f;" horiz-adv-x="907" 
d="M831 293q0 -171 -148 -256q-71 -41 -161 -51l-16 -62q100 -2 155.5 -52t55.5 -137t-66.5 -135.5t-160 -48.5t-185.5 25l17 115q82 -27 147 -27q115 0 115 82q0 53 -53.5 73.5t-165.5 18.5l41 152q-104 12 -196.5 60t-156.5 124l125 121q111 -156 297 -156q74 0 127 42
t53 116t-58 115t-171.5 64t-181.5 60q-140 76 -140 242q0 127 102.5 213t256.5 86q205 0 334 -137l-101 -121q-98 105 -221 105t-171 -65q-24 -32 -23 -71q0 -78 53 -108.5t190 -61.5q307 -65 307 -325z" />
    <glyph glyph-name="Scaron" unicode="&#x160;" horiz-adv-x="1196" 
d="M637 -18q-160 0 -304.5 64.5t-248.5 191.5l133 129q172 -217 424 -217q127 0 200.5 69.5t67.5 192.5q-3 147 -161 224q-70 34 -153 62q-203 70 -315 144q-152 100 -152.5 291.5t130.5 302t326 110.5q256 0 454 -172l-106 -139q-156 143 -332 143t-249 -98
q-38 -51 -38 -120t34 -119t89.5 -79.5t125.5 -58.5q72 -29 144 -53q159 -52 275.5 -150t116.5 -292.5t-127 -310t-334 -115.5zM260 1954h178l174 -187l170 187h176l-256 -289h-188z" />
    <glyph glyph-name="scaron" unicode="&#x161;" horiz-adv-x="907" 
d="M492.5 -16q-138.5 0 -252 51t-187.5 139l125 121q111 -156 297 -156q74 0 127 42t53 116t-58 115t-171.5 64t-181.5 60q-140 76 -140 242q0 127 102.5 213t256.5 86q205 0 334 -137l-101 -121q-98 104 -221 104.5t-171 -64.5q-24 -32 -23 -71q0 -78 53 -108.5t190 -61.5
q307 -66 307 -325q0 -135 -100 -222t-238.5 -87zM100 1487h179l174 -187l170 187h174l-254 -289h-189z" />
    <glyph glyph-name="uni0162" unicode="&#x162;" horiz-adv-x="1392" 
d="M778 0h-30l-21 -76q100 -2 155.5 -52t55.5 -137t-66 -135t-160 -48.5t-188 24.5l19 115q82 -27 147 -27q115 0 115 82q0 53 -53.5 73.5t-165.5 18.5l45 162h-33v1356h-532v170h1286l-54 -170h-520v-1356z" />
    <glyph glyph-name="uni0163" unicode="&#x163;" horiz-adv-x="892" 
d="M778 -265q0 -87 -66.5 -135.5t-160.5 -48.5t-186 25l16 115q84 -27 147 -27q117 0 117 82q0 53 -53 73.5t-168 18.5l49 174q-104 37 -163.5 130.5t-59.5 226.5v534h-184v156h184v342h174v-342h281l-52 -156h-229v-526q0 -147 96 -205q45 -27 112 -27t146 39l49 -141
q-115 -53 -227 -53h-16l-17 -66q100 -2 155.5 -52t55.5 -137z" />
    <glyph glyph-name="Tcaron" unicode="&#x164;" horiz-adv-x="1392" 
d="M778 1356v-1356h-180v1356h-532v170h1286l-54 -170h-520zM803 1665h-191l-254 289h179l174 -187l170 187h176z" />
    <glyph glyph-name="tcaron" unicode="&#x165;" horiz-adv-x="862" 
d="M600 -10q-156 0 -253 103.5t-97 275.5v534h-184v156h184v342h174v-342h281l-52 -156h-229v-526q0 -147 96 -205q45 -27 111.5 -27t146.5 39l49 -141q-115 -53 -227 -53zM768 1526l-88 -377h-131l39 377h180z" />
    <glyph glyph-name="Tbar" unicode="&#x166;" horiz-adv-x="1366" 
d="M778 1356v-498h275v-153h-275v-705h-180v705h-295v153h295v498h-532v170h1286l-54 -170h-520z" />
    <glyph glyph-name="tbar" unicode="&#x167;" horiz-adv-x="858" 
d="M600 -10q-156 0 -253 103.5t-97 275.5v153h-262v154h262v227h-184v156h184v342h174v-342h281l-52 -156h-229v-227h313v-154h-313v-145q0 -147 96 -205q45 -27 111.5 -27t146.5 39l49 -141q-115 -53 -227 -53z" />
    <glyph glyph-name="Umacron" unicode="&#x16a;" horiz-adv-x="1601" 
d="M1444 649q0 -301 -177 -485t-467 -184t-466 181t-176 478v887h186v-899q0 -211 126 -341t331 -130t330.5 130t125.5 341v899h187v-877zM426 1884h748v-139h-748v139z" />
    <glyph glyph-name="umacron" unicode="&#x16b;" horiz-adv-x="1210" 
d="M891 1059h174v-1059h-174v90q-135 -113 -326 -113t-310.5 129.5t-119.5 337.5v615h174v-592q1 -200 135 -285q64 -41 150 -41q182 0 297 140v778zM991 1417v-139h-749v139h749z" />
    <glyph glyph-name="Uring" unicode="&#x16e;" horiz-adv-x="1601" 
d="M1444 649q0 -301 -177 -485t-467 -184t-466 181t-176 478v887h186v-899q0 -211 126 -341t331 -130t330.5 130t125.5 341v899h187v-877zM701 1978q-39 -37 -39 -94t39.5 -94t99 -37t98.5 37t39 93t-39 94t-99 38t-99 -37zM800 1653q-105 0 -176 66.5t-71 164.5t70.5 165
t177.5 67q68 0 124 -31q119 -66 119 -201q0 -98 -69.5 -164.5t-174.5 -66.5z" />
    <glyph glyph-name="uring" unicode="&#x16f;" horiz-adv-x="1210" 
d="M891 1059h174v-1059h-174v90q-135 -113 -326 -113t-310.5 129.5t-119.5 337.5v615h174v-592q1 -200 135 -285q64 -41 150 -41q182 0 297 140v778zM616.5 1548q-59.5 0 -98.5 -37.5t-39 -94t39 -93.5t98.5 -37t98.5 37t39 93.5t-39 94t-98.5 37.5zM633 1186
q-87 0 -143 29.5t-87.5 83t-31.5 110.5q0 108 69.5 174t157.5 66t144 -31q120 -66 120 -201q0 -98 -71 -164.5t-158 -66.5z" />
    <glyph glyph-name="Uhungarumlaut" unicode="&#x170;" horiz-adv-x="1601" 
d="M1444 649q0 -301 -177 -485t-467 -184t-466 181t-176 478v887h186v-899q0 -211 126 -341t331 -130t330.5 130t125.5 341v899h187v-877zM1249 1956l-229 -301h-166l203 301h192zM889 1956l-227 -301h-166l202 301h191z" />
    <glyph glyph-name="uhungarumlaut" unicode="&#x171;" horiz-adv-x="1210" 
d="M891 1059h174v-1059h-174v90q-135 -113 -326 -113t-310.5 129.5t-119.5 337.5v615h174v-592q1 -200 135 -285q64 -41 150 -41q182 1 297 140v778zM836 1188h-166l204 301h191zM705 1489l-228 -301h-166l203 301h191z" />
    <glyph glyph-name="Uogonek" unicode="&#x172;" horiz-adv-x="1601" 
d="M1257 1526h187v-877q0 -266 -140.5 -443t-377.5 -216q-117 -104 -117 -205q0 -49 32.5 -79t76.5 -30t69 5v-117q-49 -8 -92 -8q-109 0 -169 55t-60 139q0 127 122 230q-285 4 -457.5 185t-172.5 474v887h186v-899q0 -211 126 -341t331 -130t330.5 130t125.5 341v899z" />
    <glyph glyph-name="uogonek" unicode="&#x173;" horiz-adv-x="1210" 
d="M1051 -313q43 0 69 6l-2 -119q-49 -8 -90 -8q-111 0 -171 55t-60 139q0 133 135 240h-41v90q-135 -113 -326 -113t-310.5 129.5t-119.5 337.5v615h174v-592q1 -200 135 -285q64 -41 150 -41q182 0 297 140v778h174v-1049l2 -1l-2 -1v-8h-8q-117 -104 -117 -203
q0 -51 34 -80.5t77 -29.5z" />
    <glyph glyph-name="Wcircumflex" unicode="&#x174;" horiz-adv-x="2293" 
d="M2253 1526q-229 -807 -750 -1546l-342 784q-193 -406 -459 -784l-671 1546h202l508 -1184q188 307 330 629l-240 555h203l504 -1176q352 578 528 1176h187zM1178 1845l-172 -188h-175l254 291h189l256 -291h-178z" />
    <glyph glyph-name="wcircumflex" unicode="&#x175;" horiz-adv-x="1800" 
d="M1554 1059h187q-92 -360 -251 -638t-357 -439l-226 522q-168 -313 -397 -522l-467 1077h197l325 -772q152 201 254 415l-153 357h196l328 -780q239 321 364 780zM881 1378l-170 -188h-176l253 291h189l256 -291h-178z" />
    <glyph glyph-name="Ycircumflex" unicode="&#x176;" horiz-adv-x="1409" 
d="M797 0h-183v664l-561 862h215l443 -684l440 684h205l-559 -860v-666zM705 1845l-173 -188h-174l254 291h189l256 -291h-178z" />
    <glyph glyph-name="ycircumflex" unicode="&#x177;" horiz-adv-x="1224" 
d="M975 1059h182q-247 -1019 -854 -1355q-168 -93 -346 -120l-6 166q95 16 203 66q185 84 325 231l-446 1012h205l368 -858q226 311 369 858zM608 1378l-172 -188h-174l254 291h189l256 -291h-179z" />
    <glyph glyph-name="Ydieresis" unicode="&#x178;" horiz-adv-x="1409" 
d="M797 0h-183v664l-561 862h215l443 -684l440 684h205l-559 -860v-666zM911.5 1696q-49.5 0 -82 32.5t-33.5 84t32.5 85t83 33.5t83 -33.5t33.5 -85t-33.5 -84t-83 -32.5zM506 1696q-42 0 -68 14q-58 30 -57.5 91.5t33 95.5t83 34t84 -33.5t33.5 -85t-33.5 -84t-74.5 -32.5
z" />
    <glyph glyph-name="Zacute" unicode="&#x179;" horiz-adv-x="1310" 
d="M109 1356v170h1140l-864 -1356h832l-52 -170h-1099l872 1356h-829zM887 1956l-213 -301h-166l178 301h201z" />
    <glyph glyph-name="zacute" unicode="&#x17a;" horiz-adv-x="1009" 
d="M74 911v148h870l-592 -912h584l-51 -147h-828l605 911h-588zM748 1489l-213 -301h-166l178 301h201z" />
    <glyph glyph-name="Zdotaccent" unicode="&#x17b;" horiz-adv-x="1310" 
d="M109 1356v170h1140l-864 -1356h832l-52 -170h-1099l872 1356h-829zM655 1694q-41 0 -67 15q-56 33 -56 93.5t33 93.5t82 33t83 -32.5t34 -84t-34 -85t-75 -33.5z" />
    <glyph glyph-name="zdotaccent" unicode="&#x17c;" horiz-adv-x="1009" 
d="M74 911v148h870l-592 -912h584l-51 -147h-828l605 911h-588zM508 1227q-49 0 -82 33.5t-34 85t33 84t83 32.5t83 -32.5t34 -84t-34 -85t-83 -33.5z" />
    <glyph glyph-name="Zcaron" unicode="&#x17d;" horiz-adv-x="1310" 
d="M109 1356v170h1140l-864 -1356h832l-52 -170h-1099l872 1356h-829zM754 1665h-191l-254 289h178l175 -187l169 187h177z" />
    <glyph glyph-name="zcaron" unicode="&#x17e;" horiz-adv-x="1009" 
d="M74 911v148h870l-592 -912h584l-51 -147h-828l605 911h-588zM612 1198h-188l-254 289h178l174 -187l170 187h176z" />
    <glyph glyph-name="florin" unicode="&#x192;" 
 />
    <glyph glyph-name="Scommaaccent" unicode="&#x218;" horiz-adv-x="1196" 
d="M793 -129q0 -158 -46.5 -266.5t-152.5 -188.5l-92 103q94 89 120 207q14 60 15 145h156zM637 -18q-160 0 -304.5 64.5t-248.5 191.5l133 129q172 -217 424 -217q127 0 200.5 69.5t67.5 192.5q-3 147 -161 224q-70 34 -153 62q-203 70 -315 144q-152 100 -152.5 291.5
t130.5 302t326 110.5q256 0 454 -172l-106 -139q-156 143 -332 143t-249 -98q-38 -51 -38 -120t34 -119t89.5 -79.5t125.5 -58.5q72 -29 144 -53q159 -52 275.5 -150t116.5 -292.5t-127 -310t-334 -115.5z" />
    <glyph glyph-name="scommaaccent" unicode="&#x219;" horiz-adv-x="907" 
d="M621 -129q0 -158 -46.5 -266.5t-152.5 -188.5l-92 103q94 89 120 207q14 60 15 145h156zM492.5 -16q-138.5 0 -252 51t-187.5 139l125 121q111 -156 297 -156q74 0 127 42t53 116t-58 115t-171.5 64t-181.5 60q-140 76 -140 242q0 127 102.5 213t256.5 86q205 0 334 -137
l-101 -121q-98 104 -221 104.5t-171 -64.5q-24 -32 -23 -71q0 -78 53 -108.5t190 -61.5q307 -66 307 -325q0 -135 -100 -222t-238.5 -87z" />
    <glyph glyph-name="uni021A" unicode="&#x21a;" horiz-adv-x="1392" 
d="M842 -129q0 -158 -46 -266.5t-153 -188.5l-92 103q93 89 119 207q14 60 16 145h156zM778 1356v-1356h-180v1356h-532v170h1286l-54 -170h-520z" />
    <glyph glyph-name="uni021B" unicode="&#x21b;" horiz-adv-x="892" 
d="M524 -129h156q2 -158 -44 -266.5t-155 -188.5l-90 103q74 70 102.5 147.5t30.5 204.5zM600 -10q-156 0 -253 103.5t-97 275.5v534h-184v156h184v342h174v-342h281l-52 -156h-229v-526q0 -147 96 -205q45 -27 112 -27t146 39l49 -141q-115 -53 -227 -53z" />
    <glyph glyph-name="circumflex" unicode="&#x2c6;" 
d="M750 1190h-179l-174 188l-170 -188h-174l254 291h189z" />
    <glyph glyph-name="caron" unicode="&#x2c7;" 
d="M74 1487h178l174 -187l170 187h174l-254 -289h-188z" />
    <glyph glyph-name="breve" unicode="&#x2d8;" 
d="M393 1196q-137 0 -227 84t-90 211h137q0 -76 51 -125q50 -49 114 -49q64 -1 104 21q89 48 89 153h138q0 -84 -41 -151.5t-114 -105.5t-161 -38z" />
    <glyph glyph-name="dotaccent" unicode="&#x2d9;" 
d="M167 1227q-50 0 -83 33.5t-33 85t33 84t83 32.5t83 -32.5t33 -84t-33 -85t-83 -33.5z" />
    <glyph glyph-name="ring" unicode="&#x2da;" 
d="M217.5 1510.5q-39.5 -37.5 -39.5 -94t39 -93.5t98.5 -37t98.5 37t39 79q-1 42 -11 66t-28 42q-38 38 -97.5 38t-99 -37.5zM315 1186q-68 0 -125 29.5t-88.5 83t-31.5 118.5q0 98 70.5 165t157.5 67q88 0 144 -31q120 -66 119 -201q0 -98 -70 -164.5t-176 -66.5z" />
    <glyph glyph-name="ogonek" unicode="&#x2db;" 
d="M303 -444q-111 0 -171 55t-60 129q0 149 149 260h123q-129 -111 -129 -215q0 -49 34 -79t77 -30t69 5l-2 -117q-49 -8 -90 -8z" />
    <glyph glyph-name="tilde" unicode="&#x2dc;" horiz-adv-x="874" 
d="M287 1475q82 0 184 -45t164 -45.5t104 83.5l107 -71q-39 -84 -88 -122t-121 -38t-181.5 45t-160.5 45q-78 0 -123 -84l-111 78q76 154 226 154z" />
    <glyph glyph-name="hungarumlaut" unicode="&#x2dd;" 
d="M821 1489l-229 -301h-166l205 301h190zM463 1489l-230 -301h-165l202 301h193z" />
    <glyph glyph-name="gravecomb" unicode="&#x300;" horiz-adv-x="0" 
d="M-449 1489h201l180 -301h-165z" />
    <glyph glyph-name="acutecomb" unicode="&#x301;" horiz-adv-x="0" 
d="M-51 1489l-215 -301h-166l180 301h201z" />
    <glyph glyph-name="uni0302" unicode="&#x302;" horiz-adv-x="0" 
d="M-53 1190h-178l-175 188l-169 -188h-175l254 291h189z" />
    <glyph glyph-name="tildecomb" unicode="&#x303;" horiz-adv-x="0" 
d="M-264 1237q-78 0 -186.5 45t-159.5 45q-80 0 -123 -84l-113 78q76 154 228 154q82 0 184 -45.5t153 -45.5q70 0 113 84l107 -71q-70 -160 -203 -160z" />
    <glyph glyph-name="uni0304" unicode="&#x304;" horiz-adv-x="0" 
d="M-819 1417h749v-139h-749v139z" />
    <glyph glyph-name="uni0306" unicode="&#x306;" horiz-adv-x="0" 
d="M-391 1196q-135 0 -226.5 84t-91.5 211h138q0 -76 52 -125t128 -49t127 49t51 125h137q0 -84 -41 -151.5t-112.5 -105.5t-161.5 -38z" />
    <glyph glyph-name="uni0307" unicode="&#x307;" horiz-adv-x="0" 
d="M-168 1227q-49 0 -82 33.5t-33 85t33 84t83 32.5t83 -32.5t33 -84t-34 -85t-83 -33.5z" />
    <glyph glyph-name="uni0308" unicode="&#x308;" horiz-adv-x="0" 
d="M-168 1229q-42 0 -68 14q-58 30 -57.5 92t33.5 95.5t83 33.5t84 -33.5t33 -85t-34 -84t-74 -32.5zM-584 1229q-40 0 -66 14q-56 31 -56.5 92.5t32.5 95t74 33.5q42 0 68 -15q58 -33 57.5 -93.5t-34.5 -93.5t-75 -33z" />
    <glyph glyph-name="uni030A" unicode="&#x30a;" horiz-adv-x="0" 
d="M-319 1548q-35 0 -67 -18q-67 -37 -67 -103.5t39 -103.5t98.5 -37t98.5 37t39 79t-10.5 66.5t-27.5 42t-42.5 27.5t-60.5 10zM-314 1186q-105 0 -176 66.5t-71 165t70.5 165t176 66.5t175 -66.5t69.5 -165t-69.5 -165t-174.5 -66.5z" />
    <glyph glyph-name="uni030B" unicode="&#x30b;" horiz-adv-x="0" 
d="M-37 1489l-229 -301h-166l205 301h190zM-397 1489l-228 -301h-166l203 301h191z" />
    <glyph glyph-name="uni030C" unicode="&#x30c;" horiz-adv-x="0" 
d="M-750 1487h179l174 -187l170 187h174l-254 -289h-189z" />
    <glyph glyph-name="uni0312" unicode="&#x312;" horiz-adv-x="0" 
d="M-147 1344.5q0 -58.5 -38 -96.5t-89.5 -38t-85.5 20q-74 44 -74 139q0 187 178 317l63 -72q-78 -63 -108 -135q70 2 112 -37t42 -97.5z" />
    <glyph glyph-name="uni0326" unicode="&#x326;" horiz-adv-x="0" 
d="M-371 -481q74 70 102.5 147.5t30.5 204.5h156q2 -158 -44 -266.5t-155 -188.5z" />
    <glyph glyph-name="uni0327" unicode="&#x327;" horiz-adv-x="0" 
d="M-298 -449q-93 0 -185 25l16 115q82 -27 148 -27q115 0 114 82q0 53 -53 73.5t-166 18.5l49 176l117 2l-23 -92q98 -2 154.5 -52t56.5 -137t-67.5 -135.5t-160.5 -48.5z" />
    <glyph glyph-name="uni0328" unicode="&#x328;" horiz-adv-x="0" 
d="M-170 -444q-111 0 -170 55t-59 129q0 152 147 260h125q-129 -111 -129 -215q0 -49 33 -79t77 -30t68 5v-117q-51 -8 -92 -8z" />
    <glyph glyph-name="uni0335" unicode="&#x335;" horiz-adv-x="0" 
d="M-819 698v154h749v-154h-749z" />
    <glyph glyph-name="uni0338" unicode="&#x338;" horiz-adv-x="0" 
d="M-174 1563l135 -80l-874 -1516l-134 80z" />
    <glyph glyph-name="uni0394" unicode="&#x394;" horiz-adv-x="1589" 
d="M330 162h925l-462 1018zM795 1550l731 -1550h-1463z" />
    <glyph glyph-name="uni03A9" unicode="&#x3a9;" horiz-adv-x="1773" 
d="M1114 0v195q106 45 190 132q83 87 129 205t46 246q0 256 -169 426t-423 170t-424 -170t-170 -426q0 -193 101 -352t263 -231v-195h-530v162h281q-139 106 -219 266q-79 160 -79 362t102 379q101 175 278 275q178 100 396 100t396 -99t278 -275t101 -380q0 -202 -79 -362
t-218 -266h324l-54 -162h-520z" />
    <glyph glyph-name="uni03BC" unicode="&#x3bc;" horiz-adv-x="1220" 
d="M901 1059h174v-1059h-174v90q-135 -113 -309 -113t-289 93v-414h-158v1403h174v-592q1 -200 135 -285q64 -41 150 -41q182 0 297 140v778z" />
    <glyph glyph-name="pi" unicode="&#x3c0;" horiz-adv-x="1366" 
d="M1200 -6q-297 0 -297 301v616h-450v-911h-170v911h-193v148h1208l-53 -148h-172v-577q-1 -104 27 -148t104 -45q18 0 37 2l8 -147q-25 -2 -49 -2z" />
    <glyph glyph-name="Wgrave" unicode="&#x1e80;" horiz-adv-x="2293" 
d="M2253 1526q-229 -807 -750 -1546l-342 784q-193 -406 -459 -784l-671 1546h202l508 -1184q188 307 330 629l-240 555h203l504 -1176q352 578 528 1176h187zM1366 1655h-166l-215 301h201z" />
    <glyph glyph-name="wgrave" unicode="&#x1e81;" horiz-adv-x="1800" 
d="M1554 1059h187q-92 -360 -251 -638t-357 -439l-226 522q-168 -313 -397 -522l-467 1077h197l325 -772q152 201 254 415l-153 357h196l328 -780q239 321 364 780zM1069 1188h-166l-213 301h201z" />
    <glyph glyph-name="Wacute" unicode="&#x1e82;" horiz-adv-x="2293" 
d="M2253 1526q-229 -807 -750 -1546l-342 784q-193 -406 -459 -784l-671 1546h202l508 -1184q188 307 330 629l-240 555h203l504 -1176q352 578 528 1176h187zM1417 1956l-213 -301h-166l179 301h200z" />
    <glyph glyph-name="wacute" unicode="&#x1e83;" horiz-adv-x="1800" 
d="M1554 1059h187q-92 -360 -251 -638t-357 -439l-226 522q-168 -313 -397 -522l-467 1077h197l325 -772q152 201 254 415l-153 357h196l328 -780q239 321 364 780zM1120 1489l-213 -301h-166l179 301h200z" />
    <glyph glyph-name="Wdieresis" unicode="&#x1e84;" horiz-adv-x="2293" 
d="M2253 1526q-229 -807 -750 -1546l-342 784q-193 -406 -459 -784l-671 1546h202l508 -1184q188 307 330 629l-240 555h203l504 -1176q352 578 528 1176h187zM1302.5 1728.5q-32.5 32.5 -32.5 75.5t14 70q30 57 90.5 57t93.5 -33.5t33 -75.5q1 -42 -15 -70q-31 -56 -91 -56
t-92.5 32.5zM979 1696q-41 0 -67 14q-58 30 -58 96.5t38.5 95.5t83 29t78 -33.5t33.5 -85t-33.5 -84t-74.5 -32.5z" />
    <glyph glyph-name="wdieresis" unicode="&#x1e85;" horiz-adv-x="1800" 
d="M1554 1059h187q-92 -360 -251 -638t-357 -439l-226 522q-168 -313 -397 -522l-467 1077h197l325 -772q152 201 254 415l-153 357h196l328 -780q239 321 364 780zM1089.5 1229q-49.5 0 -83 32.5t-33.5 84t32.5 85t74.5 33.5q40 0 68 -15q60 -33 56 -103q0 -51 -32.5 -84
t-82 -33zM682 1229q-42 0 -68 14q-58 30 -57.5 92t34.5 95.5t83 33.5t83 -33.5t34 -85t-34 -84t-75 -32.5z" />
    <glyph glyph-name="Ygrave" unicode="&#x1ef2;" horiz-adv-x="1409" 
d="M797 0h-183v664l-561 862h215l443 -684l440 684h205l-559 -860v-666zM893 1655h-166l-215 301h201z" />
    <glyph glyph-name="ygrave" unicode="&#x1ef3;" horiz-adv-x="1224" 
d="M975 1059h182q-247 -1019 -854 -1355q-168 -93 -346 -120l-6 166q95 16 203 66q185 84 325 231l-446 1012h205l368 -858q226 311 369 858zM797 1188h-166l-215 301h200z" />
    <glyph glyph-name="endash" unicode="&#x2013;" horiz-adv-x="1523" 
d="M143 598v160h1241l-51 -160h-1190z" />
    <glyph glyph-name="emdash" unicode="&#x2014;" horiz-adv-x="2158" 
d="M143 598v160h1885l-54 -160h-1831z" />
    <glyph glyph-name="quoteleft" unicode="&#x2018;" horiz-adv-x="505" 
d="M279 1018h-207l161 579h140z" />
    <glyph glyph-name="quoteright" unicode="&#x2019;" horiz-adv-x="505" 
d="M227 1597h207l-162 -579h-139z" />
    <glyph glyph-name="quotesinglbase" unicode="&#x201a;" horiz-adv-x="501" 
d="M223 317h207l-160 -579h-141z" />
    <glyph glyph-name="quotedblleft" unicode="&#x201c;" horiz-adv-x="888" 
d="M657 1018h-206l161 579h140zM279 1018h-207l161 579h140z" />
    <glyph glyph-name="quotedblright" unicode="&#x201d;" horiz-adv-x="884" 
d="M606 1597h207l-162 -579h-139zM227 1597h207l-162 -579h-139z" />
    <glyph glyph-name="quotedblbase" unicode="&#x201e;" horiz-adv-x="880" 
d="M604 317h207l-162 -579h-139zM223 317h207l-160 -579h-141z" />
    <glyph glyph-name="dagger" unicode="&#x2020;" horiz-adv-x="962" 
d="M844 1270v-148h-285v-616h-153v616h-287v148h287v327h153v-327h285z" />
    <glyph glyph-name="daggerdbl" unicode="&#x2021;" horiz-adv-x="962" 
d="M844 1198h-285v-205h285v-147h-285v-340h-153v340h-287v147h287v205h-287v148h287v251h153v-251h285v-148z" />
    <glyph glyph-name="bullet" unicode="&#x2022;" horiz-adv-x="555" 
d="M278 692q-54 0 -92 37q-36 37 -36 94t36 95q37 36 82 36t74 -16q62 -34 63 -103t-36 -106t-91 -37z" />
    <glyph glyph-name="ellipsis" unicode="&#x2026;" horiz-adv-x="1323" 
d="M1115 -12q-44 0 -73 16q-61 34 -61 100q0 67 33 101t80 36q48 1 76 -15q59 -34 60 -99t-35 -102t-80 -37zM662 -12q-53 0 -90 37q-36 37 -35 91q0 54 35 90q36 36 90 36t89 -36t35 -90t-36 -91t-88 -37zM227 -12q-45 0 -73 16q-59 33 -61 110q-1 77 63 112t125 1
q61 -35 61 -100t-35 -102t-80 -37z" />
    <glyph glyph-name="perthousand" unicode="&#x2030;" horiz-adv-x="2646" 
d="M2219 127q97 0 163 66t65 163q1 64 -29 116t-82 83t-116 31q-98 0 -164 -67t-66 -164t66 -163t163 -65zM1372 127q64 0 116 30t82 82t29 117q0 96 -65 163q-66 67 -163 67t-163 -67t-66 -164t66 -163t164 -65zM2220 725q160 0 268 -105q108 -106 107 -264
q1 -158 -107 -264t-269 -106t-269 106t-107 264q0 102 49 188q50 86 136 133q86 48 192 48zM1372 725q160 0 268 -105q108 -106 107 -264q1 -158 -107 -264t-269 -106t-269 106t-107 264q0 102 49 188q50 86 136 133q86 48 192 48zM455 944q60 0 104 23t73 62q50 66 50 153
q0 88 -66 154t-162 65q-96 0 -163 -66q-66 -66 -66 -163q0 -96 66 -162t164 -66zM1280 1526h170l-922 -1526h-170zM454 803q-161 0 -269 105q-107 105 -107 266t108 264q108 104 269 104q159 0 267 -105t108 -265t-108 -264q-107 -105 -268 -105z" />
    <glyph glyph-name="guilsinglleft" unicode="&#x2039;" horiz-adv-x="747" 
d="M588 1059l-309 -449l309 -452h-191l-315 452l315 449h191z" />
    <glyph glyph-name="guilsinglright" unicode="&#x203a;" horiz-adv-x="763" 
d="M377 1059l315 -449l-315 -452h-193l312 452l-312 449h193z" />
    <glyph glyph-name="fraction" unicode="&#x2044;" 
 />
    <glyph glyph-name="Euro" unicode="&#x20ac;" horiz-adv-x="1404" 
d="M888 156q230 0 382 145l100 -135q-92 -82 -212 -129t-240 -47q-252 0 -433 146q-180 146 -241 392h-207v156h182q-2 37 -2 74t2 73h-182v156h207q59 249 237 399t422 150t451 -180l-107 -142q-152 156 -331 156t-306 -103t-180 -280h649l-53 -156h-625q-4 -37 -4 -75
t4 -72h611l-54 -156h-528q70 -234 270 -327q98 -45 188 -45z" />
    <glyph glyph-name="uni2113" unicode="&#x2113;" 
 />
    <glyph glyph-name="trademark" unicode="&#x2122;" horiz-adv-x="1697" 
d="M92 1419v107h656l-35 -107h-244v-655h-115v655h-262zM1606 764h-111v506l-266 -264l-258 264v-506h-113v770l371 -377l377 375v-768z" />
    <glyph glyph-name="uni2126" unicode="&#x2126;" horiz-adv-x="1773" 
d="M1114 0v195q106 45 190 132q83 87 129 205t46 246q0 256 -169 426t-423 170t-424 -170t-170 -426q0 -193 101 -352t263 -231v-195h-530v162h281q-139 106 -219 266q-79 160 -79 362t102 379q101 175 278 275q178 100 396 100t396 -99t278 -275t101 -380q0 -202 -79 -362
t-218 -266h324l-54 -162h-520z" />
    <glyph glyph-name="estimated" unicode="&#x212e;" horiz-adv-x="1271" 
 />
    <glyph glyph-name="arrowleft" unicode="&#x2190;" horiz-adv-x="1611" 
d="M1477 678v-172h-1115l340 -356l-118 -109l-516 551l516 553l118 -111l-340 -356h1115z" />
    <glyph glyph-name="arrowright" unicode="&#x2192;" horiz-adv-x="1593" 
d="M143 506v172h1114l-339 356l118 111l516 -553l-516 -551l-118 109l339 356h-1114z" />
    <glyph glyph-name="partialdiff" unicode="&#x2202;" 
 />
    <glyph glyph-name="emptyset" unicode="&#x2205;" 
 />
    <glyph glyph-name="uni2206" unicode="&#x2206;" horiz-adv-x="1589" 
d="M330 162h925l-462 1018zM795 1550l731 -1550h-1463z" />
    <glyph glyph-name="product" unicode="&#x220f;" horiz-adv-x="1452" 
d="M1104 1362v-1653h-174v1653h-463v-1653h-176v1653h-209v164h1290l-53 -164h-215z" />
    <glyph glyph-name="summation" unicode="&#x2211;" 
d="M1163 -131v-166h-1143l678 907l-678 916h1188l-53 -166h-807l555 -750l-555 -741h815z" />
    <glyph glyph-name="minus" unicode="&#x2212;" horiz-adv-x="1267" 
d="M150 707v161h968v-161h-968z" />
    <glyph glyph-name="radical" unicode="&#x221a;" horiz-adv-x="1236" 
d="M995 1526h174l-718 -1823l-437 891l150 76l272 -580z" />
    <glyph glyph-name="infinity" unicode="&#x221e;" 
 />
    <glyph glyph-name="integral" unicode="&#x222b;" 
 />
    <glyph glyph-name="approxequal" unicode="&#x2248;" 
 />
    <glyph glyph-name="notequal" unicode="&#x2260;" horiz-adv-x="1374" 
d="M1178 899h-359l-102 -264h461v-150h-519l-104 -270h-135l104 270h-329v150h389l100 264h-489v150h546l103 266h133l-100 -266h301v-150z" />
    <glyph glyph-name="lessequal" unicode="&#x2264;" horiz-adv-x="1335" 
d="M174 0v137h1002v-137h-1002zM1176 1206v-149l-840 -303l840 -303v-154l-1008 385v137z" />
    <glyph glyph-name="greaterequal" unicode="&#x2265;" horiz-adv-x="1335" 
d="M160 0v137h1001v-137h-1001zM160 1206l1007 -387v-137l-1007 -385v154l839 303l-839 303v149z" />
    <glyph glyph-name="lozenge" unicode="&#x25ca;" 
 />
    <glyph glyph-name="Oslash.ss01" horiz-adv-x="1740" 
d="M885 162q250 0 416.5 172t166.5 428q0 158 -65.5 289t-182 211.5t-262.5 99.5v-571h-176v567q-211 -37 -346 -202t-135 -407.5t167 -414.5t417 -172zM1661 762q0 -219 -101.5 -398.5t-279.5 -280.5t-368.5 -101t-334 59t-246 162.5t-161.5 249t-59 309.5q0 307 189 524
t482 254v225h176v-223q305 -27 504 -246t199 -534z" />
    <glyph glyph-name="i.loclTRK" horiz-adv-x="430" 
d="M127 0v1059h174v-1059h-174zM216 1227q-50 0 -83 33.5t-33 85t33 84t83 32.5t83 -32.5t33 -84t-33 -85t-83 -33.5z" />
    <glyph glyph-name="ae.alt" horiz-adv-x="1916" 
d="M588 487q-340 5 -340 -169q0 -180 224 -180.5t353 181.5q-31 78 -37 168h-200zM1096 839q-92 -83 -119 -216h655q-15 128 -103 213.5t-214.5 85.5t-218.5 -83zM496 1077q285 0 397 -209q72 98 181.5 154.5t240.5 56.5q217 0 360.5 -149.5t143.5 -378.5q0 -45 -4 -76h-844
q12 -96 62 -171t128 -118t172 -43q203 0 322 154l121 -113q-76 -96 -191 -150t-252 -54t-249.5 55t-186.5 155q-72 -96 -191.5 -153t-279.5 -57t-261.5 87t-101.5 230q0 340 504 336h219q-6 285 -297 285q-176 0 -311 -115l-82 137q157 137 400 137z" />
    <glyph glyph-name="oslash.ss01" horiz-adv-x="1277" 
d="M653 143q104 0 190.5 50.5t134.5 139.5t48 215.5t-86 232.5t-219 128v-370h-168v362q-121 -33 -196.5 -134t-75.5 -252t106 -261.5t266 -110.5zM1208 528q0 -233 -158.5 -390.5t-395 -157.5t-395.5 157.5t-159 378.5t126 370.5t327 182.5v174h168v-168q139 -16 249.5 -90
t174 -193.5t63.5 -263.5z" />
    <glyph glyph-name="zero.osf" horiz-adv-x="1290" 
d="M645 143q103 1 189 51t135 139t49 195q0 166 -106 277t-267 111q-160 0 -266 -112q-106 -110 -107 -276q0 -106 48 -195t135 -139q86 -50 190 -51zM645 -20q-239 0 -397 158t-158 391q0 235 159 393t396 157q156 1 283 -71q126 -72 198 -198t72 -282q0 -232 -158 -390
t-395 -158z" />
    <glyph glyph-name="one.osf" horiz-adv-x="714" 
d="M559 1059v-1059h-180v903h-299l51 156h428z" />
    <glyph glyph-name="two.osf" horiz-adv-x="1161" 
d="M96 0v39l408 268q241 157 299 264q31 57 31 141t-74 148t-189 64q-207 0 -366 -228l-125 101q192 283 512 283q166 0 290 -107q122 -106 122 -264t-98 -276t-335 -261l-28 -16h544l-51 -156h-940z" />
    <glyph glyph-name="three.osf" horiz-adv-x="1189" 
d="M612 -422q-158 0 -308 77t-238 195l133 132q158 -232 421 -232q133 0 227 90q93 90 93 243t-114 238t-326 85q-45 0 -64 -3l320 490h-619v166h907l-337 -514q193 -37 305 -166t110 -307q0 -214 -144 -354t-366 -140z" />
    <glyph glyph-name="four.osf" horiz-adv-x="1263" 
d="M805 152v518l-461 -518h461zM1247 152v-152h-276v-406h-166v406h-778l944 1087v-935h276z" />
    <glyph glyph-name="five.osf" horiz-adv-x="1230" 
d="M582 561q242 0 394 -136t152 -354q0 -219 -148 -361t-376 -142q-158 0 -305 74t-242 196l131 129q74 -107 184 -167t248 -60t232 91t94 241t-113 239q-115 88 -273 88t-337 -47l135 707h775l-52 -164h-585l-70 -348q84 14 156 14z" />
    <glyph glyph-name="six.osf" horiz-adv-x="1280" 
d="M254 563q0 -175 114 -293t278 -118q165 0 274 108q108 108 108 270t-108 270q-109 108 -273 107q-209 0 -366 -153q-27 -96 -27 -191zM655 1071q238 0 396 -155q157 -155 157 -387t-160 -389t-397 -156q-164 0 -295 76t-205 207q-75 132 -75 296q0 244 150 502
q151 258 399 461h229q-94 -86 -160 -150t-154 -166q-88 -104 -147 -200q121 61 262 61z" />
    <glyph glyph-name="seven.osf" horiz-adv-x="1171" 
d="M63 1059h1096l-805 -1465h-200l723 1297h-814v168z" />
    <glyph glyph-name="eight.osf" horiz-adv-x="1300" 
d="M650 150q163 0 271 98q107 98 107 246t-108 246t-259 100q-152 0 -258 -80q-70 -51 -100 -123q-29 -73 -31 -145q0 -146 108 -244t270 -98zM651 1391q-98 -1 -165 -57q-66 -56 -66 -140t66 -141t148 -57q80 0 132 25q52 26 84 72q31 45 31 115t-66 126t-164 57zM651 -18
q-159 0 -287 66t-202 182t-74 260t78 262t209 182q-131 102 -131 257t116 254q117 99 291 99t290 -99t116 -254t-131 -257q131 -63 209 -181t77 -264q0 -217 -160 -362t-401 -145z" />
    <glyph glyph-name="nine.osf" horiz-adv-x="1230" 
d="M621 186q209 0 344 170q20 78 20 174t-47 187q-47 90 -132 140t-194 50q-154 0 -254 -104t-100 -262q0 -159 102 -257t261 -98zM612 1075q158 0 284 -73q126 -74 197 -202t70 -288q0 -223 -142 -471t-386 -457h-232q299 268 439 492q-106 -57 -230 -58q-227 0 -382 148
q-154 148 -154 374t153 381q154 154 383 154z" />
    <glyph glyph-name="zero.tf" horiz-adv-x="1269" 
d="M635 162q169 0 281 172t112 430q0 170 -51 307t-141 216t-201 79q-168 0 -281 -172q-112 -172 -112 -430t112 -430t281 -172zM635 -14q-162 0 -294 101t-207 279t-75 370q0 360 164 583q76 103 184 163t228 60q162 0 294 -101t207 -279q74 -178 74 -398q0 -219 -74 -397
q-74 -177 -207 -279q-132 -102 -294 -102z" />
    <glyph glyph-name="one.tf" horiz-adv-x="1269" 
d="M739 164h467l-53 -164h-1055v164h465v1196h-315l53 166h438v-1362z" />
    <glyph glyph-name="two.tf" horiz-adv-x="1269" 
d="M623 1372q-235 0 -408 -244l-127 125q100 137 244 215t299 78q209 0 345 -128t136 -328q0 -123 -64 -248t-243 -320l-330 -358h719l-53 -164h-1028l563 621q150 164 205 262q55 99 55 213t-87 195t-226 81z" />
    <glyph glyph-name="three.tf" horiz-adv-x="1269" 
d="M209 397q167 -241 453 -241q144 0 246 95t102 257t-123 253t-352 91q-45 0 -62 -2l342 512h-668v166h959l-361 -539q166 -28 280 -123q164 -137 165 -365q2 -229 -151 -373t-386 -144q-169 0 -327 80t-254 200z" />
    <glyph glyph-name="four.tf" horiz-adv-x="1269" 
d="M809 436v658l-479 -658h479zM1260 436v-155h-283v-281h-168v281h-789l957 1271v-1116h283z" />
    <glyph glyph-name="five.tf" horiz-adv-x="1269" 
d="M193 391q169 -235 459 -235q150 0 254 97t104 257t-120 251t-288 91t-346 -49l137 725h801l-51 -166h-613l-71 -363q86 15 162 15q167 0 295 -60t202 -175q74 -116 74 -273q0 -226 -158 -374t-401 -148q-164 0 -318 74t-252 204z" />
    <glyph glyph-name="six.tf" horiz-adv-x="1269" 
d="M252 563q0 -175 112 -293t277 -118q163 0 271 108t108 272q0 162 -108 270t-269 107q-207 0 -364 -153q-27 -96 -27 -193zM651 1073q237 -1 393 -155t156 -388t-159 -390t-401 -156t-404 166t-162 412t150 505q151 258 397 461h229q-94 -86 -159 -150t-153 -166
q-88 -104 -145 -200q119 61 258 61z" />
    <glyph glyph-name="seven.tf" horiz-adv-x="1269" 
d="M82 1528h1206l-895 -1528h-205l809 1360h-915v168z" />
    <glyph glyph-name="eight.tf" horiz-adv-x="1269" 
d="M635 150q158 0 264 98q107 98 107 246t-106 247q-106 101 -264 101q-159 0 -265 -100q-107 -100 -107 -248t106 -246t265 -98zM635 1393q-95 -1 -159 -57t-64 -140t63 -141t159 -57t160 56q64 58 64 142q0 133 -134 181q-42 16 -89 16zM1188 489q0 -217 -159 -362
t-394 -145q-156 0 -283 66q-126 66 -198 182t-72 260t76 264t207 182q-131 100 -131 256t114 255q115 99 287 99t287 -99q114 -99 114 -255t-131 -256q131 -63 207 -182t76 -265z" />
    <glyph glyph-name="nine.tf" horiz-adv-x="1269" 
d="M639 621q217 0 360 176q23 84 23 166q0 182 -110 298q-110 115 -276 115t-272 -110t-106 -275q0 -164 108 -267t273 -103zM629 1544q247 0 409 -166t162 -406t-147 -498t-402 -474h-229q309 283 452 514q-113 -61 -255 -61q-142 -1 -269 69q-126 70 -200 193t-74 275
t72 281q73 129 200 201t281 72z" />
    <glyph glyph-name="bowlright" horiz-adv-x="1372" 
d="M649 -20q-231 0 -373 139l15 205q43 -82 136 -131t202 -50q158 0 264 111q106 112 106 276t-106 275t-264 110q-109 0 -202 -49t-136 -131l-15 207q140 137 372 137q232 1 384 -155t152 -395t-152 -394t-383 -155z" />
    <glyph glyph-name="bowlleft" 
d="M634 -20q-230 0 -382 156t-152 394t152 394t383 156t371 -138l-13 -207q-45 82 -137 131t-203 49q-158 -1 -263 -111t-105 -275t105 -275t263 -111q111 -1 203 49t137 132l13 -207q-142 -137 -372 -137z" />
    <glyph glyph-name="nright" horiz-adv-x="1163" 
d="M622 1081q188 0 310 -129q121 -129 121 -340v-612h-174v594q0 179 -108 267q-67 55 -171 57q-178 0 -305 -140v-778h-174v1059h174v-88q139 110 327 110z" />
    </font>
</defs>
</svg>
