<?xml version="1.0" standalone="no"?>
<!DOCTYPE svg PUBLIC "-//W3C//DTD SVG 1.1//EN" "http://www.w3.org/Graphics/SVG/1.1/DTD/svg11.dtd" >
<svg xmlns="http://www.w3.org/2000/svg">
<metadata>
Created by FontPrep 20130207 at Wed Jan  4 11:59:08 2017
 By Rasmus Elken
Copyright \(c\) 2016 by Kontrapunkt A/S. Designed for DONG Energy. All rights reserved.
</metadata>
<defs>
<font id="dcab6b22fdde84a30e66201f1e2e4386" horiz-adv-x='1024' >
  <font-face 
    font-family="MaineSans-Light"
    font-weight="300"
    font-stretch="normal"
    units-per-em="2048"
    panose-1="0 0 4 0 0 0 0 0 0 0"
    ascent="1638"
    descent="-410"
    x-height="1059"
    cap-height="1526"
    bbox="-1001 -539 2617 2114"
    underline-thickness="102"
    underline-position="-102"
    unicode-range="U+000D-25CA"
  />
<missing-glyph 
 />
    <glyph glyph-name=".notdef" 
 />
    <glyph glyph-name=".null" 
 />
    <glyph glyph-name="nonmarkingreturn" horiz-adv-x="681" 
 />
    <glyph glyph-name="CR" unicode="&#xd;" 
 />
    <glyph glyph-name="space" unicode=" " horiz-adv-x="563" 
 />
    <glyph glyph-name="exclam" unicode="!" horiz-adv-x="512" 
d="M255 -6q-40 0 -66 26t-25 67q0 40 25 67q26 26 66 26t67 -26q26 -26 26 -67q0 -40 -26 -67q-27 -26 -67 -26zM201 1526h110v-402l-20 -661h-70l-20 661v402z" />
    <glyph glyph-name="quotedbl" unicode="&#x22;" horiz-adv-x="808" 
d="M528 1597h113v-520h-113v520zM168 1597h113v-520h-113v520z" />
    <glyph glyph-name="numbersign" unicode="#" horiz-adv-x="1384" 
d="M842 565l92 408h-445l-94 -408h447zM20 485v80h281l94 408h-276v80h295l106 467h96l-108 -467h444l109 467h94l-106 -467h284l-22 -80h-281l-94 -408h295l-21 -80h-292l-113 -485h-94l112 485h-446l-113 -485h-94l113 485h-263z" />
    <glyph glyph-name="dollar" unicode="$" horiz-adv-x="1144" 
d="M637 147q147 4 230 81t78 209t-131 207q-57 35 -177 81v-578zM229 1150q0 -114 95 -180t221 -106v531q-143 -3 -229 -67t-87 -178zM637 -164h-92v217q-264 27 -439 209l74 76q156 -162 365 -186v606q-305 96 -376 219q-46 80 -46 172q0 147 118 243t304 101v154h92v-158
q186 -18 342 -135l-64 -82q-137 98 -278 117v-558q242 -80 328 -175q84 -96 84 -246t-108 -253t-304 -108v-213z" />
    <glyph glyph-name="percent" unicode="%" horiz-adv-x="1804" 
d="M1373 80q77 0 140 36q134 77 134 238q0 119 -78 197t-196 78q-119 0 -197 -78t-78 -197q0 -78 36 -140t99 -98t140 -36zM1372 -12q-160 0 -268 104t-107 262q0 158 108 263q107 105 267 105t268 -104q108 -106 107 -264q1 -158 -107 -262t-268 -104zM459 899
q117 0 195 79t78 197q1 117 -78 195q-80 78 -196 78t-196 -78t-80 -196q0 -76 36 -140t100 -99q64 -36 141 -36zM1309 1526h114l-919 -1526h-115zM459 807q-160 0 -269 104q-108 105 -108 263t108 263q109 105 269 105t266 -105t106 -263t-106 -262t-266 -105z" />
    <glyph glyph-name="ampersand" unicode="&#x26;" horiz-adv-x="1400" 
d="M524 78q86 0 170 46t189 146l20 21l-418 495l-24 -20q-135 -113 -191 -197t-63 -174q-6 -131 87 -224t230 -93zM515 -16q-114 0 -207 49t-147 137q-55 88 -57 204t64 219t229 238l31 25q-3 4 -63 75q-60 70 -72 99q-11 30 -31 75t-20 122q0 135 99 228t262 93t290 -118
l-64 -68q-111 100 -229 100t-186 -66q-70 -66 -70 -165q0 -131 131 -279l502 -590l285 271l61 -62l-287 -278l250 -293h-139l-186 221l-21 -18q-121 -117 -216 -168t-209 -51z" />
    <glyph glyph-name="quotesingle" unicode="'" horiz-adv-x="450" 
d="M168 1597h113v-524h-113v524z" />
    <glyph glyph-name="parenleft" unicode="(" horiz-adv-x="557" 
d="M84 646q0 425 227 880h111q-238 -432 -238 -886t238 -886h-111q-227 467 -227 892z" />
    <glyph glyph-name="parenright" unicode=")" horiz-adv-x="557" 
d="M371 640q0 454 -236 886h109q227 -455 227 -880t-227 -892h-109q236 432 236 886z" />
    <glyph glyph-name="asterisk" unicode="*" horiz-adv-x="970" 
d="M436 1577h99v-301l311 100l28 -92l-319 -104l207 -283l-78 -57l-199 272l-198 -272l-78 57l207 283l-320 104l31 92l309 -100v301z" />
    <glyph glyph-name="plus" unicode="+" horiz-adv-x="1261" 
d="M1128 834v-91h-452v-469h-92v469h-451v91h451v456h92v-456h452z" />
    <glyph glyph-name="comma" unicode="," horiz-adv-x="425" 
d="M125 -260l-59 72q76 76 110 160t37 210h113q-2 -152 -50 -258t-151 -184z" />
    <glyph glyph-name="hyphen" unicode="-" horiz-adv-x="722" 
d="M592 688v-100h-461v100h461z" />
    <glyph glyph-name="period" unicode="." horiz-adv-x="423" 
d="M212 -6q-40 0 -67 26t-26 67q0 40 26 67q27 26 67 26t67 -26t27 -67q0 -40 -27 -67q-27 -26 -67 -26z" />
    <glyph glyph-name="slash" unicode="/" horiz-adv-x="1021" 
d="M911 1542l90 -53l-872 -1509l-88 53z" />
    <glyph glyph-name="zero" unicode="0" horiz-adv-x="1351" 
d="M676 96q205 0 342 192t137 475q0 284 -137 475q-137 192 -342 192t-342 -192t-137 -475t137 -475t342 -192zM676 -12q-166 0 -302 101t-213 279t-77 395q0 218 77 395q77 176 213 278t302 102t302 -101t213 -279t77 -395q0 -218 -77 -395q-77 -176 -213 -278t-302 -102z
" />
    <glyph glyph-name="one" unicode="1" horiz-adv-x="708" 
d="M520 1526v-1526h-106v1423h-332l37 103h401z" />
    <glyph glyph-name="two" unicode="2" horiz-adv-x="1159" 
d="M926 1079q0 162 -96 260q-96 99 -234 99q-264 1 -438 -256l-80 67q96 139 226 216t278 77q202 0 330 -127t128 -332q0 -137 -76 -276t-249 -318l-379 -385h743l-37 -104h-944l518 541q168 176 239 301t71 237z" />
    <glyph glyph-name="three" unicode="3" horiz-adv-x="1189" 
d="M1118 471q0 -209 -147 -347t-369 -138q-146 0 -294 68t-249 186l86 79q88 -109 209 -167t250 -58q178 0 292 108t114 291t-133 289t-379 107h-17l346 532h-702v105h889l-367 -555q227 -19 349 -155t122 -345z" />
    <glyph glyph-name="four" unicode="4" horiz-adv-x="1310" 
d="M874 403v852l-630 -852h630zM1266 403v-98h-287v-305h-105v305h-829l934 1245v-1147h287z" />
    <glyph glyph-name="five" unicode="5" horiz-adv-x="1226" 
d="M614 983q128 0 252 -53t199 -164q76 -111 76 -264q0 -226 -159 -370t-396 -144q-147 0 -297 70t-248 184l88 82q88 -113 208 -171t249 -59q194 0 320 114t126 285t-126 281q-126 111 -322 111q-154 0 -326 -51l133 692h754l-37 -103h-629l-90 -458q97 18 225 18z" />
    <glyph glyph-name="six" unicode="6" horiz-adv-x="1243" 
d="M640 86q188 0 314 126q125 126 125 311t-122 307t-302 122q-119 0 -229 -50t-195 -136q-29 -104 -28 -209q1 -201 125 -336t312 -135zM651 1055q229 0 383 -152t154 -380t-156 -382q-156 -153 -392 -153t-392 163t-156 403t150 497q150 258 420 475h129
q-344 -309 -482 -568q164 97 342 97z" />
    <glyph glyph-name="seven" unicode="7" horiz-adv-x="1181" 
d="M66 1526h1093l-837 -1526h-132l789 1423h-913v103z" />
    <glyph glyph-name="eight" unicode="8" horiz-adv-x="1269" 
d="M635 90q186 0 310 112t124 280t-124 281q-124 114 -310 114t-310 -114t-124 -282q0 -167 124 -279t310 -112zM354 1213q0 -67 37 -123t102 -88t142 -31q119 -1 199 69t80 171t-80 166t-178 65t-163 -30q-139 -64 -139 -199zM1178 475q0 -209 -156 -348t-387 -139
q-152 0 -277 63q-126 63 -196 175t-70 260t91 272q91 123 243 176q-111 63 -155 168q-22 53 -21 112q0 139 110 232q111 92 275 92q109 0 197 -42t138 -116t50 -150q0 -195 -174 -296q205 -73 290 -260q42 -92 42 -199z" />
    <glyph glyph-name="nine" unicode="9" horiz-adv-x="1208" 
d="M598 573q117 -1 222 55t184 152q23 90 22 181q0 205 -127 341t-317 136q-113 0 -206 -60q-94 -60 -146 -164t-52 -231q0 -174 121 -292t299 -118zM582 1538q240 0 398 -165t157 -405q0 -240 -153 -498t-417 -470h-131q98 88 170 158t168 190t154 232q-152 -109 -328 -109
q-227 0 -379 146t-151 366q0 156 66 284q67 127 185 199t261 72z" />
    <glyph glyph-name="colon" unicode=":" horiz-adv-x="436" 
d="M212 -6q-40 0 -67 26t-26 67q0 40 26 67q27 26 67 26t67 -26t27 -67q0 -40 -27 -67q-27 -26 -67 -26zM212 711q-40 1 -67 27t-26 66t27 66t66 27q40 0 67 -27q27 -26 27 -66t-27 -67q-27 -26 -67 -26z" />
    <glyph glyph-name="semicolon" unicode=";" horiz-adv-x="436" 
d="M125 -260l-59 72q76 76 110 160t37 210h113q-2 -152 -50 -258t-151 -184zM212 711q-40 1 -67 27t-26 66t27 66t66 27q40 0 67 -27q27 -26 27 -66t-27 -67q-27 -26 -67 -26z" />
    <glyph glyph-name="less" unicode="&#x3c;" horiz-adv-x="1323" 
d="M1196 1196v-104l-885 -367l885 -369v-104l-1003 424v92z" />
    <glyph glyph-name="equal" unicode="=" horiz-adv-x="1306" 
d="M1133 606v-98h-959v98h959zM1133 1008v-99h-959v99h959z" />
    <glyph glyph-name="greater" unicode="&#x3e;" horiz-adv-x="1257" 
d="M150 1196l1005 -428v-92l-1005 -424v104l886 369l-886 367v104z" />
    <glyph glyph-name="question" unicode="?" horiz-adv-x="983" 
d="M439 -6q-41 0 -67 26t-26 67q0 40 27 67q27 26 67 26t65 -26t25 -67q0 -40 -25 -67q-26 -26 -66 -26zM4 1319q206 215 470 215q136 0 254 -59t184 -168t65 -254q0 -236 -167 -397t-411 -158l-30 2v90h8q100 0 192 36t159 96q146 131 145 313q-1 183 -115 291
q-116 108 -308 108t-374 -189z" />
    <glyph glyph-name="at" unicode="@" horiz-adv-x="2129" 
d="M1102 272q154 0 262 111v516l-2 -22q-110 100 -262 100t-253 -100t-101 -251q0 -150 100 -252q102 -102 256 -102zM1462 449q0 -81 46 -131t138 -50t159 106t67 267q0 221 -104 402q-103 181 -285 285t-377 106q-371 1 -604 -237q-109 -109 -172 -261q-64 -152 -64 -354
t106 -386t298 -290t449 -106t480 116l41 -88q-258 -129 -540 -129t-493 116q-212 115 -331 323q-118 208 -118 471t121 476t331 335q211 122 466 122t460 -117t321 -321t115 -457q0 -201 -95 -336t-253 -135q-119 0 -186 60q-31 25 -49 61q-125 -119 -311 -119t-311 126
q-124 126 -124 322t124 320t305 125q181 0 292 -100v78l98 -2v-598z" />
    <glyph glyph-name="A" unicode="A" horiz-adv-x="1554" 
d="M422 545h704l-352 755zM1380 0l-206 444h-799l-207 -444h-117l725 1536l727 -1536h-123z" />
    <glyph glyph-name="B" unicode="B" horiz-adv-x="1406" 
d="M809 102q178 0 276.5 85t98.5 245q0 213 -172 293q-84 39 -203 39h-514v-662h514zM694 1423h-399v-557h514q51 0 98 -6q119 117 119 258t-92.5 223t-239.5 82zM1294 432q0 -203 -128 -317.5t-343 -114.5h-637v1526h527q184 0 304 -117t120 -285.5t-125 -287.5
q135 -43 208.5 -148.5t73.5 -255.5z" />
    <glyph glyph-name="C" unicode="C" horiz-adv-x="1540" 
d="M893 -12q-213 0 -390 101t-277.5 279.5t-100.5 395.5t100.5 394t276.5 278.5t412 101.5t454 -152l-63 -86q-180 133 -412 134q-279 0 -468 -192.5t-189 -478.5t189 -478.5t461 -192.5t468 164l65 -80q-106 -88 -244.5 -138t-281.5 -50z" />
    <glyph glyph-name="D" unicode="D" horiz-adv-x="1556" 
d="M657 102q281 0 470.5 184.5t189.5 476.5t-189.5 475t-470.5 183h-358v-1319h358zM657 1526q217 0 392.5 -95.5t278 -270.5t102.5 -397t-102.5 -397.5t-278 -270.5t-392.5 -95h-471v1526h471z" />
    <glyph glyph-name="E" unicode="E" horiz-adv-x="1202" 
d="M297 104h795l-37 -104h-869v1526h904l-37 -105h-756v-563h598v-106h-598v-648z" />
    <glyph glyph-name="F" unicode="F" horiz-adv-x="1146" 
d="M297 1421v-561h602v-106h-602v-754h-111v1526h895l-39 -105h-745z" />
    <glyph glyph-name="G" unicode="G" horiz-adv-x="1599" 
d="M1319 705h104v-541q-106 -80 -247.5 -128t-293.5 -48t-295 60.5t-244 163.5t-159.5 246.5t-58.5 303.5q0 217 100.5 394t277.5 279.5t409 102.5t448 -152l-64 -86q-176 133 -399 134q-281 0 -470 -193.5t-189 -477.5t187 -476.5t470 -192.5q225 0 424 119v492z" />
    <glyph glyph-name="H" unicode="H" horiz-adv-x="1574" 
d="M1278 1526h111v-1526h-111v735h-983v-735h-109v1526h109v-688h983v688z" />
    <glyph glyph-name="I" unicode="I" horiz-adv-x="561" 
d="M225 1526h111v-1526h-111v1526z" />
    <glyph glyph-name="J" unicode="J" horiz-adv-x="778" 
d="M598 1526v-1004q0 -246 -131 -387t-358 -141h-31v100h6q190 0 295.5 108.5t105.5 303.5v1020h113z" />
    <glyph glyph-name="K" unicode="K" horiz-adv-x="1501" 
d="M295 0h-109v1526h109v-850q571 246 848 850h112q-154 -379 -436 -635l561 -891h-135l-512 819q-193 -154 -438 -254v-565z" />
    <glyph glyph-name="L" unicode="L" horiz-adv-x="1187" 
d="M295 102h790l-36 -102h-863v1526h109v-1424z" />
    <glyph glyph-name="M" unicode="M" horiz-adv-x="1812" 
d="M1626 0h-108v1268l-609 -658l-614 658v-1268h-109v1536l723 -770l717 770v-1536z" />
    <glyph glyph-name="N" unicode="N" horiz-adv-x="1687" 
d="M1499 1526v-1538l-1202 1278l2 -1266h-113v1536l1203 -1274v1264h110z" />
    <glyph glyph-name="O" unicode="O" horiz-adv-x="1789" 
d="M895 92q281 0 469 191.5t188 478.5q0 188 -85 343t-236.5 242t-335.5 87q-281 0 -469 -192.5t-188 -479.5t188 -478.5t469 -191.5zM895 -12q-217 0 -393 101t-276.5 278.5t-100.5 395.5t100.5 395t276.5 278.5t393 101.5t393 -101.5t276.5 -278.5t100.5 -395
t-100.5 -395.5t-276.5 -278.5t-393 -101z" />
    <glyph glyph-name="P" unicode="P" horiz-adv-x="1337" 
d="M672 680q219 0 336.5 95t117.5 275t-118.5 275.5t-335.5 95.5h-377v-741h377zM694 1526q250 0 396.5 -127t146.5 -347t-146.5 -349.5t-396.5 -129.5h-399v-573h-109v1526h508z" />
    <glyph glyph-name="Q" unicode="Q" horiz-adv-x="1810" 
d="M884.5 92q270.5 0 452.5 166l-266 258l74 78l266 -258q141 182 141 426q0 188 -85 343t-236.5 242t-335.5 87q-281 0 -470 -192.5t-189 -479.5t189 -478.5t459.5 -191.5zM125 762q0 219 100.5 396t276.5 278.5t393 101.5t393 -101.5t276.5 -278.5t100.5 -396
q0 -291 -176 -502l197 -188l-74 -78l-197 188q-215 -195 -520 -194q-162 0 -305.5 59t-244.5 161.5t-160.5 247t-59.5 306.5z" />
    <glyph glyph-name="R" unicode="R" horiz-adv-x="1435" 
d="M674 674q219 0 339 96t120 277.5t-120 277.5t-339 96h-377v-747h377zM186 0v1526h512q166 0 289 -57.5t190.5 -165t67.5 -260t-79 -266.5t-220 -167q89 -270 190 -374t263 -150l-21 -96q-4 0 -66 12q-64 12 -136 55q-127 75 -206 216t-130 309q-66 -12 -142 -13h-401
l-2 -569h-109z" />
    <glyph glyph-name="S" unicode="S" horiz-adv-x="1218" 
d="M651 -18q-152 0 -287 59t-235 164l78 82q188 -201 444 -201q154 0 242 83t82 220q-2 80 -40 141.5t-96.5 97.5t-132.5 70t-150 58q-154 49 -280 140.5t-126 265.5t123.5 278t316.5 104q240 0 426 -149l-68 -88q-168 133 -360 133q-145 0 -235.5 -71t-90.5 -189
q0 -152 127.5 -228.5t246 -113.5t192 -76t132 -84t94.5 -120t36 -173q0 -174 -117 -288.5t-322 -114.5z" />
    <glyph glyph-name="T" unicode="T" horiz-adv-x="1404" 
d="M762 1421v-1421h-109v1421h-555v105h1264l-37 -105h-563z" />
    <glyph glyph-name="U" unicode="U" horiz-adv-x="1568" 
d="M1393 618q0 -287 -167 -459.5t-441.5 -172.5t-441.5 171t-167 451v918h115v-928q0 -225 137 -366.5t356 -141.5q145 0 258 64.5t175.5 180.5t62.5 263v928h113v-908z" />
    <glyph glyph-name="V" unicode="V" horiz-adv-x="1431" 
d="M1274 1526h117q-246 -827 -721 -1542l-645 1542h122l543 -1313q379 637 584 1313z" />
    <glyph glyph-name="W" unicode="W" horiz-adv-x="2238" 
d="M2198 1526q-213 -780 -717 -1542l-342 819q-184 -410 -455 -819l-659 1542h122l558 -1317q209 352 370 741l-239 576h122l543 -1317q377 631 586 1317h111z" />
    <glyph glyph-name="X" unicode="X" horiz-adv-x="1525" 
d="M1425 0h-135l-522 713l-539 -713h-131l609 799l-533 727h133l471 -643l477 643h121l-538 -723z" />
    <glyph glyph-name="Y" unicode="Y" horiz-adv-x="1425" 
d="M766 0h-109v655l-563 871h135l488 -762l487 762h125l-563 -875v-651z" />
    <glyph glyph-name="Z" unicode="Z" horiz-adv-x="1214" 
d="M78 1421v105h1073l-911 -1422h850l-37 -104h-996l912 1421h-891z" />
    <glyph glyph-name="bracketleft" unicode="[" horiz-adv-x="434" 
d="M186 1448v-1616h183v-78h-277v1772h277v-78h-183z" />
    <glyph glyph-name="backslash" unicode="\" horiz-adv-x="1044" 
d="M1010 0h-119l-858 1526h121z" />
    <glyph glyph-name="bracketright" unicode="]" horiz-adv-x="434" 
d="M246 1448h-183v78h279v-1770h-279v76h183v1616z" />
    <glyph glyph-name="asciicircum" unicode="^" horiz-adv-x="1091" 
d="M958 827h-98l-315 578l-318 -578h-94l387 699h51z" />
    <glyph glyph-name="underscore" unicode="_" horiz-adv-x="1042" 
d="M991 -106v-80h-940v80h940z" />
    <glyph glyph-name="grave" unicode="`" 
d="M72 1479h139l162 -291h-101z" />
    <glyph glyph-name="a" unicode="a" horiz-adv-x="1257" 
d="M636.5 82q110.5 0 212 49t155.5 125v549q-53 74 -154.5 123t-204.5 49q-180 0 -300 -128t-120 -319q0 -127 55.5 -229t150.5 -160.5t205.5 -58.5zM1004 1059h106v-1059h-106v106q-139 -127 -365.5 -126.5t-379.5 156t-153 394t153 394t379 155.5t366 -127v107z" />
    <glyph glyph-name="b" unicode="b" horiz-adv-x="1255" 
d="M610 82q178 0 299 128t121 319.5t-121 319.5t-299 128q-134 0 -256 -78q-58 -37 -94 -84v-571q78 -100 217 -142q67 -20 133 -20zM620 1079q223 0 376 -155.5t153 -394t-152.5 -394t-375 -155.5t-361.5 120v-100h-106v1526h106v-565q137 118 360 118z" />
    <glyph glyph-name="c" unicode="c" horiz-adv-x="1126" 
d="M645 -18q-231 0 -385 155.5t-154 390.5t155 392t376 157t375 -139l-60 -82q-59 53 -142 86t-165 33q-178 0 -299 -128t-121 -317.5t121 -317.5t299 -128q102 0 197.5 46t148.5 118l72 -66q-103 -124 -259 -174q-79 -26 -159 -26z" />
    <glyph glyph-name="d" unicode="d" horiz-adv-x="1255" 
d="M645 977q-180 0 -300 -128t-120 -319q0 -127 55.5 -229t150.5 -160.5t222.5 -58.5t247.5 78q57 37 94 84v571q-55 72 -153.5 117t-196.5 45zM995 1526h107v-1526h-107v100q-139 -121 -361 -120.5t-375 156t-153 394t153 394t375 155.5t361 -118v565z" />
    <glyph glyph-name="e" unicode="e" horiz-adv-x="1226" 
d="M625.5 977q-156.5 0 -268.5 -109.5t-130 -277.5h772q-10 168 -113.5 277.5t-260 109.5zM643 84q217 0 361 160l69 -76q-166 -186 -430 -186q-229 0 -383 157.5t-154 391.5t148.5 390t366 156t357.5 -149.5t140 -376.5q0 -29 -2 -57h-891q12 -178 130 -294t288 -116z" />
    <glyph glyph-name="f" unicode="f" horiz-adv-x="782" 
d="M580 1438q-94 0 -143.5 -62.5t-49.5 -177.5v-139h277l-39 -96h-238v-963h-108v963h-213v96h213v137q1 114 39 190q74 146 251 146q70 0 123 -23l-18 -84q-53 13 -94 13z" />
    <glyph glyph-name="g" unicode="g" horiz-adv-x="1257" 
d="M636.5 82q110.5 0 212 49t155.5 125v549q-53 74 -154.5 123t-204.5 49q-180 0 -300 -128t-120 -319q0 -127 55.5 -229t150.5 -160.5t205.5 -58.5zM1004 1059h106v-821q0 -243 -91.5 -390t-231 -208.5t-316.5 -73.5l-6 106q367 16 487 272q32 70 45 158
q-139 -123 -362 -122.5t-376 156t-153 394t153 394t379 155.5t366 -127v107z" />
    <glyph glyph-name="h" unicode="h" horiz-adv-x="1157" 
d="M602.5 1081q193.5 0 305.5 -127t112 -331v-623h-107v633q0 154 -87 250t-226 96q-193 0 -340 -166v-813h-106v1526h106v-578q149 133 342.5 133z" />
    <glyph glyph-name="i" unicode="i" horiz-adv-x="483" 
d="M188 0v1059h107v-1059h-107zM242 1313q-37 0 -62.5 24.5t-25.5 60.5t24.5 59.5t62.5 23.5t62.5 -23.5t24.5 -59.5t-24.5 -60.5t-61.5 -24.5z" />
    <glyph glyph-name="j" unicode="j" horiz-adv-x="581" 
d="M-20 -418v94h10q86 0 142 30q118 63 118 294v1059h106v-1032q0 -444 -364 -445h-12zM311 1313q-37 -1 -63 23t-25 60q0 36 26 60q25 24 63 25q38 -1 62 -25t25 -60q0 -36 -25 -60q-26 -23 -63 -23z" />
    <glyph glyph-name="k" unicode="k" horiz-adv-x="1146" 
d="M260 0h-106v1524h106v-1002q402 157 600 537h113q-129 -250 -311 -412l407 -647h-127l-360 582q-141 -102 -322 -170v-412z" />
    <glyph glyph-name="l" unicode="l" horiz-adv-x="659" 
d="M453 -8q-133 0 -216 87t-83 251v1196h108v-1192q0 -119 49 -183.5t144 -64.5q43 0 96 14l20 -86q-50 -22 -118 -22z" />
    <glyph glyph-name="m" unicode="m" horiz-adv-x="1882" 
d="M1337 1081q182 0 295 -127t113 -331v-623h-107v633q0 154 -87 250t-226 96q-193 0 -342 -166q31 -88 31 -190v-623h-107v633q0 100 -40 180q-83 166 -274.5 166t-338.5 -166v-813h-107v1059h107v-111q150 133 352 133q109 0 195 -47t139 -133l-2 12q168 168 399 168z" />
    <glyph glyph-name="n" unicode="n" horiz-adv-x="1150" 
d="M596.5 1081q193.5 0 305.5 -127t112 -331v-623h-107v633q0 100 -40 180q-83 166 -274.5 166t-338.5 -166v-813h-107v1059h107v-111q149 133 342.5 133z" />
    <glyph glyph-name="o" unicode="o" horiz-adv-x="1312" 
d="M656.5 84q187.5 0 312.5 128t125 317.5t-125 317.5t-312.5 128t-312.5 -128t-125 -317.5t125 -317.5t312.5 -128zM656.5 -18q-234.5 0 -392.5 156.5t-158 391t158 391t391 156.5q156 0 282 -71.5t197.5 -196.5t71.5 -281q0 -233 -157.5 -389.5t-392 -156.5z" />
    <glyph glyph-name="p" unicode="p" horiz-adv-x="1249" 
d="M604 82q180 0 300 128t120 319.5t-120 319.5t-300 128q-98 0 -196.5 -46t-153.5 -116v-571q55 -70 153.5 -116t196.5 -46zM614 1079q223 0 376 -155.5t153 -394t-152.5 -394t-375 -155.5t-361.5 120v-520h-107v1479h107v-98q137 118 360 118z" />
    <glyph glyph-name="q" unicode="q" horiz-adv-x="1255" 
d="M635.5 82q109.5 0 210 48t155.5 122v555q-55 74 -155.5 122t-200.5 48q-180 0 -300 -128t-120 -319q0 -127 55.5 -229t150.5 -160.5t204.5 -58.5zM1001 1059h107v-1436l-107 -61v542q-139 -125 -364 -124.5t-378 156t-153 394t153 394t378 155.5t364 -125v105z" />
    <glyph glyph-name="r" unicode="r" horiz-adv-x="735" 
d="M655 975q-102 0 -214.5 -46t-186.5 -130v-799h-107v1059h107v-125q108 95 264 128q72 15 137 11v-98z" />
    <glyph glyph-name="s" unicode="s" horiz-adv-x="923" 
d="M508 -14q-258 0 -418 172l80 84q127 -156 322 -156q100 0 161.5 53.5t61.5 136t-58.5 135t-215 92.5t-236.5 101.5t-80 183.5t98.5 202.5t243.5 80.5q182 0 307 -119l-65 -75q-104 98 -242 98q-102 0 -168 -49t-66 -125.5t45 -120t213.5 -84.5t251 -113.5t82.5 -205
t-92.5 -212t-224.5 -79.5z" />
    <glyph glyph-name="t" unicode="t" horiz-adv-x="870" 
d="M590 -8q-88 0 -163 42t-116 122t-41 186v621h-209v96h209v338h107v-338h266l-37 -96h-229v-623q0 -123 63.5 -186.5t147 -63.5t151.5 29l33 -94q-94 -33 -182 -33z" />
    <glyph glyph-name="u" unicode="u" horiz-adv-x="1138" 
d="M885 1059h106v-1059h-106v106q-152 -127 -346 -126q-121 0 -214.5 57t-143.5 160.5t-50 238.5v623h107v-629q0 -158 86 -253t225 -95q182 0 336 158v819z" />
    <glyph glyph-name="v" unicode="v" horiz-adv-x="1177" 
d="M975 1059h110q-82 -358 -237.5 -640t-329.5 -435l-461 1075h123l377 -887q275 342 418 887z" />
    <glyph glyph-name="w" unicode="w" horiz-adv-x="1835" 
d="M1632 1059h111q-55 -242 -151 -458q-182 -412 -416 -617l-252 589q-174 -385 -406 -589l-461 1075h123l377 -887q176 219 305 545l-147 342h125l374 -887q275 342 418 887z" />
    <glyph glyph-name="x" unicode="x" horiz-adv-x="1064" 
d="M608 553q266 -229 363 -553h-119q-92 301 -320 492q-229 -195 -319 -492h-119q98 324 365 553q-256 211 -355 506h113q45 -129 122 -233.5t196 -209.5q225 193 313 443h106q-96 -295 -346 -506z" />
    <glyph glyph-name="y" unicode="y" horiz-adv-x="1206" 
d="M1032 1059h113q-244 -1016 -850 -1354q-139 -78 -305 -115l-6 105q221 45 444 225q55 43 104 96l-454 1043h125l407 -955q254 318 422 955z" />
    <glyph glyph-name="z" unicode="z" horiz-adv-x="1034" 
d="M100 958v101h813l-612 -961h625l-37 -98h-785l623 958h-627z" />
    <glyph glyph-name="braceleft" unicode="{" horiz-adv-x="614" 
d="M569 -244q-131 0 -197 66t-67 188v318q0 143 -53 203t-162 61h-12v98h12q109 0 162 60t53 204v318q0 122 67 188t197 66h13v-80q-115 -8 -153 -54t-38 -165v-283q0 -236 -153 -303q154 -68 153 -303v-283q0 -119 38 -166t153 -53v-80h-13z" />
    <glyph glyph-name="bar" unicode="|" horiz-adv-x="491" 
d="M287 1597v-1982h-82v1982h82z" />
    <glyph glyph-name="braceright" unicode="}" horiz-adv-x="614" 
d="M45 -244h-12v80q115 6 153 53t37 166v283q0 236 154 303q-154 68 -154 303v283q0 119 -38 165t-152 54v80h12q171 0 235 -116q30 -56 29 -138v-318q0 -186 98 -239q46 -25 117 -25h13v-98h-13q-109 0 -162 -60t-53 -204v-318q-1 -122 -67 -188t-197 -66z" />
    <glyph glyph-name="asciitilde" unicode="~" 
 />
    <glyph glyph-name="uni00A0" unicode="&#xa0;" horiz-adv-x="538" 
 />
    <glyph glyph-name="exclamdown" unicode="&#xa1;" horiz-adv-x="512" 
d="M311 -365h-110v402l20 661h70l20 -661v-402zM255 1167q40 -1 67 -27q26 -26 26 -66t-26 -68t-67 -27q-40 0 -66 28q-25 27 -25 67t25 67q26 26 66 26z" />
    <glyph glyph-name="cent" unicode="&#xa2;" horiz-adv-x="1239" 
d="M276 734q0 -167 96 -289t246 -148v877q-150 -29 -246 -151t-96 -289zM721 0h-103v193q-204 27 -332 177t-128 364q0 212 130 364t330 178v203h103v-197q199 -8 342 -139l-59 -82q-54 49 -130 81t-153 38v-891q147 12 263 102q36 29 60 62l70 -66q-70 -86 -174 -140
t-219 -59v-188z" />
    <glyph glyph-name="sterling" unicode="&#xa3;" horiz-adv-x="1107" 
d="M397 104h660l-37 -104h-922v104h187v584h-191v103h191v311q-1 202 113 322t302 120q132 0 237 -59q54 -31 110 -82l-70 -92q-133 123 -274 123t-223 -93q-83 -93 -83 -247v-303h480v-103h-480v-584z" />
    <glyph glyph-name="currency" unicode="&#xa4;" horiz-adv-x="1183" 
d="M588 426q129 0 215 87t86 216t-86 216t-215 87t-215 -87t-86 -216t86 -216t215 -87zM995 730q0 -138 -75 -243l96 -98l-82 -82l-96 96q-109 -81 -249 -81t-247 77l-92 -92l-82 82l90 92q-80 107 -80 249t82 251l-92 92l82 84l94 -96q106 76 244 76t248 -80l98 100l82 -84
l-98 -98q77 -107 77 -245z" />
    <glyph glyph-name="yen" unicode="&#xa5;" horiz-adv-x="1372" 
d="M1155 764v-96h-401l-11 -17v-159h412v-99h-412v-393h-114v393h-414v99h414v161l-8 15h-406v96h342l-491 762h139l485 -758l486 758h129l-490 -762h340z" />
    <glyph glyph-name="brokenbar" unicode="&#xa6;" horiz-adv-x="491" 
d="M287 430v-815h-82v815h82zM287 1597v-753h-82v753h82z" />
    <glyph glyph-name="section" unicode="&#xa7;" 
 />
    <glyph glyph-name="dieresis" unicode="&#xa8;" 
d="M577.5 1260q-40.5 0 -68.5 28.5t-28 70.5t27 69.5t68.5 27.5t69.5 -27.5t28 -69.5t-28 -70.5t-68.5 -28.5zM159 1260q-42 0 -70 28.5t-28 70.5t28 69.5t70 27.5t69.5 -27.5t27.5 -69.5t-27.5 -70.5t-69.5 -28.5z" />
    <glyph glyph-name="copyright" unicode="&#xa9;" horiz-adv-x="1728" 
d="M348 762q0 229 152 383t379 153q182 0 338 -112l-60 -82q-121 96 -291 96t-292 -125q-124 -125 -124 -312t124 -312q122 -125 304 -125t310 116l63 -75q-157 -140 -397 -140q-125 0 -247 71t-190 194q-69 123 -69 270zM864 35q303 0 506 209t203 519t-203 519t-506 209
t-507 -209q-203 -209 -203 -519t204 -519t506 -209zM864 -47q-168 0 -316 62q-300 126 -423 426q-61 151 -61 351t104 384q104 186 288 291t407 105q225 0 409 -104q184 -106 288 -291t103 -415q0 -170 -61 -321q-121 -299 -421 -426q-149 -62 -317 -62z" />
    <glyph glyph-name="ordfeminine" unicode="&#xaa;" horiz-adv-x="1257" 
d="M636.5 82q110.5 0 212 49t155.5 125v549q-53 74 -154.5 123t-204.5 49q-180 0 -300 -128t-120 -319q0 -127 55.5 -229t150.5 -160.5t205.5 -58.5zM1004 1059h106v-1059h-106v106q-139 -127 -365.5 -126.5t-379.5 156t-153 394t153 394t379 155.5t366 -127v107z" />
    <glyph glyph-name="guillemotleft" unicode="&#xab;" horiz-adv-x="1124" 
d="M958 1059l-348 -449l348 -452h-122l-355 452l355 449h122zM569 1059l-348 -449l348 -452h-123l-354 452l354 449h123z" />
    <glyph glyph-name="logicalnot" unicode="&#xac;" 
 />
    <glyph glyph-name="uni00AD" unicode="&#xad;" 
d="M592 688v-100h-461v100h461z" />
    <glyph glyph-name="registered" unicode="&#xae;" horiz-adv-x="1222" 
d="M616 1098q135 0 136 106q0 102 -136 103h-106v-209h106zM625 1030h-115v-186h-70v532h185q88 0 142 -47t54 -125q0 -112 -100 -155q44 -136 149 -148l-12 -61q-79 0 -132 57q-52 57 -75 135q-12 -2 -26 -2zM610 688q172 0 287 117t115 292t-115 293t-286 118t-285 -118
t-115 -292q0 -115 52 -209q52 -93 144 -147t203 -54zM1090 1098q0 -207 -138 -345q-138 -137 -341 -139q-204 -2 -341 136t-137 347q0 208 137 346t340 138q135 0 245 -63q111 -63 173 -174t62 -246z" />
    <glyph glyph-name="macron" unicode="&#xaf;" 
d="M72 1399h706v-99h-706v99z" />
    <glyph glyph-name="degree" unicode="&#xb0;" horiz-adv-x="897" 
d="M449 975q104 1 174 69q69 68 69 172t-69 173q-70 69 -173 69t-174 -69q-70 -70 -70 -173t69 -173q70 -68 174 -68zM780 1217q0 -141 -94 -235t-236 -95q-142 0 -238 94q-95 94 -95 236q0 91 44 167t120 119t170 43q141 0 235 -94t94 -235z" />
    <glyph glyph-name="plusminus" unicode="&#xb1;" horiz-adv-x="1263" 
d="M133 102h997v-102h-997v102zM586 274v469h-451v91h451v456h92v-456h452v-91h-452v-469h-92z" />
    <glyph glyph-name="uni00B2" unicode="&#xb2;" 
d="M926 1079q0 162 -96 260q-96 99 -234 99q-264 1 -438 -256l-80 67q96 139 226 216t278 77q202 0 330 -127t128 -332q0 -137 -76 -276t-249 -318l-379 -385h743l-37 -104h-944l518 541q168 176 239 301t71 237z" />
    <glyph glyph-name="uni00B3" unicode="&#xb3;" 
d="M1118 471q0 -209 -147 -347t-369 -138q-146 0 -294 68t-249 186l86 79q88 -109 209 -167t250 -58q178 0 292 108t114 291t-133 289t-379 107h-17l346 532h-702v105h889l-367 -555q227 -19 349 -155t122 -345z" />
    <glyph glyph-name="acute" unicode="&#xb4;" 
d="M426 1479l-203 -291h-100l162 291h141z" />
    <glyph glyph-name="uni00B5" unicode="&#xb5;" horiz-adv-x="1155" 
d="M901 1059h107v-1059h-107v106q-151 -126 -345 -126t-306 137v-459h-103v1401h107v-629q0 -158 86 -253t225 -95q182 0 336 158v819z" />
    <glyph glyph-name="paragraph" unicode="&#xb6;" 
 />
    <glyph glyph-name="periodcentered" unicode="&#xb7;" horiz-adv-x="423" 
d="M212 666q-40 0 -67 26t-27 61q0 33 13 55q25 46 81 46t81 -46q12 -22 12 -56t-26 -60q-27 -26 -67 -26z" />
    <glyph glyph-name="cedilla" unicode="&#xb8;" horiz-adv-x="561" 
d="M259.5 -444q-91.5 0 -165.5 18l12 86q74 -20 140 -20q147 0 147 98q0 57 -54 78.5t-181 19.5l43 168h80l-19 -94q92 0 157.5 -44t65.5 -131t-67 -133t-158.5 -46z" />
    <glyph glyph-name="uni00B9" unicode="&#xb9;" 
d="M520 1526v-1526h-106v1423h-332l37 103h401z" />
    <glyph glyph-name="ordmasculine" unicode="&#xba;" horiz-adv-x="1312" 
d="M656.5 84q187.5 0 312.5 128t125 317.5t-125 317.5t-312.5 128t-312.5 -128t-125 -317.5t125 -317.5t312.5 -128zM656.5 -18q-234.5 0 -392.5 156.5t-158 391t158 391t391 156.5q156 0 282 -71.5t197.5 -196.5t71.5 -281q0 -233 -157.5 -389.5t-392 -156.5z" />
    <glyph glyph-name="guillemotright" unicode="&#xbb;" horiz-adv-x="1124" 
d="M676 1059l356 -449l-356 -452h-123l348 452l-348 449h123zM287 1059l356 -449l-356 -452h-123l348 452l-348 449h123z" />
    <glyph glyph-name="onequarter" unicode="&#xbc;" 
 />
    <glyph glyph-name="onehalf" unicode="&#xbd;" 
 />
    <glyph glyph-name="threequarters" unicode="&#xbe;" 
 />
    <glyph glyph-name="questiondown" unicode="&#xbf;" horiz-adv-x="987" 
d="M942 -145q-198 -215 -470 -215q-136 0 -254 58t-184 168t-65 253q0 237 167 397t411 158h31v-92h-7q-207 0 -352 -131t-145 -315t114 -291t308 -107q192 0 374 190zM509 1180q39 0 65 -27t26 -61q0 -98 -98 -100q-32 0 -60 26q-26 28 -26 68t26 67q27 27 67 27z" />
    <glyph glyph-name="Agrave" unicode="&#xc0;" horiz-adv-x="1554" 
d="M422 545h704l-352 755zM1380 0l-206 444h-799l-207 -444h-117l725 1536l727 -1536h-123zM930 1655h-101l-202 291h141z" />
    <glyph glyph-name="Aacute" unicode="&#xc1;" horiz-adv-x="1554" 
d="M422 545h704l-352 755zM1382 0l-208 444h-799l-207 -444h-117l725 1536l727 -1536h-121zM1044 1946l-200 -291h-101l162 291h139z" />
    <glyph glyph-name="Acircumflex" unicode="&#xc2;" horiz-adv-x="1554" 
d="M422 545h704l-352 755zM1380 0l-206 444h-799l-207 -444h-117l725 1536l725 -1536h-121zM782 1868l-192 -215h-105l217 282h164l217 -282h-108z" />
    <glyph glyph-name="Atilde" unicode="&#xc3;" horiz-adv-x="1554" 
d="M422 545h704l-352 755zM1382 0l-208 444h-799l-207 -444h-117l725 1536l727 -1536h-121zM635.5 1821q-68.5 0 -117.5 -74l-76 51q70 125 199 125q78 0 180 -45t167 -45t112 74l69 -54q-63 -123 -174 -122q-74 0 -182.5 45t-177 45z" />
    <glyph glyph-name="Adieresis" unicode="&#xc4;" horiz-adv-x="1554" 
d="M422 545h704l-352 755zM1128 1337q-42 0 -68 28q-26 27 -26 59q0 50 25.5 79t67.5 29t70 -27.5t27 -69.5t-28 -70t-68 -28zM402 1337q-40 0 -67.5 28t-27.5 70t27.5 69.5t67.5 27.5t68 -27.5t28 -69.5t-28 -70t-68 -28zM1380 0l-206 444h-799l-207 -444h-117l725 1536
l727 -1536h-123z" />
    <glyph glyph-name="Aring" unicode="&#xc5;" horiz-adv-x="1509" 
d="M403 545h699l-346 737h-8zM755 1649q-63 0 -105 -41q-42 -40 -42 -104t42 -105t104 -41t105 41q42 41 42 104t-42 105t-104 41zM528 1518q0 82 65 144t162 62t161 -62t65 -156q0 -142 -121 -201l619 -1305h-121l-207 440h-797l-204 -440h-119l618 1305q-121 57 -121 213z
" />
    <glyph glyph-name="AE" unicode="&#xc6;" horiz-adv-x="2060" 
d="M1081 588v831h-47l-514 -831h561zM1196 104h795l-37 -104h-873v485h-626l-299 -485h-127l950 1526h1010l-37 -105h-756v-563h598v-106h-598v-648z" />
    <glyph glyph-name="Ccedilla" unicode="&#xc7;" horiz-adv-x="1540" 
d="M1120 -265q0 -87 -67.5 -133t-159 -46t-164.5 18l12 86q76 -20 142 -20q145 0 145 98q0 76 -99 92q-50 8 -136 6l38 154q-305 23 -505.5 241t-200.5 531q0 219 100.5 396t276.5 278.5t411.5 101.5t454.5 -152l-63 -86q-180 133 -412 134q-279 0 -468 -192.5t-189 -478.5
t189 -478.5t460.5 -192.5t468.5 164l65 -80q-221 -178 -506 -188l-14 -78q92 0 156.5 -44t64.5 -131z" />
    <glyph glyph-name="Egrave" unicode="&#xc8;" horiz-adv-x="1202" 
d="M297 104h795l-37 -104h-869v1526h904l-37 -105h-756v-563h598v-106h-598v-648zM754 1655h-101l-200 291h139z" />
    <glyph glyph-name="Eacute" unicode="&#xc9;" horiz-adv-x="1202" 
d="M297 104h795l-37 -104h-869v1526h904l-37 -105h-756v-563h598v-106h-598v-648zM870 1946l-202 -291h-101l162 291h141z" />
    <glyph glyph-name="Ecircumflex" unicode="&#xca;" horiz-adv-x="1202" 
d="M297 104h795l-37 -104h-869v1526h904l-39 -105h-754v-563h598v-106h-598v-648zM608 1868l-194 -215h-103l217 282h162l217 -282h-108z" />
    <glyph glyph-name="Edieresis" unicode="&#xcb;" horiz-adv-x="1202" 
d="M297 104h795l-37 -104h-869v1526h904l-37 -105h-756v-563h598v-106h-598v-648zM818 1726q-34 0 -56 14q-48 30 -47.5 79t28 76.5t69.5 27.5t69.5 -27.5t26.5 -69.5t-28.5 -71t-61.5 -29zM399 1726q-35 0 -56 14q-48 31 -48 79.5t27.5 76t69.5 27.5t69.5 -27.5t27.5 -69.5
t-27.5 -71t-62.5 -29z" />
    <glyph glyph-name="Igrave" unicode="&#xcc;" horiz-adv-x="561" 
d="M225 1526h111v-1526h-111v1526zM133 1946h139l162 -291h-100z" />
    <glyph glyph-name="Iacute" unicode="&#xcd;" horiz-adv-x="561" 
d="M225 1526h111v-1526h-111v1526zM551 1946l-203 -291h-100l162 291h141z" />
    <glyph glyph-name="Icircumflex" unicode="&#xce;" horiz-adv-x="561" 
d="M225 1526h111v-1526h-111v1526zM588 1653h-109l-190 215l-195 -215h-102l217 282h162z" />
    <glyph glyph-name="Idieresis" unicode="&#xcf;" horiz-adv-x="561" 
d="M225 1526h111v-1526h-111v1526zM491.5 1726q-40.5 0 -68.5 29t-28 71t28 69.5t70 27.5t69.5 -27.5t26.5 -69.5t-29 -71t-68.5 -29zM80 1726q-34 0 -56 14q-48 30 -48.5 79t27.5 76.5t70 27.5t69.5 -27.5t27.5 -69.5t-27.5 -71t-62.5 -29z" />
    <glyph glyph-name="Eth" unicode="&#xd0;" horiz-adv-x="1531" 
d="M676 102q281 0 470 184.5t189 476.5t-189.5 475t-469.5 183h-361v-575h445v-109h-445v-635h361zM676 1526q330 0 551 -213t221 -550t-221 -550t-551 -213h-471v737h-205v109h205v680h471z" />
    <glyph glyph-name="Ntilde" unicode="&#xd1;" horiz-adv-x="1687" 
d="M1499 1526v-1538l-1202 1278l2 -1266h-113v1536l1203 -1274v1264h110zM713 1821q-82 0 -129 -74l-76 51q68 125 199 125q76 0 179 -45q104 -45 168 -45t111 74l68 -54q-63 -123 -174 -122q-73 0 -181 45t-165 45z" />
    <glyph glyph-name="Ograve" unicode="&#xd2;" horiz-adv-x="1789" 
d="M895 92q281 0 469 191.5t188 478.5q0 188 -85 343t-236.5 242t-335.5 87q-281 0 -469 -192.5t-188 -479.5t188 -478.5t469 -191.5zM895 -12q-217 0 -393 101t-276.5 278.5t-100.5 395.5t100.5 395t276.5 278.5t393 101.5t393 -101.5t276.5 -278.5t100.5 -395
t-100.5 -395.5t-276.5 -278.5t-393 -101zM743 1946h142l162 -291h-101z" />
    <glyph glyph-name="Oacute" unicode="&#xd3;" horiz-adv-x="1789" 
d="M895 92q281 0 469 191.5t188 478.5q0 188 -85 343t-236.5 242t-335.5 87q-281 0 -469 -192.5t-188 -479.5t188 -478.5t469 -191.5zM895 -12q-217 0 -393 101t-276.5 278.5t-100.5 395.5t100.5 395t276.5 278.5t393 101.5t393 -101.5t276.5 -278.5t100.5 -395
t-100.5 -395.5t-276.5 -278.5t-393 -101zM1161 1946l-200 -291h-101l162 291h139z" />
    <glyph glyph-name="Ocircumflex" unicode="&#xd4;" horiz-adv-x="1789" 
d="M895 92q281 0 469 191.5t188 478.5q0 188 -85 343t-236.5 242t-335.5 87q-281 0 -470 -192.5t-189 -479.5t189 -478.5t470 -191.5zM895 -12q-162 0 -305.5 59t-244.5 161.5t-160.5 247t-59.5 306.5q0 219 100.5 396t276.5 278.5t393 101.5t393 -101.5t276.5 -278.5
t100.5 -395t-100.5 -395.5t-276.5 -278.5t-393 -101zM1200 1653h-108l-193 215l-192 -215h-105l217 282h164z" />
    <glyph glyph-name="Otilde" unicode="&#xd5;" horiz-adv-x="1789" 
d="M895 92q281 0 469 191.5t188 480.5q0 186 -85 341t-236.5 242t-335.5 87q-281 0 -469 -192.5t-188 -479.5t188 -478.5t469 -191.5zM895 -12q-217 0 -393 101t-276.5 278.5t-100.5 395.5t100.5 395t276.5 278.5t393 101.5t393 -101.5t276.5 -278.5t100.5 -395
t-100.5 -395.5t-276.5 -278.5t-393 -101zM758 1923q78 0 180 -45t167 -45t112 74l69 -54q-63 -123 -174 -122q-74 0 -182.5 45t-177 45t-117.5 -74l-76 51q70 125 199 125z" />
    <glyph glyph-name="Odieresis" unicode="&#xd6;" horiz-adv-x="1789" 
d="M895 92q281 0 469 191.5t188 478.5q0 188 -85 343t-236.5 242t-335.5 87q-281 0 -469 -192.5t-188 -479.5t188 -478.5t469 -191.5zM895 -12q-217 0 -393 101t-276.5 278.5t-100.5 395.5t100.5 395t276.5 278.5t393 101.5t393 -101.5t276.5 -278.5t100.5 -395
t-100.5 -395.5t-276.5 -278.5t-393 -101zM1104 1726q-41 0 -68.5 29t-28.5 71t26.5 69.5t69.5 27.5t69.5 -27.5t27.5 -69.5t-27.5 -71t-68.5 -29zM691 1726q-35 0 -57 14q-46 28 -46 78t27.5 77.5t68.5 27.5t68.5 -27.5t27.5 -69.5t-27.5 -71t-61.5 -29z" />
    <glyph glyph-name="multiply" unicode="&#xd7;" horiz-adv-x="1140" 
d="M987 1145l-354 -354l354 -353l-63 -63l-355 354l-352 -354l-63 63l354 353l-354 354l63 63l352 -354l355 354z" />
    <glyph glyph-name="Oslash" unicode="&#xd8;" horiz-adv-x="1789" 
d="M895 92q281 0 469 191.5t188 463t-151 455.5l-928 -962q178 -148 422 -148zM238 772.5q0 -276.5 165 -465.5l930 965q-182 162 -450.5 162t-456.5 -192.5t-188 -469zM1665 764q0 -219 -100.5 -396.5t-276.5 -278.5t-393 -101q-287 0 -498 174l-168 -172l-67 67l166 172
q-203 217 -203 535q0 217 100.5 394t276.5 278.5t393 101.5q299 0 514 -188l156 161l69 -65l-157 -164q188 -217 188 -518z" />
    <glyph glyph-name="Ugrave" unicode="&#xd9;" horiz-adv-x="1568" 
d="M1393 618q0 -287 -167 -459.5t-441.5 -172.5t-441.5 171t-167 451v918h115v-928q0 -225 137 -366.5t356 -141.5q145 0 258 64.5t175.5 180.5t62.5 263v928h113v-908zM633 1946h141l162 -291h-100z" />
    <glyph glyph-name="Uacute" unicode="&#xda;" horiz-adv-x="1568" 
d="M1393 618q0 -287 -167 -459.5t-441.5 -172.5t-441.5 171t-167 451v918h115v-928q0 -225 137 -366.5t357 -141.5t357.5 141.5t137.5 366.5v928h113v-908zM1051 1946l-201 -291h-100l161 291h140z" />
    <glyph glyph-name="Ucircumflex" unicode="&#xdb;" horiz-adv-x="1568" 
d="M1393 618q0 -287 -167 -459.5t-441.5 -172.5t-441.5 171t-167 451v918h113v-928q0 -225 138 -366.5t358 -141.5t357.5 141.5t137.5 366.5v928h113v-908zM1090 1653h-109l-193 215l-192 -215h-104l217 282h163z" />
    <glyph glyph-name="Udieresis" unicode="&#xdc;" horiz-adv-x="1568" 
d="M1393 618q0 -287 -167 -459.5t-441.5 -172.5t-441.5 171t-167 451v918h115v-928q0 -225 137 -366.5t357 -141.5t357.5 141.5t137.5 366.5v928h113v-908zM1000 1726q-34 0 -56 14q-47 29 -48 78.5t26.5 77t69.5 27.5t70 -27.5t28 -69.5t-28 -71t-62 -29zM580 1726
q-34 0 -56 14q-47 29 -47 78.5t27.5 77t68.5 27.5t69 -27.5t28 -69.5t-28 -71t-62 -29z" />
    <glyph glyph-name="Yacute" unicode="&#xdd;" horiz-adv-x="1425" 
d="M766 0h-109v655l-561 871h133l488 -762l489 762h123l-563 -875v-651zM981 1946l-203 -291h-100l162 291h141z" />
    <glyph glyph-name="Thorn" unicode="&#xde;" horiz-adv-x="1255" 
d="M606 502q219 0 337 96t118 276t-119 276q-119 95 -336 95h-332v-743h332zM629 1350q337 0 477 -223q68 -108 68 -250q0 -223 -148 -351t-397 -129h-355v-397h-108v1679h108v-329h355z" />
    <glyph glyph-name="germandbls" unicode="&#xdf;" horiz-adv-x="1288" 
d="M698 862q174 124 174 324q0 104 -76.5 182t-193.5 78h-6q-150 0 -235 -101.5t-85 -277.5v-1067h-110v1090q0 215 114.5 335.5t313.5 120.5h12q106 0 192.5 -45t135.5 -129t49 -194q0 -199 -168 -332q220 -56 307 -234q43 -88 43 -196q0 -199 -123.5 -320t-330.5 -121
q-55 0 -119 9v100q55 -8 104 -8q162 0 260.5 94t98.5 242.5t-98.5 245t-258.5 112.5v92z" />
    <glyph glyph-name="agrave" unicode="&#xe0;" horiz-adv-x="1257" 
d="M636.5 82q110.5 0 212 49t155.5 125v549q-53 74 -154.5 123t-204.5 49q-180 0 -300 -128t-120 -319q0 -127 55.5 -229t150.5 -160.5t205.5 -58.5zM1004 1059h106v-1059h-106v106q-139 -127 -365.5 -126.5t-379.5 156t-153 394t153 394t379 155.5t366 -127v107zM801 1188
h-101l-202 291h141z" />
    <glyph glyph-name="aacute" unicode="&#xe1;" horiz-adv-x="1257" 
d="M636.5 82q110.5 0 212 49t155.5 125v549q-53 74 -154.5 123t-204.5 49q-180 0 -300 -128t-120 -319q0 -127 55.5 -229t150.5 -160.5t205.5 -58.5zM1004 1059h106v-1059h-106v106q-139 -127 -365.5 -126.5t-379.5 156t-153 394t153 394t379 155.5t366 -127v107zM915 1479
l-200 -291h-101l162 291h139z" />
    <glyph glyph-name="acircumflex" unicode="&#xe2;" horiz-adv-x="1257" 
d="M636.5 82q110.5 0 212 49t155.5 125v549q-53 74 -154.5 123t-204.5 49q-180 0 -300 -128t-120 -319q0 -127 55.5 -229t150.5 -160.5t205.5 -58.5zM1004 1059h106v-1059h-106v106q-139 -127 -365.5 -126.5t-379.5 156t-153 394t153 394t379 155.5t366 -127v107zM653 1401
l-192 -215h-105l217 282h164l217 -282h-108z" />
    <glyph glyph-name="atilde" unicode="&#xe3;" horiz-adv-x="1257" 
d="M636.5 82q110.5 0 212 49t155.5 125v549q-53 74 -154.5 123t-204.5 49q-180 0 -300 -128t-120 -319q0 -127 55.5 -229t150.5 -160.5t205.5 -58.5zM1004 1059h106v-1059h-106v106q-139 -127 -365.5 -126.5t-379.5 156t-153 394t153 394t379 155.5t366 -127v107z
M506.5 1354q-68.5 0 -117.5 -74l-76 51q70 125 199 125q78 0 180 -45t167 -45t112 74l69 -54q-63 -123 -174 -122q-74 0 -182.5 45t-177 45z" />
    <glyph glyph-name="adieresis" unicode="&#xe4;" horiz-adv-x="1257" 
d="M636.5 82q110.5 0 212 49t155.5 125v549q-53 74 -154.5 123t-204.5 49q-180 0 -300 -128t-120 -319q0 -127 55.5 -229t150.5 -160.5t205.5 -58.5zM1004 1059h106v-1059h-106v106q-139 -127 -365.5 -126.5t-379.5 156t-153 394t153 394t379 155.5t366 -127v107zM858 1260
q-41 0 -68.5 28.5t-28.5 70.5t26.5 69.5t69.5 27.5t69.5 -27.5t27.5 -69.5t-27.5 -70.5t-68.5 -28.5zM438 1260q-41 0 -68.5 28.5t-27.5 70.5t27.5 69.5t68.5 27.5t69 -27.5t28 -69.5t-28 -70.5t-69 -28.5z" />
    <glyph glyph-name="aring" unicode="&#xe5;" horiz-adv-x="1257" 
d="M636.5 82q110.5 0 212 49t155.5 125v549q-53 74 -154.5 123t-204.5 49q-180 0 -300 -128t-120 -319q0 -127 55.5 -229t150.5 -160.5t205.5 -58.5zM1004 1059h106v-1059h-106v106q-139 -127 -365.5 -126.5t-379.5 156t-153 394t153 394t379 155.5t366 -127v107z
M668.5 1610q-54.5 0 -88.5 -18q-74 -39 -74 -112t43 -113t108.5 -40t108.5 40t43 101.5t-43 101.5t-97.5 40zM657.5 1243q-102.5 0 -171 64.5t-68.5 161t68.5 161t171 64.5t171 -64.5t68.5 -161t-68.5 -161t-171 -64.5z" />
    <glyph glyph-name="ae" unicode="&#xe6;" horiz-adv-x="1945" 
d="M219 529.5q0 -189.5 125 -317.5t300 -128t296 100q-115 147 -115 346t111 347q-119 98 -293 98t-299 -128t-125 -317.5zM1343.5 977q-155.5 0 -267.5 -109.5t-130 -277.5h774q-12 170 -116.5 278.5t-260 108.5zM1362 84q219 0 360 160l70 -76q-166 -186 -428 -186
q-209 0 -356 131q-150 -131 -368 -131t-376 156.5t-158 391t158 391t378 156.5t368 -123q141 123 344 123t344 -149.5t141 -376.5q0 -29 -4 -57h-891q12 -178 130 -294t288 -116z" />
    <glyph glyph-name="ccedilla" unicode="&#xe7;" horiz-adv-x="1126" 
d="M879 -265q0 -87 -68 -133t-159 -46t-165 18l13 84q76 -18 139 -18q147 0 147 98q0 57 -54 78.5t-181 19.5l37 150q-211 18 -346.5 170.5t-135.5 379.5t155 384t376 157t375 -139l-60 -82q-59 53 -142 86t-165 33q-178 0 -299 -128t-121 -317.5t121 -317.5t299 -128
q102 0 197.5 46t148.5 118l72 -66q-70 -86 -174.5 -140t-218.5 -58l-15 -74q92 0 158 -44t66 -131z" />
    <glyph glyph-name="egrave" unicode="&#xe8;" horiz-adv-x="1226" 
d="M625.5 977q-156.5 0 -268.5 -109.5t-130 -277.5h772q-10 168 -113.5 277.5t-260 109.5zM643 84q217 0 358 160l72 -76q-166 -186 -430 -186q-229 0 -383 157.5t-154 391.5t148.5 390t366 156t357.5 -149.5t140 -376.5q0 -29 -2 -57h-891q12 -178 130 -294t288 -116z
M778 1188h-100l-203 291h141z" />
    <glyph glyph-name="eacute" unicode="&#xe9;" horiz-adv-x="1226" 
d="M625.5 977q-156.5 0 -268.5 -109.5t-130 -277.5h772q-10 168 -113.5 277.5t-260 109.5zM643 84q217 0 361 160l69 -76q-166 -186 -412.5 -186t-400.5 157.5t-154 391.5t148.5 390t366 156t358.5 -149.5t141 -376.5q0 -29 -4 -57h-891q12 -178 130 -294t288 -116z
M895 1479l-203 -291h-100l162 291h141z" />
    <glyph glyph-name="ecircumflex" unicode="&#xea;" horiz-adv-x="1226" 
d="M625.5 977q-156.5 0 -268.5 -109.5t-130 -277.5h772q-10 168 -113.5 277.5t-260 109.5zM643 84q217 0 358 160l72 -76q-166 -186 -430 -186q-229 0 -383 157.5t-154 391.5t148.5 390t366 156t357.5 -149.5t140 -376.5q0 -29 -2 -57h-891q12 -178 130 -294t288 -116z
M633 1401l-195 -215h-104l219 282h162l217 -282h-109z" />
    <glyph glyph-name="edieresis" unicode="&#xeb;" horiz-adv-x="1226" 
d="M625.5 977q-156.5 0 -268.5 -109.5t-130 -277.5h772q-10 168 -113.5 277.5t-260 109.5zM643 84q217 0 361 160l69 -76q-166 -186 -430 -186q-229 0 -383 157.5t-154 391.5t148.5 390t366 156t357.5 -149.5t140 -376.5q0 -29 -2 -57h-891q12 -178 130 -294t288 -116z
M843 1260q-35 0 -57 13q-48 27 -47.5 77.5t28.5 78t69 27.5t68.5 -27.5t27.5 -69.5t-27.5 -70.5t-61.5 -28.5zM417 1260q-42 0 -70 28.5t-28 70.5t28 69.5t70 27.5t69.5 -27.5t27.5 -69.5t-27.5 -70.5t-69.5 -28.5z" />
    <glyph glyph-name="igrave" unicode="&#xec;" horiz-adv-x="372" 
d="M133 0v1059h107v-1059h-107zM39 1479h139l162 -291h-100z" />
    <glyph glyph-name="iacute" unicode="&#xed;" horiz-adv-x="372" 
d="M133 0v1059h107v-1059h-107zM457 1479l-203 -291h-100l161 291h142z" />
    <glyph glyph-name="icircumflex" unicode="&#xee;" horiz-adv-x="372" 
d="M133 0v1059h107v-1059h-107zM494 1186h-109l-190 215l-195 -215h-102l217 282h161z" />
    <glyph glyph-name="idieresis" unicode="&#xef;" horiz-adv-x="372" 
d="M133 0v1059h107v-1059h-107zM397 1260q-41 0 -68.5 28.5t-27.5 63.5q1 36 13 58q26 46 75 46t78 -27.5t28 -69.5t-29 -70.5t-69 -28.5zM-15 1260q-35 0 -57 13q-47 28 -47 77t27 77.5t69.5 28.5t70.5 -27.5t28 -69.5t-28 -70.5t-63 -28.5z" />
    <glyph glyph-name="eth" unicode="&#xf0;" horiz-adv-x="1249" 
d="M643 956q-193 0 -321 -122t-127 -310q-1 -186 119 -311t303 -125t311 134q127 134 127 337q0 96 -33 195q-74 94 -174 148t-205 54zM1151 596q0 -268 -143 -438t-381 -170q-237 0 -389 154t-152 381q0 228 155 381t386 153q166 0 291 -86q-94 145 -250 295l-291 -144
l-41 88l256 125q-96 84 -211 168l65 70q127 -90 240 -191l277 136l41 -88l-242 -119q389 -379 389 -715z" />
    <glyph glyph-name="ntilde" unicode="&#xf1;" horiz-adv-x="1150" 
d="M596.5 1081q193.5 0 305.5 -127t112 -331v-623h-107v633q0 100 -40 180q-83 166 -274.5 166t-338.5 -166v-813h-107v1059h107v-111q149 133 342.5 133zM477 1354q-82 0 -131 -74l-76 51q70 125 199 125q78 0 180 -45t167 -45t112 74l69 -54q-63 -123 -174 -122
q-74 0 -182.5 45t-163.5 45z" />
    <glyph glyph-name="ograve" unicode="&#xf2;" horiz-adv-x="1312" 
d="M656.5 84q187.5 0 312.5 128t125 317.5t-125 317.5t-312.5 128t-312.5 -128t-125 -317.5t125 -317.5t312.5 -128zM656.5 -18q-234.5 0 -392.5 156.5t-158 391t158 391t391 156.5q156 0 282 -71.5t197.5 -196.5t71.5 -281q0 -233 -157.5 -389.5t-392 -156.5zM506 1479h139
l162 -291h-100z" />
    <glyph glyph-name="oacute" unicode="&#xf3;" horiz-adv-x="1312" 
d="M656.5 84q187.5 0 312.5 128t125 317.5t-125 317.5t-312.5 128t-312.5 -128t-125 -317.5t125 -317.5t312.5 -128zM656.5 -18q-234.5 0 -392.5 156.5t-158 391t158 391t393 156.5q154 0 280 -71.5t197.5 -196.5t71.5 -281q0 -233 -157.5 -389.5t-392 -156.5zM924 1479
l-201 -291h-100l161 291h140z" />
    <glyph glyph-name="ocircumflex" unicode="&#xf4;" horiz-adv-x="1312" 
d="M656.5 84q187.5 0 312.5 128t125 317.5t-125 317.5t-312.5 128t-312.5 -128t-125 -317.5t125 -317.5t312.5 -128zM656.5 -18q-234.5 0 -392.5 156.5t-158 391t158 391t391 156.5q156 0 282 -71.5t197.5 -196.5t71.5 -281q0 -233 -157.5 -389.5t-392 -156.5zM961 1186
h-109l-190 215l-193 -215h-104l217 282h161z" />
    <glyph glyph-name="otilde" unicode="&#xf5;" horiz-adv-x="1312" 
d="M656.5 84q187.5 0 312.5 128t125 317.5t-125 317.5t-312.5 128t-312.5 -128t-125 -317.5t125 -317.5t312.5 -128zM656.5 -18q-234.5 0 -392.5 156.5t-158 391t158 391t393 156.5q154 0 280 -71.5t197.5 -196.5t71.5 -279q0 -236 -157.5 -392t-392 -156zM520 1456
q76 0 179 -45t168 -45t112 74l70 -54q-66 -123 -177 -122q-74 0 -181 45t-177 45t-117 -74l-75 51q68 125 198 125z" />
    <glyph glyph-name="odieresis" unicode="&#xf6;" horiz-adv-x="1312" 
d="M656.5 84q187.5 0 312.5 128t125 317.5t-125 317.5t-312.5 128t-312.5 -128t-125 -317.5t125 -317.5t312.5 -128zM656.5 -18q-234.5 0 -392.5 156.5t-158 391t158 391t393 156.5q154 0 280 -71.5t197.5 -196.5t71.5 -281q0 -233 -157.5 -389.5t-392 -156.5zM865 1260
q-42 0 -68.5 28.5t-27.5 70.5t26.5 69.5t69.5 27.5t70 -27.5t28 -69.5t-28 -70.5t-70 -28.5zM446.5 1260q-40.5 0 -68.5 28.5t-28 70.5t28 69.5t68.5 27.5t68.5 -27.5t28 -69.5t-28 -70.5t-68.5 -28.5z" />
    <glyph glyph-name="divide" unicode="&#xf7;" horiz-adv-x="1267" 
d="M634 367q-40 -1 -66 25q-43 42 -19 100q24 57 74 57q49 0 75 -26q26 -25 25 -65t-25 -66t-64 -25zM166 750v92h934v-92h-934zM634 1042q-40 0 -66 27t-26 67t26 64t65 25q39 0 65 -25q26 -24 25 -64t-25 -67t-64 -27z" />
    <glyph glyph-name="oslash" unicode="&#xf8;" horiz-adv-x="1312" 
d="M666 84q177 0 302.5 128t125.5 309t-105 306l-618 -639q118 -104 295 -104zM219 544q0 -174 90 -292l615 635q-115 88 -284 88t-295 -128.5t-126 -302.5zM1206 523q0 -228 -156.5 -384.5t-380 -156.5t-374.5 129l-125 -129l-64 61l127 131q-127 150 -127 370t158 376.5
t393 156.5q195 0 342 -112l103 108l65 -63l-102 -105q141 -154 141 -382z" />
    <glyph glyph-name="ugrave" unicode="&#xf9;" horiz-adv-x="1138" 
d="M885 1059h106v-1059h-106v106q-152 -127 -346 -126q-121 0 -214.5 57t-143.5 160.5t-50 238.5v623h107v-629q0 -158 86 -253t225 -95q182 0 336 158v819zM743 1188h-100l-203 291h142z" />
    <glyph glyph-name="uacute" unicode="&#xfa;" horiz-adv-x="1138" 
d="M885 1059h106v-1059h-106v106q-152 -127 -346 -126q-121 0 -214.5 57t-143.5 160.5t-50 238.5v623h107v-629q0 -158 86 -253t225 -95q182 0 336 158v819zM858 1479l-201 -291h-100l162 291h139z" />
    <glyph glyph-name="ucircumflex" unicode="&#xfb;" horiz-adv-x="1138" 
d="M885 1059h106v-1059h-106v106q-152 -127 -346 -126q-121 0 -214.5 57t-143.5 160.5t-50 238.5v623h107v-629q0 -158 86 -253t225 -95q182 0 336 158v819zM596 1401l-193 -215h-104l217 282h164l217 -282h-109z" />
    <glyph glyph-name="udieresis" unicode="&#xfc;" horiz-adv-x="1138" 
d="M885 1059h106v-1059h-106v106q-152 -127 -346 -126q-121 0 -214.5 57t-143.5 160.5t-50 238.5v623h107v-629q0 -158 86 -253t225 -95q182 0 336 158v819zM801 1260q-41 0 -68.5 28.5t-29 70.5t26.5 69.5t70 27.5t69.5 -27.5t27.5 -69.5t-27.5 -70.5t-68.5 -28.5z
M381 1260q-41 0 -68.5 28.5t-27.5 70.5t27.5 69.5t68.5 27.5t68.5 -27.5t27.5 -69.5t-27.5 -70.5t-68.5 -28.5z" />
    <glyph glyph-name="yacute" unicode="&#xfd;" horiz-adv-x="1206" 
d="M1032 1059h113q-244 -1016 -848 -1354q-141 -78 -307 -115l-6 105q221 45 444 225q55 43 104 96l-452 1043h123l407 -955q254 318 422 955zM913 1479l-202 -291h-101l162 291h141z" />
    <glyph glyph-name="thorn" unicode="&#xfe;" horiz-adv-x="1185" 
d="M561 82q178 0 298 128t120 319.5t-120 319.5t-298 128q-113 1 -227 -61q-53 -28 -92 -66v-641q59 -57 146 -92t173 -35zM561 1079q233 0 386 -155.5t153 -394t-152.5 -394t-386.5 -155.5q-186 0 -319 96v-496h-107v1946h107v-541q133 94 319 94z" />
    <glyph glyph-name="ydieresis" unicode="&#xff;" horiz-adv-x="1206" 
d="M1032 1059h113q-244 -1016 -848 -1354q-141 -78 -307 -115l-6 105q221 45 444 225q55 43 104 96l-452 1043h123l407 -955q254 318 422 955zM861 1260q-33 0 -55 13q-48 29 -48 78.5t27.5 77t69.5 27.5t69.5 -27.5t26.5 -69.5t-28.5 -70.5t-61.5 -28.5zM435 1260
q-42 0 -69.5 28.5t-27.5 70.5t27.5 69.5t69.5 27.5t69.5 -27.5t27.5 -69.5t-27.5 -70.5t-69.5 -28.5z" />
    <glyph glyph-name="Amacron" unicode="&#x100;" horiz-adv-x="1554" 
d="M422 545h704l-352 755zM1380 0l-206 444h-799l-207 -444h-117l725 1536l727 -1536h-123zM1130 1866v-99h-706v99h706z" />
    <glyph glyph-name="amacron" unicode="&#x101;" horiz-adv-x="1257" 
d="M636.5 82q110.5 0 212 49t155.5 125v549q-53 74 -154.5 123t-204.5 49q-180 0 -300 -128t-120 -319q0 -127 55.5 -229t150.5 -160.5t205.5 -58.5zM1004 1059h106v-1059h-106v106q-139 -127 -365.5 -126.5t-379.5 156t-153 394t153 394t379 155.5t366 -127v107zM1001 1399
v-99h-706v99h706z" />
    <glyph glyph-name="Abreve" unicode="&#x102;" horiz-adv-x="1554" 
d="M422 545h704l-352 755zM1380 0l-206 444h-799l-207 -444h-117l725 1536l727 -1536h-123zM779 1673q-128 0 -216 82t-88 199h107q0 -53 26.5 -96t71.5 -67t98 -24q54 0 98 24q96 52 95 163h108q0 -117 -86 -199t-214 -82z" />
    <glyph glyph-name="abreve" unicode="&#x103;" horiz-adv-x="1257" 
d="M636.5 82q110.5 0 212 49t155.5 125v549q-53 74 -154.5 123t-204.5 49q-180 0 -300 -128t-120 -319q0 -127 55.5 -229t150.5 -160.5t205.5 -58.5zM1004 1059h106v-1059h-106v106q-139 -127 -365.5 -126.5t-379.5 156t-153 394t153 394t379 155.5t366 -127v107zM651 1206
q-129 0 -217 82t-88 199h107q1 -53 27 -96q56 -91 171 -91q51 0 95 24q96 52 96 163h108q0 -76 -39 -140.5t-107.5 -102.5t-152.5 -38z" />
    <glyph glyph-name="Aogonek" unicode="&#x104;" horiz-adv-x="1554" 
d="M422 547h704l-352 753zM1481 -369q20 0 35 2l-3 -63q-37 -6 -67 -6q-104 0 -161.5 52t-57.5 125q0 151 153 259l-206 444h-799l-207 -444h-117l725 1536l727 -1536h-53q-129 -102 -129 -225q0 -63 42 -103.5t118 -40.5z" />
    <glyph glyph-name="aogonek" unicode="&#x105;" horiz-adv-x="1257" 
d="M636.5 82q110.5 0 212 49t155.5 125v549q-53 74 -154.5 123t-204.5 49q-180 0 -300 -128t-120 -319q0 -127 55.5 -229t150.5 -160.5t205.5 -58.5zM1141 -369q20 0 35 2l-2 -63q-37 -6 -68 -6q-104 0 -161.5 52t-57.5 125q0 151 153 259h-36v106q-139 -127 -365.5 -126.5
t-379.5 156t-153 394t153 394t379 155.5t366 -127v107h106v-1059q-129 -102 -129 -225q0 -63 42 -103.5t118 -40.5z" />
    <glyph glyph-name="Cacute" unicode="&#x106;" horiz-adv-x="1540" 
d="M895 -12q-215 0 -392 101t-277.5 279.5t-100.5 395.5t100.5 394t276.5 278.5t412 101.5t454 -152l-63 -86q-180 133 -410 134q-281 0 -470 -192.5t-189 -478.5t189 -478.5t461 -192.5t468 164l65 -80q-106 -88 -244.5 -138t-279.5 -50zM1159 1946l-203 -291h-100l162 291
h141z" />
    <glyph glyph-name="cacute" unicode="&#x107;" horiz-adv-x="1126" 
d="M645 -18q-231 0 -385 155.5t-154 390.5t155 392t376 157t375 -139l-60 -82q-80 72 -196 104q-58 16 -111 15q-178 0 -299 -128t-121 -317.5t121 -317.5t299 -128q102 0 197.5 46t148.5 118l72 -66q-103 -124 -259 -174q-79 -26 -159 -26zM930 1479l-201 -291h-100
l162 291h139z" />
    <glyph glyph-name="Cdotaccent" unicode="&#x10a;" horiz-adv-x="1540" 
d="M895 -12q-215 0 -392 101t-277.5 279.5t-100.5 395.5t100.5 394t276.5 278.5t411.5 101.5t454.5 -152l-63 -86q-180 133 -410 134q-281 0 -470 -192.5t-189 -478.5t189 -478.5t460.5 -192.5t468.5 164l65 -80q-106 -88 -244.5 -138t-279.5 -50zM892 1726q-42 0 -69.5 29
t-27.5 71t27.5 69.5t62.5 27.5q35 -1 57 -13q46 -26 46.5 -76t-27 -79t-69.5 -29z" />
    <glyph glyph-name="cdotaccent" unicode="&#x10b;" horiz-adv-x="1126" 
d="M645 -18q-231 0 -385 155.5t-154 390.5t155 392t376 157t375 -139l-60 -82q-80 72 -196 104q-58 16 -111 15q-178 0 -299 -128t-121 -317.5t121 -317.5t299 -128q102 0 197.5 46t148.5 118l72 -66q-103 -124 -259 -174q-79 -26 -159 -26zM658 1260q-35 0 -63 28.5
t-28 63.5q1 36 13 58q26 46 84 46q56 0 84 -47q14 -23 14 -50.5t-13.5 -50t-34.5 -35.5t-56 -13z" />
    <glyph glyph-name="Ccaron" unicode="&#x10c;" horiz-adv-x="1540" 
d="M895 -12q-215 0 -392 101t-277.5 279.5t-100.5 395.5t100.5 394t276.5 278.5t412 101.5t454 -152l-63 -86q-180 133 -410 134q-281 0 -470 -192.5t-189 -478.5t189 -478.5t461 -192.5t468 164l65 -80q-106 -88 -244.5 -138t-279.5 -50zM625 1960h108l191 -217l194 217
h105l-219 -283h-162z" />
    <glyph glyph-name="ccaron" unicode="&#x10d;" horiz-adv-x="1126" 
d="M645 -18q-231 0 -385 155.5t-154 390.5t155 392t376 157t375 -139l-60 -82q-80 72 -196 104q-58 16 -111 15q-178 0 -299 -128t-121 -317.5t121 -317.5t299 -128q102 0 197.5 46t148.5 118l72 -66q-103 -124 -259 -174q-79 -26 -159 -26zM397 1493h109l190 -217l195 217
h102l-217 -283h-162z" />
    <glyph glyph-name="Dcaron" unicode="&#x10e;" horiz-adv-x="1556" 
d="M657 102q281 0 470.5 184.5t189.5 476.5t-189.5 475t-470.5 183h-358v-1319h358zM657 1526q217 0 392.5 -95.5t279 -270.5t103.5 -397t-103.5 -397.5t-279 -270.5t-392.5 -95h-471v1526h471zM768 1677h-162l-217 283h109l190 -217l195 217h102z" />
    <glyph glyph-name="dcaron" unicode="&#x10f;" horiz-adv-x="1406" 
d="M649 82q98 0 196.5 46t153.5 116v571q-79 99 -217 141q-68 20 -133 21q-178 0 -298 -128t-120 -319.5t120 -319.5t298 -128zM1319 1526h139l-110 -488h-84zM999 1526h107v-1526h-107v100q-139 -121 -361 -120.5t-373.5 156t-151.5 394t151.5 394t374.5 156t360 -118.5
v565z" />
    <glyph glyph-name="Dcroat" unicode="&#x110;" horiz-adv-x="1531" 
d="M676 102q281 0 470 184.5t189 476.5t-189.5 475t-469.5 183h-361v-575h445v-109h-445v-635h361zM676 1526q330 0 551 -213t221 -550t-221 -550t-551 -213h-471v737h-205v109h205v680h471z" />
    <glyph glyph-name="dcroat" unicode="&#x111;" horiz-adv-x="1226" 
d="M645 977q-180 0 -300 -128t-120 -319q0 -127 55.5 -229t150.5 -160.5t222.5 -58.5t247.5 78q57 37 94 84v571q-55 72 -153.5 117t-196.5 45zM1290 1335v-92h-188v-1243h-107v100q-139 -121 -361 -120.5t-375 156t-153 394t153 394t375 155.5t361 -118v282h-387v92h387
v191h107v-191h188z" />
    <glyph glyph-name="Emacron" unicode="&#x112;" horiz-adv-x="1202" 
d="M297 104h795l-37 -104h-869v1526h904l-37 -105h-756v-563h598v-106h-598v-648zM956 1866v-99h-706v99h706z" />
    <glyph glyph-name="emacron" unicode="&#x113;" horiz-adv-x="1226" 
d="M625.5 977q-156.5 0 -268.5 -109.5t-130 -277.5h772q-10 168 -113.5 277.5t-260 109.5zM643 84q217 0 358 160l72 -76q-166 -186 -430 -186q-229 0 -383 157.5t-154 391.5t148.5 390t366 156t357.5 -149.5t140 -376.5q0 -29 -2 -57h-891q12 -178 130 -294t288 -116z
M981 1399v-99h-709v99h709z" />
    <glyph glyph-name="Edotaccent" unicode="&#x116;" horiz-adv-x="1202" 
d="M297 104h795l-37 -104h-869v1526h904l-37 -105h-756v-563h598v-106h-598v-648zM603 1726q-42 0 -69.5 29t-26.5 64t13 57q26 47 84 47q58 1 84 -47q12 -22 12 -57t-27.5 -64t-69.5 -29z" />
    <glyph glyph-name="edotaccent" unicode="&#x117;" horiz-adv-x="1226" 
d="M625.5 977q-156.5 0 -268.5 -109.5t-130 -277.5h772q-10 168 -113.5 277.5t-260 109.5zM643 84q217 0 361 160l69 -76q-166 -186 -412.5 -186t-400.5 157.5t-154 391.5t148.5 390t366 156t358.5 -149.5t141 -376.5q0 -29 -4 -57h-891q12 -178 130 -294t288 -116z
M628 1260q-42 0 -70 28.5t-28 63.5q0 36 14 58q28 46 77 46t76.5 -27.5t27.5 -69.5t-27.5 -70.5t-69.5 -28.5z" />
    <glyph glyph-name="Eogonek" unicode="&#x118;" horiz-adv-x="1202" 
d="M1085 -369q20 0 33 2v-63q-37 -6 -67 -6q-104 0 -162 52t-58 125q0 152 154 259h-799v1526h904l-37 -105h-756v-563h598v-106h-598v-648h795l-37 -104q-129 -102 -129 -225q0 -63 41.5 -103.5t117.5 -40.5z" />
    <glyph glyph-name="eogonek" unicode="&#x119;" horiz-adv-x="1226" 
d="M625.5 977q-156.5 0 -268.5 -109.5t-130 -277.5h772q-10 168 -113.5 277.5t-260 109.5zM643 84q217 0 361 160l69 -76q-145 -162 -371 -182q-111 -98 -110 -211q0 -63 42 -103.5t118 -40.5q20 0 34 2l-2 -63q-37 -6 -67 -6q-102 0 -160.5 52t-58.5 132q0 129 131 234
q-225 6 -374 162.5t-149 388.5t148.5 388t366 156t357.5 -149.5t140 -376.5q0 -29 -2 -57h-891q12 -178 130 -294t288 -116z" />
    <glyph glyph-name="Ecaron" unicode="&#x11a;" horiz-adv-x="1202" 
d="M297 104h795l-37 -104h-869v1526h904l-37 -105h-756v-563h598v-106h-598v-648zM717 1677h-164l-217 283h108l193 -217l192 217h105z" />
    <glyph glyph-name="ecaron" unicode="&#x11b;" horiz-adv-x="1226" 
d="M625.5 977q-156.5 0 -268.5 -109.5t-130 -277.5h772q-10 168 -113.5 277.5t-260 109.5zM643 84q217 0 361 160l69 -76q-166 -186 -430 -186q-229 0 -383 157.5t-154 391.5t148.5 390t366 156t357.5 -149.5t140 -376.5q0 -29 -2 -57h-891q12 -178 130 -294t288 -116z
M739 1210h-161l-218 283h109l190 -217l195 217h104z" />
    <glyph glyph-name="Gbreve" unicode="&#x11e;" horiz-adv-x="1599" 
d="M1319 705h104v-541q-106 -80 -247.5 -128t-293 -48t-295 60.5t-244.5 163.5t-159.5 246.5t-58.5 303.5q0 217 100.5 394t277.5 279.5t409.5 102.5t447.5 -152l-64 -86q-176 133 -399 134q-281 0 -470 -193.5t-189 -477.5t187 -476.5t470 -192.5q225 0 424 119v492z
M919 1673q-128 0 -216.5 82t-88.5 199h107q0 -80 57.5 -133.5t137 -53.5t138 51.5t58.5 135.5h109q0 -117 -87 -199t-215 -82z" />
    <glyph glyph-name="gbreve" unicode="&#x11f;" horiz-adv-x="1257" 
d="M636.5 82q110.5 0 212 49t155.5 125v549q-53 74 -154.5 123t-204.5 49q-180 0 -300 -128t-120 -319q0 -127 55.5 -229t150.5 -160.5t205.5 -58.5zM1004 1059h106v-821q0 -243 -91.5 -390t-231 -208.5t-316.5 -73.5l-6 106q367 16 487 272q32 70 45 158
q-139 -123 -362 -122.5t-376 156t-153 394t153 394t379 155.5t366 -127v107zM643 1206q-127 0 -215 82t-88 199h106q0 -80 57.5 -133.5t125 -53.5t111.5 24t70 67t26 96h108q0 -76 -39 -140.5t-107.5 -102.5t-154.5 -38z" />
    <glyph glyph-name="Gdotaccent" unicode="&#x120;" horiz-adv-x="1599" 
d="M1319 705h104v-541q-106 -80 -247.5 -128t-293 -48t-295 60.5t-244.5 163.5t-159.5 246.5t-58.5 303.5q0 217 100.5 394t277.5 279.5t409.5 102.5t447.5 -152l-64 -86q-176 133 -399 134q-281 0 -469 -193.5t-188 -477.5t186 -476.5t469 -192.5q225 0 424 119v492z
M919 1726q-42 0 -70 29t-28 64q-1 35 13 57q29 47 86 47q58 1 84 -47q12 -22 12 -57t-27.5 -64t-69.5 -29z" />
    <glyph glyph-name="gdotaccent" unicode="&#x121;" horiz-adv-x="1257" 
d="M636.5 82q110.5 0 212 49t155.5 125v549q-53 74 -154.5 123t-204.5 49q-180 0 -300 -128t-120 -319q0 -127 55.5 -229t150.5 -160.5t205.5 -58.5zM1004 1059h106v-821q0 -243 -91.5 -390t-231 -208.5t-316.5 -73.5l-6 106q221 8 362.5 112.5t169.5 317.5
q-139 -123 -362 -122.5t-376 156t-153 394t153 394t379 155.5t366 -127v107zM644 1260q-42 0 -69.5 28.5t-27.5 63.5q0 36 12 58q25 46 76 46t78.5 -27.5t27.5 -69.5t-27.5 -70.5t-69.5 -28.5z" />
    <glyph glyph-name="Gcommaaccent" unicode="&#x122;" horiz-adv-x="1599" 
d="M782 -479q68 70 97.5 148.5t35.5 195.5h103q-4 -139 -44 -236.5t-130 -167.5zM1319 705h104v-541q-106 -80 -247.5 -128t-293.5 -48t-295 60.5t-244 163.5t-159.5 246.5t-58.5 303.5q0 217 100.5 394t277.5 279.5t409 102.5t448 -152l-64 -86q-176 133 -399 134
q-281 0 -470 -193.5t-189 -477.5t187 -476.5t470 -192.5q225 0 424 119v492z" />
    <glyph glyph-name="gcommaaccent" unicode="&#x123;" horiz-adv-x="1257" 
d="M636.5 82q110.5 0 212 49t155.5 125v549q-53 74 -154.5 123t-204.5 49q-180 0 -300 -128t-120 -319q0 -127 55.5 -229t150.5 -160.5t205.5 -58.5zM1004 1059h106v-821q0 -243 -91.5 -390t-231 -208.5t-316.5 -73.5l-6 106q221 8 362.5 112.5t169.5 317.5
q-139 -123 -362 -122.5t-376 156t-153 394t153 394t379 155.5t366 -127v107zM512 1377.5q0 72.5 44 145t120 126.5l51 -56q-74 -61 -109 -129q70 10 112 -28.5t42 -77.5q0 -67 -34 -103t-91.5 -36t-96 43t-38.5 115.5z" />
    <glyph glyph-name="Hbar" unicode="&#x126;" horiz-adv-x="1533" 
d="M1278 838v368h-983v-368h983zM1550 1307v-101h-161v-1206h-111v735h-983v-735h-109v1206h-202v101h202v219h109v-219h983v219h111v-219h161z" />
    <glyph glyph-name="hbar" unicode="&#x127;" horiz-adv-x="1122" 
d="M602.5 1081q193.5 0 305.5 -127t112 -331v-623h-107v633q0 154 -87 250t-226 96q-193 0 -340 -166v-813h-106v1235h-179v94h179v197h106v-197h397v-94h-397v-287q149 133 342.5 133z" />
    <glyph glyph-name="Imacron" unicode="&#x12a;" horiz-adv-x="561" 
d="M225 1526h111v-1526h-111v1526zM-70 1866h707v-99h-707v99z" />
    <glyph glyph-name="imacron" unicode="&#x12b;" horiz-adv-x="372" 
d="M133 0v1059h107v-1059h-107zM-166 1399h709v-99h-709v99z" />
    <glyph glyph-name="Iogonek" unicode="&#x12e;" horiz-adv-x="561" 
d="M367 -369q20 0 34 2l-2 -63q-37 -6 -87 -6t-100 24q-99 49 -99 160q0 66 38.5 132.5t114.5 119.5h-41v1526h111v-1526q-129 -102 -129 -225q0 -63 42 -103.5t118 -40.5z" />
    <glyph glyph-name="iogonek" unicode="&#x12f;" horiz-adv-x="372" 
d="M270 -369q20 0 35 2l-2 -63q-37 -6 -67 -6q-104 0 -162 52t-58 125q0 152 154 259h-37v1059h107v-1059q-129 -102 -129 -225q0 -63 41.5 -103.5t117.5 -40.5zM182 1260q-35 0 -62.5 28.5t-27.5 70.5t27.5 69.5t69.5 27.5t70 -27.5t28 -62.5t-12.5 -57.5t-35 -35.5
t-57.5 -13z" />
    <glyph glyph-name="Idotaccent" unicode="&#x130;" horiz-adv-x="561" 
d="M225 1526h111v-1526h-111v1526zM277 1726q-35 0 -63 29t-27 71t29 69.5t69 27.5t68.5 -27.5t27.5 -62.5t-12.5 -57.5t-34.5 -36t-57 -13.5z" />
    <glyph glyph-name="dotlessi" unicode="&#x131;" horiz-adv-x="372" 
d="M133 0v1059h107v-1059h-107z" />
    <glyph glyph-name="Kcommaaccent" unicode="&#x136;" horiz-adv-x="1501" 
d="M563 -479q68 70 97.5 148.5t33.5 195.5h103q-2 -139 -43 -236.5t-131 -167.5zM295 0h-109v1526h109v-850q571 246 848 850h112q-153 -379 -436 -635l561 -891h-135l-512 819q-193 -154 -438 -254v-565z" />
    <glyph glyph-name="kcommaaccent" unicode="&#x137;" horiz-adv-x="1146" 
d="M432 -479q66 70 96.5 148.5t34.5 195.5h103q-4 -139 -44 -236.5t-130 -167.5zM260 0h-106v1524h106v-1002q402 157 600 537h113q-129 -250 -311 -412l407 -647h-127l-360 582q-141 -102 -322 -170v-412z" />
    <glyph glyph-name="Lacute" unicode="&#x139;" horiz-adv-x="1187" 
d="M295 102h792l-36 -102h-865v1526h109v-1424zM842 1946l-201 -291h-100l161 291h140z" />
    <glyph glyph-name="lacute" unicode="&#x13a;" horiz-adv-x="659" 
d="M453 -8q-133 0 -216 87t-83 251v1196h108v-1192q0 -119 49 -183.5t144 -64.5q43 0 96 14l20 -86q-50 -22 -118 -22zM504 1946l-201 -291h-100l162 291h139z" />
    <glyph glyph-name="Lcommaaccent" unicode="&#x13b;" horiz-adv-x="1187" 
d="M446 -479q91 95 116 207q13 58 18 137h102q-4 -139 -44 -236.5t-130 -167.5zM295 102h790l-36 -102h-863v1526h109v-1424z" />
    <glyph glyph-name="lcommaaccent" unicode="&#x13c;" horiz-adv-x="659" 
d="M254 -479q68 70 97.5 148.5t35.5 195.5h102q-4 -139 -43.5 -236.5t-130.5 -167.5zM453 -8q-133 0 -216 87t-83 251v1196h108v-1192q0 -119 49 -183.5t144 -64.5q43 0 96 14l20 -86q-50 -22 -118 -22z" />
    <glyph glyph-name="Lcaron" unicode="&#x13d;" horiz-adv-x="1146" 
d="M786 1526l-108 -484h-82l53 484h137zM295 102h790l-36 -102h-863v1526h109v-1424z" />
    <glyph glyph-name="lcaron" unicode="&#x13e;" horiz-adv-x="679" 
d="M465 1526h139l-110 -488h-82zM453 -8q-133 0 -216 87t-83 251v1196h108v-1192q0 -119 49 -183.5t144 -64.5q43 0 96 14l20 -86q-50 -22 -118 -22z" />
    <glyph glyph-name="Lslash" unicode="&#x141;" horiz-adv-x="1153" 
d="M301 102h793l-37 -102h-864v713l-197 -101v117l197 102v695h108v-639l252 129v-117l-252 -129v-668z" />
    <glyph glyph-name="lslash" unicode="&#x142;" horiz-adv-x="645" 
d="M186 330v391l-186 -98v110l186 96v697h109v-641l184 94v-109l-184 -94v-442q0 -119 50 -183.5t144 -64.5q44 0 95 14l20 -86q-49 -23 -119 -22q-133 0 -216 87t-83 251z" />
    <glyph glyph-name="Nacute" unicode="&#x143;" horiz-adv-x="1687" 
d="M1499 1526v-1538l-1202 1278l2 -1266h-113v1536l1203 -1274v1264h110zM1110 1946l-201 -291h-100l162 291h139z" />
    <glyph glyph-name="nacute" unicode="&#x144;" horiz-adv-x="1150" 
d="M596.5 1081q193.5 0 305.5 -127t112 -331v-623h-107v633q0 100 -40 180q-83 166 -274.5 166t-338.5 -166v-813h-107v1059h107v-111q149 133 342.5 133zM874 1479l-202 -291h-101l162 291h141z" />
    <glyph glyph-name="Ncommaaccent" unicode="&#x145;" horiz-adv-x="1687" 
d="M696 -479q87 91 115 207q14 58 18 137h101q-2 -139 -43 -236.5t-129 -167.5zM1389 1526h110v-1538l-1202 1278l2 -1266h-113v1536l1203 -1274v1264z" />
    <glyph glyph-name="ncommaaccent" unicode="&#x146;" horiz-adv-x="1150" 
d="M410 -479q68 70 97.5 148.5t33.5 195.5h102q-2 -139 -43 -236.5t-131 -167.5zM596.5 1081q193.5 0 305.5 -127t112 -331v-623h-107v633q0 100 -40 180q-83 166 -274.5 166t-338.5 -166v-813h-107v1059h107v-111q149 133 342.5 133z" />
    <glyph glyph-name="Ncaron" unicode="&#x147;" horiz-adv-x="1687" 
d="M1499 1526v-1538l-1202 1278l2 -1266h-113v1536l1203 -1274v1264h110zM956 1677h-161l-217 283h108l191 -217l192 217h105z" />
    <glyph glyph-name="ncaron" unicode="&#x148;" horiz-adv-x="1150" 
d="M596.5 1081q193.5 0 305.5 -127t112 -331v-623h-107v633q0 100 -40 180q-83 166 -274.5 166t-338.5 -166v-813h-107v1059h107v-111q149 133 342.5 133zM719 1210h-162l-217 283h109l190 -217l195 217h104z" />
    <glyph glyph-name="Eng" unicode="&#x14a;" horiz-adv-x="1644" 
d="M1499 1526v-1538l-20 22q-6 -430 -365 -430h-10v101h10q84 -1 140 29q114 61 114 290v129l-1071 1137l2 -1266h-113v1536l1182 -1251v774h21v467h110z" />
    <glyph glyph-name="eng" unicode="&#x14b;" horiz-adv-x="1114" 
d="M1014 623v-623h-21q-10 -420 -364 -420h-11v96h11q131 0 194.5 74t63.5 250v444h20v189q0 100 -40 180q-83 166 -274.5 166t-338.5 -166v-813h-107v1059h107v-111q150 133 343 133t305 -126.5t112 -331.5z" />
    <glyph glyph-name="Omacron" unicode="&#x14c;" horiz-adv-x="1789" 
d="M895 92q281 0 469 191.5t188 478.5q0 188 -85 343t-236.5 242t-335.5 87q-281 0 -469 -192.5t-188 -479.5t188 -478.5t469 -191.5zM895 -12q-217 0 -393 101t-276.5 278.5t-100.5 395.5t100.5 395t276.5 278.5t393 101.5t393 -101.5t276.5 -278.5t100.5 -395
t-100.5 -395.5t-276.5 -278.5t-393 -101zM541 1866h706v-99h-706v99z" />
    <glyph glyph-name="omacron" unicode="&#x14d;" horiz-adv-x="1312" 
d="M656.5 84q187.5 0 312.5 128t125 317.5t-125 317.5t-312.5 128t-312.5 -128t-125 -317.5t125 -317.5t312.5 -128zM656.5 -18q-234.5 0 -392.5 156.5t-158 391t158 391t391 156.5q156 0 282 -71.5t197.5 -196.5t71.5 -281q0 -233 -157.5 -389.5t-392 -156.5zM303 1399h707
v-99h-707v99z" />
    <glyph glyph-name="Ohungarumlaut" unicode="&#x150;" horiz-adv-x="1789" 
d="M895 92q281 0 469 191.5t188 478.5q0 188 -85 343t-236.5 242t-335.5 87q-281 0 -469 -192.5t-188 -479.5t188 -478.5t469 -191.5zM895 -12q-217 0 -393 101t-276.5 278.5t-100.5 395.5t100.5 395t276.5 278.5t393 101.5t393 -101.5t276.5 -278.5t100.5 -395
t-100.5 -395.5t-276.5 -278.5t-393 -101zM1247 1946l-209 -291h-100l195 291h114zM938 1946l-209 -291h-100l194 291h115z" />
    <glyph glyph-name="ohungarumlaut" unicode="&#x151;" horiz-adv-x="1312" 
d="M656.5 84q187.5 0 312.5 128t125 317.5t-125 317.5t-312.5 128t-312.5 -128t-125 -317.5t125 -317.5t312.5 -128zM656.5 -18q-234.5 0 -392.5 156.5t-158 391t158 391t391 156.5q156 0 282 -71.5t197.5 -196.5t71.5 -281q0 -233 -157.5 -389.5t-392 -156.5zM1010 1479
l-209 -291h-101l195 291h115zM700 1479l-208 -291h-101l195 291h114z" />
    <glyph glyph-name="OE" unicode="&#x152;" horiz-adv-x="2529" 
d="M895 92q281 0 469 191.5t188 480.5q0 186 -85 341t-236.5 242t-335.5 87q-281 0 -470 -192.5t-189 -479.5t189 -478.5t470 -191.5zM1665 104h795l-37 -104h-869v352q-136 -229 -391 -319q-127 -45 -268 -45q-217 0 -393 101t-276.5 278.5t-100.5 395.5t100.5 395
t276.5 278.5t390 101.5t388 -97.5t274 -266.5v352h904l-39 -105h-754v-563h598v-106h-598v-648z" />
    <glyph glyph-name="Racute" unicode="&#x154;" horiz-adv-x="1435" 
d="M674 674q219 0 339 96t120 277.5t-120 277.5t-339 96h-375l-2 -747h377zM1245 1070q0 -349 -299 -460q89 -270 190 -374.5t265 -149.5l-23 -96q-2 0 -66 12t-136 55q-127 75 -206 216t-130 309q-66 -12 -142 -13h-401l-2 -569h-109v1526h512q166 0 289 -57.5t190.5 -165
t67.5 -233.5zM985 1946l-201 -291h-100l162 291h139z" />
    <glyph glyph-name="racute" unicode="&#x155;" horiz-adv-x="735" 
d="M655 975q-102 0 -214.5 -46t-186.5 -130v-799h-107v1059h107v-125q80 72 189.5 108.5t211.5 30.5v-98zM686 1479l-201 -291h-100l162 291h139z" />
    <glyph glyph-name="Rcommaaccent" unicode="&#x156;" horiz-adv-x="1435" 
d="M571 -479q68 70 97.5 148.5t36.5 195.5h102q-4 -139 -44 -236.5t-130 -167.5zM674 674q219 0 339 96t120 277.5t-120 277.5t-339 96h-377v-747h377zM186 0v1526h512q166 0 289 -57.5t190.5 -165t67.5 -260t-79 -266.5t-220 -167q89 -270 190 -374t263 -150l-21 -96
q-4 0 -66 12q-64 12 -136 55q-127 75 -206 216t-130 309q-66 -12 -142 -13h-401l-2 -569h-109z" />
    <glyph glyph-name="rcommaaccent" unicode="&#x157;" horiz-adv-x="735" 
d="M272 -479q68 70 97.5 148.5t36.5 195.5h100q-2 -139 -43 -236.5t-129 -167.5zM655 975q-102 0 -214.5 -46t-186.5 -130v-799h-107v1059h107v-125q108 95 264 128q72 15 137 11v-98z" />
    <glyph glyph-name="Rcaron" unicode="&#x158;" horiz-adv-x="1435" 
d="M674 676q219 0 339 95t120 276.5t-120 277.5t-339 96h-377v-745h377zM186 0v1526h512q166 0 289 -57.5t190.5 -165t67.5 -252.5q0 -239 -174 -372q-55 -42 -125 -69q89 -270 190 -374t263 -150l-21 -96q-4 0 -66 12q-64 12 -136 55q-127 75 -206 216t-130 309
q-66 -12 -142 -13h-401l-2 -569h-109zM831 1677h-161l-217 283h108l191 -217l194 217h103z" />
    <glyph glyph-name="rcaron" unicode="&#x159;" horiz-adv-x="735" 
d="M655 975q-102 0 -214.5 -46t-186.5 -130v-799h-107v1059h107v-125q80 72 189.5 108.5t211.5 30.5v-98zM532 1210h-161l-217 283h108l191 -217l192 217h105z" />
    <glyph glyph-name="Sacute" unicode="&#x15a;" horiz-adv-x="1218" 
d="M651 -18q-152 0 -287 59t-235 164l78 82q188 -201 444 -201q154 0 242 83t82 220q-2 80 -40 141.5t-96.5 97.5t-132.5 70t-150 58q-154 49 -280 140.5t-126 265.5t123.5 278t316.5 104q240 0 426 -149l-68 -88q-168 133 -360 133q-145 0 -234.5 -71t-89.5 -189
q0 -153 126.5 -229t245 -113t192 -76t132 -84t94.5 -120t36 -173q0 -174 -117 -288.5t-322 -114.5zM879 1946l-203 -291h-101l162 291h142z" />
    <glyph glyph-name="sacute" unicode="&#x15b;" horiz-adv-x="923" 
d="M508 -14q-258 0 -418 172l80 84q127 -156 322 -156q100 0 161.5 53.5t61.5 121.5q1 69 -25 111q-49 82 -227 126.5t-258 106t-80 183.5t98.5 202.5t243.5 80.5q182 0 307 -119l-65 -75q-104 98 -242 98q-102 0 -168 -49t-66 -125.5t45 -120t213.5 -84.5t251 -113.5
t82.5 -205t-92.5 -212t-224.5 -79.5zM711 1479l-203 -291h-100l161 291h142z" />
    <glyph glyph-name="Scedilla" unicode="&#x15e;" horiz-adv-x="1218" 
d="M1090 385q0 -164 -105.5 -276.5t-290.5 -124.5l-14 -74q92 0 156.5 -44t64.5 -131t-67.5 -133t-158 -46t-163.5 18l12 86q74 -20 140 -20q145 0 145 98q0 57 -54.5 78.5t-181.5 19.5l39 148q-141 6 -266 64t-217 157l78 82q188 -201 444 -201q154 0 242 83t82 220
q-2 80 -40 141.5t-96.5 97.5t-132.5 70t-150 58q-154 49 -280 140.5t-126 265.5t123.5 278t316.5 104q240 0 426 -149l-68 -88q-168 133 -360 133q-145 0 -235.5 -71t-90.5 -189q0 -152 127.5 -228.5t246 -113.5t192 -76t132 -84t94.5 -120t36 -173z" />
    <glyph glyph-name="scedilla" unicode="&#x15f;" horiz-adv-x="923" 
d="M825 281q0 -128 -83 -206.5t-218 -86.5l-16 -78q92 0 157.5 -44t65.5 -131t-67.5 -133t-159 -46t-164.5 18l12 86q76 -20 140 -20q147 0 147 98q0 57 -54.5 78.5t-181.5 19.5l39 152q-100 10 -193 54t-159 116l80 84q127 -156 322 -156q100 0 161.5 53.5t61.5 136
t-58.5 135t-215 92.5t-236.5 101.5t-80 183.5t98.5 202.5t243.5 80.5q182 0 307 -119l-65 -75q-104 98 -242 98q-102 0 -168 -49t-66 -125.5t45 -120t213.5 -84.5t251 -114t82.5 -201z" />
    <glyph glyph-name="Scaron" unicode="&#x160;" horiz-adv-x="1218" 
d="M651 -18q-152 0 -287 59t-235 164l78 82q188 -201 444 -201q154 0 242 83t82 220q-2 80 -40 141.5t-96.5 97.5t-132.5 70t-150 58q-154 49 -280 140.5t-126 265.5t123.5 278t316.5 104q240 0 426 -149l-68 -88q-168 133 -360 133q-145 0 -234.5 -71t-89.5 -189
q0 -153 126.5 -229t245 -113t192 -76t132 -84t94.5 -120t36 -173q0 -174 -117 -288.5t-322 -114.5zM344 1960h109l190 -217l195 217h104l-219 -283h-162z" />
    <glyph glyph-name="scaron" unicode="&#x161;" horiz-adv-x="923" 
d="M508 -14q-258 0 -418 172l80 84q127 -156 322 -156q100 0 161.5 53.5t61.5 121.5q1 69 -25 111q-49 82 -227 126.5t-258 106t-80 183.5t98.5 202.5t243.5 80.5q182 0 307 -119l-65 -75q-104 98 -242 98q-102 0 -168 -49t-66 -125.5t45 -120t213.5 -84.5t251 -113.5
t82.5 -205t-92.5 -212t-224.5 -79.5zM176 1493h109l192 -217l193 217h104l-217 -283h-164z" />
    <glyph glyph-name="uni0162" unicode="&#x162;" horiz-adv-x="1404" 
d="M762 0h-21l-16 -90q92 0 156.5 -44t64.5 -131t-67.5 -133t-158 -46t-163.5 18l12 84q74 -18 140 -18q145 0 145 98q0 76 -99 92q-50 8 -137 6l44 164h-9v1421h-555v105h1264l-37 -105h-563v-1421z" />
    <glyph glyph-name="uni0163" unicode="&#x163;" horiz-adv-x="870" 
d="M784 -265q0 -87 -67.5 -133t-158.5 -46t-165 18l13 86q74 -20 139 -20q147 0 147 98q0 76 -101 92q-50 8 -134 6l43 168q-106 31 -168 119t-62 219v621h-209v96h209v338h107v-338h266l-37 -96h-229v-623q0 -123 63.5 -186.5t147.5 -63.5t151 29l33 -94q-94 -33 -174 -33
h-20l-17 -82q92 0 157.5 -44t65.5 -131z" />
    <glyph glyph-name="Tcaron" unicode="&#x164;" horiz-adv-x="1404" 
d="M762 1421v-1421h-109v1421h-555v105h1264l-37 -105h-563zM815 1677h-162l-217 283h109l190 -217l195 217h104z" />
    <glyph glyph-name="tcaron" unicode="&#x165;" horiz-adv-x="829" 
d="M598 -8q-147 0 -238.5 95t-91.5 255v621h-207v96h207v338h107v-338h268l-37 -96h-231v-623q0 -123 64.5 -186.5t148 -63.5t151.5 29l33 -94q-94 -33 -174 -33zM694 1526l-84 -361h-90l41 361h133z" />
    <glyph glyph-name="Tbar" unicode="&#x166;" horiz-adv-x="1363" 
d="M762 1421v-559h276v-92h-276v-770h-109v770h-297v92h297v559h-555v105h1264l-37 -105h-563z" />
    <glyph glyph-name="tbar" unicode="&#x167;" horiz-adv-x="829" 
d="M590 -8q-88 0 -163 42t-116 122t-41 186v283h-280v92h280v246h-209v96h209v338h107v-338h266l-37 -96h-229v-246h295v-92h-295v-285q0 -123 63.5 -186.5t147 -63.5t151.5 29l33 -94q-94 -33 -182 -33z" />
    <glyph glyph-name="Umacron" unicode="&#x16a;" horiz-adv-x="1568" 
d="M1393 618q0 -287 -167 -459.5t-441.5 -172.5t-441.5 171t-167 451v918h115v-928q0 -225 137 -366.5t356 -141.5q145 0 258 64.5t175.5 180.5t62.5 263v928h113v-908zM430 1866h707v-99h-707v99z" />
    <glyph glyph-name="umacron" unicode="&#x16b;" horiz-adv-x="1138" 
d="M885 1059h106v-1059h-106v106q-152 -127 -346 -126q-121 0 -214.5 57t-143.5 160.5t-50 238.5v623h107v-629q0 -158 86 -253t225 -95q182 0 336 158v819zM944 1399v-99h-706v99h706z" />
    <glyph glyph-name="Uring" unicode="&#x16e;" horiz-adv-x="1568" 
d="M1393 618q0 -287 -167 -459.5t-441.5 -172.5t-441.5 171t-167 451v918h115v-928q0 -225 137 -366.5t356 -141.5q145 0 258 64.5t175.5 180.5t62.5 263v928h113v-908zM794 2017q-50 1 -82 -17q-70 -37 -69.5 -105t41.5 -106t100.5 -38t99.5 38t40 95.5t-40.5 95
t-89.5 37.5zM767 1655q-87 0 -156.5 65.5t-69.5 163.5t69.5 164t174 66t174 -66t69.5 -148t-31.5 -134t-87 -81.5t-142.5 -29.5z" />
    <glyph glyph-name="uring" unicode="&#x16f;" horiz-adv-x="1138" 
d="M885 1059h106v-1059h-106v106q-152 -127 -346 -126q-121 0 -214.5 57t-143.5 160.5t-50 238.5v623h107v-629q0 -158 86 -253t225 -95q182 0 336 158v819zM591.5 1550q-59.5 0 -100 -37.5t-40.5 -95t40.5 -95.5t100 -38t99.5 38t40 95.5t-40 95t-99.5 37.5zM584 1188
q-60 0 -116 29.5t-88 82t-32 118t32 117.5t88 82t142 30t156 -65.5t70 -164.5t-70 -164t-182 -65z" />
    <glyph glyph-name="Uhungarumlaut" unicode="&#x170;" horiz-adv-x="1568" 
d="M1393 618q0 -287 -167 -459.5t-441.5 -172.5t-441.5 171t-167 451v918h115v-928q0 -225 137 -366.5t356 -141.5q145 0 258 64.5t175.5 180.5t62.5 263v928h113v-908zM1137 1946l-209 -291h-101l195 291h115zM827 1946l-209 -291h-100l195 291h114z" />
    <glyph glyph-name="uhungarumlaut" unicode="&#x171;" horiz-adv-x="1138" 
d="M885 1059h106v-1059h-106v106q-152 -127 -346 -126q-121 0 -214.5 57t-143.5 160.5t-50 238.5v623h107v-629q0 -158 86 -253t225 -95q182 0 336 158v819zM735 1188h-100l194 291h115zM635 1479l-209 -291h-100l194 291h115z" />
    <glyph glyph-name="Uogonek" unicode="&#x172;" horiz-adv-x="1568" 
d="M1280 1526h113v-908q0 -254 -133 -421t-361 -203q-121 -100 -121 -219q0 -63 42 -103.5t118 -40.5q20 0 33 2v-63q-37 -6 -68 -6q-104 0 -161.5 52t-57.5 132q0 131 133 238h-33q-274 0 -441 171t-167 451v918h115v-928q0 -225 137 -366.5t356 -141.5q145 0 258 64.5
t175.5 180.5t62.5 263v928z" />
    <glyph glyph-name="uogonek" unicode="&#x173;" horiz-adv-x="1138" 
d="M1020 -373q20 0 33 2v-63q-37 -6 -68 -6q-104 0 -161.5 52t-57.5 124q0 153 154 260h69q-129 -102 -129 -225q0 -63 42 -103.5t118 -40.5zM885 0v106q-152 -127 -346 -126q-121 0 -214.5 57t-143.5 160.5t-50 238.5v623h107v-629q0 -158 86 -253t225 -95q182 0 336 158
v819h106v-1059h-106z" />
    <glyph glyph-name="Wcircumflex" unicode="&#x174;" horiz-adv-x="2238" 
d="M2198 1526q-213 -780 -717 -1542l-342 819q-184 -410 -455 -819l-659 1542h122l558 -1317q209 352 370 741l-239 576h122l543 -1317q377 631 586 1317h111zM1147 1868l-195 -215h-102l217 282h162l217 -282h-109z" />
    <glyph glyph-name="wcircumflex" unicode="&#x175;" horiz-adv-x="1835" 
d="M1632 1059h111q-82 -358 -237.5 -640t-329.5 -435l-252 589q-174 -385 -406 -589l-461 1075h123l377 -887q176 219 305 545l-147 342h125l374 -887q275 342 418 887zM911 1401l-192 -215h-105l217 282h162l217 -282h-108z" />
    <glyph glyph-name="Ycircumflex" unicode="&#x176;" horiz-adv-x="1425" 
d="M766 0h-109v655l-563 871h135l488 -762l487 762h125l-563 -875v-651zM719 1868l-195 -215h-104l219 282h162l217 -282h-109z" />
    <glyph glyph-name="ycircumflex" unicode="&#x177;" horiz-adv-x="1206" 
d="M1032 1059h113q-244 -1016 -850 -1354q-139 -78 -305 -115l-6 105q221 45 444 225q55 43 104 96l-454 1043h125l407 -955q254 318 422 955zM651 1401l-194 -215h-103l217 282h162l217 -282h-108z" />
    <glyph glyph-name="Ydieresis" unicode="&#x178;" horiz-adv-x="1425" 
d="M766 0h-109v655l-561 871h133l488 -762l489 762h123l-563 -875v-651zM922 1726q-41 0 -69 29t-28 71t28 69.5t69 27.5t68.5 -27.5t27.5 -69.5t-27.5 -71t-68.5 -29zM510 1726q-36 0 -58 14q-46 28 -46 78t27.5 77.5t69.5 27.5t69.5 -27.5t27.5 -69.5t-27.5 -71t-62.5 -29
z" />
    <glyph glyph-name="Zacute" unicode="&#x179;" horiz-adv-x="1214" 
d="M80 1421v105h1071l-911 -1422h850l-37 -104h-996l912 1421h-889zM860 1946l-203 -291h-100l162 291h141z" />
    <glyph glyph-name="zacute" unicode="&#x17a;" horiz-adv-x="1034" 
d="M100 958v101h813l-612 -961h627l-39 -98h-785l623 958h-627zM778 1479l-203 -291h-100l162 291h141z" />
    <glyph glyph-name="Zdotaccent" unicode="&#x17b;" horiz-adv-x="1214" 
d="M80 1421v105h1071l-911 -1422h850l-37 -104h-996l912 1421h-889zM593 1726q-42 0 -69.5 29t-27.5 64t13 57q28 47 77 47t76.5 -27.5t27.5 -69.5t-27.5 -71t-69.5 -29z" />
    <glyph glyph-name="zdotaccent" unicode="&#x17c;" horiz-adv-x="1034" 
d="M100 958v101h813l-612 -961h627l-39 -98h-785l623 958h-627zM511 1260q-42 0 -69.5 28.5t-27.5 63.5q0 36 13 58q27 46 85.5 46t83.5 -47q12 -23 12 -57.5t-27.5 -63t-69.5 -28.5z" />
    <glyph glyph-name="Zcaron" unicode="&#x17d;" horiz-adv-x="1214" 
d="M80 1421v105h1071l-911 -1422h850l-37 -104h-996l912 1421h-889zM705 1677h-162l-217 283h108l191 -217l194 217h105z" />
    <glyph glyph-name="zcaron" unicode="&#x17e;" horiz-adv-x="1034" 
d="M100 958v101h813l-612 -961h627l-39 -98h-785l623 958h-627zM623 1210h-162l-217 283h108l191 -217l194 217h105z" />
    <glyph glyph-name="florin" unicode="&#x192;" 
 />
    <glyph glyph-name="Scommaaccent" unicode="&#x218;" horiz-adv-x="1218" 
d="M528 -479q66 70 96.5 148.5t34.5 195.5h103q-4 -139 -44 -236.5t-130 -167.5zM651 -18q-152 0 -287 59t-235 164l78 82q188 -201 444 -201q154 0 242 83t82 220q-2 80 -40 141.5t-96.5 97.5t-132.5 70t-150 58q-154 49 -280 140.5t-126 265.5t123.5 278t316.5 104
q240 0 426 -149l-68 -88q-168 133 -360 133q-145 0 -235.5 -71t-90.5 -189q0 -152 127.5 -228.5t246 -113.5t192 -76t132 -84t94.5 -120t36 -173q0 -174 -117 -288.5t-322 -114.5z" />
    <glyph glyph-name="scommaaccent" unicode="&#x219;" horiz-adv-x="923" 
d="M356 -479q68 70 97.5 148.5t35.5 195.5h101q-2 -139 -43 -236.5t-129 -167.5zM508 -14q-258 0 -418 172l80 84q127 -156 322 -156q100 0 161.5 53.5t61.5 136t-58.5 135t-215 92.5t-236.5 101.5t-80 183.5t98.5 202.5t243.5 80.5q182 0 307 -119l-65 -75q-104 98 -242 98
q-102 0 -168 -49t-66 -125.5t45 -120t213.5 -84.5t251 -113.5t82.5 -205t-92.5 -212t-224.5 -79.5z" />
    <glyph glyph-name="uni021A" unicode="&#x21a;" horiz-adv-x="1404" 
d="M573 -479q66 70 96.5 148.5t35.5 195.5h102q-4 -139 -44 -236.5t-130 -167.5zM762 1421v-1421h-109v1421h-555v105h1264l-37 -105h-563z" />
    <glyph glyph-name="uni021B" unicode="&#x21b;" horiz-adv-x="870" 
d="M410 -479q68 70 97.5 148.5t33.5 195.5h102q-2 -139 -43 -236.5t-131 -167.5zM590 -8q-88 0 -163 42t-116 122t-41 186v621h-209v96h209v338h107v-338h266l-37 -96h-229v-623q0 -123 63.5 -186.5t147.5 -63.5t151 29l33 -94q-94 -33 -182 -33z" />
    <glyph glyph-name="circumflex" unicode="&#x2c6;" 
d="M676 1186h-109l-190 215l-195 -215h-104l219 282h162z" />
    <glyph glyph-name="caron" unicode="&#x2c7;" 
d="M143 1493h109l190 -217l195 217h104l-219 -283h-162z" />
    <glyph glyph-name="breve" unicode="&#x2d8;" 
d="M393 1206q-127 0 -215 82t-88 199h107q0 -80 57 -133.5t124.5 -53.5t111.5 24q96 52 96 163h108q0 -76 -39 -140.5t-107.5 -102.5t-154.5 -38z" />
    <glyph glyph-name="dotaccent" unicode="&#x2d9;" 
d="M148 1260q-42 0 -69.5 28.5t-27.5 70.5t27.5 69.5t69.5 27.5t70 -27.5t28 -69.5t-28 -70.5t-70 -28.5z" />
    <glyph glyph-name="ring" unicode="&#x2da;" 
d="M316 1550q-60 0 -100 -37.5t-40 -95t40 -95.5t100 -38t99.5 38t39.5 95.5t-39.5 95t-99.5 37.5zM72 1401q0 82 31.5 134t88 82t143 30t156.5 -65.5t70 -162.5t-69 -164t-174 -67t-175.5 65.5t-70.5 147.5z" />
    <glyph glyph-name="ogonek" unicode="&#x2db;" 
d="M307 -436q-104 0 -162 52q-57 52 -57 125q0 152 154 259h69q-129 -102 -129 -225q0 -63 42 -103t118 -41q20 0 35 2l-2 -63q-37 -6 -68 -6z" />
    <glyph glyph-name="tilde" unicode="&#x2dc;" horiz-adv-x="874" 
d="M260 1450q78 0 180 -44t167 -44t112 74l69 -56q-63 -123 -174 -123q-74 0 -182 45.5t-164 45.5q-82 0 -131 -74l-76 53q70 123 199 123z" />
    <glyph glyph-name="hungarumlaut" unicode="&#x2dd;" 
d="M690 1479l-209 -291h-100l194 291h115zM381 1479l-209 -291h-100l194 291h115z" />
    <glyph glyph-name="gravecomb" unicode="&#x300;" horiz-adv-x="0" 
d="M-373 1479h140l161 -291h-100z" />
    <glyph glyph-name="acutecomb" unicode="&#x301;" horiz-adv-x="0" 
d="M-20 1479l-201 -291h-101l162 291h140z" />
    <glyph glyph-name="uni0302" unicode="&#x302;" horiz-adv-x="0" 
d="M-78 1186h-108l-193 215l-192 -215h-105l217 282h164z" />
    <glyph glyph-name="tildecomb" unicode="&#x303;" horiz-adv-x="0" 
d="M-590 1450q78 0 180 -44t167 -44t112 74l70 -56q-63 -123 -175 -123q-74 0 -182 45.5t-164 45.5q-82 0 -131 -74l-75 53q70 123 198 123z" />
    <glyph glyph-name="uni0304" unicode="&#x304;" horiz-adv-x="0" 
d="M-778 1399h706v-99h-706v99z" />
    <glyph glyph-name="uni0306" unicode="&#x306;" horiz-adv-x="0" 
d="M-391 1206q-129 0 -216 82t-87 199h104q0 -80 57.5 -133.5t138.5 -53.5t138 52t57 135h109q0 -76 -39 -140.5t-108.5 -102.5t-153.5 -38z" />
    <glyph glyph-name="uni0307" unicode="&#x307;" horiz-adv-x="0" 
d="M-149 1260q-42 0 -69.5 28.5t-27.5 63.5q0 36 14 58q28 46 76.5 46t76.5 -27.5t28 -69.5t-28 -70.5t-70 -28.5z" />
    <glyph glyph-name="uni0308" unicode="&#x308;" horiz-adv-x="0" 
d="M-158 1260q-41 0 -68.5 28.5t-28.5 70.5t26.5 69.5t69.5 27.5t70 -27.5t28 -69.5t-28 -70.5t-69 -28.5zM-577.5 1260q-40.5 0 -68.5 28q-28 30 -28 60q0 51 25.5 79.5t68.5 28.5t71 -27.5t28 -69.5t-28 -70.5t-68.5 -28.5z" />
    <glyph glyph-name="uni030A" unicode="&#x30a;" horiz-adv-x="0" 
d="M-315.5 1550q-59.5 0 -99.5 -37.5t-40 -95t40 -95.5t99.5 -38t99.5 38t40 95.5t-40 95t-99.5 37.5zM-561 1401q0 82 32.5 134t89 82t142.5 30t155.5 -65.5t69.5 -164t-69.5 -164t-173.5 -65.5t-175 65.5t-71 147.5z" />
    <glyph glyph-name="uni030B" unicode="&#x30b;" horiz-adv-x="0" 
d="M-14 1479l-209 -291h-101l195 291h115zM-324 1479l-208 -291h-101l195 291h114z" />
    <glyph glyph-name="uni030C" unicode="&#x30c;" horiz-adv-x="0" 
d="M-676 1493h109l190 -217l195 217h104l-219 -283h-162z" />
    <glyph glyph-name="uni0312" unicode="&#x312;" horiz-adv-x="0" 
d="M-150 1333.5q0 -42.5 -33.5 -78.5t-79.5 -36t-79 19q-68 39 -68 126q0 169 164 285l49 -56q-74 -61 -106 -129q47 6 83 -11t53 -47t17 -72.5z" />
    <glyph glyph-name="uni0326" unicode="&#x326;" horiz-adv-x="0" 
d="M-317 -479q68 70 97.5 148.5t35.5 195.5h102q-4 -139 -44 -236.5t-130 -167.5z" />
    <glyph glyph-name="uni0327" unicode="&#x327;" horiz-adv-x="0" 
d="M-297.5 -444q-91.5 0 -165.5 18l12 86q76 -20 140 -20q147 0 147 98q0 57 -54 78.5t-181 19.5l43 168h80l-19 -94q92 0 157.5 -44t65.5 -131t-67 -133t-158.5 -46z" />
    <glyph glyph-name="uni0328" unicode="&#x328;" horiz-adv-x="0" 
d="M-164 -436q-104 0 -161.5 52t-57.5 125q0 152 154 259h69q-129 -102 -129 -225q0 -63 42 -103.5t118 -40.5q20 0 33 2v-63q-37 -6 -68 -6z" />
    <glyph glyph-name="uni0335" unicode="&#x335;" horiz-adv-x="0" 
d="M-754 733v92h682v-92h-682z" />
    <glyph glyph-name="uni0338" unicode="&#x338;" horiz-adv-x="0" 
d="M-131 1542l90 -53l-872 -1509l-88 53z" />
    <glyph glyph-name="uni0394" unicode="&#x394;" horiz-adv-x="1552" 
d="M217 104h1114l-559 1196zM776 1536l725 -1536h-1450z" />
    <glyph glyph-name="uni03A9" unicode="&#x3a9;" horiz-adv-x="1775" 
d="M1642 778q0 -215 -95 -392t-259 -282h350l-36 -104h-484v137q186 74 299 246t113 395q0 281 -181 468q-181 188 -461 188t-462 -188t-182 -468q0 -223 112 -395t299 -246v-137h-514v104h346q-164 104 -259 282t-95 392q0 215 96 388q95 172 269 272t390 100t389 -99
t269 -273t96 -388z" />
    <glyph glyph-name="uni03BC" unicode="&#x3bc;" horiz-adv-x="1155" 
d="M901 1059h107v-1059h-107v106q-151 -126 -345 -126t-306 137v-459h-103v1401h107v-629q0 -158 86 -253t225 -95q182 0 336 158v819z" />
    <glyph glyph-name="pi" unicode="&#x3c0;" horiz-adv-x="1353" 
d="M1132 -4q-176 0 -176 203v759h-540v-958h-107v958h-176v101h1145l-37 -101h-178v-749q-1 -123 79 -123h46l6 -88q-18 -2 -62 -2z" />
    <glyph glyph-name="Wgrave" unicode="&#x1e80;" horiz-adv-x="2238" 
d="M2198 1526q-213 -780 -717 -1542l-342 819q-184 -410 -455 -819l-659 1542h122l558 -1317q209 352 370 741l-239 576h122l543 -1317q377 631 586 1317h111zM1292 1655h-100l-201 291h139z" />
    <glyph glyph-name="wgrave" unicode="&#x1e81;" horiz-adv-x="1835" 
d="M1632 1059h111q-55 -242 -151 -458q-182 -412 -416 -617l-252 589q-174 -385 -406 -589l-461 1075h123l377 -887q176 219 305 545l-147 342h125l374 -887q275 342 418 887zM1057 1188h-101l-200 291h139z" />
    <glyph glyph-name="Wacute" unicode="&#x1e82;" horiz-adv-x="2238" 
d="M2198 1526q-213 -780 -717 -1542l-342 819q-184 -410 -455 -819l-659 1542h122l558 -1317q209 352 370 741l-239 576h122l543 -1317q377 631 586 1317h111zM1409 1946l-203 -291h-100l162 291h141z" />
    <glyph glyph-name="wacute" unicode="&#x1e83;" horiz-adv-x="1835" 
d="M1632 1059h111q-55 -242 -151 -458q-182 -412 -416 -617l-252 589q-174 -385 -406 -589l-461 1075h123l377 -887q176 219 305 545l-147 342h125l374 -887q275 342 418 887zM1174 1479l-201 -291h-101l162 291h140z" />
    <glyph glyph-name="Wdieresis" unicode="&#x1e84;" horiz-adv-x="2238" 
d="M2198 1526q-213 -780 -717 -1542l-342 819q-184 -410 -455 -819l-659 1542h122l558 -1317q209 352 370 741l-239 576h122l543 -1317q377 631 586 1317h111zM1350 1726q-41 0 -69 29t-28 71t28 69.5t70 27.5t69.5 -27.5t26.5 -69.5t-28.5 -71t-68.5 -29zM938 1726
q-34 0 -56 14q-48 30 -48 79t27.5 76.5t69.5 27.5t69.5 -27.5t27.5 -69.5t-27.5 -71t-62.5 -29z" />
    <glyph glyph-name="wdieresis" unicode="&#x1e85;" horiz-adv-x="1835" 
d="M1632 1059h111q-55 -242 -151 -458q-182 -412 -416 -617l-252 589q-174 -385 -406 -589l-461 1075h123l377 -887q176 219 305 545l-147 342h125l374 -887q275 342 418 887zM1122 1260q-34 0 -56 13q-43 26 -45.5 77t25 78.5t69.5 27.5t69.5 -27.5t27.5 -69.5t-27.5 -70.5
t-62.5 -28.5zM696 1260q-41 0 -68.5 28.5t-27.5 70.5t27.5 69.5t68.5 27.5t69 -27.5t28 -69.5t-28 -70.5t-69 -28.5z" />
    <glyph glyph-name="Ygrave" unicode="&#x1ef2;" horiz-adv-x="1425" 
d="M766 0h-109v655l-563 871h135l488 -762l487 762h125l-563 -875v-651zM864 1655h-100l-203 291h141z" />
    <glyph glyph-name="ygrave" unicode="&#x1ef3;" horiz-adv-x="1206" 
d="M1032 1059h113q-244 -1016 -850 -1354q-139 -78 -305 -115l-6 105q221 45 444 225q55 43 104 96l-454 1043h125l407 -955q254 318 422 955zM797 1188h-101l-200 291h139z" />
    <glyph glyph-name="endash" unicode="&#x2013;" horiz-adv-x="1513" 
d="M143 631v88h1239l-36 -88h-1203z" />
    <glyph glyph-name="emdash" unicode="&#x2014;" horiz-adv-x="2154" 
d="M143 631v88h1901l-37 -88h-1864z" />
    <glyph glyph-name="quoteleft" unicode="&#x2018;" horiz-adv-x="434" 
d="M203 1038h-131l151 559h78z" />
    <glyph glyph-name="quoteright" unicode="&#x2019;" horiz-adv-x="434" 
d="M231 1597h131l-149 -559h-80z" />
    <glyph glyph-name="quotesinglbase" unicode="&#x201a;" horiz-adv-x="434" 
d="M231 317h131l-149 -559h-80z" />
    <glyph glyph-name="quotedblleft" unicode="&#x201c;" horiz-adv-x="806" 
d="M563 1038h-131l150 559h80zM203 1038h-131l149 559h80z" />
    <glyph glyph-name="quotedblright" unicode="&#x201d;" horiz-adv-x="794" 
d="M592 1597h131l-152 -559h-77zM231 1597h131l-149 -559h-80z" />
    <glyph glyph-name="quotedblbase" unicode="&#x201e;" horiz-adv-x="794" 
d="M592 317h131l-152 -559h-77zM231 317h131l-149 -559h-80z" />
    <glyph glyph-name="dagger" unicode="&#x2020;" horiz-adv-x="911" 
d="M774 1266v-97h-270v-620h-96v620h-271v97h271v331h96v-331h270z" />
    <glyph glyph-name="daggerdbl" unicode="&#x2021;" horiz-adv-x="911" 
d="M774 1210h-270v-221h270v-96h-270v-344h-96v344h-271v96h271v221h-271v97h271v290h96v-290h270v-97z" />
    <glyph glyph-name="bullet" unicode="&#x2022;" horiz-adv-x="509" 
d="M254 735q-38 0 -62 25q-24 26 -24 64t25 62t69 23t67 -41q11 -20 11 -52t-24 -56t-62 -25z" />
    <glyph glyph-name="ellipsis" unicode="&#x2026;" horiz-adv-x="1220" 
d="M1009 -6q-40 0 -67 26t-27 60q0 62 46 88q20 12 54 12q33 0 59 -26t26 -67t-26 -67t-65 -26zM610 -6q-40 0 -66 26t-26 67q0 40 27 67q27 26 65 26t66 -26q26 -26 26 -67q0 -40 -26 -67q-27 -26 -66 -26zM212 -6q-40 0 -67 26t-26 67q0 40 26 67q27 26 67 26t67 -26
t27 -67q0 -40 -27 -67q-27 -26 -67 -26z" />
    <glyph glyph-name="perthousand" unicode="&#x2030;" horiz-adv-x="2668" 
d="M1968 355q0 -119 79 -197t197 -78t196 79t79 197q0 118 -79 195q-78 78 -196 78t-197 -78t-79 -196zM1098 355q0 -119 78 -197t197 -78q118 0 196 79t78 197t-77 194q-77 77 -196 78q-120 1 -198 -77t-78 -196zM2245 -12q-162 0 -269 104q-106 104 -106 262t106 263
t268 105t267 -104q106 -106 106 -264q0 -102 -48 -187t-134 -132t-190 -47zM1372 -12q-160 0 -268 104t-107 262q0 158 108 263q107 105 267 105t268 -104q108 -106 107 -264q1 -158 -107 -262t-268 -104zM458 899q118 0 196 79t78 197q1 117 -78 195q-80 78 -196 78
t-196 -78t-80 -196t79 -196q79 -79 197 -79zM1309 1526h114l-919 -1526h-115zM459 807q-160 0 -269 104q-108 105 -108 263t108 263q109 105 269 105t266 -105t106 -263t-106 -262t-266 -105z" />
    <glyph glyph-name="guilsinglleft" unicode="&#x2039;" horiz-adv-x="735" 
d="M569 1059l-348 -449l348 -452h-123l-354 452l354 449h123z" />
    <glyph glyph-name="guilsinglright" unicode="&#x203a;" horiz-adv-x="735" 
d="M502 1059l354 -449l-354 -452h-123l348 452l-348 449h123z" />
    <glyph glyph-name="fraction" unicode="&#x2044;" 
 />
    <glyph glyph-name="Euro" unicode="&#x20ac;" horiz-adv-x="1406" 
d="M915 -16q-262 0 -445 156t-237 415h-204v113h186q-2 43 -2 83t2 70h-186v113h198q47 276 231 442t432 166q249 0 456 -176l-68 -90q-170 162 -375 162q-139 0 -255 -64t-194 -177q-78 -114 -106 -263h711l-37 -113h-688q-2 -31 -2 -71t2 -82h686l-37 -113h-631
q67 -290 304 -410q116 -57 238 -57q236 0 404 152l66 -84q-94 -82 -212 -127t-237 -45z" />
    <glyph glyph-name="uni2113" unicode="&#x2113;" 
 />
    <glyph glyph-name="trademark" unicode="&#x2122;" horiz-adv-x="1667" 
d="M92 1452v74h653l-30 -74h-262v-688h-82v688h-279zM1575 764h-80v575l-285 -280l-276 280v-575h-80v770l356 -371l365 369v-768z" />
    <glyph glyph-name="uni2126" unicode="&#x2126;" horiz-adv-x="1775" 
d="M1642 778q0 -215 -95 -392t-259 -282h350l-36 -104h-484v137q186 74 299 246t113 395q0 281 -181 468q-181 188 -461 188t-462 -188t-182 -468q0 -223 112 -395t299 -246v-137h-514v104h346q-164 104 -259 282t-95 392q0 215 96 388q95 172 269 272t390 100t389 -99
t269 -273t96 -388z" />
    <glyph glyph-name="estimated" unicode="&#x212e;" horiz-adv-x="1734" 
d="M424 721h874v444q-182 145 -433 145t-441 -161v-428zM854 37q238 0 407 107q167 108 240 278h64q-74 -199 -258 -321t-439 -121q-202 0 -368 87t-267 247q-100 160 -100 356t97 356q96 160 266 253t372 93q324 0 529 -202t205 -511h-1178v-454q192 -168 430 -168z" />
    <glyph glyph-name="arrowleft" unicode="&#x2190;" 
 />
    <glyph glyph-name="arrowright" unicode="&#x2192;" 
 />
    <glyph glyph-name="partialdiff" unicode="&#x2202;" 
 />
    <glyph glyph-name="emptyset" unicode="&#x2205;" 
 />
    <glyph glyph-name="uni2206" unicode="&#x2206;" horiz-adv-x="1552" 
d="M217 104h1114l-559 1196zM776 1536l725 -1536h-1450z" />
    <glyph glyph-name="product" unicode="&#x220f;" horiz-adv-x="1396" 
d="M1075 1425v-1716h-106v1716h-553v-1716h-107v1716h-176v101h1149l-37 -101h-170z" />
    <glyph glyph-name="summation" unicode="&#x2211;" horiz-adv-x="1247" 
d="M1176 -184v-107h-1125l654 914l-654 903h1155l-37 -107h-909l576 -796l-578 -807h918z" />
    <glyph glyph-name="minus" unicode="&#x2212;" horiz-adv-x="1261" 
d="M141 741v95h979v-95h-979z" />
    <glyph glyph-name="radical" unicode="&#x221a;" horiz-adv-x="1171" 
d="M1044 1526h107l-705 -1823l-405 897l96 43l303 -686z" />
    <glyph glyph-name="infinity" unicode="&#x221e;" 
 />
    <glyph glyph-name="integral" unicode="&#x222b;" 
 />
    <glyph glyph-name="approxequal" unicode="&#x2248;" horiz-adv-x="1368" 
d="M432 690q106 0 273 -68t243 -67q111 0 187 100l69 -49q-88 -147 -239 -147q-95 0 -271 67t-254 68q-124 0 -200 -100l-76 53q92 143 268 143zM432 1071q110 1 274 -67t242 -68q111 0 187 100l69 -49q-88 -147 -239 -147q-95 0 -271 67t-254 68q-124 0 -200 -98l-76 51
q92 143 268 143z" />
    <glyph glyph-name="notequal" unicode="&#x2260;" horiz-adv-x="1318" 
d="M1133 909h-349l-116 -303h465v-98h-502l-111 -285h-98l108 285h-356v98h395l117 303h-512v99h549l113 290h98l-113 -290h312v-99z" />
    <glyph glyph-name="lessequal" unicode="&#x2264;" horiz-adv-x="1345" 
d="M197 0v102h997v-102h-997zM1194 1194v-102l-885 -375l885 -377v-104l-1004 432v92z" />
    <glyph glyph-name="greaterequal" unicode="&#x2265;" horiz-adv-x="1345" 
d="M150 0v102h999v-102h-999zM150 1194l1005 -434v-92l-1005 -432v104l886 377l-886 375v102z" />
    <glyph glyph-name="lozenge" unicode="&#x25ca;" 
 />
    <glyph glyph-name="Oslash.ss01" horiz-adv-x="1748" 
d="M895 92q281 0 469 191.5t188 474t-178 473t-446 203.5v-643h-107v639q-166 -16 -300 -107.5t-208.5 -238t-74.5 -320.5q0 -289 188 -480.5t469 -191.5zM1665 764q0 -219 -100.5 -396.5t-276.5 -278.5t-393 -101t-393 101t-276.5 278.5t-100.5 396.5q0 311 197.5 528
t498.5 242v231h107v-227q317 -12 527 -232.5t210 -541.5z" />
    <glyph glyph-name="i.loclTRK" horiz-adv-x="372" 
d="M133 0v1059h107v-1059h-107zM182 1260q-35 0 -62.5 28.5t-27.5 70.5t27.5 69.5t69.5 27.5t70 -27.5t28 -62.5t-12.5 -57.5t-35 -35.5t-57.5 -13z" />
    <glyph glyph-name="ae.alt" horiz-adv-x="1916" 
d="M537 512q-347 0 -347 -210q0 -106 64.5 -161t175.5 -55q270 0 418 209q-45 100 -49 215zM1316 975q-157 0 -268.5 -107.5t-129.5 -273.5h772q-10 166 -113.5 273.5t-260.5 107.5zM915 492v83q-2 -23 -2 -43q0 -193 120 -320.5t300 -127.5q217 0 361 160l69 -76
q-166 -186 -430 -186q-135 0 -248.5 59t-187.5 166q-70 -104 -194.5 -164.5t-280.5 -60.5t-252 82.5t-96 231.5t109.5 229.5t361.5 82.5h260v4q2 358 -328 359q-174 0 -319 -113l-56 90q156 125 379 125q287 0 398 -242q70 115 184.5 180.5t252.5 65.5t251.5 -68.5
t178 -189.5t64.5 -268q0 -29 -4 -59h-891z" />
    <glyph glyph-name="oslash.ss01" horiz-adv-x="1288" 
d="M656.5 84q187.5 0 312.5 128t125 313t-115 310.5t-289 137.5v-426h-106v422q-160 -25 -262.5 -147t-102.5 -302t125 -308t312.5 -128zM1206 524q0 -230 -157.5 -386t-392 -156t-392.5 156.5t-158 380.5t134.5 377t343.5 177v170h106v-168q223 -12 369.5 -166.5
t146.5 -384.5z" />
    <glyph glyph-name="zero.osf" horiz-adv-x="1284" 
d="M643 84q186 0 311 127t125 317t-125 318t-312 129q-187 0 -312 -128t-125 -319q0 -125 57 -226q58 -102 158 -160t223 -58zM643 -18q-156 0 -282 72q-125 72 -197 196q-72 125 -72 278q0 236 158 393t392 157t392 -158q158 -156 158 -390t-158 -392q-158 -156 -391 -156z
" />
    <glyph glyph-name="one.osf" horiz-adv-x="659" 
d="M494 1059v-1059h-107v963h-276l36 96h347z" />
    <glyph glyph-name="two.osf" horiz-adv-x="1150" 
d="M106 0v27l402 239q199 119 284 218t85 216t-87 193t-225 76q-217 0 -395 -211l-80 65q207 248 473 248q182 0 301 -104t119 -258t-97 -271t-335 -260l-129 -76h633l-33 -102h-916z" />
    <glyph glyph-name="three.osf" horiz-adv-x="1148" 
d="M582 -420q-140 0 -284 67t-239 179l86 80q178 -219 439 -219q112 0 198 47q186 102 185 330q-1 116 -57 204q-114 178 -431 178h-16l332 510h-672v103h856l-352 -531q217 -22 335 -152t118 -330t-143 -333q-142 -133 -355 -133z" />
    <glyph glyph-name="four.osf" horiz-adv-x="1275" 
d="M848 96v719l-600 -719h600zM1227 96v-96h-279v-406h-100v406h-803l903 1085v-989h279z" />
    <glyph glyph-name="five.osf" horiz-adv-x="1253" 
d="M541 530q229 0 384 -136t155 -337t-143 -337q-142 -136 -357 -136q-142 0 -286 69t-237 177l88 82q84 -106 198 -164t237 -57q166 0 276 105t111 261q0 156 -119 266q-120 109 -284 109t-351 -47l133 674h748l-37 -98h-623l-94 -451q92 20 201 20z" />
    <glyph glyph-name="six.osf" horiz-adv-x="1220" 
d="M623 88q184 0 308 125t124 310t-121 307t-303 122q-117 0 -228 -50t-194 -136q-29 -104 -29 -222t56 -226t158 -169t229 -61zM614 1055q166 0 288 -69q122 -68 193 -190t70 -270q1 -231 -155 -385q-156 -153 -392 -153t-393 163q-155 163 -155 402t150 497t419 476h129
q-346 -311 -481 -568q162 97 327 97z" />
    <glyph glyph-name="seven.osf" horiz-adv-x="1165" 
d="M74 1059h1054l-806 -1465h-129l753 1362h-872v103z" />
    <glyph glyph-name="eight.osf" horiz-adv-x="1269" 
d="M635 90q186 0 310 112t124 280t-124 281q-124 114 -310 114t-310 -114t-124 -282q0 -167 124 -279t310 -112zM354 1213q0 -67 37 -123t102 -88t142 -31q119 -1 199 69t80 171t-80 166t-178 65t-163 -30q-139 -64 -139 -199zM1178 475q0 -209 -156 -348t-387 -139
q-152 0 -277 63q-126 63 -196 175t-70 260t91 272q91 123 243 176q-111 63 -155 168q-22 53 -21 112q0 139 110 232q111 92 275 92q109 0 197 -42t138 -116t50 -150q0 -195 -174 -296q205 -73 290 -260q42 -92 42 -199z" />
    <glyph glyph-name="nine.osf" horiz-adv-x="1193" 
d="M592 127q115 0 218 53t179 148q23 90 23 180q0 199 -124 334t-302 135t-294 -129q-114 -128 -114 -310t119 -296t295 -115zM586 1077q228 0 382 -163t154 -400t-150 -491t-407 -463h-133q96 86 168 156t166 188q94 117 149 227q-150 -106 -321 -106q-225 0 -375 144
q-149 144 -149 368t144 382t372 158z" />
    <glyph glyph-name="zero.tf" horiz-adv-x="1269" 
d="M635 96q195 0 323 192t129 476q0 285 -129 476q-130 192 -324 192t-323 -192t-129 -476t129 -476t324 -192zM635 -12q-160 0 -290 101t-204 279t-73 396q0 217 73 395q74 177 204 279t290 102t290 -101q129 -101 203 -279t74 -396q0 -217 -74 -395t-203 -280
q-130 -101 -290 -101z" />
    <glyph glyph-name="one.tf" horiz-adv-x="1269" 
d="M702 104h447l-37 -104h-995v104h479v1319h-332l37 103h401v-1422z" />
    <glyph glyph-name="two.tf" horiz-adv-x="1269" 
d="M618 1544q207 0 338 -126t131 -328q-1 -78 -27 -156q-60 -175 -296 -418l-393 -412h794l-37 -104h-995l551 565q166 172 229 291t64 231q0 156 -100 254t-259 99q-254 0 -448 -228l-76 76q217 256 524 256z" />
    <glyph glyph-name="three.tf" horiz-adv-x="1269" 
d="M1182 471q0 -209 -155 -347t-384 -138q-151 0 -307 68t-262 186l88 82q92 -111 220 -169t263 -59q186 0 307 108t121 275q0 199 -141 307t-397 107h-15l363 532h-740v105h928l-385 -555q240 -21 368 -157t128 -345z" />
    <glyph glyph-name="four.tf" horiz-adv-x="1269" 
d="M844 403v857l-608 -857h608zM1229 403v-96h-281v-307h-104v307h-807l911 1245v-1149h281z" />
    <glyph glyph-name="five.tf" horiz-adv-x="1269" 
d="M616 985q246 0 406 -127t160 -354q0 -226 -162 -372t-402 -146q-150 0 -302 70t-250 186l90 82q90 -113 211 -171t251 -59q197 0 326 115t129 286t-128 281q-127 110 -307 109q-180 0 -349 -51l133 694h764l-37 -103h-639l-92 -460q100 20 198 20z" />
    <glyph glyph-name="six.tf" horiz-adv-x="1269" 
d="M647 88q190 0 320 125q129 125 129 310t-126 308t-313 123q-121 0 -237 -50t-201 -138q-29 -104 -29 -222t58 -226t164 -169q104 -61 235 -61zM653 1057q236 0 394 -152q157 -152 157 -381t-160 -383q-160 -153 -402 -153t-402 163t-160 402t154 499t432 476h129
q-356 -309 -496 -572q168 101 354 101z" />
    <glyph glyph-name="seven.tf" horiz-adv-x="1269" 
d="M80 1528h1116l-856 -1528h-131l807 1425h-936v103z" />
    <glyph glyph-name="eight.tf" horiz-adv-x="1269" 
d="M635 90q184 0 309 112t125 280t-124 281q-124 114 -310 114t-310 -114t-124 -284q0 -109 56 -197q57 -88 157 -140t221 -52zM635 1444q-119 0 -199 -64t-80 -166q0 -100 80 -172t199 -72t199 72q80 70 80 172t-80 166t-199 64zM635 -12q-231 0 -387 140t-156 349
q0 105 42 197q85 188 292 262q-82 43 -129 117t-47 164q0 139 110 231q111 92 275 92q165 0 275 -92t110 -231q0 -90 -47 -164t-129 -117q152 -55 242 -178t92 -281q0 -209 -156 -349t-387 -140z" />
    <glyph glyph-name="nine.tf" horiz-adv-x="1269" 
d="M620 1440q-188 0 -309 -131t-121 -315t126 -302q126 -117 301 -117q256 0 434 205q25 92 24 183q0 203 -133 340q-134 137 -322 137zM610 1540q124 0 230 -44q213 -88 302 -305q44 -108 44 -228q0 -236 -159 -493t-433 -470h-131q277 242 400 411q62 85 110 171
q-158 -111 -342 -111q-237 0 -393 146t-156 376q0 231 152 389t376 158z" />
    <glyph glyph-name="bowlright" horiz-adv-x="1372" 
d="M640 -20q-232 0 -374 139l-4 164q45 -85 155 -143t222 -58q178 0 298 128t120 319t-120 319t-298 129q-113 0 -223 -57t-154 -142l4 162q142 139 374 139q232 1 385 -155t153 -395t-153 -394t-385 -155z" />
    <glyph glyph-name="bowlleft" 
d="M643 -20q-231 0 -384 156t-153 394t153 394t384 156t373 -140l4 -162q-45 84 -155 142t-220 57q-180 0 -300 -128t-120 -319q1 -127 55 -229q54 -103 150 -161t211 -58t225 58t154 143l-4 -164q-142 -139 -373 -139z" />
    <glyph glyph-name="nright" horiz-adv-x="1120" 
d="M578 1081q192 0 304 -127t111 -331v-623h-106v633q0 154 -87 250t-227 96q-190 0 -340 -166v-813h-106v1059h106v-111q153 133 345 133z" />
    </font>
</defs>
</svg>
