<?xml version="1.0" standalone="no"?>
<!DOCTYPE svg PUBLIC "-//W3C//DTD SVG 1.1//EN" "http://www.w3.org/Graphics/SVG/1.1/DTD/svg11.dtd" >
<svg xmlns="http://www.w3.org/2000/svg">
<metadata>
Created by FontPrep 20130207 at Wed Jan  4 11:59:07 2017
 By Rasmus Elken
Copyright \(c\) 2016 by Kontrapunkt A/S. Designed for DONG Energy. All rights reserved.
</metadata>
<defs>
<font id="3046d40e973d32c2d35a9dda2f5280ce" horiz-adv-x='1024' >
  <font-face 
    font-family="MaineSans-Italic"
    font-weight="400"
    font-style="italic"
    font-stretch="normal"
    units-per-em="2048"
    panose-1="0 0 5 0 0 0 0 0 0 0"
    ascent="1638"
    descent="-410"
    x-height="1059"
    cap-height="1526"
    bbox="-1047 -584 2640 2116"
    underline-thickness="102"
    underline-position="-102"
    slope="-8"
    unicode-range="U+000D-25CA"
  />
<missing-glyph 
 />
    <glyph glyph-name=".notdef" 
 />
    <glyph glyph-name=".null" 
 />
    <glyph glyph-name="nonmarkingreturn" horiz-adv-x="681" 
 />
    <glyph glyph-name="CR" unicode="&#xd;" 
 />
    <glyph glyph-name="space" unicode=" " horiz-adv-x="561" 
 />
    <glyph glyph-name="exclam" unicode="!" horiz-adv-x="501" 
d="M255 -12q-54 0 -85 32t-31 84q0 54 43 96q44 42 98 42t84 -31t30 -85t-43 -96q-42 -42 -96 -42zM322 1137l53 389h182l-55 -389l-127 -672h-117z" />
    <glyph glyph-name="quotedbl" unicode="&#x22;" horiz-adv-x="831" 
d="M741 1597h164l-76 -536h-165zM377 1597h164l-76 -536h-164z" />
    <glyph glyph-name="numbersign" unicode="#" horiz-adv-x="1421" 
d="M920 584l135 366h-379l-137 -366h381zM1470 950h-262l-137 -366h275l-56 -142h-272l-164 -442h-152l164 442h-381l-163 -442h-152l164 442h-252l20 142h285l137 366h-266l18 144h299l160 426h152l-160 -426h381l158 426h153l-159 -426h266z" />
    <glyph glyph-name="dollar" unicode="$" horiz-adv-x="1159" 
d="M676 203q111 10 172 73q61 62 57 156t-63 148t-166 94v-471zM297 1130q0 -86 60 -137t173 -92v430q-104 -10 -169 -62q-64 -53 -64 -139zM676 -164h-146v215q-272 35 -442 238l123 119q133 -162 319 -197v512q-161 57 -229 96q-67 39 -95 75q-58 77 -71 128
q-12 51 -12 96q0 156 116 256t291 113v166h146v-170q186 -25 344 -154l-98 -129q-113 94 -246 123v-471q151 -52 217 -94q67 -41 102 -82q84 -98 84 -253q1 -155 -109 -260t-294 -118v-209z" />
    <glyph glyph-name="percent" unicode="%" horiz-adv-x="1800" 
d="M1371 584q-97 0 -163 -66t-66 -147t30 -132q65 -112 215 -112q81 0 147 66q66 67 66 163t-66 162t-163 66zM1372 725q160 0 268 -105q108 -106 107 -264q1 -158 -107 -264t-269 -106t-269 106t-107 264q0 102 49 188q50 86 136 133q86 48 192 48zM225 1174
q-1 -136 113 -200q54 -30 134 -30t144 66t65 162t-64 163q-65 66 -163 66t-163 -66q-66 -66 -66 -161zM1280 1526h170l-922 -1526h-170zM454 803q-161 0 -269 105q-107 105 -107 266t108 264q108 104 269 104q159 0 267 -105t108 -265t-108 -264q-107 -105 -268 -105z" />
    <glyph glyph-name="ampersand" unicode="&#x26;" horiz-adv-x="1411" 
d="M532 150q74 0 147 38t165 123l-350 420q-119 -98 -169 -170q-49 -73 -55 -165t70 -169t192 -77zM524 -16q-184 0 -306 116t-123 281q-1 166 117 302q65 75 179 169q-43 47 -89 118q-46 70 -60 122t-15 108q-1 154 105 250t268 96q199 0 346 -153l-108 -117
q-111 113 -236 113q-86 1 -143 -53t-58 -134q-1 -22 5 -44t12 -45t35 -67q30 -45 43 -58q12 -13 32 -38t25 -28l416 -490l280 266l109 -114l-285 -275l262 -309h-229l-158 188q-115 -108 -214 -156t-210 -48z" />
    <glyph glyph-name="quotesingle" unicode="'" horiz-adv-x="466" 
d="M377 1597h164l-74 -528h-166z" />
    <glyph glyph-name="parenleft" unicode="(" horiz-adv-x="573" 
d="M150 471q0 262 94 513t293 542h168q-195 -281 -293 -536t-99 -519q0 -367 142 -717h-168q-137 356 -137 717z" />
    <glyph glyph-name="parenright" unicode=")" horiz-adv-x="573" 
d="M317 -246h-167q195 283 292 538q98 255 99 519q0 367 -144 715h170q137 -354 138 -717q-1 -262 -95 -512t-293 -543z" />
    <glyph glyph-name="asterisk" unicode="*" horiz-adv-x="960" 
d="M1057 1245l-303 -94l151 -258l-121 -80l-153 262l-225 -262l-101 80l225 260l-276 92l59 129l279 -94l43 299h135l-43 -299l305 94z" />
    <glyph glyph-name="plus" unicode="+" horiz-adv-x="1263" 
d="M1130 866v-153h-421v-441h-156v441h-422v153h422v426h156v-426h421z" />
    <glyph glyph-name="comma" unicode="," horiz-adv-x="391" 
d="M31 -279l-64 113q102 82 149 165q46 83 70 226h166q-22 -178 -98 -297t-223 -207z" />
    <glyph glyph-name="hyphen" unicode="-" horiz-adv-x="815" 
d="M778 700l-24 -172h-543l22 172h545z" />
    <glyph glyph-name="period" unicode="." horiz-adv-x="434" 
d="M221 -12q-53 0 -84 32t-31 84q0 54 44 96t96 42q53 0 84 -31q30 -31 30 -85t-43 -96t-96 -42z" />
    <glyph glyph-name="slash" unicode="/" horiz-adv-x="1067" 
d="M1133 1561l122 -78l-1087 -1516l-123 80z" />
    <glyph glyph-name="zero" unicode="0" horiz-adv-x="1351" 
d="M878 1364q-144 0 -261 -94t-189 -258t-72 -366t94 -343t238 -141t261 94q118 94 189 258q70 164 70 368t-93 342q-93 140 -237 140zM674 -12q-225 0 -364 183q-138 183 -138 468q0 184 58 351q115 332 387 478q132 72 276 72q223 0 362 -184t139 -450t-98 -473
q-100 -209 -266 -327t-356 -118z" />
    <glyph glyph-name="one" unicode="1" horiz-adv-x="751" 
d="M354 1526h441l-213 -1526h-179l193 1360h-317z" />
    <glyph glyph-name="two" unicode="2" horiz-adv-x="1177" 
d="M770 1370q-236 0 -432 -231l-111 125q115 128 263 204t288 76t240 -53t154 -149t54 -236q0 -142 -93 -290q-94 -148 -338 -367l-318 -285h670l-76 -164h-991l596 551q213 197 289 313q75 116 75 236q0 122 -76 196t-194 74z" />
    <glyph glyph-name="three" unicode="3" horiz-adv-x="1230" 
d="M1237 557q0 -244 -176 -409t-430 -164q-164 0 -308 80t-221 200l154 131q64 -113 166 -176t227 -63q172 0 288 110t116 269q0 315 -416 315q-45 0 -64 -2l408 512h-649l22 166h940l-430 -539q176 -33 275 -149q98 -117 98 -281z" />
    <glyph glyph-name="four" unicode="4" horiz-adv-x="1316" 
d="M401 436h492l92 660zM1350 436l-21 -155h-291l-39 -281h-168l39 281l-804 -2l1151 1271l-156 -1114h289z" />
    <glyph glyph-name="five" unicode="5" horiz-adv-x="1255" 
d="M1257 573q0 -253 -184 -421t-450 -168q-163 0 -305 74t-224 202l150 131q82 -149 239 -207q78 -29 164 -28q184 0 305 112t121 279q0 98 -50 167q-99 136 -333 136q-145 0 -328 -49l240 725h795l-74 -166h-608l-121 -363q86 14 160 15q229 0 366 -117t137 -322z" />
    <glyph glyph-name="six" unicode="6" horiz-adv-x="1277" 
d="M683 152q165 0 294 124t129 302q0 143 -92 236t-240 93q-109 0 -214 -45t-187 -121q-45 -119 -45 -233q0 -154 95 -255t260 -101zM805 1073q213 0 348 -135q135 -134 135 -322t-88 -329t-234 -222t-319 -81q-223 0 -361 142t-138 380t191 517q191 278 499 503h231
q-117 -92 -189 -154t-180 -168q-106 -106 -180 -200q138 69 285 69z" />
    <glyph glyph-name="seven" unicode="7" horiz-adv-x="1181" 
d="M279 1526h1134l-1053 -1526h-200l948 1358h-854z" />
    <glyph glyph-name="eight" unicode="8" horiz-adv-x="1298" 
d="M758 840q-106 0 -206 -52t-158 -140q-58 -90 -58 -208t94 -204t256 -86t288 110t126 272q0 88 -41 158t-118 110t-183 40zM1049 1209q1 84 -57 133t-156 49q-98 -1 -174 -63t-76 -147t57 -135t155 -50t175 64q76 65 76 149zM1286 547q0 -156 -87 -286t-233 -205t-319 -74
q-219 0 -357 128t-138 308t97 315t257 205q-98 86 -98 234t135 261q135 111 309 111t274 -88t101 -223q0 -90 -45 -169t-125 -132q149 -83 201 -229q28 -75 28 -156z" />
    <glyph glyph-name="nine" unicode="9" horiz-adv-x="1261" 
d="M721 621q225 0 395 186q39 109 39 213q0 158 -91 256t-257 98t-291 -126t-125 -310q-1 -141 91 -229t239 -88zM844 1542q221 0 356 -142t135 -375t-186 -508t-500 -517h-231q365 293 536 520q-127 -70 -264 -69q-211 0 -347 134q-136 135 -136 321t87 329q88 143 234 225
t316 82z" />
    <glyph glyph-name="colon" unicode=":" horiz-adv-x="440" 
d="M221 -12q-53 0 -84 32t-31 84q0 54 44 96t96 42q53 0 84 -31q30 -31 30 -85t-43 -96t-96 -42zM353 958q54 0 84 -30t30 -85q0 -54 -42 -96t-96 -42q-54 -1 -85 31t-31 85t43 95t97 42z" />
    <glyph glyph-name="semicolon" unicode=";" horiz-adv-x="442" 
d="M33 -279l-66 113q102 82 150 165q47 83 69 226h166q-24 -178 -98 -297t-221 -207zM224 705q-54 -1 -85 31t-31 85t44 95q43 42 97 42t84 -30q29 -30 29 -85q0 -54 -41 -97q-43 -41 -97 -41z" />
    <glyph glyph-name="less" unicode="&#x3c;" horiz-adv-x="1323" 
d="M1171 1204v-149l-839 -324l839 -323v-154l-1009 405v140z" />
    <glyph glyph-name="equal" unicode="=" horiz-adv-x="1374" 
d="M1178 635v-150h-983v150h983zM1178 1049v-150h-983v150h983z" />
    <glyph glyph-name="greater" unicode="&#x3e;" horiz-adv-x="1302" 
d="M160 1204l1007 -405v-140l-1007 -405v154l837 323l-837 324v149z" />
    <glyph glyph-name="question" unicode="?" horiz-adv-x="1015" 
d="M469 -12q-53 0 -84 32t-31 84q0 54 42 96t88 42t72 -14q50 -30 50 -93t-42 -105t-95 -42zM498 664q190 0 330 124t141 302q0 128 -79 204t-214 76q-190 0 -387 -194l-105 122q111 113 246 178t260 64q211 0 335 -116t124 -296t-89 -319q-90 -139 -238 -219t-324 -86
l-68 -2l21 162h47z" />
    <glyph glyph-name="at" unicode="@" horiz-adv-x="2156" 
d="M1094 940q-134 0 -224 -91t-90 -228t90 -229t224 -93q166 0 258 117v409q-90 115 -258 115zM1655 162q-199 0 -266 114q-123 -118 -317 -118t-322 131t-127 332q0 201 128 331t308 129q180 0 293 -88v70h151v-614q0 -84 44 -124t112 -40q94 0 159 102t64 254
q0 217 -102 395t-286 280t-406 103q-224 0 -406 -104q-182 -103 -286 -289t-105 -412q0 -348 229 -572t588 -224q281 0 506 121l53 -125q-270 -129 -558 -129q-288 -1 -507 117t-341 330t-122 478t124 480t341 336t479 122q199 0 373 -70t297 -189q123 -120 194 -287
q71 -168 71 -362t-104 -336q-103 -142 -259 -142z" />
    <glyph glyph-name="A" unicode="A" horiz-adv-x="1599" 
d="M594 586h569l-200 598zM1362 0l-143 422h-725l-261 -422h-192l975 1550l543 -1550h-197z" />
    <glyph glyph-name="B" unicode="B" horiz-adv-x="1419" 
d="M831 172q174 0 272.5 82t98.5 231q0 115 -75.5 175.5t-217.5 60.5h-458l-78 -549h458zM901 1354h-362l-66 -467h465q45 0 86 -4q141 109 141 258q0 98 -71.5 155.5t-192.5 57.5zM1391 504q0 -225 -156 -364.5t-408 -139.5h-659l213 1526h561q188 0 301 -101.5t113 -259.5
q0 -196 -166 -329q96 -47 148.5 -132.5t52.5 -199.5z" />
    <glyph glyph-name="C" unicode="C" horiz-adv-x="1529" 
d="M883 -18q-301 0 -488.5 191.5t-187.5 490.5q0 182 71.5 346t192.5 280.5t286 185t345 68.5q281 0 471 -172l-129 -145q-143 137 -367 137q-182 0 -336.5 -89t-247 -246t-92.5 -345q0 -229 140.5 -375.5t367.5 -146.5q125 0 246 50t215 140l115 -123
q-121 -117 -280.5 -182t-321.5 -65z" />
    <glyph glyph-name="D" unicode="D" horiz-adv-x="1597" 
d="M741 176q178 0 332 86t245 238.5t91 337.5q0 225 -140.5 368.5t-361.5 143.5h-366l-166 -1174h366zM932 1526q297 0 485.5 -188.5t188.5 -479.5q0 -238 -122 -436.5t-326 -310t-441 -111.5h-549l213 1526h551z" />
    <glyph glyph-name="E" unicode="E" horiz-adv-x="1220" 
d="M1253 1354h-714l-64 -463h576l-25 -172h-575l-78 -547h774l-76 -172h-903l215 1526h948z" />
    <glyph glyph-name="F" unicode="F" horiz-adv-x="1239" 
d="M1270 1354h-731l-66 -467h563l-24 -174h-563l-101 -713h-180l213 1526h965z" />
    <glyph glyph-name="G" unicode="G" horiz-adv-x="1613" 
d="M901 -18q-305 0 -498.5 188t-193.5 492q0 248 124 452.5t332.5 317t454.5 112.5q291 0 494 -172l-127 -145q-156 139 -393 139q-188 0 -346 -87t-251.5 -244.5t-93.5 -352.5q0 -233 146.5 -379.5t369 -146.5t388.5 94l67 473h182l-79 -565q-115 -84 -265.5 -130
t-310.5 -46z" />
    <glyph glyph-name="H" unicode="H" horiz-adv-x="1622" 
d="M1487 1526h180l-213 -1526h-182l100 713h-921l-101 -713h-182l215 1526h180l-90 -641h924z" />
    <glyph glyph-name="I" unicode="I" horiz-adv-x="612" 
d="M428 1526h184l-213 -1526h-186z" />
    <glyph glyph-name="J" unicode="J" horiz-adv-x="786" 
d="M104 -6q-37 0 -63 2l25 176q20 -2 38 -2q172 0 282 96t134 277l137 983h187l-137 -971q-37 -260 -199 -410.5t-404 -150.5z" />
    <glyph glyph-name="K" unicode="K" horiz-adv-x="1511" 
d="M1501 1526q-207 -397 -516 -656l440 -870h-223l-379 752q-184 -121 -395 -197l-78 -555h-182l213 1526h182l-108 -781q555 227 854 781h192z" />
    <glyph glyph-name="L" unicode="L" horiz-adv-x="1196" 
d="M377 172h780l-76 -172h-913l213 1526h186z" />
    <glyph glyph-name="M" unicode="M" horiz-adv-x="1794" 
d="M1004 799l841 751l-219 -1550h-176l158 1128l-637 -573l-467 573l-160 -1128h-176l217 1550z" />
    <glyph glyph-name="N" unicode="N" horiz-adv-x="1710" 
d="M1755 1526l-217 -1549l-1032 1156l-160 -1133h-176l217 1548l1032 -1151l158 1129h178z" />
    <glyph glyph-name="O" unicode="O" horiz-adv-x="1769" 
d="M907 162q180 0 335 89t247 246.5t92 342.5q0 229 -140.5 377.5t-363.5 148.5q-135 0 -259 -53t-215 -143.5t-146.5 -217.5t-55.5 -266q0 -227 141.5 -375.5t364.5 -148.5zM872.5 -20q-188.5 0 -342 89t-237.5 244.5t-84 374t122 422t326.5 319t444.5 115.5
q299 0 486.5 -193.5t187.5 -488.5q0 -182 -72 -346t-192.5 -280.5t-285.5 -186t-353.5 -69.5z" />
    <glyph glyph-name="P" unicode="P" horiz-adv-x="1374" 
d="M786 709q213 0 333 94t120 274q0 135 -94 206t-266 71h-338l-90 -645h335zM932 1526q231 0 366.5 -117t135.5 -313q0 -250 -180.5 -404.5t-460.5 -154.5h-367l-74 -537h-184l215 1526h549z" />
    <glyph glyph-name="Q" unicode="Q" horiz-adv-x="1769" 
d="M897 162q213 0 385 114l-229 293l129 101l223 -287q176 195 176 457q0 150 -62.5 269.5t-178 188t-279.5 68.5t-319.5 -90t-248 -247t-92.5 -343q0 -227 141.5 -375.5t354.5 -148.5zM1776 869.5q0 -187.5 -69 -347.5t-189 -280l149 -191l-131 -102l-147 188
q-229 -158 -517 -157.5t-475.5 194t-187.5 490.5q0 242 122 445.5t326.5 319t423 115.5t373 -88t238.5 -243.5t84 -343z" />
    <glyph glyph-name="R" unicode="R" horiz-adv-x="1460" 
d="M782 717q213 0 328 94t115 270q0 133 -90.5 203t-264.5 70h-333l-86 -637h331zM786 547h-360l-74 -547h-182l213 1526h541q152 0 263 -52.5t171.5 -148.5t60.5 -225q0 -178 -96 -311.5t-264 -194.5q31 -178 125 -296t250 -144l-43 -166q-43 0 -95 12
q-170 39 -277.5 187.5t-146.5 363.5q-43 -4 -86 -4z" />
    <glyph glyph-name="S" unicode="S" horiz-adv-x="1193" 
d="M630 -18q-155 0 -291 64.5t-222 191.5l151 131q141 -219 391 -219q139 0 224.5 76.5t85.5 206.5q-1 130 -137 204q-60 33 -132.5 60.5t-146.5 59t-134.5 71.5t-98 108t-37.5 158q0 199 152.5 325.5t365.5 126.5q256 0 430 -172l-127 -139q-133 143 -324 143
q-131 0 -219 -65.5t-88 -180t99.5 -171t204.5 -93.5q181 -64 281.5 -150t100.5 -241t-67.5 -266t-187 -170t-274.5 -59z" />
    <glyph glyph-name="T" unicode="T" horiz-adv-x="1392" 
d="M1567 1526l-76 -170h-522l-191 -1356h-184l190 1356h-528l25 170h1286z" />
    <glyph glyph-name="U" unicode="U" horiz-adv-x="1599" 
d="M796.5 -20q-288.5 0 -440 181t-108.5 478l125 887h186l-127 -899q-31 -211 76.5 -341t312.5 -130t349.5 130t175.5 341l127 899h184l-123 -877q-43 -301 -246 -485t-491.5 -184z" />
    <glyph glyph-name="V" unicode="V" horiz-adv-x="1497" 
d="M1487 1526h184q-344 -807 -969 -1546l-458 1546h205l339 -1176q437 578 699 1176z" />
    <glyph glyph-name="W" unicode="W" horiz-adv-x="2291" 
d="M2468 1526q-344 -807 -969 -1546l-231 784q-250 -403 -570 -784l-454 1546h205l339 -1184q233 309 420 629l-164 555h205l338 -1176q432 575 694 1176h187z" />
    <glyph glyph-name="X" unicode="X" horiz-adv-x="1542" 
d="M1626 1526l-631 -723l484 -803h-222l-395 657l-581 -657h-234l721 813l-428 713h219l348 -578l498 578h221z" />
    <glyph glyph-name="Y" unicode="Y" horiz-adv-x="1409" 
d="M1569 1526l-678 -860l-94 -666h-183l95 664l-441 862h215l344 -682l521 682h221z" />
    <glyph glyph-name="Z" unicode="Z" horiz-adv-x="1308" 
d="M1464 1526l-1056 -1354h833l-76 -172h-1099l1062 1356h-829l25 170h1140z" />
    <glyph glyph-name="bracketleft" unicode="[" horiz-adv-x="489" 
d="M436 1393l-211 -1504h195l-19 -135h-344l248 1772h346l-20 -133h-195z" />
    <glyph glyph-name="backslash" unicode="\" horiz-adv-x="1075" 
d="M1053 0h-172l-643 1526h172z" />
    <glyph glyph-name="bracketright" unicode="]" horiz-adv-x="489" 
d="M270 -113l211 1504h-194l18 135h346l-250 -1772h-344l19 133h194z" />
    <glyph glyph-name="asciicircum" unicode="^" horiz-adv-x="1097" 
d="M967 827h-152l-266 537l-270 -537h-148l358 699h121z" />
    <glyph glyph-name="underscore" unicode="_" horiz-adv-x="1038" 
d="M975 -104l-19 -127h-940l19 127h940z" />
    <glyph glyph-name="grave" unicode="`" 
d="M68 1489h200l181 -301h-166z" />
    <glyph glyph-name="a" unicode="a" horiz-adv-x="1290" 
d="M658 143q225 0 354 148l67 477q-41 68 -120.5 107.5t-176.5 39.5q-174 0 -301 -126.5t-127 -309.5q0 -96 40 -173t113 -120t151 -43zM168 457q0 264 181 443t437 179q201 0 322 -106l12 86h174l-149 -1059h-174l12 88q-152 -109 -355.5 -108.5t-331.5 134.5t-128 343z
" />
    <glyph glyph-name="b" unicode="b" horiz-adv-x="1286" 
d="M653 143q174 0 301 127t127 310q0 147 -89 241t-230 94q-206 0 -336 -143l-68 -485q61 -99 203 -133q45 -10 92 -11zM808 1079q204 0 332 -134t128 -343q0 -262 -181.5 -442t-437.5 -180q-199 0 -319 106l-11 -86h-176l215 1526h174l-77 -551q149 104 353 104z" />
    <glyph glyph-name="c" unicode="c" horiz-adv-x="1128" 
d="M649 -20q-217 0 -349 135t-132 344q0 260 185.5 440t449.5 180q217 0 352 -141l-117 -133q-98 111 -256 110q-119 0 -216 -58t-153.5 -158.5t-56.5 -196.5q0 -167 85.5 -263t232.5 -96q92 0 179 42t146 114l107 -111q-88 -96 -210 -152t-247 -56z" />
    <glyph glyph-name="d" unicode="d" horiz-adv-x="1282" 
d="M673 143q93 0 181 37t147 101l72 499q-43 61 -121 98t-170 37q-174 0 -301 -126.5t-127 -309.5q0 -96 40 -173t113 -120t166 -43zM624.5 -20q-200.5 0 -328.5 134t-128 343q0 264 181 443t437 179q195 0 314 -100l78 547h174l-215 -1526h-174l12 82
q-150 -102 -350.5 -102z" />
    <glyph glyph-name="e" unicode="e" horiz-adv-x="1230" 
d="M758 922q-131 0 -236.5 -84t-148.5 -215h661q-8 182 -134 260q-62 39 -142 39zM668 143q203 0 340 154l106 -113q-90 -96 -212 -150t-257 -54q-211 0 -344 137t-133 346q0 168 83 310t224 223t319.5 81t300.5 -129t122 -327q0 -68 -21 -146h-844q2 -145 89 -238.5
t227 -93.5z" />
    <glyph glyph-name="f" unicode="f" horiz-adv-x="796" 
d="M785.5 1386q-70.5 0 -128 -59t-71.5 -168l-15 -100h271l-74 -156h-219l-127 -903h-172l127 903h-195l23 156h194l15 106q25 176 133 274.5t258 98.5q94 0 178 -39l-65 -137q-62 24 -132.5 24z" />
    <glyph glyph-name="g" unicode="g" horiz-adv-x="1288" 
d="M354 479q0 -145 89 -240.5t231 -95.5q98 0 189 40t151 110l67 473q-41 70 -120.5 109.5t-178.5 39.5q-174 0 -301 -127t-127 -309zM624 -20q-200 0 -328 134t-128 343q0 264 181 443t437 179q203 0 324 -108l12 88h170l-112 -801q-56 -421 -377 -591q-179 -95 -418 -103
l18 168q207 4 356.5 90t211.5 256q-147 -98 -347 -98z" />
    <glyph glyph-name="h" unicode="h" horiz-adv-x="1212" 
d="M800.5 1081q189.5 0 291.5 -129t73 -340l-86 -612h-176l84 594q20 150 -42 237t-191 87q-178 0 -326 -140l-109 -778h-174l215 1526h175l-78 -555q154 110 343.5 110z" />
    <glyph glyph-name="i" unicode="i" horiz-adv-x="528" 
d="M176 0l150 1059h174l-150 -1059h-174zM447 1264q-52 0 -82.5 29.5t-30.5 69.5q0 41 20 71q42 66 121 65q47 0 77 -29.5t30 -78.5t-41.5 -88t-93.5 -39z" />
    <glyph glyph-name="j" unicode="j" horiz-adv-x="569" 
d="M-70 -272q125 0 193 61t90 221l147 1049h175l-146 -1030q-33 -231 -147 -341t-328 -110h-20l20 150h16zM375 1368q0 53 41 92t85 39q45 0 69 -13q49 -26 50 -85q2 -59 -40 -97t-107 -38t-90 61q-8 18 -8 41z" />
    <glyph glyph-name="k" unicode="k" horiz-adv-x="1185" 
d="M397 557q391 145 613 502h188q-160 -270 -383 -445l326 -614h-215l-267 510q-131 -78 -286 -131l-54 -379h-174l215 1534h175z" />
    <glyph glyph-name="l" unicode="l" horiz-adv-x="673" 
d="M471 -8q-150 0 -225.5 94t-48.5 272l163 1168h177l-164 -1159q-20 -141 51 -193q37 -27 87 -27t99 13l11 -144q-74 -24 -150 -24z" />
    <glyph glyph-name="m" unicode="m" horiz-adv-x="1943" 
d="M1510 1081q209 0 311 -129t73 -340l-86 -612h-174l84 594q20 150 -42 237t-191 87q-176 0 -322 -138q12 -78 0 -168l-86 -612h-174l84 594q20 150 -42 237t-191 87q-178 0 -326 -140l-109 -778h-174l148 1059h174l-10 -88q154 111 336 110q219 0 317 -157
q191 157 400 157z" />
    <glyph glyph-name="n" unicode="n" horiz-adv-x="1210" 
d="M799.5 1081q188.5 0 290.5 -129t73 -340l-86 -612h-174l84 594q20 150 -43 237t-190 87q-180 0 -326 -140l-109 -778h-176l150 1059h174l-12 -88q156 110 344.5 110z" />
    <glyph glyph-name="o" unicode="o" horiz-adv-x="1306" 
d="M690.5 143q159.5 0 286.5 127t127 310q0 145 -89 240t-249 95t-287 -126.5t-127 -309.5q0 -145 89.5 -240.5t249 -95.5zM651 -20q-215 0 -349 136t-134 345q0 170 87 312t233.5 223t316.5 81q213 0 348 -135t135 -344q0 -170 -87 -312.5t-233.5 -224t-316.5 -81.5z" />
    <glyph glyph-name="p" unicode="p" horiz-adv-x="1286" 
d="M653 143q174 0 301 127t127 310q0 147 -89 241t-230 94q-96 0 -185.5 -37.5t-148.5 -103.5l-70 -487q56 -91 174 -127q58 -18 121 -17zM809 1079q203 0 331 -134t128 -343q0 -262 -181.5 -442t-437.5 -180q-199 0 -319 104l-70 -504h-174l207 1479h174l-12 -84
q151 104 354 104z" />
    <glyph glyph-name="q" unicode="q" horiz-adv-x="1284" 
d="M675 143q93 0 181 37t150 103l69 495q-43 63 -120.5 100t-172.5 37q-174 0 -301 -126.5t-127 -309.5q0 -96 40 -173t114 -120t167 -43zM625.5 -20q-201.5 0 -329.5 134t-128 343q0 264 181 443t437 179q197 0 316 -102l12 82h174l-198 -1415l-187 -82l74 520
q-150 -102 -351.5 -102z" />
    <glyph glyph-name="r" unicode="r" horiz-adv-x="802" 
d="M446 911q92 82 214 126t227 36l-23 -162q-111 -2 -236.5 -55t-209.5 -151l-101 -705h-174l150 1059h174z" />
    <glyph glyph-name="s" unicode="s" horiz-adv-x="907" 
d="M469 -16q-117 0 -223.5 51t-167.5 139l141 121q43 -74 115 -115t142.5 -41t116.5 20.5t74.5 61.5t28.5 101.5t-53 97.5t-134 53q-81 17 -124 33q-176 68 -176 231q0 143 120 241.5t285 98.5q205 0 314 -137l-117 -121q-84 104 -219 105q-86 0 -144.5 -43t-58.5 -110.5
t50 -96.5t171 -56q266 -59 267 -280q0 -100 -53.5 -182t-145.5 -127t-209 -45z" />
    <glyph glyph-name="t" unicode="t" horiz-adv-x="890" 
d="M635 147q82 0 170 37l26 -143q-123 -51 -233 -51q-156 0 -239 103.5t-58 275.5l76 534h-184l20 156h184l49 342h175l-50 -342h283l-74 -156h-229l-74 -526q-16 -111 30 -170.5t128 -59.5z" />
    <glyph glyph-name="u" unicode="u" horiz-adv-x="1210" 
d="M561.5 -23q-191.5 0 -293.5 129.5t-71 337.5l86 615h176l-84 -592q-20 -145 45 -235.5t194 -90.5q182 0 316 140l110 778h174l-147 -1059h-176l12 90q-150 -113 -341.5 -113z" />
    <glyph glyph-name="v" unicode="v" horiz-adv-x="1169" 
d="M1073 1059h187q-188 -481 -476 -813q-136 -158 -284 -264l-334 1077h196l236 -783q285 322 475 783z" />
    <glyph glyph-name="w" unicode="w" horiz-adv-x="1773" 
d="M1679 1059h185q-141 -360 -339 -638t-421 -439l-152 522q-211 -313 -471 -522l-315 1077h196l218 -772q180 201 313 415l-102 357h196l217 -780q285 319 475 780z" />
    <glyph glyph-name="x" unicode="x" horiz-adv-x="1089" 
d="M745 551q242 -227 285 -551h-186q-43 256 -236 455q-254 -199 -372 -455h-187q141 324 449 551q-217 207 -262 508h180q43 -227 221 -410q227 180 334 410h180q-132 -301 -406 -508z" />
    <glyph glyph-name="y" unicode="y" horiz-adv-x="1224" 
d="M1122 1059h185q-399 -1028 -1039 -1352q-193 -98 -370 -123l18 166q94 16 211 66q200 85 362 235l-303 1008h189l252 -869q274 316 495 869z" />
    <glyph glyph-name="z" unicode="z" horiz-adv-x="1009" 
d="M1094 1059l-756 -912h633l-72 -147h-879l766 911h-585l20 148h873z" />
    <glyph glyph-name="braceleft" unicode="{" horiz-adv-x="628" 
d="M547 -244q-145 0 -216 73t-50 212l41 287q18 129 -19 184t-143 55h-29l21 148h28q138 0 191 100q27 51 39 137l39 291q24 184 177 251q73 32 169 32h22l-18 -125q-134 -8 -173 -88q-22 -43 -32 -117l-37 -252q-33 -225 -199 -303q145 -78 115 -301l-37 -256
q-16 -109 17 -154t133 -49l-17 -125h-22z" />
    <glyph glyph-name="bar" unicode="|" horiz-adv-x="532" 
d="M328 1597v-1982h-123v1982h123z" />
    <glyph glyph-name="braceright" unicode="}" horiz-adv-x="628" 
d="M401 1526q147 0 219 -73t50 -212l-41 -287q-17 -129 19 -184t143 -55h26l-20 -148h-27q-139 0 -190 -100q-27 -51 -39 -137l-39 -291q-20 -137 -110 -210t-238 -73h-23l19 125q102 6 146 50t60 155l37 252q31 225 197 303q-143 78 -113 301l37 256q14 109 -17 154
q-32 45 -135 49l19 125h20z" />
    <glyph glyph-name="asciitilde" unicode="~" 
 />
    <glyph glyph-name="uni00A0" unicode="&#xa0;" horiz-adv-x="530" 
 />
    <glyph glyph-name="exclamdown" unicode="&#xa1;" horiz-adv-x="499" 
d="M375 18l-56 -389h-180l56 389l127 674h116zM433 1167q46 0 71 -14q53 -30 53 -92q0 -63 -43 -105t-89 -43q-46 1 -71 15q-51 30 -51 92q0 63 42 105t88 42z" />
    <glyph glyph-name="cent" unicode="&#xa2;" horiz-adv-x="1204" 
d="M328 733q0 -137 72 -238t194 -135v746q-164 -47 -234 -206q-32 -77 -32 -167zM741 0h-147v193q-203 31 -328 181t-125 358q0 210 125 360t328 182v205h147v-199q186 -14 326 -139l-100 -133q-94 92 -226 108v-766q164 20 258 152l123 -111q-68 -86 -168 -140t-213 -65
v-186z" />
    <glyph glyph-name="sterling" unicode="&#xa3;" horiz-adv-x="1193" 
d="M438 164h705l-51 -164h-1002v164h168v495h-174v166h174v265q0 200 128 326t331 126q246 0 413 -213l-131 -121q-123 168 -286 168q-125 0 -200 -81t-75 -214v-256h500v-166h-500v-495z" />
    <glyph glyph-name="currency" unicode="&#xa4;" horiz-adv-x="1185" 
d="M588 469q112 0 188 76q76 77 76 189t-76 188t-188 75q-155 0 -230 -129q-35 -61 -34 -135q0 -113 76 -189t188 -75zM1008 734q0 -126 -62 -226l125 -125l-125 -125l-125 125q-104 -66 -231 -66t-230 62l-120 -121l-125 125l118 119q-65 102 -65 232t68 233l-121 123
l125 124l122 -124q100 61 226 61t229 -66l129 129l125 -124l-127 -127q64 -103 64 -229z" />
    <glyph glyph-name="yen" unicode="&#xa5;" horiz-adv-x="1386" 
d="M1171 797v-152h-393v-158h393v-149h-393v-338h-170v338h-393v149h393v158h-393v152h309l-475 729h203l446 -692l447 692h192l-475 -729h309z" />
    <glyph glyph-name="brokenbar" unicode="&#xa6;" horiz-adv-x="532" 
d="M328 430v-815h-123v815h123zM328 1597v-753h-123v753h123z" />
    <glyph glyph-name="section" unicode="&#xa7;" 
 />
    <glyph glyph-name="dieresis" unicode="&#xa8;" 
d="M591 1229q-50 0 -83 32.5t-33 76.5q-1 44 15 70q33 56 92 56t93 -33.5t33 -85t-34 -84t-83 -32.5zM176 1229q-49 0 -83 32.5t-34 84t34 85t75 33.5q42 0 68 -15q58 -33 57.5 -93.5t-34.5 -93.5t-83 -33z" />
    <glyph glyph-name="copyright" unicode="&#xa9;" horiz-adv-x="1728" 
d="M882 229q-225 0 -377 150q-153 150 -153 383q0 152 69 274t190 192q122 69 272 68q193 0 342 -120l-80 -111q-111 96 -271 96q-160 -1 -269 -113t-109 -285t110 -286t282 -113q173 0 288 134l98 -95q-72 -82 -176 -128t-216 -46zM864 59q293 0 490 202t196 502
q0 300 -196 502q-197 201 -490 201q-294 0 -490 -202t-196 -500q0 -199 89 -360t247 -253t350 -92zM864 -47q-168 0 -316 62q-300 126 -423 426q-61 151 -61 351t104 384q104 186 288 291t407 105q225 0 409 -104q184 -106 288 -291t103 -415q0 -170 -61 -321
q-121 -299 -421 -426q-149 -62 -317 -62z" />
    <glyph glyph-name="ordfeminine" unicode="&#xaa;" horiz-adv-x="1290" 
d="M658 143q225 0 354 148l67 477q-41 68 -120.5 107.5t-176.5 39.5q-174 0 -301 -126.5t-127 -309.5q0 -96 40 -173t113 -120t151 -43zM168 457q0 264 181 443t437 179q201 0 322 -106l12 86h174l-149 -1059h-174l12 88q-152 -109 -355.5 -108.5t-331.5 134.5t-128 343z
" />
    <glyph glyph-name="guillemotleft" unicode="&#xab;" 
 />
    <glyph glyph-name="logicalnot" unicode="&#xac;" 
 />
    <glyph glyph-name="uni00AD" unicode="&#xad;" 
d="M778 700l-24 -172h-543l22 172h545z" />
    <glyph glyph-name="registered" unicode="&#xae;" horiz-adv-x="1220" 
d="M616 1108q125 0 125 94t-125 94h-96v-188h96zM520 1022v-182h-90v542h195q92 0 150 -49t59 -131q-1 -113 -103 -160q23 -59 55 -87t82 -37l-16 -84q-14 2 -55 10t-87 55t-71 123h-119zM997 1096q-1 170 -111 284t-276 113q-166 0 -276 -114q-110 -115 -111 -283t111 -281
t276 -113q109 -2 198 50t139 143q50 90 50 201zM1090 1096q0 -207 -138 -345q-138 -139 -342 -139q-205 0 -342 138t-137 346q0 207 137 346t342 139q204 0 342 -139t138 -346z" />
    <glyph glyph-name="macron" unicode="&#xaf;" 
d="M70 1417h749v-139h-749v139z" />
    <glyph glyph-name="degree" unicode="&#xb0;" horiz-adv-x="864" 
d="M433 999q93 1 155 63t61 154q0 92 -61 155q-60 63 -154 63t-156 -62t-62 -155q0 -92 62 -155t155 -63zM432 887q-141 0 -236 94t-96 236q0 91 44 167t120 119t170 43q138 0 234 -94t96 -235t-95 -236q-96 -94 -237 -94z" />
    <glyph glyph-name="plusminus" unicode="&#xb1;" 
 />
    <glyph glyph-name="uni00B2" unicode="&#xb2;" 
d="M770 1370q-236 0 -432 -231l-111 125q115 128 263 204t288 76t240 -53t154 -149t54 -236q0 -142 -93 -290q-94 -148 -338 -367l-318 -285h670l-76 -164h-991l596 551q213 197 289 313q75 116 75 236q0 122 -76 196t-194 74z" />
    <glyph glyph-name="uni00B3" unicode="&#xb3;" 
d="M1237 557q0 -244 -176 -409t-430 -164q-164 0 -308 80t-221 200l154 131q64 -113 166 -176t227 -63q172 0 288 110t116 269q0 315 -416 315q-45 0 -64 -2l408 512h-649l22 166h940l-430 -539q176 -33 275 -149q98 -117 98 -281z" />
    <glyph glyph-name="acute" unicode="&#xb4;" 
d="M463 1489l-213 -301h-166l178 301h201z" />
    <glyph glyph-name="uni00B5" unicode="&#xb5;" 
 />
    <glyph glyph-name="paragraph" unicode="&#xb6;" 
 />
    <glyph glyph-name="periodcentered" unicode="&#xb7;" horiz-adv-x="434" 
d="M238 887q122 0 122 -125q0 -45 -43 -87t-96 -42t-84 32q-31 33 -31 85t44 94t88 43z" />
    <glyph glyph-name="cedilla" unicode="&#xb8;" horiz-adv-x="561" 
d="M263 -449q-93 0 -185 25l16 115q82 -27 148 -27q117 0 116 82q0 53 -54 73.5t-167 18.5l49 176l117 2l-22 -92q100 -2 155.5 -52t55.5 -137t-68 -135.5t-161 -48.5z" />
    <glyph glyph-name="uni00B9" unicode="&#xb9;" 
d="M354 1526h441l-213 -1526h-179l193 1360h-317z" />
    <glyph glyph-name="ordmasculine" unicode="&#xba;" horiz-adv-x="1306" 
d="M690.5 143q159.5 0 286.5 127t127 310q0 145 -89 240t-249 95t-287 -126.5t-127 -309.5q0 -145 89.5 -240.5t249 -95.5zM651 -20q-215 0 -349 136t-134 345q0 170 87 312t233.5 223t316.5 81q213 0 348 -135t135 -344q0 -170 -87 -312.5t-233.5 -224t-316.5 -81.5z" />
    <glyph glyph-name="guillemotright" unicode="&#xbb;" 
 />
    <glyph glyph-name="onequarter" unicode="&#xbc;" 
 />
    <glyph glyph-name="onehalf" unicode="&#xbd;" 
 />
    <glyph glyph-name="threequarters" unicode="&#xbe;" 
 />
    <glyph glyph-name="questiondown" unicode="&#xbf;" horiz-adv-x="1005" 
d="M467 508q-191 0 -331 -125t-140 -301q0 -127 79 -204t214 -77q190 0 387 195l102 -123q-110 -113 -244 -176t-260 -64q-210 0 -334 115t-124 305q0 127 52 241t140 194t208 127q120 48 251 53l68 2l-21 -162h-47zM496 1184q53 0 84 -32q30 -32 30 -85t-42 -95t-96 -42
t-85 32t-31 84t43 96q44 42 97 42z" />
    <glyph glyph-name="Agrave" unicode="&#xc0;" horiz-adv-x="1599" 
d="M594 586h569l-200 598zM1362 0l-143 422h-725l-261 -422h-192l977 1550l541 -1550h-197zM1202 1655h-166l-213 301h201z" />
    <glyph glyph-name="Aacute" unicode="&#xc1;" horiz-adv-x="1599" 
d="M594 586h569l-200 598zM1362 0l-143 422h-725l-261 -422h-192l975 1550l543 -1550h-197zM1253 1956l-213 -301h-166l179 301h200z" />
    <glyph glyph-name="Acircumflex" unicode="&#xc2;" horiz-adv-x="1599" 
d="M594 586h569l-200 598zM1362 0l-143 422h-725l-261 -422h-192l977 1550l541 -1550h-197zM1014 1845l-170 -188h-176l254 291h188l256 -291h-178z" />
    <glyph glyph-name="Atilde" unicode="&#xc3;" horiz-adv-x="1599" 
d="M594 586h569l-200 598zM1362 0l-143 424h-725l-261 -424h-192l975 1550l543 -1550h-197zM877 1782q-78 0 -121 -84l-113 76q76 156 227 155q82 0 184.5 -45t153.5 -45q70 0 113 84l106 -74q-39 -84 -87 -120.5t-120 -36.5t-182 45q-108 45 -161 45z" />
    <glyph glyph-name="Adieresis" unicode="&#xc4;" horiz-adv-x="1640" 
d="M594 586h569l-200 598zM1362 0l-143 422h-725l-261 -422h-192l975 1550l543 -1550h-197zM1345.5 1323q-51.5 0 -85 34t-34.5 84t33.5 84t86 34t86 -34t34.5 -84t-34.5 -84t-86 -34zM635 1323q-51 0 -86 34t-35 84t35 84t77 34q42 1 70 -15q58 -33 58 -93t-34 -94t-85 -34
z" />
    <glyph glyph-name="Aring" unicode="&#xc5;" horiz-adv-x="1613" 
d="M594 588h586l-207 620zM1031 1659q-54 0 -98 -42t-44 -96t32 -86q31 -32 85 -32t99 42q44 42 44 96t-32 86t-86 32zM1052 1774q104 0 166 -71t49 -167t-80 -163q-32 -32 -73 -52l455 -1321h-195l-143 430h-733l-265 -430h-188l823 1319q-118 68 -96 228q12 85 94 156
t186 71z" />
    <glyph glyph-name="AE" unicode="&#xc6;" horiz-adv-x="2183" 
d="M698 614h494l104 746h-34zM1319 172h774l-78 -172h-911l63 451h-594l-340 -451h-204l1163 1526h1083l-75 -172h-715l-66 -463h576l-25 -172h-575z" />
    <glyph glyph-name="Ccedilla" unicode="&#xc7;" horiz-adv-x="1529" 
d="M1126 -265q0 -87 -67.5 -135.5t-160.5 -48.5t-185 25l16 115q82 -27 148 -27q117 0 116 82q0 53 -54 73.5t-167 18.5l41 146q-180 16 -318.5 107t-213 239.5t-74.5 332t71.5 347.5t192.5 280.5t286 185t345 68.5q281 0 471 -172l-129 -145q-143 137 -367 137
q-182 0 -336.5 -89t-247 -246t-92.5 -345q0 -229 140.5 -375.5t367.5 -146.5q125 0 246 50t215 140l115 -123q-113 -106 -259.5 -171.5t-295.5 -75.5l-15 -58q100 -2 155.5 -52t55.5 -137z" />
    <glyph glyph-name="Egrave" unicode="&#xc8;" horiz-adv-x="1220" 
d="M1253 1354h-714l-64 -463h576l-25 -172h-575l-78 -547h776l-78 -172h-903l215 1526h948zM1020 1655h-166l-213 301h201z" />
    <glyph glyph-name="Eacute" unicode="&#xc9;" horiz-adv-x="1220" 
d="M1253 1354h-714l-64 -463h576l-25 -172h-575l-78 -547h774l-76 -172h-903l215 1526h948zM1071 1956l-213 -301h-166l178 301h201z" />
    <glyph glyph-name="Ecircumflex" unicode="&#xca;" horiz-adv-x="1220" 
d="M1253 1354h-714l-64 -463h576l-25 -172h-575l-78 -547h776l-78 -172h-903l215 1526h948zM831 1845l-169 -188h-177l254 291h189l256 -291h-178z" />
    <glyph glyph-name="Edieresis" unicode="&#xcb;" horiz-adv-x="1220" 
d="M1253 1354h-714l-64 -463h576l-25 -172h-575l-78 -547h776l-78 -172h-903l215 1526h948zM1048 1696q-42 0 -68 14q-56 30 -56 91.5t32.5 95.5t73.5 34q40 0 68 -15q61 -33 57 -104q0 -51 -33 -83.5t-74 -32.5zM624.5 1696q-49.5 0 -83 32.5t-33.5 84t33.5 85t83 33.5
t83 -33.5t33.5 -85t-33.5 -84t-83 -32.5z" />
    <glyph glyph-name="Igrave" unicode="&#xcc;" horiz-adv-x="612" 
d="M428 1526h184l-213 -1526h-186zM330 1956h200l179 -301h-166z" />
    <glyph glyph-name="Iacute" unicode="&#xcd;" horiz-adv-x="612" 
d="M428 1526h184l-213 -1526h-186zM762 1956l-215 -301h-166l180 301h201z" />
    <glyph glyph-name="Icircumflex" unicode="&#xce;" horiz-adv-x="612" 
d="M428 1526h184l-213 -1526h-186zM872 1657h-178l-174 188l-170 -188h-176l256 291h188z" />
    <glyph glyph-name="Idieresis" unicode="&#xcf;" horiz-adv-x="612" 
d="M428 1526h184l-213 -1526h-186zM737 1696q-41 0 -67 14q-58 30 -58 91.5t34 95.5t83 34t83 -33.5t34 -85t-34 -84t-75 -32.5zM314.5 1696q-50.5 0 -83 32.5t-32.5 84t32.5 85t83 33.5t83 -33.5t32.5 -85t-32.5 -84t-83 -32.5z" />
    <glyph glyph-name="Eth" unicode="&#xd0;" horiz-adv-x="1619" 
d="M793 176q178 0 330.5 86t244.5 238.5t92 318.5t-63.5 283t-178 182.5t-260.5 65.5h-366l-72 -496h221v-129h-237l-78 -549h367zM983 1526q297 0 484.5 -188.5t187.5 -479.5q0 -238 -121 -436.5t-324.5 -310t-441.5 -111.5h-551l102 725h-262v129h281l94 672h551z" />
    <glyph glyph-name="Ntilde" unicode="&#xd1;" horiz-adv-x="1710" 
d="M1755 1526l-217 -1549l-1032 1156l-160 -1133h-176l217 1548l1032 -1151l158 1129h178zM932 1782q-80 0 -123 -84l-113 76q76 156 228 155q82 0 184 -45t163 -45t103 84l107 -74q-37 -84 -86 -120.5t-122 -36.5t-181 45t-160 45z" />
    <glyph glyph-name="Ograve" unicode="&#xd2;" horiz-adv-x="1769" 
d="M907 162q180 0 335 89t247 246.5t92 342.5q0 229 -140.5 377.5t-363.5 148.5q-135 0 -259 -53t-215 -143.5t-145.5 -217.5t-54.5 -266q0 -227 140.5 -375.5t363.5 -148.5zM902.5 -20q-218.5 0 -372 89t-237.5 244.5t-84 374t122 422t326.5 319t444.5 115.5
q299 0 486.5 -193.5t187.5 -488.5q0 -242 -122 -445.5t-327.5 -320t-424 -116.5zM907 1956h201l178 -301h-166z" />
    <glyph glyph-name="Oacute" unicode="&#xd3;" horiz-adv-x="1769" 
d="M907 162q180 0 335 89t247 246.5t92 342.5q0 229 -140.5 377.5t-363.5 148.5q-135 0 -259 -53t-215 -143.5t-146.5 -217.5t-55.5 -266q0 -227 141.5 -375.5t364.5 -148.5zM872.5 -20q-188.5 0 -342 89t-237.5 244.5t-84 374t122 422t326.5 319t444.5 115.5
q299 0 486.5 -193.5t187.5 -488.5q0 -182 -72 -346t-192.5 -280.5t-285.5 -186t-353.5 -69.5zM1337 1956l-213 -301h-166l179 301h200z" />
    <glyph glyph-name="Ocircumflex" unicode="&#xd4;" horiz-adv-x="1769" 
d="M907 162q180 0 335 89t247 246.5t92 342.5q0 229 -140.5 377.5t-363.5 148.5q-135 0 -259 -53t-215 -143.5t-145.5 -217.5t-54.5 -266q0 -227 140.5 -375.5t363.5 -148.5zM902.5 -20q-218.5 0 -372 89t-237.5 244.5t-84 374t122 422t326.5 319t444.5 115.5
q299 0 486.5 -193.5t187.5 -488.5q0 -242 -122 -445.5t-327.5 -320t-424 -116.5zM1450 1657h-178l-174 188l-170 -188h-176l254 291h188z" />
    <glyph glyph-name="Otilde" unicode="&#xd5;" horiz-adv-x="1769" 
d="M907 162q180 0 335 89t247 246.5t92 344.5q0 227 -140.5 375.5t-363.5 148.5q-135 0 -259 -53t-215 -143.5t-146.5 -217.5t-55.5 -266q0 -227 141.5 -375.5t364.5 -148.5zM209 687.5q0 218.5 122 422t326.5 320t444.5 116.5q299 0 486.5 -194.5t187.5 -489.5
q0 -294 -176 -524q-274 -356 -746 -356q-170 0 -323.5 88t-237.5 243.5t-84 374zM1292 1839q70 0 113 84l106 -74q-39 -84 -87 -120.5t-120.5 -36.5t-181 45t-161.5 45q-78 0 -121 -84l-113 76q76 156 227 155q82 0 184.5 -45t153.5 -45z" />
    <glyph glyph-name="Odieresis" unicode="&#xd6;" horiz-adv-x="1769" 
d="M907 162q180 0 335 89t247 246.5t92 342.5q0 229 -140.5 377.5t-363.5 148.5q-180 0 -335.5 -90t-247 -247t-91.5 -343q0 -227 140.5 -375.5t363.5 -148.5zM872.5 -20q-188.5 0 -342 89t-237.5 244.5t-84 374t122 422t326.5 319t444.5 115.5q299 0 486.5 -193.5
t187.5 -488.5q0 -182 -72 -346t-192.5 -280.5t-285.5 -186t-353.5 -69.5zM1315 1696q-41 0 -67 14q-58 30 -58 91.5t32.5 95.5t74 34t69.5 -15q60 -33 55 -104q0 -51 -32.5 -83.5t-73.5 -32.5zM891 1696q-49 0 -83 32.5t-34 84t34 85t83 33.5t83 -33.5t34 -85t-34 -84
t-83 -32.5z" />
    <glyph glyph-name="multiply" unicode="&#xd7;" horiz-adv-x="1198" 
d="M1047 1135l-342 -342l342 -340l-105 -105l-342 342l-342 -342l-104 105l342 340l-342 342l104 104l342 -342l340 342z" />
    <glyph glyph-name="Oslash" unicode="&#xd8;" horiz-adv-x="1783" 
d="M1589 827q0 171 -71 295l-934 -843q135 -117 322 -117t343 89t248 247t92 329zM410 698q0 -174 75 -301l936 846q-137 123 -327.5 123t-345 -90t-246.5 -247t-92 -331zM1784 854q0 -234 -123 -437.5t-328 -320t-459.5 -116.5t-439.5 163l-160 -143l-100 115l160 145
q-119 174 -119 410t122 439.5t327.5 319t462.5 115.5t442 -168l149 135l103 -114l-152 -137q115 -172 115 -406z" />
    <glyph glyph-name="Ugrave" unicode="&#xd9;" horiz-adv-x="1599" 
d="M796.5 -20q-288.5 0 -440 181t-108.5 478l125 887h186l-127 -899q-31 -211 76.5 -341t312.5 -130t349.5 130t175.5 341l127 899h184l-123 -877q-43 -301 -246 -485t-491.5 -184zM821 1956h201l178 -301h-166z" />
    <glyph glyph-name="Uacute" unicode="&#xda;" horiz-adv-x="1599" 
d="M796.5 -20q-288.5 0 -440 181t-108.5 478l125 887h186l-127 -899q-31 -211 76.5 -341t312.5 -130t349.5 130t175.5 341l127 899h184l-123 -877q-43 -301 -246 -485t-491.5 -184zM1253 1956l-215 -301h-166l181 301h200z" />
    <glyph glyph-name="Ucircumflex" unicode="&#xdb;" horiz-adv-x="1599" 
d="M796.5 -20q-288.5 0 -440 181t-108.5 478l125 887h186l-127 -899q-31 -211 76.5 -341t312.5 -130t349.5 130t175.5 341l127 899h184l-123 -877q-43 -301 -246 -485t-491.5 -184zM1364 1657h-178l-174 188l-170 -188h-176l256 291h188z" />
    <glyph glyph-name="Udieresis" unicode="&#xdc;" horiz-adv-x="1599" 
d="M796.5 -20q-288.5 0 -440 181t-108.5 478l125 887h186l-127 -899q-31 -211 76.5 -341t312.5 -130t349.5 130t175.5 341l127 899h184l-123 -877q-43 -301 -246 -485t-491.5 -184zM1229 1696q-41 0 -67 14q-58 30 -58 91.5t33.5 95.5t75 34t67.5 -15q56 -32 56.5 -93.5
t-33 -94t-74.5 -32.5zM806 1696q-50 0 -83 32.5t-33 84t33 85t83 33.5t83 -33.5t33 -85t-33 -84t-83 -32.5z" />
    <glyph glyph-name="Yacute" unicode="&#xdd;" horiz-adv-x="1409" 
d="M1569 1526l-678 -860l-94 -666h-183l95 664l-441 862h215l344 -682l521 682h221zM1159 1956l-215 -301h-166l180 301h201z" />
    <glyph glyph-name="Thorn" unicode="&#xde;" horiz-adv-x="1292" 
d="M623 543q190 0 296 82q105 81 105 239t-105 241t-296 83h-287v-645h287zM651 1360q254 0 409 -135t154 -361q0 -150 -70 -262t-197 -173q-128 -60 -296 -60h-315v-369h-182v1679h182v-319h315z" />
    <glyph glyph-name="germandbls" unicode="&#xdf;" horiz-adv-x="1271" 
d="M842 1145q0 102 -62.5 165.5t-163.5 63.5h-6q-127 0 -201.5 -90t-74.5 -242v-1042h-180v1063q0 217 123.5 347t328.5 130h12q182 0 293 -108.5t111 -280.5t-141 -299q145 -47 228 -157.5t83 -262.5q0 -203 -126 -324.5t-337 -121.5q-80 0 -151 14v170q74 -14 133 -14
q139 0 218 75.5t79 200.5q0 84 -42 150q-88 137 -286 141l-2 162q164 100 164 260z" />
    <glyph glyph-name="agrave" unicode="&#xe0;" horiz-adv-x="1290" 
d="M675 143q95 0 186 40t151 108l67 477q-41 68 -120.5 107.5t-176.5 39.5q-174 0 -301 -126.5t-127 -309.5q0 -96 40 -173t113 -120t168 -43zM168 457q0 264 181 443t437 179q201 0 322 -106l12 86h174l-149 -1059h-174l12 88q-152 -109 -355.5 -108.5t-331.5 134.5
t-128 343zM985 1188h-166l-213 301h201z" />
    <glyph glyph-name="aacute" unicode="&#xe1;" horiz-adv-x="1290" 
d="M658 143q225 0 354 148l67 477q-41 68 -120.5 107.5t-176.5 39.5q-174 0 -301 -126.5t-127 -309.5q0 -96 40 -173t113 -120t151 -43zM168 457q0 264 181 443t437 179q201 0 322 -106l12 86h174l-149 -1059h-174l12 88q-152 -109 -355.5 -108.5t-331.5 134.5t-128 343z
M1038 1489l-215 -301h-166l181 301h200z" />
    <glyph glyph-name="acircumflex" unicode="&#xe2;" horiz-adv-x="1290" 
d="M675 143q95 0 186 40t151 108l67 477q-41 68 -120.5 107.5t-176.5 39.5q-174 0 -301 -126.5t-127 -309.5q0 -96 40 -173t113 -120t168 -43zM168 457q0 264 181 443t437 179q201 0 322 -106l12 86h174l-149 -1059h-174l12 88q-152 -109 -355.5 -108.5t-331.5 134.5
t-128 343zM797 1378l-170 -188h-176l256 291h188l254 -291h-178z" />
    <glyph glyph-name="atilde" unicode="&#xe3;" horiz-adv-x="1290" 
d="M782 915q-174 0 -301 -126.5t-127 -309.5q0 -145 89.5 -240.5t227 -95.5t247.5 69q54 34 94 79l67 477q-41 68 -120.5 107.5t-176.5 39.5zM168 457q0 264 181 443t437 179q201 0 322 -106l12 86h174l-149 -1059h-174l12 88q-152 -109 -355.5 -108.5t-331.5 134.5
t-128 343zM662 1315q-80 0 -123 -84l-113 76q76 156 227 155q82 0 184.5 -45t153.5 -45q70 0 113 84l106 -74q-69 -157 -202 -157q-78 0 -186.5 45t-159.5 45z" />
    <glyph glyph-name="adieresis" unicode="&#xe4;" horiz-adv-x="1290" 
d="M658 143q225 0 354 148l67 477q-41 68 -120.5 107.5t-176.5 39.5q-174 0 -301 -126.5t-127 -309.5q0 -96 40 -173t113 -120t151 -43zM168 457q0 264 181 443t437 179q201 0 322 -106l12 86h174l-149 -1059h-174l12 88q-152 -109 -355.5 -108.5t-331.5 134.5t-128 343z
M1014 1229q-42 0 -68 14q-58 30 -57.5 92t34 95.5t83 33.5t83 -33.5t33.5 -85t-33.5 -84t-74.5 -32.5zM591 1229q-50 0 -83 32.5t-33 84t33 85t83 33.5t83 -33.5t33 -85t-33 -84t-83 -32.5z" />
    <glyph glyph-name="aring" unicode="&#xe5;" horiz-adv-x="1286" 
d="M675 143q95 0 186 40t151 108l67 477q-41 68 -120.5 107.5t-176.5 39.5q-174 0 -301 -126.5t-127 -309.5q0 -96 40 -173t113 -120t168 -43zM168 457q0 264 180 443t438 179q201 0 322 -106l12 86h174l-149 -1059h-174l12 88q-152 -109 -355.5 -108.5t-331.5 134.5
t-128 343zM850 1595q-52 0 -98.5 -41t-46.5 -98t34.5 -89t95 -32t106.5 41t46 107q1 112 -137 112zM823.5 1221q-110.5 0 -175 60t-64.5 166t87 184.5t198.5 78.5t175 -60.5t63.5 -166t-87 -184t-197.5 -78.5z" />
    <glyph glyph-name="ae" unicode="&#xe6;" horiz-adv-x="2158" 
d="M678.5 143q147.5 0 266 97.5t149.5 246.5q2 43 10 88v5q0 94 -40 170.5t-113.5 120.5t-168.5 44q-176 0 -304 -126.5t-128 -309.5q0 -145 90.5 -240.5t238 -95.5zM1692 922q-138 0 -245 -84t-147 -215h662q-8 181 -134 260q-64 39 -136 39zM1280 475q0 -94 40 -170
t111.5 -119t163.5 -43q201 0 342 154l105 -113q-90 -96 -212 -150t-260 -54t-248 64.5t-169 174.5q-90 -111 -221 -175t-281 -64q-215 0 -349 136t-134 345q0 170 87 312t233 223q148 81 328 81q180 1 308 -109q62 -52 103 -124q86 109 212 171t269 62q193 0 313.5 -129
t120.5 -327q0 -63 -20 -146h-842z" />
    <glyph glyph-name="ccedilla" unicode="&#xe7;" horiz-adv-x="1128" 
d="M684 143q82 0 169 42t146 114l107 -111q-72 -83 -185.5 -140.5t-230.5 -65.5l-14 -58q100 -2 155.5 -52t55.5 -137t-66.5 -135.5t-160 -48.5t-187.5 25l19 115q82 -27 147 -27q115 0 115 82q0 53 -53.5 73.5t-165.5 18.5l40 148q-186 23 -296.5 152.5t-110.5 320.5
q0 260 185.5 440t449.5 180q217 0 352 -141l-117 -133q-98 111 -256 110q-119 0 -216 -58t-153.5 -158.5t-56.5 -196t22.5 -156.5t62.5 -106t100.5 -71t142.5 -26z" />
    <glyph glyph-name="egrave" unicode="&#xe8;" horiz-adv-x="1230" 
d="M758 922q-131 0 -236.5 -84t-148.5 -215h661q-8 182 -134 260q-62 39 -142 39zM668 143q203 0 342 154l104 -113q-90 -96 -212 -150t-257 -54q-211 0 -344 137t-133 346q0 168 83 310t224 223t319.5 81t300.5 -129t122 -327q0 -68 -21 -146h-844q2 -145 89 -238.5
t227 -93.5zM965 1188h-166l-213 301h200z" />
    <glyph glyph-name="eacute" unicode="&#xe9;" horiz-adv-x="1230" 
d="M758 922q-131 0 -236.5 -84t-148.5 -215h661q-8 182 -134 260q-62 39 -142 39zM668 143q203 0 340 154l106 -113q-90 -96 -212 -150t-257 -54q-211 0 -344 137t-133 346q0 168 83 310t224 223t319.5 81t300.5 -129t122 -327q0 -68 -21 -146h-844q2 -145 89 -238.5
t227 -93.5zM1018 1489l-215 -301h-166l180 301h201z" />
    <glyph glyph-name="ecircumflex" unicode="&#xea;" horiz-adv-x="1230" 
d="M758 922q-131 0 -236.5 -84t-148.5 -215h661q-8 182 -134 260q-62 39 -142 39zM668 143q203 0 342 154l104 -113q-90 -96 -212 -150t-257 -54q-211 0 -344 137t-133 346q0 168 83 310t224 223t319.5 81t300.5 -129t122 -327q0 -68 -21 -146h-844q2 -145 89 -238.5
t227 -93.5zM776 1378l-170 -188h-176l256 291h188l254 -291h-178z" />
    <glyph glyph-name="edieresis" unicode="&#xeb;" horiz-adv-x="1230" 
d="M758 922q-131 0 -236.5 -84t-148.5 -215h661q-8 182 -134 260q-62 39 -142 39zM668 143q203 0 342 154l104 -113q-90 -96 -212 -150t-257 -54q-211 0 -344 137t-133 346q0 168 83 310t224 223t319.5 81t300.5 -129t122 -327q0 -68 -21 -146h-844q2 -145 89 -238.5
t227 -93.5zM993 1229q-41 0 -67 14q-58 30 -58 92t34 95.5t83 33.5t83 -33.5t34 -85t-34 -84t-75 -32.5zM570.5 1229q-50.5 0 -83 32.5t-32.5 84t32.5 85t83 33.5t83 -33.5t32.5 -85t-32.5 -84t-83 -32.5z" />
    <glyph glyph-name="igrave" unicode="&#xec;" horiz-adv-x="430" 
d="M127 0v1059h174v-1059h-174zM25 1489h200l178 -301h-165z" />
    <glyph glyph-name="iacute" unicode="&#xed;" horiz-adv-x="430" 
d="M127 0v1059h174v-1059h-174zM455 1489l-213 -301h-166l178 301h201z" />
    <glyph glyph-name="icircumflex" unicode="&#xee;" horiz-adv-x="430" 
d="M127 0v1059h174v-1059h-174zM567 1190h-178l-174 188l-170 -188h-176l254 291h188z" />
    <glyph glyph-name="idieresis" unicode="&#xef;" horiz-adv-x="430" 
d="M127 0v1059h174v-1059h-174zM432 1229q-42 0 -68 14q-58 30 -57.5 92t33.5 95.5t83 33.5t84 -33.5t33 -85t-34 -84t-74 -32.5zM-76 1262q-33 33 -33 84t34 84.5t91.5 33.5t93.5 -57q16 -25 15.5 -68.5t-34.5 -76.5t-84 -33t-83 33z" />
    <glyph glyph-name="eth" unicode="&#xf0;" horiz-adv-x="1275" 
d="M638 152q163 0 266 116t104 293q0 84 -23 170q-141 166 -346 166q-158 0 -264 -105q-107 -104 -107 -264t104 -268t266 -108zM1184 594q0 -268 -151 -439t-395 -171t-400 156t-156 388q0 231 156 384t387 153q111 0 206 -39q-76 102 -184 205l-272 -133l-62 133l215 104
q-86 70 -184 138l115 118q127 -84 235 -174l254 123l62 -131l-199 -98q373 -362 373 -717z" />
    <glyph glyph-name="ntilde" unicode="&#xf1;" horiz-adv-x="1210" 
d="M799.5 1081q188.5 0 290.5 -129t73 -340l-86 -612h-174l84 594q20 150 -43 237t-190 87q-180 0 -326 -140l-109 -778h-176l150 1059h174l-12 -86q156 108 344.5 108zM627 1315q-80 0 -123 -84l-111 76q74 156 225 155q82 0 184.5 -45t153.5 -45q72 0 115 84l107 -74
q-42 -86 -78 -113q-61 -44 -132 -44t-180.5 45t-160.5 45z" />
    <glyph glyph-name="ograve" unicode="&#xf2;" horiz-adv-x="1306" 
d="M690.5 143q159.5 0 286.5 127t127 310q0 145 -89 240t-249 95t-287 -126.5t-127 -309.5q0 -145 89.5 -240.5t249 -95.5zM651 -20q-215 0 -349 136t-134 345q0 170 87 312t233.5 223t316.5 81q213 0 348 -135t135 -344q0 -170 -87 -312.5t-233.5 -224t-316.5 -81.5z
M610 1489h201l178 -301h-166z" />
    <glyph glyph-name="oacute" unicode="&#xf3;" horiz-adv-x="1306" 
d="M690.5 143q159.5 0 286.5 127t127 310q0 145 -89 240t-249 95t-287 -126.5t-127 -309.5q0 -145 89.5 -240.5t249 -95.5zM651 -20q-215 0 -349 136t-134 345q0 170 87 312t233.5 223t316.5 81q213 0 348 -135t135 -344q0 -170 -87 -312.5t-233.5 -224t-316.5 -81.5z
M1042 1489l-215 -301h-165l180 301h200z" />
    <glyph glyph-name="ocircumflex" unicode="&#xf4;" horiz-adv-x="1306" 
d="M690.5 143q159.5 0 286.5 127t127 310q0 145 -89 240t-249 95t-287 -126.5t-127 -309.5q0 -145 89.5 -240.5t249 -95.5zM651 -20q-215 0 -349 136t-134 345q0 170 87 312t233.5 223t316.5 81q213 0 348 -135t135 -344q0 -170 -87 -312.5t-233.5 -224t-316.5 -81.5z
M1153 1190h-178l-174 188l-170 -188h-176l256 291h188z" />
    <glyph glyph-name="otilde" unicode="&#xf5;" horiz-adv-x="1306" 
d="M674 143q176 0 303 127t127 310q0 145 -89 240t-249 95t-287 -126.5t-127 -309.5q0 -94 40 -171t114 -121t168 -44zM651 -18q-215 0 -349 135t-134 344q0 170 87 312t233.5 224t316.5 82q213 0 348 -136t135 -345q0 -170 -87 -312.5t-233.5 -223t-316.5 -80.5zM666 1315
q-80 0 -123 -84l-113 76q76 156 227 155q82 0 184.5 -45t153.5 -45q70 0 113 84l106 -74q-69 -157 -202 -157q-78 0 -186.5 45t-159.5 45z" />
    <glyph glyph-name="odieresis" unicode="&#xf6;" horiz-adv-x="1306" 
d="M690.5 143q159.5 0 286.5 127t127 310q0 94 -40 170.5t-113.5 120.5t-168.5 44q-176 0 -303 -126.5t-127 -309.5q0 -145 89.5 -240.5t249 -95.5zM651 -20q-215 0 -349 136t-134 345q0 170 87 312t233.5 223t316.5 81q213 0 348 -135t135 -344q0 -170 -87 -312.5
t-233.5 -224t-316.5 -81.5zM1018 1229q-42 0 -68 14q-58 30 -57.5 92t34.5 95.5t83 33.5t82.5 -33.5t33.5 -85t-33.5 -84t-74.5 -32.5zM595 1229q-50 0 -83 32.5t-33 84t33 85t74 33.5q42 0 68 -15q58 -33 57.5 -93.5t-33.5 -93.5t-83 -33z" />
    <glyph glyph-name="divide" unicode="&#xf7;" horiz-adv-x="1290" 
d="M646 254q-56 0 -93 37t-37 84q0 90 63 123q31 16 63 16q88 0 122 -78q10 -24 10 -66t-36 -79t-92 -37zM158 688v164h975v-164h-975zM646 1026q-56 0 -93 37t-37 80q0 101 78 132q24 9 52 9q84 0 118 -76q10 -24 10 -66t-36 -79t-92 -37z" />
    <glyph glyph-name="oslash" unicode="&#xf8;" horiz-adv-x="1308" 
d="M1106 580q0 96 -41 174l-598 -539q86 -72 209 -72q176 0 303 127.5t127 309.5zM352 479q0 -86 35 -157l590 532q-82 61 -193 61q-176 0 -304 -127t-128 -309zM1290 594q0 -166 -87 -308.5t-233.5 -224t-326.5 -81.5t-313 112l-131 -119l-88 101l133 119
q-74 119 -74 278.5t87 301.5t233.5 223t321.5 81t302 -98l111 98l90 -98l-109 -98q84 -121 84 -287z" />
    <glyph glyph-name="ugrave" unicode="&#xf9;" horiz-adv-x="1210" 
d="M561.5 -23q-191.5 0 -293.5 129.5t-71 337.5l86 615h176l-84 -592q-20 -145 45 -235.5t194 -90.5q182 0 316 140l110 778h174l-147 -1059h-176l12 90q-150 -113 -341.5 -113zM952 1188h-166l-213 301h201z" />
    <glyph glyph-name="uacute" unicode="&#xfa;" horiz-adv-x="1210" 
d="M561.5 -23q-191.5 0 -293.5 129.5t-71 337.5l86 615h176l-84 -592q-20 -145 45 -235.5t194 -90.5q182 0 316 140l110 778h174l-147 -1059h-176l12 90q-150 -113 -341.5 -113zM1006 1489l-215 -301h-166l180 301h201z" />
    <glyph glyph-name="ucircumflex" unicode="&#xfb;" horiz-adv-x="1210" 
d="M561.5 -23q-191.5 0 -293.5 129.5t-71 337.5l86 615h176l-84 -592q-20 -145 45 -235.5t194 -90.5q182 0 316 140l110 778h174l-147 -1059h-176l12 90q-150 -113 -341.5 -113zM764 1378l-170 -188h-176l256 291h188l254 -291h-178z" />
    <glyph glyph-name="udieresis" unicode="&#xfc;" horiz-adv-x="1210" 
d="M561.5 -23q-191.5 0 -293.5 129.5t-71 337.5l86 615h176l-84 -592q-20 -145 45 -235.5t194 -90.5q182 0 316 140l110 778h174l-147 -1059h-176l12 90q-150 -113 -341.5 -113zM981 1229q-41 0 -67 14q-58 30 -58 92t34 95.5t83 33.5t83 -33.5t34 -85t-34 -84t-75 -32.5z
M558 1229q-50 0 -83 32.5t-33 84t33 85t83 33.5t83 -33.5t33 -85t-33 -84t-83 -32.5z" />
    <glyph glyph-name="yacute" unicode="&#xfd;" horiz-adv-x="1224" 
d="M1122 1059h185q-399 -1028 -1039 -1352q-193 -98 -370 -123l18 166q94 16 211 66q200 85 362 235l-303 1008h189l252 -869q274 316 495 869zM997 1489l-213 -301h-166l179 301h200z" />
    <glyph glyph-name="thorn" unicode="&#xfe;" horiz-adv-x="1239" 
d="M602 143q160 0 265.5 111t105.5 275.5t-105.5 275t-265.5 110.5q-90 0 -171 -34.5t-132 -96.5v-510q51 -61 132 -96t171 -35zM604 1079q171 0 293.5 -70.5t191 -196.5t68.5 -282q0 -240 -151.5 -395t-382.5 -155q-190 0 -324 98v-498h-174v1946h174v-543q134 96 305 96z
" />
    <glyph glyph-name="ydieresis" unicode="&#xff;" horiz-adv-x="1224" 
d="M1122 1059h185q-399 -1028 -1039 -1352q-193 -98 -368 -123l16 166q94 16 211 66q200 85 362 235l-303 1008h189l252 -869q274 316 495 869zM973 1229q-41 0 -67 14q-56 31 -56 103q-2 51 31.5 84.5t83 33.5t83 -33.5t33.5 -85t-33.5 -84t-74.5 -32.5zM550 1229
q-50 0 -83 32.5t-33 84t33 85t83 33.5t84 -33.5t34 -85t-34 -84t-84 -32.5z" />
    <glyph glyph-name="Amacron" unicode="&#x100;" horiz-adv-x="1599" 
d="M594 586h569l-200 598zM1362 0l-143 422h-725l-261 -422h-192l975 1550l543 -1550h-197zM1389 1884v-139h-748v139h748z" />
    <glyph glyph-name="amacron" unicode="&#x101;" horiz-adv-x="1290" 
d="M658 143q225 0 354 148l67 477q-41 68 -120.5 107.5t-176.5 39.5q-174 0 -301 -126.5t-127 -309.5q0 -96 40 -173t113 -120t151 -43zM168 457q0 264 181 443t437 179q201 0 322 -106l12 86h174l-149 -1059h-174l12 88q-152 -109 -355.5 -108.5t-331.5 134.5t-128 343z
M1174 1417v-139h-750v139h750z" />
    <glyph glyph-name="Abreve" unicode="&#x102;" horiz-adv-x="1599" 
d="M594 586h569l-200 598zM1362 0l-143 422h-725l-261 -422h-192l977 1550l541 -1550h-197zM1016 1663q-135 0 -226.5 84t-91.5 211h138q0 -76 51 -125t114.5 -49t104.5 22q88 46 88 152h137q0 -84 -41 -151.5t-113.5 -105.5t-160.5 -38z" />
    <glyph glyph-name="abreve" unicode="&#x103;" horiz-adv-x="1290" 
d="M782 915q-174 0 -301 -126.5t-127 -309.5q0 -145 89.5 -240.5t227 -95.5t247.5 69q54 34 94 79l67 477q-41 68 -120.5 107.5t-176.5 39.5zM168 457q0 264 181 443t437 179q201 0 322 -106l12 86h174l-149 -1059h-174l12 88q-152 -109 -355.5 -108.5t-331.5 134.5
t-128 343zM799 1196q-135 0 -226.5 84t-91.5 211h137q0 -76 52 -125q54 -49 116 -49q62 -1 103 21q88 46 88 153h137q0 -127 -90 -211t-225 -84z" />
    <glyph glyph-name="Aogonek" unicode="&#x104;" horiz-adv-x="1599" 
d="M594 586h569l-200 598zM1356 -215q0 -49 33.5 -79t77 -30t69.5 5l-2 -117q-49 -8 -90 -8q-111 0 -171.5 55t-60.5 141t67 170q34 43 83 78l-143 422h-725l-261 -422h-192l975 1550l543 -1550h-74q-129 -111 -129 -215z" />
    <glyph glyph-name="aogonek" unicode="&#x105;" horiz-adv-x="1290" 
d="M658 143q225 0 354 148l67 477q-41 68 -120.5 107.5t-176.5 39.5q-174 0 -301 -126.5t-127 -309.5q0 -96 40 -173t113 -120t151 -43zM1016 -215q0 -49 33.5 -79t77 -30t69.5 5l-2 -117q-49 -8 -107.5 -8t-110.5 26q-104 53 -104 168q0 63 39 130t111 120h-51l12 88
q-152 -109 -355.5 -108.5t-331.5 134.5t-128 343q0 264 181 443t437 179q201 0 322 -106l12 86h174l-149 -1059q-129 -111 -129 -215z" />
    <glyph glyph-name="Cacute" unicode="&#x106;" horiz-adv-x="1529" 
d="M883 -18q-301 0 -488.5 191.5t-187.5 490.5q0 182 71.5 346t192.5 280.5t286 185t345 68.5q281 0 471 -172l-129 -145q-143 137 -367 137q-182 0 -336.5 -89t-247 -246t-92.5 -345q0 -229 140.5 -375.5t367.5 -146.5q125 0 246 50t215 140l115 -123
q-121 -117 -280.5 -182t-321.5 -65zM1337 1956l-213 -301h-166l179 301h200z" />
    <glyph glyph-name="cacute" unicode="&#x107;" horiz-adv-x="1128" 
d="M649 -20q-217 0 -349 135t-132 344q0 260 185.5 440t449.5 180q217 0 352 -141l-117 -133q-98 111 -256 110q-119 0 -216 -58t-153.5 -158.5t-56.5 -196.5q0 -167 85.5 -263t232.5 -96q92 0 179 42t146 114l107 -111q-88 -96 -210 -152t-247 -56zM991 1489l-213 -301
h-166l179 301h200z" />
    <glyph glyph-name="Cdotaccent" unicode="&#x10a;" horiz-adv-x="1529" 
d="M883 -18q-301 0 -488.5 191.5t-187.5 490.5q0 182 71.5 346t192.5 280.5t286 185t345 68.5q281 0 471 -172l-129 -145q-143 137 -367 137q-182 0 -336.5 -89t-247 -246t-92.5 -345q0 -229 140.5 -375.5t367.5 -146.5q125 0 246 50t215 140l115 -123
q-121 -117 -280.5 -182t-321.5 -65zM1106 1694q-41 0 -66.5 15t-41 42t-15.5 61q1 34 15 61q29 56 89 56t93.5 -32.5t33.5 -84t-33.5 -85t-74.5 -33.5z" />
    <glyph glyph-name="cdotaccent" unicode="&#x10b;" horiz-adv-x="1128" 
d="M649 -20q-217 0 -349 135t-132 344q0 260 185.5 440t449.5 180q217 0 352 -141l-117 -133q-98 111 -256 110q-119 0 -216 -58t-153.5 -158.5t-56.5 -196.5q0 -167 85.5 -263t232.5 -96q92 0 179 42t146 114l107 -111q-88 -96 -210 -152t-247 -56zM635 1355.5
q0 41.5 33.5 74t83 32.5t83 -32.5t33.5 -84t-33.5 -85t-93.5 -33.5q-60 1 -94 65q-12 22 -12 63.5z" />
    <glyph glyph-name="Ccaron" unicode="&#x10c;" horiz-adv-x="1529" 
d="M883 -18q-301 0 -488.5 191.5t-187.5 490.5q0 182 71.5 346t192.5 280.5t286 185t345 68.5q281 0 471 -172l-129 -145q-143 137 -367 137q-182 0 -336.5 -89t-247 -246t-92.5 -345q0 -229 140.5 -375.5t365.5 -146.5q127 0 248 50t215 140l115 -123
q-121 -117 -280.5 -182t-321.5 -65zM760 1954h178l174 -187l170 187h176l-254 -289h-190z" />
    <glyph glyph-name="ccaron" unicode="&#x10d;" horiz-adv-x="1128" 
d="M649 -20q-217 0 -349 135t-132 344q0 260 185.5 440t449.5 180q217 0 352 -141l-117 -133q-98 111 -258 110q-117 0 -214 -58t-153.5 -158.5t-56.5 -196.5q0 -167 85.5 -263t232.5 -96q92 0 179 42t146 114l107 -111q-116 -128 -292 -182q-83 -26 -165 -26zM414 1487h178
l174 -187l170 187h174l-254 -289h-188z" />
    <glyph glyph-name="Dcaron" unicode="&#x10e;" horiz-adv-x="1597" 
d="M741 176q178 0 332 86t245 238.5t91 337.5q0 225 -140.5 368.5t-361.5 143.5h-366l-166 -1174h366zM932 1526q297 0 484.5 -188.5t187.5 -479.5q0 -238 -121 -436.5t-325 -310t-441 -111.5h-549l213 1526h551zM1079 1665h-188l-256 289h178l174 -187l172 187h174z" />
    <glyph glyph-name="dcaron" unicode="&#x10f;" horiz-adv-x="1445" 
d="M675 143q93 0 181 37t148 101l69 499q-41 61 -118.5 98t-170.5 37q-176 0 -302 -126.5t-126 -309.5q0 -96 40 -173t113 -120t166 -43zM626.5 -20q-200.5 0 -328.5 134t-128 343q0 264 180 443t438 179q193 0 314 -100l78 547h313l-102 -492h-107l-145 -1034h-174l12 82
q-150 -102 -350.5 -102z" />
    <glyph glyph-name="Dcroat" unicode="&#x110;" horiz-adv-x="1619" 
d="M793 176q178 0 330.5 86t244.5 238.5t92 318.5t-63.5 283t-178 182.5t-260.5 65.5h-366l-72 -496h221v-129h-237l-78 -549h367zM983 1526q297 0 484.5 -188.5t187.5 -479.5q0 -238 -121 -436.5t-324.5 -310t-441.5 -111.5h-551l102 725h-262v129h281l94 672h551z" />
    <glyph glyph-name="dcroat" unicode="&#x111;" horiz-adv-x="1259" 
d="M673 143q93 0 181 37t147 101l72 499q-43 61 -121 98t-170 37q-174 0 -301 -126.5t-127 -309.5q0 -96 40 -173t113 -120t166 -43zM1315 1208h-8l-170 -1208h-174l12 82q-150 -102 -350.5 -102t-328.5 134t-128 343q0 264 181 443t437 179q195 0 314 -100l33 229h-570v154
h592l23 164h174l-37 -266v-52z" />
    <glyph glyph-name="Emacron" unicode="&#x112;" horiz-adv-x="1220" 
d="M1253 1354h-714l-64 -463h576l-25 -172h-575l-78 -547h774l-76 -172h-903l215 1526h948zM1206 1884v-139h-747v139h747z" />
    <glyph glyph-name="emacron" unicode="&#x113;" horiz-adv-x="1230" 
d="M758 922q-131 0 -236.5 -84t-148.5 -215h661q-8 182 -134 260q-62 39 -142 39zM668 143q203 0 340 154l106 -113q-90 -96 -212 -150t-257 -54q-211 0 -344 137t-133 346q0 168 83 310t224 223t319.5 81t300.5 -129t122 -327q0 -68 -21 -146h-844q2 -145 89 -238.5
t227 -93.5zM1153 1417v-139h-750v139h750z" />
    <glyph glyph-name="Edotaccent" unicode="&#x116;" horiz-adv-x="1220" 
d="M1253 1354h-714l-64 -463h576l-25 -172h-575l-78 -547h774l-76 -172h-903l215 1526h948zM841 1694q-41 0 -67 15q-57 33 -57 93.5t32.5 93.5t83 33t84 -32.5t32.5 -84t-34 -85t-74 -33.5z" />
    <glyph glyph-name="edotaccent" unicode="&#x117;" horiz-adv-x="1230" 
d="M758 922q-131 0 -236.5 -84t-148.5 -215h661q-8 182 -134 260q-62 39 -142 39zM668 143q203 0 342 154l104 -113q-90 -96 -212 -150t-257 -54q-211 0 -344 137t-133 346q0 168 83 310t224 223t319.5 81t300.5 -129t122 -327q0 -68 -21 -146h-844q2 -145 89 -238.5
t227 -93.5zM778 1227q-49 0 -82.5 33.5t-33.5 75.5t15 70q30 56 90 56t94 -32.5t34 -84t-34 -85t-83 -33.5z" />
    <glyph glyph-name="Eogonek" unicode="&#x118;" horiz-adv-x="1220" 
d="M942 -215q0 -49 34 -79t77 -30t69 5l-2 -117q-49 -8 -90 -8q-111 0 -171 55t-60 129q0 149 149 260h-780l215 1526h948l-78 -172h-714l-64 -463h576l-25 -172h-575l-78 -547h774l-76 -172q-129 -111 -129 -215z" />
    <glyph glyph-name="eogonek" unicode="&#x119;" horiz-adv-x="1230" 
d="M755 922q-83 0 -162 -39q-159 -78 -220 -260h661q-8 182 -134 260q-62 39 -145 39zM668 143q203 0 340 154l106 -113q-152 -162 -369 -196q-117 -104 -116 -203q0 -49 33.5 -79t77 -30t69.5 5l-2 -117q-49 -8 -90 -8q-111 0 -171.5 55t-60.5 139q0 127 125 232
q-199 12 -320.5 146t-121.5 318.5t83 326.5t224 223t319.5 81t300.5 -129t122 -327q0 -68 -21 -146h-844q2 -145 89 -238.5t227 -93.5z" />
    <glyph glyph-name="Ecaron" unicode="&#x11a;" horiz-adv-x="1220" 
d="M1253 1354h-714l-64 -463h576l-25 -172h-575l-78 -547h774l-76 -172h-903l215 1526h946zM938 1665h-188l-256 289h178l174 -187l172 187h174z" />
    <glyph glyph-name="ecaron" unicode="&#x11b;" horiz-adv-x="1230" 
d="M758 922q-131 0 -236.5 -84t-148.5 -215h661q-8 182 -134 260q-62 39 -142 39zM668 143q203 0 340 154l106 -113q-90 -96 -212 -150t-257 -54q-211 0 -344 137t-133 346q0 168 83 310t224 223t319.5 81t299 -129t120.5 -327q0 -68 -18 -146h-844q2 -145 89 -238.5
t227 -93.5zM883 1198h-189l-256 289h178l175 -187l172 187h174z" />
    <glyph glyph-name="Gbreve" unicode="&#x11e;" horiz-adv-x="1613" 
d="M903 -18q-307 0 -500.5 188t-193.5 492q0 248 124 452.5t332.5 317t454.5 112.5q291 0 494 -172l-127 -145q-156 139 -393 139q-188 0 -346 -87t-251.5 -244.5t-93.5 -352.5q0 -233 146.5 -379.5t369 -146.5t388.5 94l67 473h182l-79 -565q-115 -84 -265.5 -130
t-308.5 -46zM1065 1663q-135 0 -226 84t-91 211h137q0 -76 52 -125t114.5 -49t103.5 22q88 46 88 152h137q0 -127 -90 -211t-225 -84z" />
    <glyph glyph-name="gbreve" unicode="&#x11f;" horiz-adv-x="1288" 
d="M354 479q0 -145 89 -240.5t231 -95.5q98 0 189 40t151 110l67 473q-41 70 -120.5 109.5t-178.5 39.5q-174 0 -301 -127t-127 -309zM624 -20q-200 0 -328 134t-128 343q0 264 181 443t437 179q203 0 324 -108l12 88h170l-112 -801q-56 -421 -377 -591q-179 -95 -418 -103
l18 168q207 4 356.5 90t211.5 256q-147 -98 -347 -98zM790.5 1196q-135.5 0 -226.5 84t-91 211h137q0 -76 52 -125q54 -49 116 -49q62 -1 103 21q88 46 88 153h137q0 -127 -90 -211t-225.5 -84z" />
    <glyph glyph-name="Gdotaccent" unicode="&#x120;" horiz-adv-x="1613" 
d="M901 -18q-305 0 -498.5 188t-193.5 492q0 248 124 452.5t332.5 317t454.5 112.5q291 0 494 -172l-127 -145q-156 139 -393 139q-188 0 -346 -87t-251.5 -244.5t-93.5 -352.5q0 -233 146.5 -379.5t369 -146.5t388.5 94l67 473h182l-79 -565q-115 -84 -265.5 -130
t-310.5 -46zM1073 1694q-41 0 -67 15q-58 33 -58 93.5t33 93.5t83 33t84 -32.5t34 -84t-34 -85t-75 -33.5z" />
    <glyph glyph-name="gdotaccent" unicode="&#x121;" horiz-adv-x="1288" 
d="M354 479q0 -145 89 -240.5t231 -95.5q98 0 189 40t151 110l67 473q-41 70 -120.5 109.5t-178.5 39.5q-174 0 -301 -127t-127 -309zM624 -20q-200 0 -328 134t-128 343q0 264 181 443t437 179q203 0 324 -108l12 88h170l-112 -801q-56 -421 -377 -591q-179 -95 -418 -103
l18 168q207 4 356.5 90t211.5 256q-147 -98 -347 -98zM674 1353.5q0 43.5 32.5 76t83 32.5t84 -32.5t33.5 -84t-33.5 -85t-92.5 -33.5t-92 57q-15 26 -15 69.5z" />
    <glyph glyph-name="Gcommaaccent" unicode="&#x122;" horiz-adv-x="1613" 
d="M840 -129h155q2 -158 -45 -266.5t-153 -188.5l-92 103q91 85 119 207q14 60 16 145zM901 -18q-305 0 -498.5 188t-193.5 492q0 248 124 452.5t332.5 317t454.5 112.5q291 0 494 -172l-127 -145q-156 139 -393 139q-188 0 -346 -87t-251.5 -244.5t-93.5 -352.5
q0 -233 146.5 -379.5t369 -146.5t388.5 94l67 473h182l-79 -565q-115 -84 -265.5 -130t-310.5 -46z" />
    <glyph glyph-name="gcommaaccent" unicode="&#x123;" horiz-adv-x="1288" 
d="M354 479q0 -145 89 -240.5t231 -95.5q98 0 189 40t151 110l67 473q-41 70 -120.5 109.5t-178.5 39.5q-174 0 -301 -127t-127 -309zM624 -20q-200 0 -328 134t-128 343q0 264 181 443t437 179q203 0 324 -108l12 88h170l-112 -801q-56 -421 -377 -591q-179 -95 -418 -103
l18 168q207 4 356.5 90t211.5 256q-147 -98 -347 -98zM796.5 1210q-63.5 0 -106.5 46.5t-43 112.5q0 189 180 317l62 -72q-78 -61 -109 -135q70 2 112 -37t42 -97.5t-37 -96.5t-100.5 -38z" />
    <glyph glyph-name="Hbar" unicode="&#x126;" horiz-adv-x="1593" 
d="M473 885h924l43 303h-924zM-18 1188v160h374l27 178h180l-24 -178h923l25 178h180l-213 -1526h-182l100 713h-921l-101 -713h-182l168 1188h-354z" />
    <glyph glyph-name="hbar" unicode="&#x127;" horiz-adv-x="1169" 
d="M800.5 1081q189.5 0 291.5 -129t73 -340l-86 -612h-176l84 594q20 150 -42 237t-191 87q-178 0 -326 -140l-109 -778h-174l168 1200h-350v154h373l24 172h175l-25 -172h205v-154h-228l-30 -229q154 110 343.5 110z" />
    <glyph glyph-name="Imacron" unicode="&#x12a;" horiz-adv-x="612" 
d="M428 1526h184l-213 -1526h-186zM147 1884h750v-139h-750v139z" />
    <glyph glyph-name="imacron" unicode="&#x12b;" horiz-adv-x="430" 
d="M127 0v1059h174v-1059h-174zM-158 1417h748v-139h-748v139z" />
    <glyph glyph-name="Iogonek" unicode="&#x12e;" horiz-adv-x="612" 
d="M270 -215q0 -65 58 -95q28 -14 61 -14t60 5v-117q-51 -8 -93 -8q-111 0 -170 55t-59 129q0 151 147 260h-61l215 1526h184l-213 -1526q-129 -111 -129 -215z" />
    <glyph glyph-name="iogonek" unicode="&#x12f;" horiz-adv-x="430" 
d="M283 -324q43 0 69 5l-2 -117q-49 -8 -90 -8q-111 0 -170 54t-59 128q0 153 147 262h-51v1059h174v-1059q-129 -111 -129 -215q0 -49 34 -79t77 -30zM216 1227q-50 0 -83 33.5t-33 85t33 84t83 32.5t83 -32.5t33 -84t-33 -85t-83 -33.5z" />
    <glyph glyph-name="Idotaccent" unicode="&#x130;" horiz-adv-x="612" 
d="M428 1526h184l-213 -1526h-186zM522 1694q-49 0 -82.5 33.5t-33.5 85t32.5 84t82.5 32.5t84 -32.5t34 -84t-34 -85t-83 -33.5z" />
    <glyph glyph-name="dotlessi" unicode="&#x131;" horiz-adv-x="430" 
d="M127 0v1059h174v-1059h-174z" />
    <glyph glyph-name="Kcommaaccent" unicode="&#x136;" horiz-adv-x="1511" 
d="M725 -129h156q2 -158 -44 -266.5t-155 -188.5l-90 103q74 70 102.5 147.5t30.5 204.5zM1501 1526q-207 -397 -516 -656l440 -870h-223l-379 752q-184 -121 -395 -197l-78 -555h-182l213 1526h182l-108 -781q555 227 854 781h192z" />
    <glyph glyph-name="kcommaaccent" unicode="&#x137;" horiz-adv-x="1185" 
d="M586 -129h155q2 -158 -44 -266.5t-154 -188.5l-90 103q74 70 102.5 147.5t30.5 204.5zM397 557q391 145 613 502h188q-160 -270 -383 -445l326 -614h-215l-267 510q-131 -78 -286 -131l-54 -379h-174l215 1534h175z" />
    <glyph glyph-name="Lacute" unicode="&#x139;" horiz-adv-x="1196" 
d="M377 172h780l-76 -172h-913l213 1526h186zM1047 1956l-216 -301h-165l180 301h201z" />
    <glyph glyph-name="lacute" unicode="&#x13a;" horiz-adv-x="673" 
d="M471 -8q-150 0 -225.5 94t-48.5 272l163 1168h177l-164 -1159q-20 -141 51 -193q37 -27 87 -27t99 13l11 -144q-74 -24 -150 -24zM762 1956l-213 -301h-166l178 301h201z" />
    <glyph glyph-name="Lcommaaccent" unicode="&#x13b;" horiz-adv-x="1196" 
d="M739 -129q0 -158 -46 -266.5t-152 -188.5l-92 103q93 89 119 207q14 60 16 145h155zM377 172h780l-76 -172h-913l213 1526h186z" />
    <glyph glyph-name="lcommaaccent" unicode="&#x13c;" horiz-adv-x="673" 
d="M213 -481q74 70 102.5 147.5t32.5 204.5h156q2 -158 -45 -266.5t-154 -188.5zM471 -8q-150 0 -225.5 94t-48.5 272l163 1168h177l-164 -1159q-20 -141 51 -193q37 -27 87 -27t99 13l11 -144q-74 -24 -150 -24z" />
    <glyph glyph-name="Lcaron" unicode="&#x13d;" horiz-adv-x="1167" 
d="M823 1526l-104 -504h-133l47 504h190zM377 172h780l-76 -172h-913l213 1526h186z" />
    <glyph glyph-name="lcaron" unicode="&#x13e;" horiz-adv-x="712" 
d="M511 147q50 0 99 13l11 -144q-74 -25 -150 -24q-150 0 -225.5 94t-48.5 272l163 1168h328l-102 -492h-119l-94 -667q-20 -141 51 -193q37 -27 87 -27z" />
    <glyph glyph-name="Lslash" unicode="&#x141;" horiz-adv-x="1208" 
d="M416 172h782l-78 -172h-913l104 735l-301 -151v178l328 166l84 598h184l-69 -496l112 57v-180l-139 -69z" />
    <glyph glyph-name="lslash" unicode="&#x142;" horiz-adv-x="667" 
d="M639 160l10 -144q-74 -25 -149 -24q-150 0 -225.5 94t-49.5 272l54 392l-279 -144v164l305 156l84 600h176l-71 -504l41 20v-163l-66 -33l-68 -479q-20 -140 46 -189t192 -18z" />
    <glyph glyph-name="Nacute" unicode="&#x143;" horiz-adv-x="1710" 
d="M1755 1526l-217 -1549l-1032 1156l-160 -1133h-176l217 1548l1032 -1151l158 1129h178zM1309 1956l-215 -301h-166l180 301h201z" />
    <glyph glyph-name="nacute" unicode="&#x144;" horiz-adv-x="1210" 
d="M799.5 1081q188.5 0 290.5 -129t73 -340l-86 -612h-174l84 594q20 150 -43 237t-190 87q-180 0 -326 -140l-109 -778h-176l150 1059h174l-12 -88q156 110 344.5 110zM1004 1489l-213 -301h-166l178 301h201z" />
    <glyph glyph-name="Ncommaaccent" unicode="&#x145;" horiz-adv-x="1710" 
d="M842 -129h155q2 -158 -45 -266.5t-153 -188.5l-92 103q74 70 103.5 147.5t31.5 204.5zM1577 1526h178l-217 -1549l-1032 1156l-160 -1133h-176l217 1548l1032 -1151z" />
    <glyph glyph-name="ncommaaccent" unicode="&#x146;" horiz-adv-x="1210" 
d="M584 -129h155q2 -158 -45 -266.5t-153 -188.5l-92 103q97 89 121 207q12 60 14 145zM799.5 1081q188.5 0 290.5 -129t73 -340l-86 -612h-174l84 594q20 150 -43 237t-190 87q-180 0 -326 -140l-109 -778h-176l150 1059h174l-12 -88q156 110 344.5 110z" />
    <glyph glyph-name="Ncaron" unicode="&#x147;" horiz-adv-x="1710" 
d="M1755 1526l-217 -1549l-1032 1156l-160 -1133h-176l217 1548l1032 -1151l158 1129h178zM1174 1665h-189l-256 289h178l174 -187l172 187h174z" />
    <glyph glyph-name="ncaron" unicode="&#x148;" horiz-adv-x="1210" 
d="M799.5 1081q188.5 0 290.5 -129t73 -340l-86 -612h-174l84 594q20 150 -43 237t-192 87q-178 0 -324 -140l-111 -778h-174l150 1059h174l-12 -88q156 110 344.5 110zM868 1198h-188l-254 289h178l174 -187l170 187h174z" />
    <glyph glyph-name="Eng" unicode="&#x14a;" horiz-adv-x="1681" 
d="M1114 -422h-20v156h14q125 0 182.5 59.5t57.5 216.5v178l-842 945l-160 -1133h-176l217 1548l961 -1073v584h163l66 467h178l-217 -1549l-12 13q-8 -211 -107.5 -311.5t-304.5 -100.5z" />
    <glyph glyph-name="eng" unicode="&#x14b;" horiz-adv-x="1165" 
d="M799.5 1081q188.5 0 290.5 -129t73 -340l-86 -612h-22q-6 -217 -105.5 -319.5t-308.5 -102.5h-18v150h14q125 0 184.5 61t59.5 221v428h84l22 156q20 150 -43 237t-190 87q-180 0 -326 -140l-109 -778h-176l150 1059h174l-12 -88q156 110 344.5 110z" />
    <glyph glyph-name="Omacron" unicode="&#x14c;" horiz-adv-x="1769" 
d="M907 162q180 0 335 89t247 246.5t92 342.5q0 229 -140.5 377.5t-363.5 148.5q-135 0 -259 -53t-215 -143.5t-145.5 -217.5t-54.5 -266q0 -227 140.5 -375.5t363.5 -148.5zM902.5 -20q-218.5 0 -372 89t-237.5 244.5t-84 374t122 422t326.5 319t444.5 115.5
q299 0 486.5 -193.5t187.5 -488.5q0 -242 -122 -445.5t-327.5 -320t-424 -116.5zM725 1884h748v-139h-748v139z" />
    <glyph glyph-name="omacron" unicode="&#x14d;" horiz-adv-x="1306" 
d="M690.5 143q159.5 0 286.5 127t127 310q0 145 -89 240t-249 95t-287 -126.5t-127 -309.5q0 -145 89.5 -240.5t249 -95.5zM651 -20q-215 0 -349 136t-134 345q0 170 87 312t233.5 223t316.5 81q213 0 348 -135t135 -344q0 -170 -87 -312.5t-233.5 -224t-316.5 -81.5z
M428 1417h750v-139h-750v139z" />
    <glyph glyph-name="Ohungarumlaut" unicode="&#x150;" horiz-adv-x="1769" 
d="M907 162q180 0 335 89t247 246.5t92 342.5q0 229 -140.5 377.5t-363.5 148.5q-135 0 -259 -53t-215 -143.5t-146.5 -217.5t-55.5 -266q0 -227 141.5 -375.5t364.5 -148.5zM872.5 -20q-188.5 0 -342 89t-237.5 244.5t-84 374t122 422t326.5 319t444.5 115.5
q299 0 486.5 -193.5t187.5 -488.5q0 -182 -72 -346t-192.5 -280.5t-285.5 -186t-353.5 -69.5zM1548 1956l-229 -301h-166l203 301h192zM1188 1956l-227 -301h-166l202 301h191z" />
    <glyph glyph-name="ohungarumlaut" unicode="&#x151;" horiz-adv-x="1306" 
d="M690.5 143q159.5 0 286.5 127t127 310q0 145 -89 240t-249 95t-287 -126.5t-127 -309.5q0 -145 89.5 -240.5t249 -95.5zM651 -20q-215 0 -349 136t-134 345q0 170 87 312t233.5 223t316.5 81q213 0 348 -135t135 -344q0 -170 -87 -312.5t-233.5 -224t-316.5 -81.5z
M1251 1489l-229 -301h-166l205 301h190zM891 1489l-227 -301h-166l202 301h191z" />
    <glyph glyph-name="OE" unicode="&#x152;" horiz-adv-x="2512" 
d="M907 162q180 0 335 89t247 246.5t92 344.5q0 227 -140.5 375.5t-363.5 148.5q-135 0 -259 -53t-215 -143.5t-146.5 -217.5t-55.5 -266q0 -227 141.5 -375.5t364.5 -148.5zM209 687.5q0 218.5 122 422t326.5 319t444.5 115.5t412 -128q82 -62 143 -148l35 258h948
l-76 -172h-715l-65 -463h577l-24 -172h-574q-4 -33 -12 -64l-68 -483h775l-76 -172h-903l32 238q-267 -258 -639 -258q-188 0 -341.5 89t-237.5 244.5t-84 374z" />
    <glyph glyph-name="Racute" unicode="&#x154;" horiz-adv-x="1460" 
d="M780 717q215 0 330 94t115 270q0 133 -90.5 203t-264.5 70h-333l-88 -637h331zM786 547h-360l-74 -547h-182l213 1526h541q152 0 263 -52.5t171.5 -148.5t60.5 -220q0 -123 -45 -225q-90 -202 -315 -286q31 -178 125 -296t250 -144l-43 -166q-43 0 -95 12
q-170 39 -277.5 187.5t-146.5 363.5q-43 -4 -86 -4zM1182 1956l-213 -301h-166l178 301h201z" />
    <glyph glyph-name="racute" unicode="&#x155;" horiz-adv-x="802" 
d="M446 911q92 82 214 126t227 36l-23 -162q-111 -2 -236.5 -55t-209.5 -151l-101 -705h-174l150 1059h174zM811 1489l-213 -301h-166l178 301h201z" />
    <glyph glyph-name="Rcommaaccent" unicode="&#x156;" horiz-adv-x="1460" 
d="M713 -129h155q2 -158 -45 -266.5t-153 -188.5l-92 103q74 70 103.5 147.5t31.5 204.5zM782 717q213 0 328 94t115 270q0 133 -90.5 203t-264.5 70h-333l-86 -637h331zM786 547h-360l-74 -547h-182l213 1526h541q152 0 263 -52.5t171.5 -148.5t60.5 -225
q0 -178 -96 -311.5t-264 -194.5q31 -178 125 -296t250 -144l-43 -166q-43 0 -95 12q-170 39 -277.5 187.5t-146.5 363.5q-43 -4 -86 -4z" />
    <glyph glyph-name="rcommaaccent" unicode="&#x157;" horiz-adv-x="802" 
d="M408 -129h155q2 -158 -44 -266.5t-154 -188.5l-91 103q74 70 103 147.5t31 204.5zM446 911q92 82 214 126t227 36l-23 -162q-111 -2 -236.5 -55t-209.5 -151l-101 -705h-174l150 1059h174z" />
    <glyph glyph-name="Rcaron" unicode="&#x158;" horiz-adv-x="1460" 
d="M780 717q215 0 330 94t115 270q0 133 -90.5 203t-264.5 70h-333l-88 -637h331zM786 547h-360l-74 -547h-182l213 1526h541q152 0 263 -52.5t171.5 -148.5t60.5 -220q0 -123 -45 -225q-90 -202 -315 -286q31 -178 125 -296t250 -144l-43 -166q-43 0 -95 12
q-170 39 -277.5 187.5t-146.5 363.5q-43 -4 -86 -4zM1047 1665h-189l-254 289h178l174 -187l170 187h174z" />
    <glyph glyph-name="rcaron" unicode="&#x159;" horiz-adv-x="802" 
d="M446 911q92 82 214 126t227 36l-23 -162q-111 -2 -236.5 -55t-209.5 -151l-101 -705h-174l150 1059h174zM676 1198h-189l-254 289h179l174 -187l170 187h174z" />
    <glyph glyph-name="Sacute" unicode="&#x15a;" horiz-adv-x="1193" 
d="M630 -18q-155 0 -291 64.5t-222 191.5l151 131q141 -219 391 -219q139 0 224.5 76.5t85.5 206.5q-1 130 -137 204q-60 33 -132.5 60.5t-146.5 59t-134.5 71.5t-98 108t-37.5 158q0 199 152.5 325.5t365.5 126.5q256 0 430 -172l-127 -139q-133 143 -324 143
q-131 0 -219 -65.5t-88 -180t99.5 -171t204.5 -93.5q181 -64 281.5 -150t100.5 -241t-67.5 -266t-187 -170t-274.5 -59zM1051 1956l-213 -301h-166l178 301h201z" />
    <glyph glyph-name="sacute" unicode="&#x15b;" horiz-adv-x="907" 
d="M469 -16q-117 0 -223.5 51t-167.5 139l141 121q43 -74 115 -115t142.5 -41t116.5 20.5t74.5 61.5t28.5 101.5t-53 97.5t-134 53q-81 17 -124 33q-176 68 -176 231q0 143 120 241.5t285 98.5q205 0 314 -137l-117 -121q-84 104 -219 105q-86 0 -144.5 -43t-58.5 -110.5
t50 -96.5t171 -56q266 -59 267 -280q0 -100 -53.5 -182t-145.5 -127t-209 -45zM827 1489l-215 -301h-166l181 301h200z" />
    <glyph glyph-name="Scedilla" unicode="&#x15e;" horiz-adv-x="1193" 
d="M1159 465q0 -201 -130 -332t-337 -149l-14 -60q100 -2 155.5 -52t55.5 -137t-66.5 -135.5t-161 -48.5t-186.5 25l17 115q84 -27 147 -27q117 0 117 82q0 53 -53.5 73.5t-167.5 18.5l40 146q-141 10 -260.5 74.5t-197.5 179.5l151 131q141 -219 391 -219q139 0 224.5 76.5
t85.5 206.5q-1 130 -137 204q-60 33 -132.5 60.5t-146.5 59t-134.5 71.5t-98 108t-37.5 158q0 199 152.5 325.5t365.5 126.5q256 0 430 -172l-127 -139q-133 143 -324 143q-131 0 -219 -66t-88 -184q1 -118 137 -188q60 -31 133.5 -57.5t146.5 -59t133 -75.5t98 -115
t38 -168z" />
    <glyph glyph-name="scedilla" unicode="&#x15f;" horiz-adv-x="907" 
d="M717 -265q0 -87 -66.5 -135.5t-160 -48.5t-185.5 25l17 115q82 -27 147 -27q115 0 115 82q0 53 -53.5 73.5t-165.5 18.5l41 152q-102 12 -188.5 60t-139.5 124l141 121q43 -74 115 -115t142.5 -41t116.5 20.5t74.5 61.5t28.5 101.5t-53 97.5t-134 53q-81 17 -124 33
q-176 68 -176 231q0 143 120 241.5t285 98.5q205 0 314 -137l-117 -121q-84 104 -219 105q-86 0 -144.5 -43t-58.5 -110.5t50 -96.5t171 -56q266 -59 267 -280q0 -141 -100.5 -238.5t-254.5 -111.5l-16 -64q100 -2 155.5 -52t55.5 -137z" />
    <glyph glyph-name="Scaron" unicode="&#x160;" horiz-adv-x="1193" 
d="M630 -18q-155 0 -291 64.5t-222 191.5l151 131q141 -219 391 -219q139 0 224.5 76.5t85.5 206.5q-1 130 -137 204q-60 33 -133.5 60.5t-146.5 59t-133.5 71.5t-98 108t-37.5 158q0 199 152.5 325.5t365.5 126.5q256 0 430 -172l-127 -139q-133 143 -324 143
q-131 0 -219 -65.5t-88 -180t99.5 -171t204.5 -93.5q181 -64 281.5 -150t100.5 -241t-67.5 -266t-187 -170t-274.5 -59zM473 1954h178l174 -187l172 187h174l-253 -289h-189z" />
    <glyph glyph-name="scaron" unicode="&#x161;" horiz-adv-x="907" 
d="M475 -16q-123 0 -229.5 51t-167.5 139l141 121q43 -74 115 -115t142.5 -41t116.5 20.5t74.5 61.5t28.5 101.5t-53 97.5t-153 57q-98 20 -158 53q-122 68 -122.5 209t119.5 239.5t283 98.5q207 0 316 -137l-117 -121q-84 104 -219 105q-86 0 -144.5 -43t-58.5 -103
q-1 -60 21 -79q42 -36 93 -52.5t107 -28.5q266 -59 267 -280q0 -154 -116 -254t-286 -100zM248 1487h178l174 -187l172 187h174l-254 -289h-188z" />
    <glyph glyph-name="uni0162" unicode="&#x162;" horiz-adv-x="1392" 
d="M938 -265q0 -87 -66.5 -135.5t-161 -48.5t-186.5 25l17 115q84 -27 147 -27q117 0 117 82q0 53 -53.5 73.5t-167.5 18.5l45 162h-35l190 1356h-528l25 170h1286l-76 -170h-522l-191 -1356h-33l-18 -76q100 -2 155.5 -52t55.5 -137z" />
    <glyph glyph-name="uni0163" unicode="&#x163;" horiz-adv-x="890" 
d="M598 -10h-14l-17 -66q100 -2 155.5 -52t55.5 -137t-67.5 -135.5t-160.5 -48.5t-185 25l16 115q82 -27 147 -27q117 0 117 82q0 53 -54 73.5t-167 18.5l49 174q-98 37 -144 130.5t-28 226.5l76 534h-184l20 156h184l49 342h175l-50 -342h283l-74 -156h-229l-74 -526
q-16 -111 30 -170.5t128 -59.5t170 37l26 -143q-122 -51 -233 -51z" />
    <glyph glyph-name="Tcaron" unicode="&#x164;" horiz-adv-x="1392" 
d="M1567 1526l-78 -170h-520l-191 -1356h-184l190 1356h-528l25 170h1286zM1016 1665h-189l-256 289h179l174 -187l172 187h174z" />
    <glyph glyph-name="tcaron" unicode="&#x165;" horiz-adv-x="862" 
d="M635 147q82 0 170 37l26 -143q-123 -51 -233 -51q-156 0 -239 103.5t-58 275.5l76 534h-184l20 156h184l49 342h127l15 125h180l-88 -377h-94l-15 -90h283l-74 -156h-229l-74 -526q-16 -111 30 -170.5t128 -59.5z" />
    <glyph glyph-name="Tbar" unicode="&#x166;" horiz-adv-x="1366" 
d="M1053 858v-153h-176l-99 -705h-184l100 705h-391v153h412l69 498h-528l25 170h1286l-76 -170h-522l-70 -498h154z" />
    <glyph glyph-name="tbar" unicode="&#x167;" horiz-adv-x="858" 
d="M635 147q82 0 170 37l26 -143q-123 -51 -233 -51q-156 0 -239 103.5t-58 275.5l21 153h-334v154h356l33 227h-184l20 156h184l49 342h175l-50 -342h283l-74 -156h-229l-33 -227h219v-154h-239l-21 -145q-16 -111 30 -170.5t128 -59.5z" />
    <glyph glyph-name="Umacron" unicode="&#x16a;" horiz-adv-x="1599" 
d="M796.5 -20q-288.5 0 -440 181t-108.5 478l125 887h186l-127 -899q-31 -211 76.5 -341t312.5 -130t349.5 130t175.5 341l127 899h184l-123 -877q-43 -301 -246 -485t-491.5 -184zM639 1884h750v-139h-750v139z" />
    <glyph glyph-name="umacron" unicode="&#x16b;" horiz-adv-x="1210" 
d="M561.5 -23q-191.5 0 -293.5 129.5t-71 337.5l86 615h176l-84 -592q-20 -145 45 -235.5t194 -90.5q182 0 316 140l110 778h174l-147 -1059h-176l12 90q-150 -113 -341.5 -113zM1141 1417v-139h-750v139h750z" />
    <glyph glyph-name="Uring" unicode="&#x16e;" horiz-adv-x="1599" 
d="M796.5 -20q-288.5 0 -440 181t-108.5 478l125 887h186l-127 -899q-31 -211 76.5 -341t312.5 -130t349.5 130t175.5 341l127 899h184l-123 -877q-43 -301 -246 -485t-491.5 -184zM1024 2015q-49 1 -81 -17q-69 -38 -69 -104.5t40 -103.5t99.5 -37t98.5 37t39 93t-39 94
t-88 38zM1013.5 1653q-104.5 0 -175 66.5t-70.5 164.5t70.5 165t175 67t175.5 -67t71 -165t-71 -164.5t-175.5 -66.5z" />
    <glyph glyph-name="uring" unicode="&#x16f;" horiz-adv-x="1210" 
d="M561.5 -23q-191.5 0 -293.5 129.5t-71 337.5l86 615h176l-84 -592q-20 -145 45 -235.5t194 -90.5q182 0 316 140l110 778h174l-147 -1059h-176l12 90q-150 -113 -341.5 -113zM766 1548q-59 0 -99 -37.5t-40 -94t40 -93.5t89 -37q48 0 80 18q66 37 66.5 102.5t-38.5 103.5
t-98 38zM766 1186q-104 0 -175 66.5t-71 165t71 165t158 66.5t143 -31q120 -66 120 -201q0 -98 -71 -164.5t-175 -66.5z" />
    <glyph glyph-name="Uhungarumlaut" unicode="&#x170;" horiz-adv-x="1599" 
d="M796.5 -20q-288.5 0 -440 181t-108.5 478l125 887h186l-127 -899q-31 -211 76.5 -341t312.5 -130t349.5 130t175.5 341l127 899h184l-123 -877q-43 -301 -246 -485t-491.5 -184zM1462 1956l-229 -301h-166l205 301h190zM1102 1956l-228 -301h-165l202 301h191z" />
    <glyph glyph-name="uhungarumlaut" unicode="&#x171;" horiz-adv-x="1210" 
d="M561.5 -23q-191.5 0 -293.5 129.5t-71 337.5l86 615h176l-84 -592q-20 -145 45 -235.5t194 -90.5q182 0 316 140l110 778h174l-147 -1059h-176l12 90q-150 -113 -341.5 -113zM985 1188h-166l205 301h190zM854 1489l-227 -301h-166l203 301h190z" />
    <glyph glyph-name="Uogonek" unicode="&#x172;" horiz-adv-x="1599" 
d="M809 -215q0 -49 32.5 -79t76 -30t69.5 5v-117q-51 -8 -92 -8q-111 0 -170 55t-59 139q0 127 122 230q-287 4 -435 184t-105 475l125 887h186l-127 -899q-31 -211 76.5 -341t312.5 -130t349.5 130t175.5 341l127 899h184l-123 -877q-37 -264 -202 -441t-406 -218
q-117 -104 -117 -205z" />
    <glyph glyph-name="uogonek" unicode="&#x173;" horiz-adv-x="1210" 
d="M942 -203q0 -49 34 -79.5t77 -30.5t69 6l-2 -119q-49 -8 -90 -8q-111 0 -171 55t-60 139q0 133 133 240h-41l12 90q-150 -113 -341.5 -113t-293.5 129.5t-71 337.5l86 615h176l-84 -592q-20 -145 45 -235.5t194 -90.5q182 0 316 140l110 778h174l-147 -1047h4l-6 -12h-6
q-117 -105 -117 -203z" />
    <glyph glyph-name="Wcircumflex" unicode="&#x174;" horiz-adv-x="2291" 
d="M2468 1526q-344 -807 -969 -1546l-231 784q-250 -403 -570 -784l-454 1546h205l339 -1184q233 309 420 629l-164 555h205l338 -1176q432 575 694 1176h187zM1391 1845l-170 -188h-177l254 291h189l256 -291h-178z" />
    <glyph glyph-name="wcircumflex" unicode="&#x175;" horiz-adv-x="1773" 
d="M1679 1059h185q-141 -360 -339 -638t-421 -439l-152 522q-211 -313 -471 -522l-315 1077h196l218 -772q180 201 313 415l-102 357h196l217 -780q285 319 475 780zM1004 1378l-170 -188h-177l256 291h189l254 -291h-178z" />
    <glyph glyph-name="Ycircumflex" unicode="&#x176;" horiz-adv-x="1409" 
d="M1571 1526l-680 -860l-94 -666h-183l95 664l-441 862h215l344 -682l521 682h223zM918 1845l-170 -188h-177l256 291h189l254 -291h-178z" />
    <glyph glyph-name="ycircumflex" unicode="&#x177;" horiz-adv-x="1224" 
d="M1122 1059h185q-399 -1028 -1039 -1352q-193 -98 -368 -123l16 166q94 16 211 66q200 85 362 235l-303 1008h189l252 -869q274 316 495 869zM756 1378l-170 -188h-174l254 291h188l254 -291h-178z" />
    <glyph glyph-name="Ydieresis" unicode="&#x178;" horiz-adv-x="1409" 
d="M1571 1526l-680 -860l-94 -666h-183l95 664l-441 862h215l344 -682l521 682h223zM1134 1696q-41 0 -67.5 14t-41.5 42t-15 61.5t15 60.5t42 42t59 15q34 0 60 -15q58 -33 57.5 -94t-34.5 -93.5t-75 -32.5zM712 1696q-50 0 -83 32.5t-33 84t33 85t83 33.5t82.5 -33.5
t32.5 -85t-32.5 -84t-82.5 -32.5z" />
    <glyph glyph-name="Zacute" unicode="&#x179;" horiz-adv-x="1308" 
d="M1464 1526l-1056 -1354h833l-76 -172h-1099l1062 1356h-829l25 170h1140zM1102 1956l-215 -301h-166l180 301h201z" />
    <glyph glyph-name="zacute" unicode="&#x17a;" horiz-adv-x="1009" 
d="M1094 1059l-756 -912h633l-72 -147h-879l766 911h-585l20 148h873zM895 1489l-213 -301h-166l178 301h201z" />
    <glyph glyph-name="Zdotaccent" unicode="&#x17b;" horiz-adv-x="1308" 
d="M1464 1526l-1056 -1354h833l-76 -172h-1099l1062 1356h-829l25 170h1140zM870 1694q-42 0 -68 15q-58 33 -57.5 93.5t33.5 93.5t83 33t84 -32.5t34 -84t-34 -85t-75 -33.5z" />
    <glyph glyph-name="zdotaccent" unicode="&#x17c;" horiz-adv-x="1009" 
d="M1094 1059l-756 -912h633l-72 -147h-879l766 911h-585l20 148h873zM574.5 1260.5q-33.5 33.5 -33.5 85t32.5 84t83 32.5t84 -32.5t32.5 -84t-34 -85t-82 -33.5t-82.5 33.5z" />
    <glyph glyph-name="Zcaron" unicode="&#x17d;" horiz-adv-x="1308" 
d="M1464 1526l-1056 -1354h833l-76 -172h-1099l1062 1356h-829l25 170h1140zM967 1665h-189l-256 289h178l174 -187l173 187h174z" />
    <glyph glyph-name="zcaron" unicode="&#x17e;" horiz-adv-x="1009" 
d="M1094 1059l-756 -912h633l-72 -147h-879l766 911h-585l20 148h873zM762 1198h-189l-256 289h179l174 -187l172 187h174z" />
    <glyph glyph-name="florin" unicode="&#x192;" 
 />
    <glyph glyph-name="Scommaaccent" unicode="&#x218;" horiz-adv-x="1193" 
d="M502 -481q94 91 118 207q12 60 15 145h156q2 -158 -44.5 -266.5t-154.5 -188.5zM630 -18q-155 0 -291 64.5t-222 191.5l151 131q141 -219 391 -219q139 0 224.5 76.5t85.5 206.5q-1 130 -137 204q-60 33 -132.5 60.5t-146.5 59t-134.5 71.5t-98 108t-37.5 158
q0 199 152.5 325.5t365.5 126.5q256 0 430 -172l-127 -139q-133 143 -324 143q-131 0 -219 -65.5t-88 -180t99.5 -171t204.5 -93.5q181 -64 281.5 -150t100.5 -241t-67.5 -266t-187 -170t-274.5 -59z" />
    <glyph glyph-name="scommaaccent" unicode="&#x219;" horiz-adv-x="907" 
d="M621 -129q0 -158 -46.5 -266.5t-152.5 -188.5l-92 103q94 89 120 207q14 60 15 145h156zM469 -16q-117 0 -223.5 51t-167.5 139l141 121q43 -74 115 -115t142.5 -41t116.5 20.5t74.5 61.5t28.5 101.5t-53 97.5t-134 53q-81 17 -124 33q-176 68 -176 231q0 143 120 241.5
t285 98.5q205 0 314 -137l-117 -121q-84 104 -219 105q-86 0 -144.5 -43t-58.5 -110.5t50 -96.5t171 -56q266 -59 267 -280q0 -100 -53.5 -182t-145.5 -127t-209 -45z" />
    <glyph glyph-name="uni021A" unicode="&#x21a;" horiz-adv-x="1392" 
d="M684 -129h156q2 -158 -44 -266.5t-155 -188.5l-90 103q95 91 119 207q12 60 14 145zM1567 1526l-76 -170h-522l-191 -1356h-184l190 1356h-528l25 170h1286z" />
    <glyph glyph-name="uni021B" unicode="&#x21b;" horiz-adv-x="890" 
d="M524 -129h156q2 -158 -45 -266.5t-154 -188.5l-92 103q74 70 103.5 147.5t31.5 204.5zM635 147q82 0 170 37l26 -143q-123 -51 -233 -51q-156 0 -239 103.5t-58 275.5l76 534h-184l20 156h184l49 342h175l-50 -342h283l-74 -156h-229l-74 -526q-16 -111 30 -170.5
t128 -59.5z" />
    <glyph glyph-name="circumflex" unicode="&#x2c6;" 
d="M750 1190h-179l-174 188l-170 -188h-174l254 291h189z" />
    <glyph glyph-name="caron" unicode="&#x2c7;" 
d="M74 1487h178l174 -187l170 187h174l-254 -289h-188z" />
    <glyph glyph-name="breve" unicode="&#x2d8;" 
d="M393 1196q-137 0 -227 84t-90 211h137q0 -76 51 -125q50 -49 114 -49q64 -1 104 21q89 48 89 153h138q0 -84 -41 -151.5t-114 -105.5t-161 -38z" />
    <glyph glyph-name="dotaccent" unicode="&#x2d9;" 
d="M167 1227q-50 0 -83 33.5t-33 85t33 84t83 32.5t83 -32.5t33 -84t-33 -85t-83 -33.5z" />
    <glyph glyph-name="ring" unicode="&#x2da;" 
d="M217.5 1510.5q-39.5 -37.5 -39.5 -94t39 -93.5t98.5 -37t98.5 37t39 79q-1 42 -11 66t-28 42q-38 38 -97.5 38t-99 -37.5zM315 1186q-68 0 -125 29.5t-88.5 83t-31.5 118.5q0 98 70.5 165t157.5 67q88 0 144 -31q120 -66 119 -201q0 -98 -70 -164.5t-176 -66.5z" />
    <glyph glyph-name="ogonek" unicode="&#x2db;" 
d="M303 -444q-111 0 -171 55t-60 129q0 149 149 260h123q-129 -111 -129 -215q0 -49 34 -79t77 -30t69 5l-2 -117q-49 -8 -90 -8z" />
    <glyph glyph-name="tilde" unicode="&#x2dc;" horiz-adv-x="874" 
d="M287 1475q82 0 184 -45t164 -45.5t104 83.5l107 -71q-39 -84 -88 -122t-121 -38t-181.5 45t-160.5 45q-78 0 -123 -84l-111 78q76 154 226 154z" />
    <glyph glyph-name="hungarumlaut" unicode="&#x2dd;" 
d="M821 1489l-229 -301h-166l205 301h190zM463 1489l-230 -301h-165l202 301h193z" />
    <glyph glyph-name="gravecomb" unicode="&#x300;" horiz-adv-x="0" 
d="M-449 1489h201l180 -301h-165z" />
    <glyph glyph-name="acutecomb" unicode="&#x301;" horiz-adv-x="0" 
d="M-51 1489l-215 -301h-166l180 301h201z" />
    <glyph glyph-name="uni0302" unicode="&#x302;" horiz-adv-x="0" 
d="M-53 1190h-178l-175 188l-169 -188h-175l254 291h189z" />
    <glyph glyph-name="tildecomb" unicode="&#x303;" horiz-adv-x="0" 
d="M-264 1237q-78 0 -186.5 45t-159.5 45q-80 0 -123 -84l-113 78q76 154 228 154q82 0 184 -45.5t153 -45.5q70 0 113 84l107 -71q-70 -160 -203 -160z" />
    <glyph glyph-name="uni0304" unicode="&#x304;" horiz-adv-x="0" 
d="M-819 1417h749v-139h-749v139z" />
    <glyph glyph-name="uni0306" unicode="&#x306;" horiz-adv-x="0" 
d="M-391 1196q-135 0 -226.5 84t-91.5 211h138q0 -76 52 -125t128 -49t127 49t51 125h137q0 -84 -41 -151.5t-112.5 -105.5t-161.5 -38z" />
    <glyph glyph-name="uni0307" unicode="&#x307;" horiz-adv-x="0" 
d="M-168 1227q-49 0 -82 33.5t-33 85t33 84t83 32.5t83 -32.5t33 -84t-34 -85t-83 -33.5z" />
    <glyph glyph-name="uni0308" unicode="&#x308;" horiz-adv-x="0" 
d="M-168 1229q-42 0 -68 14q-58 30 -57.5 92t33.5 95.5t83 33.5t84 -33.5t33 -85t-34 -84t-74 -32.5zM-584 1229q-40 0 -66 14q-56 31 -56.5 92.5t32.5 95t74 33.5q42 0 68 -15q58 -33 57.5 -93.5t-34.5 -93.5t-75 -33z" />
    <glyph glyph-name="uni030A" unicode="&#x30a;" horiz-adv-x="0" 
d="M-319 1548q-35 0 -67 -18q-67 -37 -67 -103.5t39 -103.5t98.5 -37t98.5 37t39 79t-10.5 66.5t-27.5 42t-42.5 27.5t-60.5 10zM-314 1186q-105 0 -176 66.5t-71 165t70.5 165t176 66.5t175 -66.5t69.5 -165t-69.5 -165t-174.5 -66.5z" />
    <glyph glyph-name="uni030B" unicode="&#x30b;" horiz-adv-x="0" 
d="M-37 1489l-229 -301h-166l205 301h190zM-397 1489l-228 -301h-166l203 301h191z" />
    <glyph glyph-name="uni030C" unicode="&#x30c;" horiz-adv-x="0" 
d="M-750 1487h179l174 -187l170 187h174l-254 -289h-189z" />
    <glyph glyph-name="uni0312" unicode="&#x312;" horiz-adv-x="0" 
d="M-147 1344.5q0 -58.5 -38 -96.5t-89.5 -38t-85.5 20q-74 44 -74 139q0 187 178 317l63 -72q-78 -63 -108 -135q70 2 112 -37t42 -97.5z" />
    <glyph glyph-name="uni0326" unicode="&#x326;" horiz-adv-x="0" 
d="M-371 -481q74 70 102.5 147.5t30.5 204.5h156q2 -158 -44 -266.5t-155 -188.5z" />
    <glyph glyph-name="uni0327" unicode="&#x327;" horiz-adv-x="0" 
d="M-298 -449q-93 0 -185 25l16 115q82 -27 148 -27q115 0 114 82q0 53 -53 73.5t-166 18.5l49 176l117 2l-23 -92q98 -2 154.5 -52t56.5 -137t-67.5 -135.5t-160.5 -48.5z" />
    <glyph glyph-name="uni0328" unicode="&#x328;" horiz-adv-x="0" 
d="M-170 -444q-111 0 -170 55t-59 129q0 152 147 260h125q-129 -111 -129 -215q0 -49 33 -79t77 -30t68 5v-117q-51 -8 -92 -8z" />
    <glyph glyph-name="uni0335" unicode="&#x335;" horiz-adv-x="0" 
d="M-819 698v154h749v-154h-749z" />
    <glyph glyph-name="uni0338" unicode="&#x338;" horiz-adv-x="0" 
d="M-174 1563l135 -80l-874 -1516l-134 80z" />
    <glyph glyph-name="uni0394" unicode="&#x394;" horiz-adv-x="2355" 
 />
    <glyph glyph-name="uni03A9" unicode="&#x3a9;" horiz-adv-x="1562" 
 />
    <glyph glyph-name="uni03BC" unicode="&#x3bc;" horiz-adv-x="1226" 
 />
    <glyph glyph-name="pi" unicode="&#x3c0;" 
 />
    <glyph glyph-name="Wgrave" unicode="&#x1e80;" horiz-adv-x="2291" 
d="M2468 1526q-344 -807 -969 -1546l-231 784q-250 -403 -570 -784l-454 1546h205l339 -1184q233 309 420 629l-164 555h205l338 -1176q432 575 694 1176h187zM1579 1655h-166l-213 301h201z" />
    <glyph glyph-name="wgrave" unicode="&#x1e81;" horiz-adv-x="1773" 
d="M1679 1059h185q-141 -360 -339 -638t-421 -439l-152 522q-211 -313 -471 -522l-315 1077h196l218 -772q180 201 313 415l-102 357h196l217 -780q285 319 475 780zM1192 1188h-166l-213 301h201z" />
    <glyph glyph-name="Wacute" unicode="&#x1e82;" horiz-adv-x="2291" 
d="M2468 1526q-344 -807 -969 -1546l-231 784q-250 -403 -570 -784l-454 1546h205l339 -1184q233 309 420 629l-164 555h205l338 -1176q432 575 694 1176h187zM1630 1956l-213 -301h-166l179 301h200z" />
    <glyph glyph-name="wacute" unicode="&#x1e83;" horiz-adv-x="1773" 
d="M1679 1059h185q-141 -360 -339 -638t-421 -439l-152 522q-211 -313 -471 -522l-315 1077h196l218 -772q180 201 313 415l-102 357h196l217 -780q285 319 475 780zM1245 1489l-215 -301h-166l180 301h201z" />
    <glyph glyph-name="Wdieresis" unicode="&#x1e84;" horiz-adv-x="2291" 
d="M2468 1526q-344 -807 -969 -1546l-231 784q-250 -403 -570 -784l-454 1546h205l339 -1184q233 309 420 629l-164 555h205l338 -1176q432 575 694 1176h187zM1607 1696q-41 0 -67 14q-56 30 -56.5 91.5t32 95.5t73.5 34t69 -15q60 -32 56 -104q0 -51 -33 -83.5t-74 -32.5z
M1184 1696q-49 0 -83 32.5t-34 84t34 85t83 33.5t82.5 -33.5t33.5 -85t-33.5 -84t-82.5 -32.5z" />
    <glyph glyph-name="wdieresis" unicode="&#x1e85;" horiz-adv-x="1773" 
d="M1679 1059h185q-141 -360 -339 -638t-421 -439l-152 522q-211 -313 -471 -522l-315 1077h196l218 -772q180 201 313 415l-102 357h196l217 -780q285 319 475 780zM1220 1229q-42 0 -68 14q-56 30 -56 92t33.5 95.5t83 33.5t83 -33.5t33.5 -85t-34 -84t-75 -32.5z
M798 1229q-50 0 -83 32.5t-33 84t33 85t83 33.5t82.5 -33.5t32.5 -85t-32.5 -84t-82.5 -32.5z" />
    <glyph glyph-name="Ygrave" unicode="&#x1ef2;" horiz-adv-x="1409" 
d="M1571 1526l-680 -860l-94 -666h-183l95 664l-441 862h215l344 -682l521 682h223zM1106 1655h-166l-213 301h201z" />
    <glyph glyph-name="ygrave" unicode="&#x1ef3;" horiz-adv-x="1224" 
d="M1122 1059h185q-399 -1028 -1039 -1352q-193 -98 -368 -123l16 166q94 16 211 66q200 85 362 235l-303 1008h189l252 -869q274 316 495 869zM944 1188h-166l-213 301h201z" />
    <glyph glyph-name="endash" unicode="&#x2013;" horiz-adv-x="1523" 
d="M1491 758l-74 -160h-1190l23 160h1241z" />
    <glyph glyph-name="emdash" unicode="&#x2014;" horiz-adv-x="2158" 
d="M2134 758l-76 -160h-1831l23 160h1884z" />
    <glyph glyph-name="quoteleft" unicode="&#x2018;" horiz-adv-x="487" 
d="M369 1018h-207l241 579h140z" />
    <glyph glyph-name="quoteright" unicode="&#x2019;" horiz-adv-x="503" 
d="M451 1597h206l-243 -579h-140z" />
    <glyph glyph-name="quotesinglbase" unicode="&#x201a;" horiz-adv-x="501" 
d="M449 317h206l-243 -579h-140z" />
    <glyph glyph-name="quotedblleft" unicode="&#x201c;" horiz-adv-x="866" 
d="M862 1018h-207l242 579h141zM481 1018h-205l242 579h139z" />
    <glyph glyph-name="quotedblright" unicode="&#x201d;" horiz-adv-x="864" 
d="M717 1597h205l-242 -579h-139zM336 1597h207l-244 -579h-139z" />
    <glyph glyph-name="quotedblbase" unicode="&#x201e;" horiz-adv-x="864" 
d="M422 317h207l-244 -579h-139zM43 317h207l-244 -579h-139z" />
    <glyph glyph-name="dagger" unicode="&#x2020;" horiz-adv-x="962" 
d="M844 1270v-148h-285v-616h-153v616h-287v148h287v327h153v-327h285z" />
    <glyph glyph-name="daggerdbl" unicode="&#x2021;" horiz-adv-x="962" 
d="M844 1198h-285v-205h285v-147h-285v-340h-153v340h-287v147h287v205h-287v148h287v251h153v-251h285v-148z" />
    <glyph glyph-name="bullet" unicode="&#x2022;" horiz-adv-x="552" 
d="M404 954q54 0 86 -32t32 -87t-44 -99t-90 -44t-72 14q-54 30 -54 97t44 109t98 42z" />
    <glyph glyph-name="ellipsis" unicode="&#x2026;" horiz-adv-x="1323" 
d="M1118 -12q-44 0 -70 14q-50 28 -52 91q-1 65 41 107q43 42 97 42t84 -31t30 -85t-43 -96q-42 -42 -87 -42zM674 -12q-45 0 -71 14q-52 28 -52 92t42 106t96 42t85 -31t31 -85t-43 -96t-88 -42zM221 -12q-53 0 -84 32t-31 84q0 54 44 96t96 42q53 0 84 -31q30 -31 30 -85
t-43 -96t-96 -42z" />
    <glyph glyph-name="perthousand" unicode="&#x2030;" horiz-adv-x="2646" 
d="M2219 127q97 0 163 66t65 163q1 64 -29 116t-82 83t-116 31q-98 0 -164 -67t-66 -164t66 -163t163 -65zM1372 127q64 0 116 30t82 82t29 117q0 96 -65 163q-66 67 -163 67t-163 -67t-66 -164t66 -163t164 -65zM2220 725q160 0 268 -105q108 -106 107 -264
q1 -158 -107 -264t-269 -106t-269 106t-107 264q0 102 49 188q50 86 136 133q86 48 192 48zM1372 725q160 0 268 -105q108 -106 107 -264q1 -158 -107 -264t-269 -106t-269 106t-107 264q0 102 49 188q50 86 136 133q86 48 192 48zM455 944q60 0 104 23t73 62q50 66 50 153
q0 88 -66 154t-162 65q-96 0 -163 -66q-66 -66 -66 -163q0 -96 66 -162t164 -66zM1280 1526h170l-922 -1526h-170zM454 803q-161 0 -269 105q-107 105 -107 266t108 264q108 104 269 104q159 0 267 -105t108 -265t-108 -264q-107 -105 -268 -105z" />
    <glyph glyph-name="guilsinglleft" unicode="&#x2039;" 
 />
    <glyph glyph-name="guilsinglright" unicode="&#x203a;" 
 />
    <glyph glyph-name="fraction" unicode="&#x2044;" 
 />
    <glyph glyph-name="Euro" unicode="&#x20ac;" horiz-adv-x="1404" 
d="M888 156q230 0 382 145l100 -135q-92 -82 -212 -129t-240 -47q-252 0 -433 146q-180 146 -241 392h-207v156h182q-2 37 -2 74t2 73h-182v156h207q59 249 237 399t422 150t451 -180l-107 -142q-152 156 -331 156t-306 -103t-180 -280h649l-53 -156h-625q-4 -37 -4 -75
t4 -72h611l-54 -156h-528q70 -234 270 -327q98 -45 188 -45z" />
    <glyph glyph-name="uni2113" unicode="&#x2113;" 
 />
    <glyph glyph-name="trademark" unicode="&#x2122;" horiz-adv-x="1697" 
d="M92 1419v107h656l-35 -107h-244v-655h-115v655h-262zM1606 764h-111v506l-266 -264l-258 264v-506h-113v770l371 -377l377 375v-768z" />
    <glyph glyph-name="uni2126" unicode="&#x2126;" 
 />
    <glyph glyph-name="estimated" unicode="&#x212e;" 
 />
    <glyph glyph-name="partialdiff" unicode="&#x2202;" 
 />
    <glyph glyph-name="emptyset" unicode="&#x2205;" 
 />
    <glyph glyph-name="uni2206" unicode="&#x2206;" 
 />
    <glyph glyph-name="product" unicode="&#x220f;" 
 />
    <glyph glyph-name="summation" unicode="&#x2211;" 
 />
    <glyph glyph-name="minus" unicode="&#x2212;" horiz-adv-x="1267" 
d="M150 707v161h968v-161h-968z" />
    <glyph glyph-name="radical" unicode="&#x221a;" 
 />
    <glyph glyph-name="infinity" unicode="&#x221e;" 
 />
    <glyph glyph-name="integral" unicode="&#x222b;" 
 />
    <glyph glyph-name="approxequal" unicode="&#x2248;" 
 />
    <glyph glyph-name="notequal" unicode="&#x2260;" 
 />
    <glyph glyph-name="lessequal" unicode="&#x2264;" horiz-adv-x="1335" 
d="M174 0v137h1002v-137h-1002zM1176 1206v-149l-840 -303l840 -303v-154l-1008 385v137z" />
    <glyph glyph-name="greaterequal" unicode="&#x2265;" horiz-adv-x="1335" 
d="M160 0v137h1001v-137h-1001zM160 1206l1007 -387v-137l-1007 -385v154l839 303l-839 303v149z" />
    <glyph glyph-name="lozenge" unicode="&#x25ca;" 
 />
    <glyph glyph-name="Oslash.ss01" horiz-adv-x="1771" 
d="M907 162q180 0 335 89t247 246.5t92 342.5q-1 276 -191 424q-92 72 -214 94l-80 -570h-174l79 574q-252 -29 -426 -221.5t-174 -437t141.5 -393t364.5 -148.5zM902 -20q-218 0 -371.5 89t-237.5 244.5t-84 367.5t110.5 407.5t298 315.5t410.5 138l31 223h174l-31 -227
q259 -33 416.5 -219.5t157.5 -442.5t-122 -459.5t-328 -320t-424 -116.5z" />
    <glyph glyph-name="i.loclTRK" horiz-adv-x="430" 
d="M127 0v1059h174v-1059h-174zM216 1227q-50 0 -83 33.5t-33 85t33 84t83 32.5t83 -32.5t33 -84t-33 -85t-83 -33.5z" />
    <glyph glyph-name="ae.alt" horiz-adv-x="1916" 
d="M588 487q-340 5 -340 -169q0 -180 224 -180.5t353 181.5q-31 78 -37 168h-200zM1096 839q-92 -83 -119 -216h655q-15 128 -103 213.5t-214.5 85.5t-218.5 -83zM496 1077q285 0 397 -209q72 98 181.5 154.5t240.5 56.5q217 0 360.5 -149.5t143.5 -378.5q0 -45 -4 -76h-844
q12 -96 62 -171t128 -118t172 -43q203 0 322 154l121 -113q-76 -96 -191 -150t-252 -54t-249.5 55t-186.5 155q-72 -96 -191.5 -153t-279.5 -57t-261.5 87t-101.5 230q0 340 504 336h219q-6 285 -297 285q-176 0 -311 -115l-82 137q157 137 400 137z" />
    <glyph glyph-name="oslash.ss01" horiz-adv-x="1306" 
d="M690.5 143q159.5 0 286.5 127t127 310q0 119 -61.5 205.5t-165.5 117.5l-52 -364h-168l54 370q-154 -27 -257.5 -147.5t-103.5 -274t90.5 -249t250 -95.5zM1288 604q0 -176 -87 -318.5t-233.5 -224t-316.5 -81.5q-215 0 -349 136t-134 360.5t164 398.5t401 200l25 168
h168l-25 -172q174 -31 280.5 -161t106.5 -306z" />
    <glyph glyph-name="zero.osf" horiz-adv-x="1290" 
d="M645 143q103 1 189 51t135 139t49 195q0 166 -106 277t-267 111q-160 0 -266 -112q-106 -110 -107 -276q0 -106 48 -195t135 -139q86 -50 190 -51zM645 -20q-239 0 -397 158t-158 391q0 235 159 393t396 157q156 1 283 -71q126 -72 198 -198t72 -282q0 -232 -158 -390
t-395 -158z" />
    <glyph glyph-name="one.osf" horiz-adv-x="714" 
d="M559 1059v-1059h-180v903h-299l51 156h428z" />
    <glyph glyph-name="two.osf" horiz-adv-x="1161" 
d="M74 0v25l358 268q200 148 265 216q65 69 79 111t14 99t-28 104q-62 101 -205 101q-184 0 -338 -211l-121 104q92 125 212 195t245 69q180 0 293 -100t113 -261t-107 -277q-59 -65 -124 -117t-177 -131l-49 -35h561l-55 -160h-936z" />
    <glyph glyph-name="three.osf" horiz-adv-x="1189" 
d="M612 -422q-158 0 -308 77t-238 195l133 132q158 -232 421 -232q133 0 227 90q93 90 93 243t-114 238t-326 85q-45 0 -64 -3l320 490h-619v166h907l-337 -514q193 -37 305 -166t110 -307q0 -214 -144 -354t-366 -140z" />
    <glyph glyph-name="four.osf" horiz-adv-x="1263" 
d="M805 152v518l-461 -518h461zM1247 152v-152h-276v-406h-166v406h-778l944 1087v-935h276z" />
    <glyph glyph-name="five.osf" horiz-adv-x="1230" 
d="M582 561q242 0 394 -136t152 -354q0 -219 -148 -361t-376 -142q-158 0 -305 74t-242 196l131 129q74 -107 184 -167t248 -60t232 91t94 241t-113 239q-115 88 -273 88t-337 -47l135 707h775l-52 -164h-585l-70 -348q84 14 156 14z" />
    <glyph glyph-name="six.osf" horiz-adv-x="1280" 
d="M254 563q0 -175 114 -293t278 -118q165 0 274 108q108 108 108 270t-108 270q-109 108 -273 107q-209 0 -366 -153q-27 -96 -27 -191zM655 1071q238 0 396 -155q157 -155 157 -387t-160 -389t-397 -156q-164 0 -295 76t-205 207q-75 132 -75 296q0 244 150 502
q151 258 399 461h229q-94 -86 -160 -150t-154 -166q-88 -104 -147 -200q121 61 262 61z" />
    <glyph glyph-name="seven.osf" horiz-adv-x="1171" 
d="M63 1059h1096l-805 -1465h-200l723 1297h-814v168z" />
    <glyph glyph-name="eight.osf" horiz-adv-x="1300" 
d="M650 150q163 0 271 98q107 98 107 246t-108 246t-259 100q-152 0 -258 -80q-70 -51 -100 -123q-29 -73 -31 -145q0 -146 108 -244t270 -98zM651 1391q-98 -1 -165 -57q-66 -56 -66 -140t66 -141t148 -57q80 0 132 25q52 26 84 72q31 45 31 115t-66 126t-164 57zM651 -18
q-159 0 -287 66t-202 182t-74 260t78 262t209 182q-131 102 -131 257t116 254q117 99 291 99t290 -99t116 -254t-131 -257q131 -63 209 -181t77 -264q0 -217 -160 -362t-401 -145z" />
    <glyph glyph-name="nine.osf" horiz-adv-x="1230" 
d="M621 186q209 0 344 170q20 78 20 174t-47 187q-47 90 -132 140t-194 50q-154 0 -254 -104t-100 -262q0 -159 102 -257t261 -98zM612 1075q158 0 284 -73q126 -74 197 -202t70 -288q0 -223 -142 -471t-386 -457h-232q299 268 439 492q-106 -57 -230 -58q-227 0 -382 148
q-154 148 -154 374t153 381q154 154 383 154z" />
    <glyph glyph-name="zero.tf" horiz-adv-x="1269" 
d="M635 162q169 0 281 172t112 430q0 170 -51 307t-141 216t-201 79q-168 0 -281 -172q-112 -172 -112 -430t112 -430t281 -172zM635 -14q-162 0 -294 101t-207 279t-75 370q0 360 164 583q76 103 184 163t228 60q162 0 294 -101t207 -279q74 -178 74 -398q0 -219 -74 -397
q-74 -177 -207 -279q-132 -102 -294 -102z" />
    <glyph glyph-name="one.tf" horiz-adv-x="1269" 
d="M739 164h467l-53 -164h-1055v164h465v1196h-315l53 166h438v-1362z" />
    <glyph glyph-name="two.tf" horiz-adv-x="1269" 
d="M623 1372q-235 0 -408 -244l-127 125q100 137 244 215t299 78q209 0 345 -128t136 -328q0 -123 -64 -248t-243 -320l-330 -358h719l-53 -164h-1028l563 621q150 164 205 262q55 99 55 213t-87 195t-226 81z" />
    <glyph glyph-name="three.tf" horiz-adv-x="1269" 
d="M209 397q167 -241 453 -241q144 0 246 95t102 257t-123 253t-352 91q-45 0 -62 -2l342 512h-668v166h959l-361 -539q166 -28 280 -123q164 -137 165 -365q2 -229 -151 -373t-386 -144q-169 0 -327 80t-254 200z" />
    <glyph glyph-name="four.tf" horiz-adv-x="1269" 
d="M809 436v658l-479 -658h479zM1260 436v-155h-283v-281h-168v281h-789l957 1271v-1116h283z" />
    <glyph glyph-name="five.tf" horiz-adv-x="1269" 
d="M618 1014q254 0 414 -136t160 -368t-159 -378q-159 -148 -402 -148q-162 0 -317 74t-253 204l132 129q77 -111 193 -173t245 -62q170 0 274 97q105 97 105 257t-121 251t-289 91t-346 -49l139 725h801l-53 -166h-613l-69 -363q83 15 159 15z" />
    <glyph glyph-name="six.tf" horiz-adv-x="1269" 
d="M252 563q0 -175 112 -293t277 -118q163 0 271 108t108 272q0 162 -108 270t-269 107q-207 0 -364 -153q-27 -96 -27 -193zM651 1073q237 -1 393 -155t156 -388t-159 -390t-401 -156t-404 166t-162 412t150 505q151 258 397 461h229q-94 -86 -159 -150t-153 -166
q-88 -104 -145 -200q119 61 258 61z" />
    <glyph glyph-name="seven.tf" horiz-adv-x="1269" 
d="M82 1528h1206l-895 -1528h-205l809 1360h-915v168z" />
    <glyph glyph-name="eight.tf" horiz-adv-x="1269" 
d="M635 150q158 0 264 98q107 98 107 246t-106 247q-106 101 -264 101q-159 0 -265 -100q-107 -100 -107 -248t106 -246t265 -98zM635 1393q-95 -1 -159 -57t-64 -140t63 -141t159 -57t160 56q64 58 64 142q0 133 -134 181q-42 16 -89 16zM1188 489q0 -217 -159 -362
t-394 -145q-156 0 -283 66q-126 66 -198 182t-72 260t76 264t207 182q-131 100 -131 256t114 255q115 99 287 99t287 -99q114 -99 114 -255t-131 -256q131 -63 207 -182t76 -265z" />
    <glyph glyph-name="nine.tf" horiz-adv-x="1269" 
d="M639 621q217 0 360 176q23 84 23 166q0 182 -110 298q-110 115 -276 115t-272 -110t-106 -275q0 -164 108 -267t273 -103zM629 1544q247 0 409 -166t162 -406t-147 -498t-402 -474h-229q309 283 452 514q-113 -61 -255 -61q-142 -1 -269 69q-126 70 -200 193t-74 275
t72 281q73 129 200 201t281 72z" />
    <glyph glyph-name="ampersand.alt" horiz-adv-x="1320" 
 />
    <glyph glyph-name="bowlright" horiz-adv-x="1372" 
d="M649 -20q-231 0 -373 139l15 205q43 -82 136 -131t202 -50q158 0 264 111q106 112 106 276t-106 275t-264 110q-109 0 -202 -49t-136 -131l-15 207q140 137 372 137q232 1 384 -155t152 -395t-152 -394t-383 -155z" />
    <glyph glyph-name="bowlleft" 
d="M634 -20q-230 0 -382 156t-152 394t152 394t383 156t371 -138l-13 -207q-45 82 -137 131t-203 49q-158 -1 -263 -111t-105 -275t105 -275t263 -111q111 -1 203 49t137 132l13 -207q-142 -137 -372 -137z" />
    <glyph glyph-name="nright" horiz-adv-x="1163" 
d="M622 1081q188 0 310 -129q121 -129 121 -340v-612h-174v594q0 179 -108 267q-67 55 -171 57q-178 0 -305 -140v-778h-174v1059h174v-88q139 110 327 110z" />
    </font>
</defs>
</svg>
