<?xml version="1.0" encoding="utf-8"?>
<!-- Generator: Adobe Illustrator 21.0.2, SVG Export Plug-In . SVG Version: 6.00 Build 0)  -->
<svg version="1.1" id="Layer_1" xmlns="http://www.w3.org/2000/svg" xmlns:xlink="http://www.w3.org/1999/xlink" x="0px" y="0px"
	 viewBox="0 0 169 152" style="enable-background:new 0 0 169 152;" xml:space="preserve">
<style type="text/css">
	.st0{display:none;fill:none;stroke:#000000;stroke-width:7;stroke-miterlimit:10;}
</style>
<path class="st0" d="M82.4,5.5C39.6,5.5,4.9,35.7,4.9,72.9c0,16.2,6.6,31.1,17.6,42.8c0.2,6.4-1.3,15.5-9.6,23.4
	c13.7,4.8,27.6-5.4,30.6-7.9c11.4,5.8,24.7,9.1,38.9,9.1c42.8,0,77.5-30.2,77.5-67.4S125.1,5.5,82.4,5.5z"/>
<g>
	<path d="M149,11c-2.6-2.6-6.9-2.6-9.5,0L84,66.5L28.4,11c-2.6-2.6-6.8-2.6-9.5,0c-2.6,2.6-2.6,6.8,0,9.5L74.5,76L19,131.6
		c-2.6,2.6-2.6,6.9,0,9.5c1.3,1.3,3,2,4.7,2c1.7,0,3.4-0.7,4.7-2L84,85.5l55.6,55.6c1.3,1.3,3,2,4.7,2s3.4-0.7,4.7-2
		c2.6-2.6,2.6-6.9,0-9.5L93.5,76L149,20.4C151.7,17.8,151.7,13.6,149,11L149,11z M149,11"/>
</g>
</svg>
